<svg xmlns="http://www.w3.org/2000/svg" viewBox="68 603 21.679 28.906"><defs><style>.a{fill:#e64a33;}</style></defs><g transform="translate(-63 -17)"><path class="a" d="M24.632,7.6a.6.6,0,0,0-.13-.2L17.277.177A.611.611,0,0,0,16.851,0H3.6A.6.6,0,0,0,3,.6V28.3a.6.6,0,0,0,.6.6H24.077a.6.6,0,0,0,.6-.6V7.829A.6.6,0,0,0,24.632,7.6ZM17.453,2.056l5.171,5.171H17.453ZM4.2,27.7V1.2H16.248V7.829a.6.6,0,0,0,.6.6h6.624V27.7Z" transform="translate(128 620)"/><path class="a" d="M7.6,8.2h5.42a.6.6,0,0,0,0-1.2H7.6a.6.6,0,0,0,0,1.2Z" transform="translate(128.818 621.431)"/><path class="a" d="M18.442,10H7.6a.6.6,0,1,0,0,1.2h10.84a.6.6,0,1,0,0-1.2Z" transform="translate(128.818 622.044)"/><path class="a" d="M18.442,13H7.6a.6.6,0,1,0,0,1.2h10.84a.6.6,0,1,0,0-1.2Z" transform="translate(128.818 622.657)"/><path class="a" d="M18.442,16H7.6a.6.6,0,1,0,0,1.2h10.84a.6.6,0,1,0,0-1.2Z" transform="translate(128.818 623.27)"/><path class="a" d="M18.442,19H7.6a.6.6,0,1,0,0,1.2h10.84a.6.6,0,1,0,0-1.2Z" transform="translate(128.818 623.884)"/></g></svg>