<svg xmlns="http://www.w3.org/2000/svg" viewBox="68 523 28.907 28.906"><defs><style>.a{fill:#e64a33;}</style></defs><path class="a" d="M27.675,22.482c-.88-1.322-3.16-2.194-5.8-3.206-.54-.206-1.086-.416-1.628-.632l-.014.037a5.286,5.286,0,0,0-1.675-1.407l-.49-.248V15.284A5.1,5.1,0,0,0,19.9,11.748a2.175,2.175,0,0,0,.625-1.179,2.627,2.627,0,0,0-.491-2.438c.033-.081.071-.175.112-.277.464-1.163,1.33-3.33.989-5.03C20.733.83,17.919.059,15.632,0c-1.987-.046-4.4.4-5.137,1.756a2.277,2.277,0,0,0-1.651.889c-1.047,1.41-.287,3.917.122,5.262.023.073.043.141.063.2a2.671,2.671,0,0,0-.537,2.515,2.1,2.1,0,0,0,.59,1.12,5.157,5.157,0,0,0,1.758,3.533v1.764l-.407.228a5.2,5.2,0,0,0-1.667,1.419c-.538.214-1.083.423-1.622.628-2.627,1-4.895,1.86-5.764,3.165C.093,24.412,0,28.134,0,28.292a.6.6,0,0,0,.6.614H28.3a.6.6,0,0,0,.6-.59C28.909,28.158,28.97,24.423,27.675,22.482ZM19.928,20.5l.73,2.208-4.591-2.647a5.3,5.3,0,0,0,1.823-1.036.607.607,0,0,0,.176-.426v-.225A4.432,4.432,0,0,1,19.928,20.5Zm-4.271,1.109a1.2,1.2,0,1,1-2.409,0v-.35l1.242-.718,1.167.673ZM10.274,11.373a.6.6,0,0,0-.44-.579,2.118,2.118,0,0,1-.212-1.271A.8.8,0,0,1,9.977,8.9a.6.6,0,0,0,.332-.538,3.073,3.073,0,0,0-.192-.8c-.3-.978-.992-3.27-.307-4.194a1.27,1.27,0,0,1,1.1-.424.6.6,0,0,0,.584-.456c.164-.658,1.787-1.325,4.109-1.279,2.352.057,4.141.818,4.347,1.854.27,1.348-.508,3.3-.927,4.347a2.953,2.953,0,0,0-.3.955.6.6,0,0,0,.332.538.729.729,0,0,1,.338.6,2.112,2.112,0,0,1-.243,1.289.6.6,0,0,0-.447.582,3.872,3.872,0,0,1-1.571,3.11.6.6,0,0,0-.272.5v3.337a5.254,5.254,0,0,1-2.372.868,5.652,5.652,0,0,1-2.446-.871V14.987a.6.6,0,0,0-.264-.5A3.92,3.92,0,0,1,10.274,11.373Zm.566,7.043V18.6a.607.607,0,0,0,.176.426,5.276,5.276,0,0,0,1.89,1.042L8.35,22.7l.737-2.2A4.36,4.36,0,0,1,10.84,18.417ZM2.382,23.15c.655-.985,2.96-1.861,5.19-2.709l.306-.118L6.7,23.828a.6.6,0,0,0,.872.713l4.5-2.6A2.4,2.4,0,0,0,13,23.521,10.983,10.983,0,0,0,10.91,27.7H1.237A10.893,10.893,0,0,1,2.382,23.15ZM14.453,27.7H12.171c.559-1.732,1.522-3.682,2.282-3.682s1.654,1.954,2.156,3.682Zm3.406,0a10.614,10.614,0,0,0-1.964-4.172,2.4,2.4,0,0,0,.938-1.636l4.591,2.647a.6.6,0,0,0,.873-.711l-1.176-3.555.322.125c2.243.859,4.561,1.746,5.23,2.748A10.115,10.115,0,0,1,27.694,27.7H17.859Z" transform="translate(68 523)"/></svg>