<svg xmlns="http://www.w3.org/2000/svg" viewBox="2790.712 791 64.662 104.007">
  <defs>
    <style>
      .cls-1 {
        fill: #b3b3b3;
      }
    </style>
  </defs>
  <path id="gender-female" class="cls-1" d="M68.662,32.5A32.331,32.331,0,1,0,34.176,64.9V86.673H23.4a2.167,2.167,0,0,0,0,4.334H34.176V101.84a2.155,2.155,0,1,0,4.311,0V91.006H49.263a2.167,2.167,0,0,0,0-4.334H38.486V64.9A32.447,32.447,0,0,0,68.662,32.5Zm-60.351,0a28.021,28.021,0,1,1,28.02,28.169A28.127,28.127,0,0,1,8.311,32.5Z" transform="translate(2786.712 791)"/>
</svg>
