<svg xmlns="http://www.w3.org/2000/svg">
      <path d="m75 320l-64 0c-6 0-11 5-11 11l0 128c0 6 5 10 11 10l64 0c6 0 10-4 10-10l0-128c0-6-4-11-10-11z m-11 128l-43 0 0-107 43 0z m117-192l-64 0c-6 0-10 5-10 11l0 192c0 6 4 10 10 10l64 0c6 0 11-4 11-10l0-192c0-6-5-11-11-11z m-10 192l-43 0 0-171 43 0z m117-256l-64 0c-6 0-11 5-11 11l0 256c0 6 5 10 11 10l64 0c6 0 11-4 11-10l0-256c0-6-5-11-11-11z m-11 256l-42 0 0-235 42 0z m118-320l-64 0c-6 0-11 5-11 11l0 320c0 6 5 10 11 10l64 0c6 0 10-4 10-10l0-320c0-6-4-11-10-11z m-11 320l-43 0 0-299 43 0z m117-384l-64 0c-6 0-10 5-10 11l0 384c0 6 4 10 10 10l64 0c6 0 11-4 11-10l0-384c0-6-5-11-11-11z m-10 384l-43 0 0-363 43 0z"/>
  </svg>
