<svg xmlns="http://www.w3.org/2000/svg">
      <path d="m498 400l-485 0c-2 0-4-2-6-4-1-2-1-4 0-6l12-18 0-86-12-20c-1-2-1-5 0-7 2-2 4-3 6-3l151 0c3 0 7 3 7 7 0 3-3 6-7 6l-139 0 7 12c0 1 0 2 0 3l0 90c0 1 0 2-1 3l-7 10 460 0-6-9c0-1-1-2-1-4l0-92c0-1 1-2 1-3l6-10-138 0c-3 0-7-2-7-6 0-4 3-7 7-7l151 0c2 0 4 1 6 3 1 2 1 5 0 7l-12 18 0 88 12 18c1 2 1 4 0 6 0 2-2 4-5 4z m-334-171l13 0 0 157-13 0z m171 0l12 0 0 157-12 0z m19 0l-196 0c-3 0-6-2-7-5 0-3 1-6 4-8l98-45c2-1 4-1 5 0l97 45c3 1 5 4 5 6 1 4-2 7-6 7z m-167-13l138 0-69-32z m56-104l12 0 0 65-12 0z m92 143l-158 0c-3 0-6-2-6-6 0-4 2-7 6-7l158 0c3 0 6 3 6 7 0 4-3 6-6 6z m-125 138c-3 0-6-3-6-7l0-131c0-3 2-6 6-6 4 0 7 2 7 6l0 131c-1 4-3 7-7 7z m92 0c-4 0-7-3-7-7l0-131c0-3 3-6 7-6 3 0 6 2 6 6l0 131c0 4-3 7-6 7z m12-229l-65 0c-3 0-6-3-6-7l0-39c0-3 2-6 6-6l65 0c4 0 7 2 7 6l0 39c0 4-3 7-7 7z m-58-13l52 0 0-27-52 0z m-177 223l-26 0c-3 0-7-3-7-7l0-26c0-4 3-7 7-7l26 0c4 0 7 3 7 7l0 26c-1 3-3 7-7 7z m-20-14l13 0 0-13-13 0z m20-39l-26 0c-3 0-7-3-7-7l0-26c0-3 3-6 7-6l26 0c4 0 7 2 7 6l0 26c-1 4-3 7-7 7z m-20-13l13 0 0-13-13 0z m73 66l-27 0c-3 0-6-3-6-7l0-26c0-4 2-7 6-7l27 0c3 0 6 3 6 7l0 26c0 3-3 7-6 7z m-20-14l12 0 0-13-12 0z m20-39l-27 0c-3 0-6-3-6-7l0-26c0-3 2-6 6-6l27 0c3 0 6 2 6 6l0 26c0 4-3 7-6 7z m-20-13l12 0 0-13-12 0z m295 66l-27 0c-3 0-6-3-6-7l0-26c0-4 2-7 6-7l27 0c3 0 6 3 6 7l0 26c0 3-3 7-6 7z m-20-14l13 0 0-13-13 0z m20-39l-27 0c-3 0-6-3-6-7l0-26c0-3 2-6 6-6l27 0c3 0 6 2 6 6l0 26c0 4-3 7-6 7z m-20-13l13 0 0-13-13 0z m72 66l-26 0c-4 0-7-3-7-7l0-26c0-4 3-7 7-7l26 0c3 0 7 3 7 7l0 26c0 3-4 7-7 7z m-20-14l13 0 0-13-13 0z m20-39l-26 0c-4 0-7-3-7-7l0-26c0-3 3-6 7-6l26 0c3 0 7 2 7 6l0 26c0 4-4 7-7 7z m-20-13l13 0 0-13-13 0z m-157 78l-13 0 0-30c0-4-7-9-12-9-6 0-13 5-13 9l0 30-13 0 0-30c0-13 14-22 26-22 12 0 27 9 27 22l0 30z m-7-65l-38 0c-4 0-7-3-7-7l0-39c0-3 2-6 7-6l38 0c4 0 7 2 7 6l0 39c0 4-3 7-7 7z m-32-13l26 0 0-26-26 0z"/>
</svg>
