<svg xmlns="http://www.w3.org/2000/svg">
      <path d="m384 139c-8 0-15 2-21 6l0-28c0-23-19-42-43-42-8 0-15 2-21 6l0-6c0-24-19-43-43-43-24 0-43 19-43 43l0 6c-6-4-13-6-21-6-24 0-43 19-43 42l0 185-39-46c-14-12-36-11-49 2-12 13-14 32-5 45 2 4 46 97 83 155 22 34 59 54 99 54l71 0c65 0 118-53 118-117l0-214c0-23-19-42-43-42z m21 170l0 86c0 53-43 96-96 96l-71 0c-33 0-63-17-81-45-36-56-81-151-83-153-4-6-3-14 2-20 6-5 14-5 19-2l57 67c3 3 7 4 12 3 4-2 7-6 7-10l0-214c0-11 9-21 21-21 12 0 21 10 21 21l0 128 22 0 0-170c0-12 9-22 21-22 12 0 21 10 21 22l0 170 22 0 0-128c0-11 9-21 21-21 12 0 21 10 21 21l0 160 22 0 0-96c0-11 9-21 21-21 12 0 21 10 21 21z"/>
</svg>
