<svg xmlns="http://www.w3.org/2000/svg">
    <path d="m375 58c-34-5-64-13-80-20-19-8-37-16-71-16l-117 0c-24 0-43 19-43 43 0 9 3 17 7 24-16 6-28 21-28 40 0 9 2 17 7 24-17 6-29 21-29 40 0 9 3 17 8 24-17 6-29 21-29 40 0 23 19 42 43 42l134 0c-9 27-26 86-17 118 14 49 42 52 51 52 19 0 34-16 34-38 0-67 74-170 128-170 6 0 11-5 11-11l0-181c0-5-4-10-9-11z m126-36l-85 0c-6 0-11 5-11 11l0 255c0 6 5 11 11 11l85 0c6 0 11-5 11-11l0-255c0-6-5-11-11-11z m-64 64c-6 0-10-4-10-10 0-6 4-11 10-11 6 0 11 5 11 11 0 6-5 10-11 10z"/>
</svg>
