<svg xmlns="http://www.w3.org/2000/svg">
      <path d="m501 21l-245 0 0-10c0-6-5-11-11-11l-170 0c-6 0-11 5-11 11l0 10-53 0c-6 0-11 5-11 11l0 469c0 6 5 11 11 11l490 0c6 0 11-5 11-11l0-469c0-6-5-11-11-11z m-416 0l150 0 0 241-67-67c-3-2-5-3-8-3-3 0-5 1-8 3l-67 67z m406 470l-470 0 0-448 43 0 0 245c0 4 3 8 7 10 4 2 8 1 11-2l78-78 78 78c2 2 5 3 7 3 2 0 3-1 4-1 4-2 7-6 7-10l0-245 235 0z m-182-320l128 0c6 0 11-5 11-11 0-6-5-11-11-11l-128 0c-6 0-10 5-10 11 0 6 4 11 10 11z m0 64l128 0c6 0 11-5 11-11 0-6-5-11-11-11l-128 0c-6 0-10 5-10 11 0 6 4 11 10 11z m128 42l-128 0c-6 0-10 5-10 11 0 6 4 11 10 11l128 0c6 0 11-5 11-11 0-6-5-11-11-11z m0 64l-362 0c-6 0-11 5-11 11 0 6 5 11 11 11l362 0c6 0 11-5 11-11 0-6-5-11-11-11z m-85 64l-277 0c-6 0-11 5-11 11 0 6 5 11 11 11l277 0c6 0 11-5 11-11 0-6-5-11-11-11z"/>
  </svg>
