<svg xmlns="http://www.w3.org/2000/svg">
      <path d="m166 143c0 0 20 6 20 23 0 11-5 20-9 26-4 6-8 15-8 26 0 25 59 61 87 61 28 0 87-36 87-61 0-11-4-20-8-26-4-6-9-15-9-26 0-17 17-23 20-23 4-2 6-4 6-9 0-4 0-6-2-10l-34-34c-5-5-9-5-13-3l-47 24-47-24c-4-2-8-2-13 3l-34 34c-2 2-4 6-2 10 2 5 4 7 6 9z m90 115c-21 0-64-30-66-40 0-5 2-9 6-15 5-7 9-15 11-26l100 0c2 11 7 19 11 26 4 6 6 10 6 15-4 10-47 40-68 40z m-49-147l45 21c2 2 6 2 8 0l45-21 19 19c-6 4-15 13-17 26l-100 0c-2-13-11-22-17-26z m260 213c7-4 45-59 45-113 0-60-162-192-256-192-90 0-256 135-256 192 0 51 43 111 45 113 0 0 0 0 2 0-2 5-4 9-4 15l0 22c0 10 4 19 10 23 0 0 0 2 0 2 2 4 71 111 201 111 130 0 198-107 203-111 0 0 0-2 0-4 6-7 10-15 10-24l0-21c2-4 0-8 0-13z m-403 34l0-21c0-6 4-11 11-11l362 0c7 0 11 5 11 11l0 21c0 7-4 11-11 11l-362 0c-7 0-11-4-11-11z m-43-149c0-40 152-171 235-171 83 0 235 128 235 171 0 41-28 83-37 96l-394 0c-11-13-39-58-39-96z m235 267c-87 0-147-58-171-86l342 0c-24 28-84 86-171 86z"/>
</svg>
