<svg xmlns="http://www.w3.org/2000/svg">
    <path d="m501 320l-426 0c-7 0-11 4-11 11l0 85c0 6 4 11 11 11l426 0c7 0 11-5 11-11l0-85c0-7-4-11-11-11z m-416 21l299 0 0 64-299 0z m406 64l-86 0 0-64 86 0z m-459-85c-6 0-11 4-11 11l0 85c0 6 5 11 11 11 6 0 11-5 11-11l0-85c0-7-5-11-11-11z m-11-96c0-30 24-53 54-53 40 0 74-34 74-75 0-6-4-11-10-11-7 0-11 5-11 11 0 30-23 53-53 53-41 0-75 34-75 75l0 43c0 6 4 10 11 10 6 0 10-4 10-10z m96-11c41 0 75-34 75-74 0-7-4-11-11-11-6 0-10 4-10 11 0 30-24 53-54 53-40 0-74 34-74 75 0 6 4 10 10 10 7 0 11-4 11-10 0-30 23-54 53-54z"/>
</svg>
