<svg xmlns="http://www.w3.org/2000/svg">
      <path d="m490 305l-64-149c-1-1-1-2-2-3l-31-30-31-82c-1-1-1-3-2-4-20-19-60-19-80 0-2 2-3 5-3 8l0 84c0 6 5 10 11 10 6 0 11-4 11-10l0-79c11-9 33-8 44 1l31 82c1 1 1 2 2 3l31 31 45 105c-17-10-36-15-57-15-40 0-75 20-96 50l0-119c19 7 32 17 32 26 0 6 4 11 10 11 6 0 11-5 11-11 0-30-41-53-96-53-55 0-96 23-96 53 0 6 5 11 11 11 6 0 10-5 10-11 0-9 13-19 32-26l0 119c-21-30-56-50-96-50-20 0-40 5-57 15l45-105 31-31c1-1 1-2 2-4l31-83c11-9 33-9 44-1l0 81c0 6 5 10 11 10 6 0 11-4 11-10l0-86c0-2-1-5-3-7-20-19-60-19-80 0-1 1-1 2-2 4l-31 83-31 30c0 1-1 2-2 3l-64 149c-14 20-22 43-22 69 0 65 53 117 117 117 65 0 118-52 118-117l0-190c6-1 13-2 21-2 8 0 15 1 21 2l0 190c0 65 53 117 118 117 64 0 117-52 117-117 0-26-8-49-22-69z m-373 165c-53 0-96-43-96-96 0-53 43-96 96-96 53 0 96 43 96 96 0 53-43 96-96 96z m278 0c-53 0-96-43-96-96 0-53 43-96 96-96 53 0 96 43 96 96 0 53-43 96-96 96z m-278-171c-41 0-74 34-74 75 0 6 4 11 10 11 6 0 11-5 11-11 0-29 24-53 53-53 6 0 11-5 11-11 0-6-5-11-11-11z m278 0c-42 0-75 34-75 75 0 6 5 11 11 11 6 0 10-5 10-11 0-29 24-53 54-53 6 0 10-5 10-11 0-6-4-11-10-11z"/>
  </svg>
