<svg xmlns="http://www.w3.org/2000/svg">
      <path d="m448 85l-341 0c-17 0-32-15-32-32 0-17 15-32 32-32l341 0c6 0 11-4 11-10 0-7-5-11-11-11l-341 0c-30 0-54 23-54 53l0 406c0 30 24 53 54 53l341 0c6 0 11-4 11-11l0-405c0-6-5-11-11-11z m-11 406l-330 0c-17 0-32-15-32-32l0-363c8 6 19 11 32 11l330 0z m-330-448c-7 0-11 4-11 10 0 7 4 11 11 11l320 0c6 0 10-4 10-11 0-6-4-10-10-10z m64 234l53 0 0 118c0 6 4 10 11 10l42 0c7 0 11-4 11-10l0-118 53 0c7 0 11-4 11-10l0-43c0-6-4-11-11-11l-53 0 0-53c0-6-4-11-11-11l-42 0c-7 0-11 5-11 11l0 53-53 0c-7 0-11 5-11 11l0 43c0 6 4 10 11 10z m10-42l54 0c6 0 10-5 10-11l0-53 22 0 0 53c0 6 4 11 10 11l54 0 0 21-54 0c-6 0-10 4-10 11l0 117-22 0 0-117c0-7-4-11-10-11l-54 0z"/>
</svg>
