<svg xmlns="http://www.w3.org/2000/svg">
      <path d="m511 313c-10-33-27-34-31-35-8-2-17-1-22-2 0 6-14 13-31 13-17 0-31-6-32-13-4 1-13 0-21 2-3 1-16 1-26 20 6 7 10 16 15 30 1 4 2 7 1 11 17 6 42 7 64 7 33 0 75-4 82-20 2-4 3-8 1-13z m-124-74c4 10 9 20 16 26 4 4 8 7 13 8 3 2 7 3 10 3 3 0 7-1 10-3 5-1 9-5 13-9 7-7 12-16 16-25 3-1 6-6 7-13 2-6 0-13-2-13 0-2 0-3 0-6 0-25-15-42-39-43-20-2-36 6-43 19-2 5-3 13-3 19-1 3-2 7-2 10-3 1-5 7-3 14 1 8 4 13 7 13z m1-18c0-1 0-1 1-1 0 0 1 0 1 0 1 0 1 0 1 0 1-3 2-9 7-13 3-2 7-4 12-4 0 0 14 6 27 1 1 0 3 0 4 0 5 0 9 3 13 5 0-2-2-4-2-5 1 0 2 1 2 1 3 3 5 8 7 15 0 0 1 0 1 0 0 0 1 0 1 0 0 0 0 0 1 0 1 0 2 4 1 9-1 4-2 6-4 7 0 0 0 1 0 1 0 0-1 0-1 0 0 0-1 0-1-1 0 1-1 2-1 3-3 8-7 16-13 21-1 1-1 2-3 3-4 3-10 6-15 6-6 0-11-3-16-6-7-6-13-16-17-26 0 0 0 0-1 0 0 0 0 0-1 0-1 0-1 0-2-1-2-1-2-3-3-7 0 0 0-1 0-1 1-2 1-5 1-7z m-223 75c-10-17-21-18-25-19-7-1-16-1-21-2-1 4-15 21-24 31l-4-16c3-1 4-5 4-9l-15 0c0 3 1 7 4 9l-4 16c-9-10-23-27-24-31-5 1-15 1-21 2-4 1-23 2-32 36-1 5-1 9 2 14 7 15 50 20 84 20 21 0 45-2 61-6 0-4 0-9 1-12 2-17 8-27 14-33z m-119-57c4 10 9 19 16 26 4 4 9 7 13 9 3 2 7 2 10 2 3 0 7 0 10-2 5-2 9-5 14-9 7-7 12-16 16-26 3 0 5-6 7-12 2-7 0-13-2-14 0-2 0-4 0-6 0-25-16-40-39-42-20-1-36 7-43 21-2 4-3 10-4 17-1 3-2 7-2 10-3 0-4 7-3 14 1 6 4 11 7 12z m1-19c0-1 1-2 1-2 0 0 1 0 1 0 1 0 1 0 2 1 0-2 2-15 13-17 1 0 2 0 3 0 1 0 1 0 3 0 0 0 14 5 27 1 1 0 3 0 4 0 5 0 9 3 13 4 0-1-2-4-2-4 1 0 2 0 2 0 3 3 5 8 7 17 0 0 1 0 1-1 0 0 1 0 1 0 0 0 0 0 1 0 1 1 2 4 1 10-1 4-2 7-4 7 0 0 0 1 0 1 0 0-1 0-1 0 0 0-1 0-1-1-3 10-9 20-18 27 0 0-2 1-4 2-1 1-2 1-3 1-1 0-2 1-3 1 0 0 0 0-1 1-1 0-2 0-2 0-1 0-2 0-3 0-5 0-11-2-15-5-8-7-15-17-18-27 0 0-1 0-1 0 0 0-1 0-2 0-1-2-2-4-3-8 0 0 0-1 0-1 1-3 1-5 1-7z m299 82c-11-14-23-16-26-16-1 0-1 0-1 0-15-13-5-68-5-68 0-2 0-5 0-7 0-1 0-1 0-2 0-2 0-3 0-5 0-1 0-1 0-2 0-2 0-2-1-4 0-1 0-1 0-2 0-2-1-3-1-4 0-1 0-2 0-2 0-1 0-3 0-4 0 0 0 0 0-1-1-2-1-3-2-5 0 0 0 0-1-1 0-1 0-2 0-3 0-1-1-1-1-2 0-1-1-1-1-2 0-1-1-1-1-2 0 0 0-1-1-2 0-1-1-1-1-1-1-1-1-2-2-3 0 0 0 0 0-1 0-1-1-3-2-3 0 0-1-1-1-1 0-1 0-2-1-2 0 0-1 0-1 0-1-1-1-1-1-2 0 0-1-1-1-1-1 0-1 0-2-1 0 0-1-1-1-1 0-1-1-1-1-2 0 0 0 0-1 0-1-1-1-1-2-2 0 0-1 0-1-1-1 0-1 0-1 0 0 0-1 0-1-1-1 0-1-1-2-1 0 0-1 0-1-1 0 0 0 0-1 0 0 0-1 0-1 0-1 0-1-1-1-1 0 0-1 0-1 0-1 0-2-1-2-1 0 0-1 0-1 0-1 0-1 0-2 0-1 0-1 0-2 0 0 0-1 0-1 0-1 0-1 0-1 0 0 0-1 0-1 0-1 0-1 0-2 0 0 0 0 0-1 0 0 0 0 0-1 0 0 0-1 0-1 0 0 0 0 0-1 0 0 0-1 0-1 0 0 0 0 0-1 0-1 0-1 0-2 0-1 0-2 0-2 0 0 0 0 0-1 0 0 0-1 0-1 0-1 0-1 0-1 0 0 0-1 0-1 0-1 0-1 0-2 0-1 0-1 0-1 0 0 0-1 0-1 0-1 0-1 0-2 0-1 0-1 0-2 0 0 0-1 0-1 0 0 0 0 0-1 0 0 0-1 0-1 0-1 0-2 0-2 1 0 0 0 0-1 0-1 0-2 1-2 1-1 0-1 0-2 0 0 0-1 0-1 1 0 0 0 1-1 1 0 0-1 0-1 1-1 0-1 0-1 0 0 0-1 0-1 1-1 1-2 1-3 2-1 0-2 0-3 1 0 0 0 1 0 1-1 1-1 1-2 2 0 0-1 0-1 0 0 1 0 1-1 2 0 0-1 1-1 1-1 0-1 1-2 1 0 0 0 1 0 1-1 1-2 2-3 3 0 0 0 0 0 1 0 1-1 1-1 3 0 0-1 1-1 1-1 1-1 2-1 3 0 0-1 0-1 1-1 1-1 2-1 2 0 1-1 1-1 2 0 1-1 2-1 3 0 1 0 1 0 2-1 1-1 3-2 4 0 0 0 0 0 1-1 2-1 3-1 5 0 0 0 1 0 1 0 2 0 2 0 4 0 1 0 2 0 2 0 2 0 3-1 4 0 1 0 2 0 2 0 2 0 3 0 5 0 1 0 2 0 2 0 3 0 5 0 7 0 0 10 55-5 68 0 0 0 0-1 0-3 1-14 1-24 14-5 6-11 15-15 29 0 3 0 7 0 10 0 2 0 4 2 7 1 0 1 2 2 3 1 0 1 0 2 1 1 1 1 1 1 2 1 1 2 1 3 1 1 0 1 1 2 1 3 2 6 3 10 5 13 4 30 7 48 9 1 0 2 0 2 0 1 0 3 0 4 0 2 0 3 0 4 0 2 0 3 0 4 0 2 0 2 0 4 0 1 0 3 0 4 0 2 0 3 0 4 0 2 0 3 0 4 0 2 0 2 0 4 0 2 0 2 0 4 0 1 0 2 0 4 0 1 0 2 0 4 0 1 0 3 0 4 0 2 0 2 0 4 0 1 0 3 0 4 0 1 0 2 0 4 0 1 0 3 0 4 0 1 0 2 0 3 0 23-2 45-6 58-14 1 0 1-1 1-1 1 0 3-1 3-1 1 0 1-1 2-1 2-2 3-3 5-5 1-3 2-5 2-8 0-3 0-6-1-9-11-11-15-19-20-26z m-52-20c0 2-1 4-2 5-6 7-19 16-36 16-17 0-32-9-36-16-1-1-2-3-3-5 0 0 1 0 2 0 0 0 1 0 1-1 3-2 7-5 7-11 5 5 10 9 16 11 4 1 8 2 13 2 4 0 8-1 12-2 5-2 11-6 16-11 0 9 8 12 10 12z m8-56c0 4-2 7-4 9-1 1-2 1-2 1-1 0-1 0-1-1-4 12-12 24-22 32-5 5-11 7-18 7-7 0-13-2-19-7-9-8-16-20-20-32 0 0-1 1-1 1-1 0-2 0-2-1-2-2-3-5-4-9-1-6 0-10 1-12 0 0 1 0 1 0 1 0 2 0 2 1 0-2 3-28 23-27l60 31 4-5c0 0 0 0 1 0 1 1 3 6 1 12z"/>
</svg>
