<svg xmlns="http://www.w3.org/2000/svg">
      <path d="m509 366c-25-25-47-32-75-24l-78 26c-3-14-15-27-36-27l-60 0c-16-15-52-42-100-42l-53 0 0-11c0-6-5-11-11-11l-85 0c-6 0-11 5-11 11l0 172c0 5 5 10 11 10l85 0c6 0 11-5 11-10l0-19c18 7 34 12 48 17 56 19 87 30 115 30 35 0 65-16 131-51 28-14 62-32 105-54 3-2 5-5 6-8 0-3-1-7-3-9z m-424 83l-64 0 0-150 64 0z m306-31c-113 60-112 60-229 20-16-6-35-12-55-19l0-99 53 0c44 0 77 28 88 40 2 2 5 3 8 3l64 0c11 0 15 5 15 10 0 5-4 11-15 11l-117 0c-6 0-11 5-11 11 0 6 5 10 11 10l117 0c14 0 23-5 29-13l91-30c14-4 26-4 43 9-37 19-67 34-92 47z m-18-269c42 0 75-33 75-74 0-42-33-75-75-75-41 0-74 33-74 75 0 41 33 74 74 74z m0-128c30 0 54 24 54 54 0 29-24 53-54 53-29 0-53-24-53-53 0-30 24-54 53-54z m-106 278c41 0 74-34 74-75 0-41-33-75-74-75-42 0-75 34-75 75 0 41 33 75 75 75z m0-128c29 0 53 24 53 53 0 29-24 53-53 53-30 0-54-24-54-53 0-29 24-53 54-53z m0 85c6 0 10-5 10-11l0-42c0-6-4-11-10-11-6 0-11 5-11 11l0 42c0 6 5 11 11 11z m106-149c6 0 11-5 11-11l0-43c0-6-5-10-11-10-6 0-10 4-10 10l0 43c0 6 4 11 10 11z"/>
  </svg>
