<svg xmlns="http://www.w3.org/2000/svg">
      <path d="m267 309c12 0 21 9 21 22 0 6 4 10 11 10 6 0 10-4 10-10 0-20-12-37-32-41l0-13c0-6-4-10-10-10-7 0-11 4-11 10l0 13c-19 4-32 21-32 41 0 23 19 42 43 42 12 0 21 9 21 22 0 12-9 21-21 21-13 0-22-9-22-21 0-7-4-11-10-11-7 0-11 4-11 11 0 19 13 36 32 40l0 13c0 6 4 11 11 11 6 0 10-5 10-11l0-13c20-4 32-21 32-40 0-24-19-43-42-43-13 0-22-9-22-21 0-13 9-22 22-22z m55-94c-2-2-4-2-6-2l-120 0c-2 0-4 0-6 2-51 39-105 111-105 169 0 87 54 128 171 128 117 0 171-41 171-128 0-58-54-130-105-169z m-66 276c-132 0-149-54-149-107 0-49 49-115 94-149l110 0c45 34 94 100 94 149 0 53-17 107-149 107z m-75-320c-6 0-10 4-10 10 0 7 4 11 10 11l150 0c6 0 10-4 10-11 0-6-4-10-10-10z m11-32c0 6 4 10 11 10l106 0c7 0 11-4 11-10 0-39 41-101 41-101 2-4 2-8 0-12-3-5-9-5-13-3l-64 28-17-42c-2-9-17-9-20 0l-17 42-64-28c-4-2-8 0-12 3-3 4-5 8 0 12-3 0 38 62 38 101z m38-64c3 2 7 2 9 0 2-2 4-5 6-7l11-27 11 27c0 2 2 5 6 7 2 2 6 0 9 0l44-20c-10 22-23 50-27 73l-88 0c-2-26-15-53-28-73z"/>
</svg>
