<svg xmlns="http://www.w3.org/2000/svg">
      <path d="m447 135c0-2-1-3-2-4l-128-128c-1-1-2-2-4-2-1-1-2-1-4-1l-234 0c-6 0-11 5-11 11l0 490c0 6 5 11 11 11l362 0c6 0 11-5 11-11l0-362c0-2 0-3-1-4z m-127-99l92 92-92 0z m-235 455l0-470 214 0 0 118c0 6 4 10 10 10l118 0 0 342z m75-320l96 0c6 0 11-5 11-11 0-6-5-11-11-11l-96 0c-6 0-11 5-11 11 0 6 5 11 11 11z m192 42l-192 0c-6 0-11 5-11 11 0 6 5 11 11 11l192 0c6 0 11-5 11-11 0-6-5-11-11-11z m0 64l-192 0c-6 0-11 5-11 11 0 6 5 11 11 11l192 0c6 0 11-5 11-11 0-6-5-11-11-11z m0 64l-192 0c-6 0-11 5-11 11 0 6 5 11 11 11l192 0c6 0 11-5 11-11 0-6-5-11-11-11z m0 64l-192 0c-6 0-11 5-11 11 0 6 5 11 11 11l192 0c6 0 11-5 11-11 0-6-5-11-11-11z"/>
  </svg>
