<svg xmlns="http://www.w3.org/2000/svg">
      <path d="m399 289l82-87c32-36 18-100-17-132l-39-36c-16-15-40-25-64-28-28-3-52 5-68 22l-81 88c-24 25-23 66 3 90l2 2c9 8 22 7 30-1 8-9 8-23-1-31l-2-1c-9-8-9-22-1-31l81-87c6-7 18-10 33-8 15 1 30 8 39 16l39 36c19 18 29 56 14 72l-81 88c-8 8-21 9-30 1l-2-2c-9-8-22-8-30 1-8 9-8 22 1 30l2 2c12 11 28 17 43 17 18 0 35-7 47-21z m-196-70c-12-12-29-18-46-17-17 1-33 8-44 20l-82 88c-15 17-21 42-16 70 4 24 17 47 33 62l39 36c19 18 48 28 75 28 22 0 43-6 57-22l81-88c24-26 23-66-3-90l-2-2c-9-8-22-7-30 1-8 9-8 22 1 30l2 2c9 8 9 22 1 30l-81 88c-15 16-54 9-72-9l-39-36c-10-8-17-23-20-38-3-14-1-26 6-33l81-88c4-4 9-6 15-6 5-1 11 1 15 5l2 2c9 8 22 8 30-1 8-9 8-22-1-30z m-41 139c4 3 9 5 14 5 6 0 12-2 16-6l159-173c8-8 8-22-1-30-8-8-22-7-30 1l-159 173c-8 8-8 22 1 30z"/>
</svg>
