<svg xmlns="http://www.w3.org/2000/svg">
      <path d="m501 107l-32 0 0-32c0-7-4-11-10-11-7 0-11 4-11 11l0 10-320 0 0-32c0-6-4-10-11-10l-42 0c-7 0-11 4-11 10l0 32-11 0c-30 0-53 24-53 54l0 106c0 5 2 9 6 11 32 11 49 43 43 75l-28 126c0 2 0 6 2 8 3 2 5 4 9 4l171 0c6 0 10-4 10-10 0-7-4-11-10-11l-30 0 23-107 92 0c4 0 9-2 11-6l19-58 141 0c6 0 10-4 10-10l0-75 32 0c7 0 11-4 11-11l0-64c0-6-4-10-11-10z m-181 0l0 21-128 0 0-21z m-235-43l22 0 0 21-22 0z m-32 43l118 0 0 32c0 6 4 10 10 10l150 0c6 0 10-4 10-10l0-32 107 0 0 85-427 0 0-53c0-17 15-32 32-32z m226 213l-78 0 8-43 83 0z m-76-64c-5 0-9 4-11 9l-41 183-106 0 25-113c9-41-12-81-49-96l0-26 427 0 0 43z m288-85l-22 0 0-43 22 0z"/>
</svg>
