<svg xmlns="http://www.w3.org/2000/svg">
      <path d="m501 256l-83 0-13-4 0-71c0-79-62-143-138-149l0-21c0-7-5-11-11-11-6 0-11 4-11 11l0 21c-76 6-138 70-138 149l0 71-13 4-83 0c-7 0-11 4-11 11l0 170c0 7 4 11 11 11l74 0 0 53c0 7 5 11 11 11l320 0c6 0 11-4 11-11l0-53 74 0c7 0 11-4 11-11l0-170c0-7-4-11-11-11z m-202 192l0-128 42 0 0 128z m-64 0l0-128 42 0 0 128z m-64 0l0-128 42 0 0 128z m-64 0l0-128 42 0 0 128z m149-235l149 60 0 26-298 0 0-26z m107 107l42 0 0 128-42 0z m-103-128c-2 0-2 0-4 0l128 0 0 51z m-4-139c66 0 122 52 128 118l-256 0c6-66 62-118 128-118z m-128 139l128 0c-2 0-2 0-4 0l-124 49z m-107 235l0-150 64 0 0 150z m86 64l0-22 298 0 0 22z m384-64l-64 0 0-150 64 0z"/>
</svg>
