<svg xmlns="http://www.w3.org/2000/svg">
      <path d="m309 107l-117 0c-6 0-11 4-11 10 0 6 5 11 11 11l117 0c6 0 11-5 11-11 0-6-5-10-11-10z m0 64l-117 0c-6 0-11 4-11 10 0 6 5 11 11 11l117 0c6 0 11-5 11-11 0-6-5-10-11-10z m0 64l-117 0c-6 0-11 4-11 10 0 6 5 11 11 11l117 0c6 0 11-5 11-11 0-6-5-10-11-10z m0 64l-117 0c-6 0-11 4-11 10 0 6 5 11 11 11l117 0c6 0 11-5 11-11 0-6-5-10-11-10z m139-299c-2 0-5 0-7 1-1-1-2-1-4-1l-256 0c-41 0-74 33-74 75l0 288-32 0c-42 0-75 33-75 74 0 42 33 75 75 75l256 0c41 0 74-33 74-75l0-352 96 0c6 0 11-4 11-10 0-44-26-75-64-75z m-373 491c-30 0-54-24-54-54 0-29 24-53 54-53l203 0c-13 14-22 32-22 53 0 21 9 40 22 54z m309-54c0 30-24 54-53 54-30 0-54-24-54-54 0-29 24-53 54-53 6 0 10-5 10-11 0-6-4-10-10-10l-203 0 0-288c0-30 24-54 53-54l220 0c-11 12-17 27-17 43z m21-373c0-24 19-43 43-43 23 0 39 17 42 43z"/>
</svg>
