<svg xmlns="http://www.w3.org/2000/svg">
      <path d="m53 395c0 35 29 64 64 64 36 0 64-29 64-64 0-36-28-64-64-64-35 0-64 28-64 64z m64-43c24 0 43 19 43 43 0 23-19 42-43 42-23 0-42-19-42-42 0-24 19-43 42-43z m351-48l-20-83c-1-4-6-8-11-8l-32 0 0-42c0-83-67-150-149-150-82 0-149 67-149 150l0 42-32 0c-5 0-10 4-11 8l-20 82c-28 22-44 56-44 92 0 64 53 117 117 117 65 0 118-53 118-117 0-36-15-67-44-91l-21-83c-1-4-5-8-10-8l-32 0 0-42c0-71 57-128 128-128 71 0 128 57 128 128l0 42-32 0c-5 0-9 4-10 8l-21 82c-28 22-44 56-44 92 0 64 53 117 118 117 64 0 117-53 117-117 0-36-15-67-44-91z m-297 9c1 2 2 4 4 6 25 20 38 45 38 76 0 53-43 96-96 96-53 0-96-43-96-96 0-31 14-59 39-77 2-2 3-4 4-6l19-77 69 0z m224 178c-53 0-96-43-96-96 0-31 14-59 38-77 2-2 4-4 4-6l19-77 69 0 19 78c1 2 2 4 4 6 26 20 39 45 39 76 0 53-43 96-96 96z m0-160c-36 0-64 28-64 64 0 35 28 64 64 64 35 0 64-29 64-64 0-36-29-64-64-64z m0 106c-24 0-43-19-43-42 0-24 19-43 43-43 23 0 42 19 42 43 0 23-19 42-42 42z"/>
  </svg>
