<svg xmlns="http://www.w3.org/2000/svg">
      <path d="m460-4l-408 0c-10 0-18 8-18 19l0 479c0 10 8 18 18 18l408 0c10 0 18-8 18-18l0-479c0-11-8-19-18-19z m-16 483l-377 0 0-449 377 0z m-74-137c0 5-4 8-8 8l-28 0c-4 0-8-3-8-8 0-4 4-8 8-8l28 0c4 0 8 4 8 8z m39-121c0 8-7 15-16 15l-277 0c-8 0-15-6-15-15 0-8 6-16 15-16l277 0c9 0 16 8 16 16z m0-67c0 8-7 15-16 15l-277 0c-8 0-15-6-15-15 0-8 6-16 15-16l277 0c9 1 16 8 16 16z m-188-68c0 9-7 16-16 16l-89 0c-8 0-15-7-15-16 0-8 6-15 15-15l89 0c9 1 16 7 16 15z m193 291c-15 1-24 13-34 22-3 3-6 6-9 9 2-4 4-8 5-11 3-5 3-9 3-13 0-4-1-8-4-11-3-3-7-4-10-4-9 0-17 5-23 11-7 6-14 12-20 18-2 3-5 5-7 6-1 1-2 1-2 2-1 0-2 0-2-1 3-5 7-11 15-21 3-3 5-6 7-8 1-1 2-3 3-4 0 0 1 0 1-1 0 0 0-1 0-1 0 0 0 0 1-1 1-1 1-2 1-2 0 0 0 0 0-1 0-1 0-2 0-3 0 0-1-1-2-2 0 0-1-1-1-1 0 0-1-1-2-1 0 0 0 0-1 0 0 0-1 0-2 0 0 0 0 0-1 0-1 0-2 0-2 1 0 0 0 0-1 0-1 0-2 1-2 1 0 0 0 0-1 0-1 0-1 0-1 0-1 2-3 5-8 11-1 0-1 2-2 3-4 4-9 10-14 15-6 6-12 12-18 16-5 5-10 6-11 6-1 0-1 0-1 0 0-2 0-4 2-7 8-10 16-22 22-33 4-6 7-12 9-17 1-2 2-3 3-5 0-1 1-1 1-2 0-1 0-1 0-4 0 0 0-2-1-4-1-2-5-5-8-5-3 0-3 1-4 2-2 1-2 2-2 3-2 1-3 4-5 9-8 13-16 25-23 35-2 5-4 8-6 11-2 2-4 4-5 5-2 2-3 3-4 3-1 0-1 1-1 1 0-1 0-1 0-2 0-3 1-8 3-15 4-5 7-10 10-15 11-17 19-32 25-45 3-6 5-12 6-16 2-4 3-7 3-11 0-1 0-2 0-4-1-3-5-6-8-6-6 1-6 3-7 3-3 3-5 7-9 14-12 21-21 40-28 56-2 6-4 11-7 16-1 2-3 4-5 7-16 22-36 40-55 46-5 2-7 6-5 11 1 3 4 5 8 5 0 0 1 0 3 0 19-7 37-22 51-39 1 2 2 3 3 5 3 3 8 6 12 6 2 0 5-1 7-2 1 2 1 3 3 4 2 2 5 4 8 4l-26 0c-4 0-8 4-8 8 0 5 4 9 8 9l162 0c4 0 8-4 8-9 0-4-4-8-8-8l-27 0c2 0 3-2 4-3 7-6 14-14 21-20 6-6 13-10 17-11 4 0 8-4 7-9 0-3-4-6-9-6z m-90-16c-1 0-1 0-1 1 0 0 1-1 1-1z m-47 66c6-1 11-5 16-9 1-1 1-1 2-1 0 0 0 0 1 0 6 6 10 4 14 6 1 0 2 0 4 0 9 0 14-6 21-11 7-6 13-13 19-19 2-2 7-5 10-6 0 1-1 2-2 4-2 4-5 9-7 15-2 5-5 8-6 15 0 2 1 5 2 7l-74 0z m-121-146l15-11 9 17 18-1 0 18 16 9-10 16 10 15-16 9 0 19-18-1-9 16-15-10-16 10-8-16-19 1 1-19-16-9 9-15-9-16 16-9-1-18 19 1 8-17z"/>
</svg>
