<svg xmlns="http://www.w3.org/2000/svg">
      <path d="m233 21c119 0 215 77 215 171 0 7 0 13-1 20l21 3c1-7 1-15 1-23 0-106-106-192-236-192-129 0-233 86-233 192 0 51 21 96 62 131l-40 89c-2 4-1 8 2 12 3 2 5 3 8 3 1 0 3-1 4-1l114-52c18 5 38 7 51 9l2-22c-20-1-37-4-51-9-2 0-5 0-7 1l-92 42 31-71c2-4 1-9-3-12-39-32-60-73-60-120 0-94 95-171 212-171z m140 214c-76 0-138 62-138 138 0 77 62 139 138 139 77 0 139-62 139-139 0-76-62-138-139-138z m0 256c-64 0-117-53-117-118 0-64 53-117 117-117 65 0 118 53 118 117 0 65-53 118-118 118z m59-128l-48 0 0-48c0-6-5-11-11-11-6 0-10 5-10 11l0 48-48 0c-6 0-11 4-11 10 0 6 5 11 11 11l48 0 0 48c0 5 4 10 10 10 6 0 11-5 11-10l0-48 48 0c5 0 10-5 10-11 0-6-5-10-10-10z"/>
</svg>
