<svg xmlns="http://www.w3.org/2000/svg">
      <path d="m395 0l-278 0c-30 0-53 23-53 53l0 406c0 30 23 53 53 53l278 0c30 0 53-23 53-53l0-406c0-30-23-53-53-53z m32 459c0 17-15 32-32 32l-278 0c-17 0-32-15-32-32l0-406c0-17 15-32 32-32l278 0c17 0 32 15 32 32z m-32-395l-278 0c-6 0-10 4-10 11l0 341c0 6 4 11 10 11l278 0c6 0 10-5 10-11l0-341c0-7-4-11-10-11z m-11 341l-256 0 0-320 256 0z m-117-362c0 6-5 10-11 10-6 0-11-4-11-10 0-6 5-11 11-11 6 0 11 5 11 11z m-86 128l22 0c6 0 10-5 10-11l0-21c0-7-4-11-10-11l-22 0c-6 0-10 4-10 11l0 21c0 6 4 11 10 11z m64 0l22 0c6 0 10-5 10-11l0-21c0-7-4-11-10-11l-22 0c-6 0-10 4-10 11l0 21c0 6 4 11 10 11z m64 0l22 0c6 0 10-5 10-11l0-21c0-7-4-11-10-11l-22 0c-6 0-10 4-10 11l0 21c0 6 4 11 10 11z m-128 64l22 0c6 0 10-5 10-11l0-21c0-7-4-11-10-11l-22 0c-6 0-10 4-10 11l0 21c0 6 4 11 10 11z m64 0l22 0c6 0 10-5 10-11l0-21c0-7-4-11-10-11l-22 0c-6 0-10 4-10 11l0 21c0 6 4 11 10 11z m64 0l22 0c6 0 10-5 10-11l0-21c0-7-4-11-10-11l-22 0c-6 0-10 4-10 11l0 21c0 6 4 11 10 11z m-128 64l22 0c6 0 10-5 10-11l0-21c0-7-4-11-10-11l-22 0c-6 0-10 4-10 11l0 21c0 6 4 11 10 11z m64 0l22 0c6 0 10-5 10-11l0-21c0-7-4-11-10-11l-22 0c-6 0-10 4-10 11l0 21c0 6 4 11 10 11z m32 160c0 11-9 21-21 21-12 0-21-10-21-21 0-12 9-22 21-22 12 0 21 10 21 22z"/>
</svg>
