<svg xmlns="http://www.w3.org/2000/svg">
      <path d="m256 19c-141 0-256 94-256 211 0 54 25 106 71 145l-51 103c-3 4-2 9 1 12 2 2 5 3 8 3 2 0 3 0 5-1l137-64c27 8 56 12 85 12 141 0 256-94 256-210 0-117-115-211-256-211z m0 400c-28 0-56-4-83-12-2-1-5-1-7 0l-114 53 42-83c2-4 1-10-3-13-45-36-70-84-70-134 0-105 106-190 235-190 129 0 235 85 235 190 0 104-106 189-235 189z m-96-227l139 0c6 0 10-5 10-11 0-6-4-10-10-10l-139 0c-6 0-11 4-11 10 0 6 5 11 11 11z m203 43l-203 0c-6 0-11 4-11 10 0 6 5 11 11 11l203 0c6 0 10-5 10-11 0-6-4-10-10-10z m0 64l-203 0c-6 0-11 4-11 10 0 6 5 11 11 11l203 0c6 0 10-5 10-11 0-6-4-10-10-10z"/>
  </svg>
