<svg xmlns="http://www.w3.org/2000/svg">
      <path d="m449 358l-77-21c0 0 0 0-1-1l-38-10c21-18 37-43 40-72 15-5 24-20 24-41 0-20-9-35-24-41l0-86 130-22c5-1 9-5 9-11 0-5-4-9-9-10l-245-43c-1 0-3 0-4 0l-245 43c-5 1-9 5-9 10 0 6 4 10 9 11l44 8 0 66-31 148c-1 3 0 6 2 9 2 2 5 4 8 4l64 0c3 0 6-2 8-4 2-3 3-6 2-9l-31-148 0-63 64 11 0 86c-15 6-24 21-24 41 0 21 9 36 24 41 3 29 19 54 39 72l-116 32c-37 14-62 50-62 90l0 53c0 6 5 11 11 11l490 0c6 0 11-5 11-11l0-53c0-40-25-76-63-90z m-404-81l19-87 19 87z m211-256l183 32-183 32-183-32z m-2 86c1 0 1 0 2 0 1 0 1 0 2 0l94-17 0 33c-9 7-40 26-96 26-56 0-87-19-96-26l0-33z m-94 138c0-6-5-10-11-10-10 0-13-14-13-22 0-6 2-12 4-16 3-4 7-5 9-5 6 0 11-5 11-11l0-33c18 10 49 23 96 23 47 0 78-13 96-23l0 33c0 6 5 11 11 11 10 0 13 14 13 21 0 7-2 12-4 16-3 5-7 6-9 6-6 0-11 4-11 10 0 32-22 59-47 76 0 0 0 1 0 1-18 12-37 19-49 19-29 0-96-40-96-96z m96 118c14 0 35-8 56-21l36 10-92 92-92-92 36-10c21 13 42 21 56 21z m235 128l-470 0 0-43c0-31 20-59 48-70l72-19 107 107c3 2 5 3 8 3 3 0 5-1 8-3l107-107 71 19c29 11 49 39 49 70z m-288-288c2 0 5 0 7 0l6 0c3 0 6 0 8 0 0 6 5 10 11 10 6 0 10-4 10-10 0-7-2-12-5-15-7-7-15-7-24-7l-5 0c-9 0-18 0-24 7-4 3-6 8-6 15 0 6 5 10 11 10 5 0 10-5 11-10z m74 10c6 0 10-5 11-10 2 0 5 0 8 0l6 0c2 0 5 0 7 0 0 6 5 10 11 10 6 0 11-4 11-10 0-7-2-12-6-15-6-7-15-7-24-7l-5 0c-9 0-17 0-24 7-3 3-5 8-5 15 0 6 5 10 10 10z"/>
  </svg>
