<svg xmlns="http://www.w3.org/2000/svg">
      <path d="m446 86c0-2-1-3-3-4-30-33-69-58-113-71 0 0 0 0-1 0-23-7-47-11-73-11-141 0-256 115-256 256 0 141 115 256 256 256 141 0 256-115 256-256 0-65-25-125-66-170z m-20 8c-4 13-15 49-44 65-37-7-74 14-82 23-5 6-3 12-2 14 2 3 5 5 9 6 3 4 10 20 13 35 1 2 2 4 3 5 10 11 25 9 35 6 1 11-15 29-31 46-12 12-18 18-18 26 0 9 7 14 12 19 1 1 4 3 4 3 0 0 0 1-2 2-14 14-28 19-28 19-4 2-7 6-7 10 0 28-17 43-52 43-7-5-22-35-23-43 0-2 2-7 5-11 3-6 6-13 6-21 0-12-13-27-21-36-1-13-5-23-12-30-12-11-30-10-47-9-5 0-11 1-16 1-21 0-21-31-21-32 0-1 0-66 44-75 31-6 40-1 41 0 0 3 1 6 3 8 19 19 48 12 71 6 9-1 17-3 22-3 5 0 10-4 11-9 4-29 6-65-8-75-6-3-12-4-18-1-8 4-15 5-20 2-6-3-7-9-8-14-1-14 42-33 82-42 38 13 72 34 99 62z m-170 397c-129 0-235-106-235-235 0-129 106-235 235-235 9 0 18 1 27 2-29 10-61 28-59 53 1 14 8 25 18 31 11 6 24 6 37 0 2 8 1 25 0 43-6 1-12 2-17 4-18 4-38 9-50 0-1-3-3-7-7-10-11-9-30-11-58-5-61 12-62 92-62 96 0 18 9 53 43 53 6 0 11 0 17-1 13 0 26-1 31 4 4 3 5 9 5 18 0 3 1 6 3 8 9 9 18 21 19 24 0 3-2 7-5 12-3 6-6 12-6 20 0 11 22 64 43 64 44 0 71-20 74-57 7-3 18-9 29-20 6-6 9-12 8-18 0-9-7-15-11-19-1-1-2-2-3-3 2-3 7-8 10-11 21-21 54-56 28-82-3-3-8-4-12-2-5 2-13 5-18 3-5-20-11-31-16-38 12-6 35-15 57-9 3 1 5 0 8-1 30-15 46-46 53-67 30 40 49 89 49 143 0 129-106 235-235 235z"/>
  </svg>
