<svg xmlns="http://www.w3.org/2000/svg">
      <path d="m117 331c-30 0-53 23-53 53 0 30 23 53 53 53 30 0 54-23 54-53 0-30-24-53-54-53z m0 85c-17 0-32-15-32-32 0-17 15-32 32-32 17 0 32 15 32 32 0 17-15 32-32 32z m139-85c-30 0-53 23-53 53 0 30 23 53 53 53 30 0 53-23 53-53 0-30-23-53-53-53z m0 85c-17 0-32-15-32-32 0-17 15-32 32-32 17 0 32 15 32 32 0 17-15 32-32 32z m139-85c-30 0-54 23-54 53 0 30 24 53 54 53 30 0 53-23 53-53 0-30-23-53-53-53z m0 85c-17 0-32-15-32-32 0-17 15-32 32-32 17 0 32 15 32 32 0 17-15 32-32 32z m53-256c0 4 4 9 9 11l42 10c0 0 2 0 2 0 2 0 5 0 7-2 2-2 4-4 4-8l0-43c0-4-2-6-4-9-2-2-7-2-9-2l-42 11c-5 2-9 6-9 11l-90 0-40-60c-2-2-4-4-9-4l-53 0 0-32c0-7-4-11-11-11l-85 0c-6 0-11 4-11 11l0 32-8 0-73-17c-2 0-6 0-8 2-2 2-5 4-5 6l-10 64c0 4 2 11 6 11l60 25 6 35-104 0c-7 0-11 4-11 10l0 75c0 0 0 2 0 2l21 96c3 51 43 94 96 94l278 0c53 0 96-43 96-96 0-13-2-24-7-36l28-45c2-4 2-11-2-13l-107-85c-2-2-4-2-6-2l-66 0 28-43 87 0z m21-13l22-4 0 15-22-4z m-298-94l64 0 0 22-64 0z m224 406l-278 0c-40 0-74-34-74-75 0-41 34-75 74-75l278 0c40 0 74 34 74 75 0 41-34 75-74 75z m91-158l-15 25c-17-23-44-38-76-38l-278 0c-36 0-68 21-85 51l-11-53 0-62 369 0z m-183-98l-166 0-9-45c0-4-2-7-6-9l-56-23 7-45 64 15c0 0 2 0 2 0l164 0 36 53z"/>
</svg>
