<svg xmlns="http://www.w3.org/2000/svg">
      <path d="m137 433c34 5 64 13 80 20 19 9 37 16 71 16l117 0c24 0 43-19 43-42 0-9-3-17-7-24 16-6 28-22 28-40 0-9-2-17-7-24 17-6 29-22 29-40 0-9-3-17-8-24 17-6 29-22 29-40 0-24-19-43-43-43l-134 0c9-28 26-86 17-118-14-48-42-52-51-52-19 0-34 17-34 38 0 67-74 171-128 171-6 0-11 5-11 10l0 182c0 5 4 10 9 10z m-126 36l85 0c6 0 11-4 11-10l0-256c0-6-5-11-11-11l-85 0c-6 0-11 5-11 11l0 256c0 6 5 10 11 10z m64-64c6 0 10 5 10 11 0 6-4 11-10 11-6 0-11-5-11-11 0-6 5-11 11-11z"/>
</svg>
