<svg xmlns="http://www.w3.org/2000/svg">
      <path d="m27 81l37 0 0 403c0 5 5 10 10 10l7 0c3 0 6-1 8-3l35-35 36 35c2 2 5 3 7 3l2 0c3 0 6-1 8-3l35-35 36 35c2 2 5 3 8 3l1 0c3 0 6-1 8-3l36-35 35 35c2 2 5 3 8 3l2 0c2 0 5-1 7-3l36-35 35 35c2 2 5 3 8 3l9 0c6 0 11-5 11-10l0-403 36 0 0-65-457 0 0 65z m400 386l-34-33c-3-4-10-4-15 0l-36 36-37-36c-2-2-4-3-7-3-3 0-6 1-8 3l-36 36-37-36c-4-4-10-4-15 0l-37 36-36-36c-4-4-10-4-15 0l-32 31 0-383 341 0 0 385z m-319-349l210 0 0 21-210 0z m0 64l166 0 0 22-166 0z m0 73l210 0 0 21-210 0z"/>
</svg>
