<svg xmlns="http://www.w3.org/2000/svg">
      <path d="m437 43l-42 0c-6 0-11 4-11 10 0 6 5 11 11 11l32 0 0 427-363 0 0-427 32 0c6 0 11-5 11-11 0-6-5-10-11-10l-43 0c-6 0-10 4-10 10l0 448c0 6 4 11 10 11l384 0c6 0 11-5 11-11l0-448c0-6-5-10-11-10z m-341 42c-6 0-11 5-11 11l0 363c0 6 5 10 11 10l299 0c6 0 10-4 10-10l0-363c0-6-4-11-10-11l-32 0 0-32c0-6-5-10-11-10l-54 0c-5-25-27-43-53-43-25 0-47 18-52 43l-54 0c-6 0-11 4-11 10l0 32z m288 22l0 341-277 0 0-341 21 0 0 10c0 6 5 11 11 11l213 0c6 0 11-5 11-11l0-10z m-235-43l54 0c6 0 10-5 10-11 0-17 15-32 32-32 18 0 32 15 32 32 0 6 5 11 11 11l53 0 0 43-192 0z m182 277l-171 0c-6 0-11 5-11 11 0 6 5 11 11 11l171 0c6 0 10-5 10-11 0-6-4-11-10-11z m0 43l-171 0c-6 0-11 5-11 11 0 6 5 10 11 10l171 0c6 0 10-4 10-10 0-6-4-11-10-11z m-150-128l32 0 0 32c0 6 5 11 11 11l43 0c6 0 10-5 10-11l0-32 32 0c6 0 11-5 11-11l0-42c0-6-5-11-11-11l-32 0 0-32c0-6-4-11-10-11l-43 0c-6 0-11 5-11 11l0 32-32 0c-6 0-10 5-10 11l0 42c0 6 4 11 10 11z m11-43l32 0c6 0 11-4 11-10l0-32 21 0 0 32c0 6 5 10 11 10l32 0 0 22-32 0c-6 0-11 4-11 10l0 32-21 0 0-32c0-6-5-10-11-10l-32 0z"/>
  </svg>
