<svg xmlns="http://www.w3.org/2000/svg">
      <path d="m411 256c0-24 15-43 37-56-4-13-9-26-16-38-25 7-45-3-62-20-17-17-22-37-15-62-12-7-25-12-39-16-13 22-36 37-60 37-24 0-47-15-60-37-14 4-27 9-39 16 7 25 2 45-15 62-17 17-37 27-62 20-7 12-12 25-16 38 22 13 37 32 37 56 0 24-15 47-37 60 4 14 9 27 16 39 25-7 45-2 62 15 17 17 22 37 15 62 12 7 25 12 39 16 13-22 36-37 60-37 24 0 47 15 60 37 14-4 27-9 39-16-7-25-2-45 15-62 17-17 37-26 62-20 7-12 12-25 16-38-22-13-37-32-37-56z m-155 98c-54 0-98-44-98-98 0-54 44-98 98-98 54 0 98 44 98 98 0 54-44 98-98 98z"/>
  </svg>
