<svg xmlns="http://www.w3.org/2000/svg" viewBox="1363.882 1016.076 95.283 142.924"><defs><style>.a{fill:#999;}</style></defs><g transform="translate(1359.882 1016.076)"><path class="a" d="M51.641,8A47.641,47.641,0,1,0,99.283,55.641,47.7,47.7,0,0,0,51.641,8Zm0,89.327A41.686,41.686,0,1,1,93.327,55.641,41.736,41.736,0,0,1,51.641,97.327Z" transform="translate(0 39.641)"/><path class="a" d="M66.388,30.747a2.985,2.985,0,0,0-2.811-1.989H47.552L39.447,12.536a3.1,3.1,0,0,0-5.33,0L26.006,28.758H9.981a2.977,2.977,0,0,0-1.864,5.3l13.34,10.672L16.049,63.667a2.974,2.974,0,0,0,4.437,3.341L36.779,56.83,53.066,67.014a2.98,2.98,0,0,0,4.442-3.347L52.1,44.729l13.34-10.672A2.974,2.974,0,0,0,66.388,30.747ZM46.831,41.317a2.975,2.975,0,0,0-1,3.144L49.66,57.855l-11.3-7.063a2.977,2.977,0,0,0-3.156,0L23.9,57.855l3.829-13.393a2.975,2.975,0,0,0-1-3.144l-8.26-6.6h9.373a2.982,2.982,0,0,0,2.662-1.644l6.271-12.542L43.05,33.063a2.977,2.977,0,0,0,2.662,1.65h9.373Z" transform="translate(14.862 54.615)"/><path class="a" d="M15.344,45.628a2.973,2.973,0,0,0,2.817,2.013,3.035,3.035,0,0,0,.965-.161A2.983,2.983,0,0,0,20.977,43.7L11.955,17.371V5.955h11.91V38.709a2.978,2.978,0,0,0,5.955,0V5.955h11.91V38.709a2.978,2.978,0,0,0,5.955,0V5.955H59.6V38.709a2.978,2.978,0,0,0,5.955,0V5.955H77.587V17.4l-8.54,26.352A2.98,2.98,0,0,0,70.959,47.5a3.127,3.127,0,0,0,.917.143,2.98,2.98,0,0,0,2.835-2.06l8.683-26.8a2.838,2.838,0,0,0,.143-.917V2.978A2.979,2.979,0,0,0,80.559,0H8.978A2.979,2.979,0,0,0,6,2.978V17.865a2.955,2.955,0,0,0,.161.965Z" transform="translate(9.91)"/></g></svg>