<?xml version="1.0" encoding="utf-8"?>
<!-- Generator: Adobe Illustrator 16.0.0, SVG Export Plug-In . SVG Version: 6.00 Build 0)  -->
<!DOCTYPE svg PUBLIC "-//W3C//DTD SVG 1.1//EN" "http://www.w3.org/Graphics/SVG/1.1/DTD/svg11.dtd">
<svg version="1.1" id="Outline_Icons" xmlns="http://www.w3.org/2000/svg" xmlns:xlink="http://www.w3.org/1999/xlink" x="0px"
	 y="0px" width="24px" height="24px" viewBox="0 0 24 24" enable-background="new 0 0 24 24" xml:space="preserve">
<g>
	<path d="M19.404,7.303L20.5,6.207l0.146,0.146C20.744,6.451,20.872,6.5,21,6.5s0.256-0.049,0.354-0.146
		c0.195-0.195,0.195-0.512,0-0.707l-1-1c-0.195-0.195-0.512-0.195-0.707,0s-0.195,0.512,0,0.707L19.793,5.5l-1.096,1.096
		c-1.303-1.18-2.911-2.03-4.697-2.394V1h1c0.276,0,0.5-0.224,0.5-0.5S15.276,0,15,0h-1.5h-3H9C8.724,0,8.5,0.224,8.5,0.5
		S8.724,1,9,1h1v3.202C5.441,5.131,2,9.171,2,14c0,5.515,4.486,10,10,10s10-4.485,10-10C22,11.422,21.012,9.078,19.404,7.303z M11,1
		h2v3.051C12.671,4.018,12.337,4,12,4s-0.671,0.018-1,0.051V1z M12,23c-4.962,0-9-4.038-9-9s4.038-9,9-9s9,4.038,9,9
		S16.962,23,12,23z"/>
	<path d="M7.854,9.146c-0.195-0.195-0.512-0.195-0.707,0s-0.195,0.512,0,0.707l4.5,4.5C11.744,14.451,11.872,14.5,12,14.5
		s0.256-0.049,0.354-0.146c0.195-0.195,0.195-0.512,0-0.707L7.854,9.146z"/>
</g>
</svg>
