<svg xmlns="http://www.w3.org/2000/svg" xmlns:xlink="http://www.w3.org/1999/xlink" viewBox="67.066 365 34.76 35.417"><defs><style>.a{fill:#e64a33;}.b{filter:url(#g);}.c{filter:url(#e);}.d{filter:url(#c);}.e{filter:url(#a);}</style><filter id="a" x="73.377" y="369.379" width="21.414" height="13.476" filterUnits="userSpaceOnUse"><feOffset dy="3" input="SourceAlpha"/><feGaussianBlur stdDeviation="3" result="b"/><feFlood flood-opacity="0.161"/><feComposite operator="in" in2="b"/><feComposite in="SourceGraphic"/></filter><filter id="c" x="73.377" y="373.806" width="21.414" height="13.476" filterUnits="userSpaceOnUse"><feOffset dy="3" input="SourceAlpha"/><feGaussianBlur stdDeviation="3" result="d"/><feFlood flood-opacity="0.161"/><feComposite operator="in" in2="d"/><feComposite in="SourceGraphic"/></filter><filter id="e" x="73.377" y="378.233" width="21.414" height="13.476" filterUnits="userSpaceOnUse"><feOffset dy="3" input="SourceAlpha"/><feGaussianBlur stdDeviation="3" result="f"/><feFlood flood-opacity="0.161"/><feComposite operator="in" in2="f"/><feComposite in="SourceGraphic"/></filter><filter id="g" x="73.377" y="382.66" width="21.414" height="13.476" filterUnits="userSpaceOnUse"><feOffset dy="3" input="SourceAlpha"/><feGaussianBlur stdDeviation="3" result="h"/><feFlood flood-opacity="0.161"/><feComposite operator="in" in2="h"/><feComposite in="SourceGraphic"/></filter></defs><g transform="translate(6 -177)"><g class="e" transform="matrix(1, 0, 0, 1, -6, 177)"><path class="a" d="M17.19,5H9.224a.738.738,0,0,0,0,1.476H17.19A.738.738,0,0,0,17.19,5Z" transform="translate(70.88 367.38)"/></g><g class="d" transform="matrix(1, 0, 0, 1, -6, 177)"><path class="a" d="M17.19,8H9.224a.738.738,0,0,0,0,1.476H17.19A.738.738,0,0,0,17.19,8Z" transform="translate(70.88 368.81)"/></g><g class="c" transform="matrix(1, 0, 0, 1, -6, 177)"><path class="a" d="M17.19,11H9.224a.738.738,0,0,0,0,1.476H17.19a.738.738,0,0,0,0-1.476Z" transform="translate(70.88 370.23)"/></g><g class="b" transform="matrix(1, 0, 0, 1, -6, 177)"><path class="a" d="M17.19,14H9.224a.738.738,0,0,0,0,1.476H17.19a.738.738,0,0,0,0-1.476Z" transform="translate(70.88 371.66)"/></g><path class="a" d="M30.415,0a3.986,3.986,0,0,0-.482.05A.7.7,0,0,0,29.691,0H12.311A5.123,5.123,0,0,0,7.242,5.165V25.087H5.069a5.166,5.166,0,0,0,0,10.33h17.38a5.123,5.123,0,0,0,5.069-5.165V5.9h6.518a.731.731,0,0,0,.724-.738C34.76,2.124,32.974,0,30.415,0ZM5.069,33.941a3.69,3.69,0,0,1,0-7.379H18.905a5.225,5.225,0,0,0,0,7.379Zm21-3.689a3.621,3.621,0,1,1-3.621-3.689.738.738,0,0,0,0-1.476H8.69V5.165a3.66,3.66,0,0,1,3.621-3.689H27.2a4.445,4.445,0,0,0-1.13,2.951ZM27.518,4.427a2.927,2.927,0,0,1,2.9-2.951c1.532,0,2.62,1.158,2.85,2.951Z" transform="translate(61.066 542)"/></g></svg>