<svg xmlns="http://www.w3.org/2000/svg" xmlns:xlink="http://www.w3.org/1999/xlink" viewBox="8976.3 564 62.7 62.7">
  <defs>
    <style>
      .cls-1 {
        fill: #e44b3a;
        stroke: #fff;
        stroke-width: 2px;
      }

      .cls-2 {
        fill: #fff;
      }

      .cls-3 {
        filter: url(#path-2);
      }

      .cls-4 {
        filter: url(#path);
      }

      .cls-5 {
        filter: url(#ellipse-2);
      }
    </style>
    <filter id="ellipse-2" x="8976.3" y="564" width="62.7" height="62.7" filterUnits="userSpaceOnUse">
      <feOffset dy="3" input="SourceAlpha"/>
      <feGaussianBlur stdDeviation="3" result="blur"/>
      <feFlood flood-opacity="0.161"/>
      <feComposite operator="in" in2="blur"/>
      <feComposite in="SourceGraphic"/>
    </filter>
    <filter id="path" x="8989.754" y="580.487" width="29.636" height="32.532" filterUnits="userSpaceOnUse">
      <feOffset dy="3" input="SourceAlpha"/>
      <feGaussianBlur stdDeviation="3" result="blur-2"/>
      <feFlood flood-opacity="0.161"/>
      <feComposite operator="in" in2="blur-2"/>
      <feComposite in="SourceGraphic"/>
    </filter>
    <filter id="path-2" x="9008.37" y="580.487" width="16.898" height="24.737" filterUnits="userSpaceOnUse">
      <feOffset dy="3" input="SourceAlpha"/>
      <feGaussianBlur stdDeviation="3" result="blur-3"/>
      <feFlood flood-opacity="0.161"/>
      <feComposite operator="in" in2="blur-3"/>
      <feComposite in="SourceGraphic"/>
    </filter>
  </defs>
  <g id="group-138" transform="translate(8368.8 36.5)">
    <g id="group-139" transform="translate(614.5 531.5)">
      <g class="cls-5" transform="matrix(1, 0, 0, 1, -8983.3, -568)">
        <path id="ellipse-2-2" data-name="ellipse-2" class="cls-1" d="M24.85.5A24.35,24.35,0,1,1,.5,24.85,24.35,24.35,0,0,1,24.85.5Z" transform="translate(8982.8 567.5)"/>
      </g>
      <g id="group-44" transform="translate(35.969 36.02) rotate(180)">
        <g class="cls-4" transform="matrix(-1, 0, 0, -1, 9019.27, 604.02)">
          <path id="path-3" data-name="path" class="cls-2" d="M.421,18.878a15.723,15.723,0,0,1,3.667.922,7.138,7.138,0,0,0,3.26.732h5.389a1.958,1.958,0,0,0,1.627-3.049,1.958,1.958,0,0,0,.98-2.939,1.958,1.958,0,0,0,.98-2.939A1.96,1.96,0,0,0,15.677,7.8H9.5c.413-1.264,1.174-3.937.764-5.4C9.644.173,8.346,0,7.964,0a1.634,1.634,0,0,0-1.6,1.738c0,3.094-3.38,7.838-5.879,7.838a.489.489,0,0,0-.49.49v8.328A.489.489,0,0,0,.421,18.878Z" transform="translate(9013.39 604.02) rotate(180)"/>
        </g>
        <g class="cls-3" transform="matrix(-1, 0, 0, -1, 9019.27, 604.02)">
          <path id="path-4" data-name="path" class="cls-2" d="M.49,12.737H4.409a.491.491,0,0,0,.49-.49V.49A.491.491,0,0,0,4.409,0H.49A.49.49,0,0,0,0,.49V12.247A.49.49,0,0,0,.49,12.737ZM3.429,9.8a.49.49,0,1,1-.49.49A.49.49,0,0,1,3.429,9.8Z" transform="translate(9019.27 596.22) rotate(180)"/>
        </g>
      </g>
    </g>
  </g>
</svg>
