<svg xmlns="http://www.w3.org/2000/svg" xmlns:xlink="http://www.w3.org/1999/xlink" viewBox="8255 567 67.271 67.271">
  <defs>
    <style>
      .cls-1 {
        fill: #a6cb76;
        stroke: #fff;
        stroke-width: 2px;
      }

      .cls-2 {
        fill: #fff;
      }

      .cls-3 {
        filter: url(#path-2);
      }

      .cls-4 {
        filter: url(#path);
      }

      .cls-5 {
        filter: url(#ellipse-2);
      }
    </style>
    <filter id="ellipse-2" x="8255" y="567" width="67.271" height="67.271" filterUnits="userSpaceOnUse">
      <feOffset dy="3" input="SourceAlpha"/>
      <feGaussianBlur stdDeviation="3" result="blur"/>
      <feFlood flood-opacity="0.161"/>
      <feComposite operator="in" in2="blur"/>
      <feComposite in="SourceGraphic"/>
    </filter>
    <filter id="path" x="8269.623" y="584.941" width="31.291" height="34.46" filterUnits="userSpaceOnUse">
      <feOffset dy="3" input="SourceAlpha"/>
      <feGaussianBlur stdDeviation="3" result="blur-2"/>
      <feFlood flood-opacity="0.161"/>
      <feComposite operator="in" in2="blur-2"/>
      <feComposite in="SourceGraphic"/>
    </filter>
    <filter id="path-2" x="8289.986" y="584.941" width="17.358" height="25.933" filterUnits="userSpaceOnUse">
      <feOffset dy="3" input="SourceAlpha"/>
      <feGaussianBlur stdDeviation="3" result="blur-3"/>
      <feFlood flood-opacity="0.161"/>
      <feComposite operator="in" in2="blur-3"/>
      <feComposite in="SourceGraphic"/>
    </filter>
  </defs>
  <g id="group-138" transform="translate(7647.5 39.5)">
    <g id="group-139" transform="translate(614.5 531.5)">
      <g class="cls-5" transform="matrix(1, 0, 0, 1, -8262, -571)">
        <path id="ellipse-2-2" data-name="ellipse-2" class="cls-1" d="M27.136.5A26.636,26.636,0,1,1,.5,27.136,26.636,26.636,0,0,1,27.136.5Z" transform="translate(8261.5 570.5)"/>
      </g>
      <g id="group-44" transform="translate(39.345 39.401) rotate(180)">
        <g class="cls-4" transform="matrix(-1, 0, 0, -1, 8301.34, 610.4)">
          <path id="path-3" data-name="path" class="cls-2" d="M.461,20.65a17.2,17.2,0,0,1,4.012,1.009,7.808,7.808,0,0,0,3.566.8h5.895a2.142,2.142,0,0,0,1.78-3.335,2.142,2.142,0,0,0,1.072-3.215,2.142,2.142,0,0,0,1.072-3.215,2.144,2.144,0,0,0-.708-4.167H10.4c.452-1.383,1.284-4.306.836-5.9C10.549.19,9.129,0,8.711,0A1.787,1.787,0,0,0,6.966,1.9c0,3.385-3.7,8.574-6.431,8.574A.535.535,0,0,0,0,11.011v9.11A.535.535,0,0,0,.461,20.65Z" transform="translate(8294.91 610.4) rotate(180)"/>
        </g>
        <g class="cls-3" transform="matrix(-1, 0, 0, -1, 8301.34, 610.4)">
          <path id="path-4" data-name="path" class="cls-2" d="M.536,13.933H4.823a.537.537,0,0,0,.536-.536V.536A.537.537,0,0,0,4.823,0H.536A.536.536,0,0,0,0,.536V13.4A.536.536,0,0,0,.536,13.933Zm3.215-3.215a.536.536,0,1,1-.536.536A.536.536,0,0,1,3.751,10.717Z" transform="translate(8301.34 601.87) rotate(180)"/>
        </g>
      </g>
    </g>
  </g>
</svg>
