<svg xmlns="http://www.w3.org/2000/svg" viewBox="0 0 600 100"><linearGradient id="a" gradientUnits="userSpaceOnUse" x1="127.557" y1="61.688" x2="571.15" y2="61.688"><stop offset="0" stop-color="#6c55a0"/><stop offset="1" stop-color="#4d6eb2"/></linearGradient><path fill="url(#a)" d="M145.7 78.7c-4.6 0-7.9-.8-10.9-1.8v18.4l-15.9 2.4V26.6h14l1.1 6.8c3.6-4 8.2-7.9 14.9-7.9 10.7 0 18.6 8 18.6 25.5 0 19.6-10.4 27.7-21.8 27.7zm-2-38.9c-3.5 0-6.2 2.1-8.9 5.3v19.6c2.2 1.1 4 1.6 7.3 1.6 5.4 0 9.4-4.1 9.4-14.1 0-8.7-3.2-12.4-7.8-12.4z"/><linearGradient id="b" gradientUnits="userSpaceOnUse" x1="127.557" y1="40.207" x2="571.15" y2="40.207"><stop offset="0" stop-color="#6c55a0"/><stop offset="1" stop-color="#4d6eb2"/></linearGradient><path fill="url(#b)" d="M176.7 78.2V4.7l16-2.5v76h-16z"/><linearGradient id="c" gradientUnits="userSpaceOnUse" x1="127.557" y1="52.526" x2="571.15" y2="52.526"><stop offset="0" stop-color="#6c55a0"/><stop offset="1" stop-color="#4d6eb2"/></linearGradient><path fill="url(#c)" d="M232.8 78.2l-1.1-6.4c-4.2 4.4-9.2 7.5-16.3 7.5-8.2 0-14-4.9-14-14.3 0-12.1 9.3-17.8 29.6-19.6v-.9c0-4.5-2.5-6.5-7.8-6.5-5.8 0-11.2 1.5-16.7 3.9l-1.9-12c5.9-2.4 12.6-4 21-4 14.3 0 21.3 4.7 21.3 17.9v34.5h-14.1zM231 53.1c-10.9 1.7-13.8 5.3-13.8 9.8 0 3.3 2 5.1 5 5.1 3.1 0 6-1.4 8.9-3.9v-11z"/><linearGradient id="d" gradientUnits="userSpaceOnUse" x1="127.557" y1="52.474" x2="571.15" y2="52.474"><stop offset="0" stop-color="#6c55a0"/><stop offset="1" stop-color="#4d6eb2"/></linearGradient><path fill="url(#d)" d="M280 79.2c-14.9 0-25-9.7-25-26.3 0-18.2 11.6-27.1 25.7-27.1 6.2 0 11.2 1.5 15.4 3.9L294 43.3c-4.1-2.6-7.5-3.8-11.7-3.8-6.4 0-11.1 4.3-11.1 13 0 8.8 5.2 13.2 11.6 13.2 3.8 0 7.4-1.2 11.8-4l1.9 13c-5.2 3-10.4 4.5-16.5 4.5z"/><linearGradient id="e" gradientUnits="userSpaceOnUse" x1="127.557" y1="52.421" x2="571.15" y2="52.421"><stop offset="0" stop-color="#6c55a0"/><stop offset="1" stop-color="#4d6eb2"/></linearGradient><path fill="url(#e)" d="M348.6 56.4h-31c.8 8.1 5.7 11.3 12.7 11.3 5.7 0 11.3-2.1 17-5.4l1.6 11.2c-5.6 3.6-12.5 5.8-20.6 5.8-15.5 0-26.6-8.2-26.6-26.6 0-16.8 10.3-27.1 24.4-27.1 15.8 0 22.9 11.8 22.9 26.7 0 1.6-.1 3.3-.4 4.1zm-23-20.5c-4.4 0-7.6 3.9-8.1 11.8h16.3c-.6-7.8-3.3-11.8-8.2-11.8z"/><linearGradient id="f" gradientUnits="userSpaceOnUse" x1="127.557" y1="52.526" x2="571.15" y2="52.526"><stop offset="0" stop-color="#6c55a0"/><stop offset="1" stop-color="#4d6eb2"/></linearGradient><path fill="url(#f)" d="M386.3 78.2l-1.1-6.4c-4.2 4.4-9.2 7.5-16.3 7.5-8.2 0-14-4.9-14-14.3 0-12.1 9.3-17.8 29.6-19.6v-.9c0-4.5-2.5-6.5-7.8-6.5-5.8 0-11.2 1.5-16.7 3.9l-1.9-12c5.9-2.4 12.6-4 21-4 14.3 0 21.3 4.7 21.3 17.9v34.5h-14.1zm-1.8-25.1c-10.9 1.7-13.8 5.3-13.8 9.8 0 3.3 2 5.1 5 5.1 3.1 0 6-1.4 8.9-3.9v-11z"/><linearGradient id="g" gradientUnits="userSpaceOnUse" x1="127.557" y1="52.158" x2="571.15" y2="52.158"><stop offset="0" stop-color="#6c55a0"/><stop offset="1" stop-color="#4d6eb2"/></linearGradient><path fill="url(#g)" d="M438.9 78.4H423l-17.6-50.5 17.1-2 9.6 32.6 9.4-31.9H457l-18.1 51.8z"/><linearGradient id="h" gradientUnits="userSpaceOnUse" x1="127.557" y1="52.421" x2="571.15" y2="52.421"><stop offset="0" stop-color="#6c55a0"/><stop offset="1" stop-color="#4d6eb2"/></linearGradient><path fill="url(#h)" d="M483.8 79.3c-14.3 0-24.7-10.2-24.7-26.7s10.6-27 24.8-27c14.4 0 24.9 10.3 24.9 26.9s-10.6 26.8-25 26.8zm.1-40.7c-6.1 0-9.4 5.4-9.4 13.8 0 8.3 3.4 14 9.4 14 6.1 0 9.5-5.6 9.5-13.9s-3.4-13.9-9.5-13.9z"/><linearGradient id="i" gradientUnits="userSpaceOnUse" x1="127.557" y1="43.892" x2="571.15" y2="43.892"><stop offset="0" stop-color="#6c55a0"/><stop offset="1" stop-color="#4d6eb2"/></linearGradient><path fill="url(#i)" d="M538.9 79c-11.1 0-18.8-4-18.8-17.2V39.6h-6.9v-13h6.9V11.2l15.8-2.4v17.8h9.8l2 13h-11.8v19.7c0 4.2 2 6.1 6.3 6.1 1.4 0 2.6-.2 3.8-.5l2 13.1c-2.4.6-4.9 1-9.1 1z"/><linearGradient id="j" gradientUnits="userSpaceOnUse" x1="127.557" y1="52.421" x2="571.15" y2="52.421"><stop offset="0" stop-color="#6c55a0"/><stop offset="1" stop-color="#4d6eb2"/></linearGradient><path fill="url(#j)" d="M599.6 56.4h-31c.8 8.1 5.7 11.3 12.7 11.3 5.7 0 11.3-2.1 17-5.4l1.6 11.2c-5.6 3.6-12.5 5.8-20.6 5.8-15.5 0-26.6-8.2-26.6-26.6 0-16.8 10.3-27.1 24.4-27.1 15.8 0 22.9 11.8 22.9 26.7-.1 1.6-.2 3.3-.4 4.1zm-23-20.5c-4.4 0-7.6 3.9-8.1 11.8h16.3c-.6-7.8-3.3-11.8-8.2-11.8z"/><linearGradient id="k" gradientUnits="userSpaceOnUse" x1="36.414" y1="13.491" x2="59.072" y2="13.491"><stop offset="0" stop-color="#4c3593"/><stop offset="1" stop-color="#90278e"/></linearGradient><path fill="url(#k)" d="M36.4 13.5l11.3 11.3 11.4-11.3L47.7 2.2z"/><linearGradient id="l" gradientUnits="userSpaceOnUse" x1="72.762" y1="49.738" x2="95.419" y2="49.738"><stop offset="0" stop-color="#4c3593"/><stop offset="1" stop-color="#90278e"/></linearGradient><path fill="url(#l)" d="M72.8 49.7L84.1 61l11.3-11.3-11.3-11.3z"/><linearGradient id="m" gradientUnits="userSpaceOnUse" x1="36.671" y1="85.985" x2="59.329" y2="85.985"><stop offset="0" stop-color="#4c3593"/><stop offset="1" stop-color="#90278e"/></linearGradient><path fill="url(#m)" d="M36.7 86L48 97.3 59.3 86 48 74.7z"/><linearGradient id="n" gradientUnits="userSpaceOnUse" x1=".068" y1="49.738" x2="22.725" y2="49.738"><stop offset="0" stop-color="#4c3593"/><stop offset="1" stop-color="#90278e"/></linearGradient><path fill="url(#n)" d="M.1 49.7L11.4 61l11.3-11.3-11.3-11.3z"/><linearGradient id="o" gradientUnits="userSpaceOnUse" x1="2.424" y1="25.965" x2="45.387" y2="25.965"><stop offset="0" stop-color="#6c55a0"/><stop offset="1" stop-color="#4d6eb2"/></linearGradient><path fill="url(#o)" d="M2.4 26l21.5 21.4L45.4 26 23.9 4.5 2.4 26zm25.1-2.4l-6 5.9-1.2-1.2 6-5.9 1.2 1.2z"/><linearGradient id="p" gradientUnits="userSpaceOnUse" x1="2.424" y1="73.51" x2="45.387" y2="73.51"><stop offset="0" stop-color="#6c55a0"/><stop offset="1" stop-color="#4d6eb2"/></linearGradient><path fill="url(#p)" d="M2.4 73.5l21.5 21.4 21.5-21.4-21.5-21.4L2.4 73.5zm23.9 3.6l-6-5.9 1.2-1.2 6 5.9-1.2 1.2z"/><linearGradient id="q" gradientUnits="userSpaceOnUse" x1="50.1" y1="25.965" x2="93.063" y2="25.965"><stop offset="0" stop-color="#6c55a0"/><stop offset="1" stop-color="#4d6eb2"/></linearGradient><path fill="url(#q)" d="M71.6 47.4L93.1 26 71.6 4.5 50.1 26l21.5 21.4zm3.6-19.1L74 29.5l-6-5.9 1.2-1.2 6 5.9z"/><linearGradient id="r" gradientUnits="userSpaceOnUse" x1="50.1" y1="73.51" x2="93.062" y2="73.51"><stop offset="0" stop-color="#6c55a0"/><stop offset="1" stop-color="#4d6eb2"/></linearGradient><path fill="url(#r)" d="M50.1 73.5l21.5 21.4 21.5-21.4-21.5-21.4-21.5 21.4zm25.1-2.4l-6 5.9-1.2-1.1 6-5.9 1.2 1.1z"/></svg>