<?xml version="1.0" encoding="utf-8"?>
<!-- Generator: Adobe Illustrator 19.2.0, SVG Export Plug-In . SVG Version: 6.00 Build 0)  -->
<svg version="1.1" id="Outline_Icons" xmlns="http://www.w3.org/2000/svg" xmlns:xlink="http://www.w3.org/1999/xlink" x="0px"
	 y="0px" viewBox="0 0 24 24" style="enable-background:new 0 0 24 24;" xml:space="preserve">
<style type="text/css">
	.st0{fill:#C5D9B1;stroke:#FFFFFF;stroke-linecap:round;stroke-linejoin:round;stroke-miterlimit:10;}
	.st1{fill:#FFFFFF;stroke:#FFFFFF;stroke-linecap:round;stroke-linejoin:round;stroke-miterlimit:10;}
	.st2{fill:none;stroke:#FFFFFF;stroke-linecap:round;stroke-linejoin:round;stroke-miterlimit:10;}
	.st3{fill:none;stroke:#557338;stroke-linecap:round;stroke-linejoin:round;stroke-miterlimit:10;}
</style>
<g>
	<circle class="st0" cx="12.8" cy="12.8" r="11.5"/>
	<path class="st1" d="M20,14c0,3.6-3.4,7-7.5,7S5,17.6,5,14H20z"/>
	<path class="st2" d="M6,10.5c0-1.1,0.9-2,2-2s2,0.9,2,2"/>
	<path class="st2" d="M19,10.5c0-1.1-0.9-2-2-2s-2,0.9-2,2"/>
</g>
<g>
	<circle class="st3" cx="12" cy="12" r="11.5"/>
	<path class="st3" d="M19.5,13.5c0,3.6-3.4,7-7.5,7s-7.5-3.4-7.5-7H19.5z"/>
	<path class="st3" d="M5.5,10c0-1.1,0.9-2,2-2s2,0.9,2,2"/>
	<path class="st3" d="M18.5,10c0-1.1-0.9-2-2-2s-2,0.9-2,2"/>
</g>
</svg>
