<?xml version="1.0" encoding="utf-8"?>
<!-- Generator: Adobe Illustrator 18.1.1, SVG Export Plug-In . SVG Version: 6.00 Build 0)  -->
<svg version="1.1" id="Layer_1" xmlns="http://www.w3.org/2000/svg" xmlns:xlink="http://www.w3.org/1999/xlink" x="0px" y="0px"
	 viewBox="0 0 600 100" enable-background="new 0 0 600 100" xml:space="preserve">
<g>
	<g>
		<linearGradient id="SVGID_1_" gradientUnits="userSpaceOnUse" x1="127.5568" y1="61.6885" x2="571.1505" y2="61.6885">
			<stop  offset="0" style="stop-color:#6C55A0"/>
			<stop  offset="1" style="stop-color:#4D6EB2"/>
		</linearGradient>
		<path fill="url(#SVGID_1_)" d="M145.7,78.7c-4.6,0-7.9-0.8-10.9-1.8v18.4l-15.9,2.4V26.6h14l1.1,6.8c3.6-4,8.2-7.9,14.9-7.9
			c10.7,0,18.6,8,18.6,25.5C167.5,70.6,157.1,78.7,145.7,78.7z M143.7,39.8c-3.5,0-6.2,2.1-8.9,5.3v19.6c2.2,1.1,4,1.6,7.3,1.6
			c5.4,0,9.4-4.1,9.4-14.1C151.5,43.5,148.3,39.8,143.7,39.8z"/>
		<linearGradient id="SVGID_2_" gradientUnits="userSpaceOnUse" x1="127.5568" y1="40.2066" x2="571.1505" y2="40.2066">
			<stop  offset="0" style="stop-color:#6C55A0"/>
			<stop  offset="1" style="stop-color:#4D6EB2"/>
		</linearGradient>
		<path fill="url(#SVGID_2_)" d="M176.7,78.2V4.7l16-2.5v76H176.7z"/>
		<linearGradient id="SVGID_3_" gradientUnits="userSpaceOnUse" x1="127.5568" y1="52.5264" x2="571.1505" y2="52.5264">
			<stop  offset="0" style="stop-color:#6C55A0"/>
			<stop  offset="1" style="stop-color:#4D6EB2"/>
		</linearGradient>
		<path fill="url(#SVGID_3_)" d="M232.8,78.2l-1.1-6.4c-4.2,4.4-9.2,7.5-16.3,7.5c-8.2,0-14-4.9-14-14.3c0-12.1,9.3-17.8,29.6-19.6
			v-0.9c0-4.5-2.5-6.5-7.8-6.5c-5.8,0-11.2,1.5-16.7,3.9l-1.9-12c5.9-2.4,12.6-4,21-4c14.3,0,21.3,4.7,21.3,17.9v34.5H232.8z
			 M231,53.1c-10.9,1.7-13.8,5.3-13.8,9.8c0,3.3,2,5.1,5,5.1c3.1,0,6-1.4,8.9-3.9V53.1z"/>
		<linearGradient id="SVGID_4_" gradientUnits="userSpaceOnUse" x1="127.5568" y1="52.4742" x2="571.1505" y2="52.4742">
			<stop  offset="0" style="stop-color:#6C55A0"/>
			<stop  offset="1" style="stop-color:#4D6EB2"/>
		</linearGradient>
		<path fill="url(#SVGID_4_)" d="M280,79.2c-14.9,0-25-9.7-25-26.3c0-18.2,11.6-27.1,25.7-27.1c6.2,0,11.2,1.5,15.4,3.9L294,43.3
			c-4.1-2.6-7.5-3.8-11.7-3.8c-6.4,0-11.1,4.3-11.1,13c0,8.8,5.2,13.2,11.6,13.2c3.8,0,7.4-1.2,11.8-4l1.9,13
			C291.3,77.7,286.1,79.2,280,79.2z"/>
		<linearGradient id="SVGID_5_" gradientUnits="userSpaceOnUse" x1="127.5568" y1="52.4214" x2="571.1505" y2="52.4214">
			<stop  offset="0" style="stop-color:#6C55A0"/>
			<stop  offset="1" style="stop-color:#4D6EB2"/>
		</linearGradient>
		<path fill="url(#SVGID_5_)" d="M348.6,56.4h-31c0.8,8.1,5.7,11.3,12.7,11.3c5.7,0,11.3-2.1,17-5.4l1.6,11.2
			c-5.6,3.6-12.5,5.8-20.6,5.8c-15.5,0-26.6-8.2-26.6-26.6c0-16.8,10.3-27.1,24.4-27.1c15.8,0,22.9,11.8,22.9,26.7
			C349,53.9,348.9,55.6,348.6,56.4z M325.6,35.9c-4.4,0-7.6,3.9-8.1,11.8h16.3C333.2,39.9,330.5,35.9,325.6,35.9z"/>
		<linearGradient id="SVGID_6_" gradientUnits="userSpaceOnUse" x1="127.5568" y1="52.5264" x2="571.1505" y2="52.5264">
			<stop  offset="0" style="stop-color:#6C55A0"/>
			<stop  offset="1" style="stop-color:#4D6EB2"/>
		</linearGradient>
		<path fill="url(#SVGID_6_)" d="M386.3,78.2l-1.1-6.4c-4.2,4.4-9.2,7.5-16.3,7.5c-8.2,0-14-4.9-14-14.3c0-12.1,9.3-17.8,29.6-19.6
			v-0.9c0-4.5-2.5-6.5-7.8-6.5c-5.8,0-11.2,1.5-16.7,3.9l-1.9-12c5.9-2.4,12.6-4,21-4c14.3,0,21.3,4.7,21.3,17.9v34.5H386.3z
			 M384.5,53.1c-10.9,1.7-13.8,5.3-13.8,9.8c0,3.3,2,5.1,5,5.1c3.1,0,6-1.4,8.9-3.9V53.1z"/>
		<linearGradient id="SVGID_7_" gradientUnits="userSpaceOnUse" x1="127.5568" y1="52.1579" x2="571.1505" y2="52.1579">
			<stop  offset="0" style="stop-color:#6C55A0"/>
			<stop  offset="1" style="stop-color:#4D6EB2"/>
		</linearGradient>
		<path fill="url(#SVGID_7_)" d="M438.9,78.4H423l-17.6-50.5l17.1-2l9.6,32.6l9.4-31.9H457L438.9,78.4z"/>
		<linearGradient id="SVGID_8_" gradientUnits="userSpaceOnUse" x1="127.5568" y1="52.4214" x2="571.1505" y2="52.4214">
			<stop  offset="0" style="stop-color:#6C55A0"/>
			<stop  offset="1" style="stop-color:#4D6EB2"/>
		</linearGradient>
		<path fill="url(#SVGID_8_)" d="M483.8,79.3c-14.3,0-24.7-10.2-24.7-26.7s10.6-27,24.8-27c14.4,0,24.9,10.3,24.9,26.9
			S498.2,79.3,483.8,79.3z M483.9,38.6c-6.1,0-9.4,5.4-9.4,13.8c0,8.3,3.4,14,9.4,14c6.1,0,9.5-5.6,9.5-13.9S490,38.6,483.9,38.6z"
			/>
		<linearGradient id="SVGID_9_" gradientUnits="userSpaceOnUse" x1="127.5568" y1="43.8919" x2="571.1505" y2="43.8919">
			<stop  offset="0" style="stop-color:#6C55A0"/>
			<stop  offset="1" style="stop-color:#4D6EB2"/>
		</linearGradient>
		<path fill="url(#SVGID_9_)" d="M538.9,79c-11.1,0-18.8-4-18.8-17.2V39.6h-6.9v-13h6.9V11.2l15.8-2.4v17.8h9.8l2,13h-11.8v19.7
			c0,4.2,2,6.1,6.3,6.1c1.4,0,2.6-0.2,3.8-0.5l2,13.1C545.6,78.6,543.1,79,538.9,79z"/>
		<linearGradient id="SVGID_10_" gradientUnits="userSpaceOnUse" x1="127.5568" y1="52.4214" x2="571.1505" y2="52.4214">
			<stop  offset="0" style="stop-color:#6C55A0"/>
			<stop  offset="1" style="stop-color:#4D6EB2"/>
		</linearGradient>
		<path fill="url(#SVGID_10_)" d="M599.6,56.4h-31c0.8,8.1,5.7,11.3,12.7,11.3c5.7,0,11.3-2.1,17-5.4l1.6,11.2
			c-5.6,3.6-12.5,5.8-20.6,5.8c-15.5,0-26.6-8.2-26.6-26.6c0-16.8,10.3-27.1,24.4-27.1c15.8,0,22.9,11.8,22.9,26.7
			C599.9,53.9,599.8,55.6,599.6,56.4z M576.6,35.9c-4.4,0-7.6,3.9-8.1,11.8h16.3C584.2,39.9,581.5,35.9,576.6,35.9z"/>
	</g>
	<linearGradient id="SVGID_11_" gradientUnits="userSpaceOnUse" x1="36.4145" y1="13.4908" x2="59.0718" y2="13.4908">
		<stop  offset="0" style="stop-color:#4C3593"/>
		<stop  offset="1" style="stop-color:#90278E"/>
	</linearGradient>
	<polygon fill="url(#SVGID_11_)" points="36.4,13.5 36.4,13.5 47.7,24.8 59.1,13.5 47.7,2.2 	"/>
	<linearGradient id="SVGID_12_" gradientUnits="userSpaceOnUse" x1="72.7617" y1="49.7379" x2="95.419" y2="49.7379">
		<stop  offset="0" style="stop-color:#4C3593"/>
		<stop  offset="1" style="stop-color:#90278E"/>
	</linearGradient>
	<polygon fill="url(#SVGID_12_)" points="72.8,49.7 72.8,49.7 84.1,61 95.4,49.7 84.1,38.4 	"/>
	<linearGradient id="SVGID_13_" gradientUnits="userSpaceOnUse" x1="36.6713" y1="85.9854" x2="59.3287" y2="85.9854">
		<stop  offset="0" style="stop-color:#4C3593"/>
		<stop  offset="1" style="stop-color:#90278E"/>
	</linearGradient>
	<polygon fill="url(#SVGID_13_)" points="36.7,86 36.7,86 48,97.3 59.3,86 48,74.7 	"/>
	<linearGradient id="SVGID_14_" gradientUnits="userSpaceOnUse" x1="6.776118e-002" y1="49.7379" x2="22.7251" y2="49.7379">
		<stop  offset="0" style="stop-color:#4C3593"/>
		<stop  offset="1" style="stop-color:#90278E"/>
	</linearGradient>
	<polygon fill="url(#SVGID_14_)" points="0.1,49.7 0.1,49.7 11.4,61 22.7,49.7 11.4,38.4 	"/>
	<linearGradient id="SVGID_15_" gradientUnits="userSpaceOnUse" x1="2.4244" y1="25.9652" x2="45.3866" y2="25.9652">
		<stop  offset="0" style="stop-color:#6C55A0"/>
		<stop  offset="1" style="stop-color:#4D6EB2"/>
	</linearGradient>
	<path fill="url(#SVGID_15_)" d="M2.4,26l21.5,21.4L45.4,26L23.9,4.5L2.4,26z M27.5,23.6l-6,5.9l-1.2-1.2l6-5.9L27.5,23.6z"/>
	<linearGradient id="SVGID_16_" gradientUnits="userSpaceOnUse" x1="2.4244" y1="73.5101" x2="45.3866" y2="73.5101">
		<stop  offset="0" style="stop-color:#6C55A0"/>
		<stop  offset="1" style="stop-color:#4D6EB2"/>
	</linearGradient>
	<path fill="url(#SVGID_16_)" d="M2.4,73.5l21.5,21.4l21.5-21.4L23.9,52.1L2.4,73.5z M26.3,77.1l-6-5.9l1.2-1.2l6,5.9L26.3,77.1z"/>
	<linearGradient id="SVGID_17_" gradientUnits="userSpaceOnUse" x1="50.0999" y1="25.9652" x2="93.0625" y2="25.9652">
		<stop  offset="0" style="stop-color:#6C55A0"/>
		<stop  offset="1" style="stop-color:#4D6EB2"/>
	</linearGradient>
	<path fill="url(#SVGID_17_)" d="M71.6,47.4L93.1,26L71.6,4.5L50.1,26L71.6,47.4z M75.2,28.3L74,29.5l-6-5.9l1.2-1.2L75.2,28.3z"/>
	<linearGradient id="SVGID_18_" gradientUnits="userSpaceOnUse" x1="50.1001" y1="73.5105" x2="93.0623" y2="73.5105">
		<stop  offset="0" style="stop-color:#6C55A0"/>
		<stop  offset="1" style="stop-color:#4D6EB2"/>
	</linearGradient>
	<path fill="url(#SVGID_18_)" d="M50.1,73.5l21.5,21.4l21.5-21.4L71.6,52.1L50.1,73.5z M75.2,71.1l-6,5.9L68,75.9l6-5.9L75.2,71.1z"
		/>
</g>
</svg>
