<?xml version="1.0" encoding="utf-8"?>
<!-- Generator: Adobe Illustrator 19.1.0, SVG Export Plug-In . SVG Version: 6.00 Build 0)  -->
<svg version="1.1" id="Layer_1" xmlns="http://www.w3.org/2000/svg" xmlns:xlink="http://www.w3.org/1999/xlink" x="0px" y="0px"
	 viewBox="-236.9 366.3 66.7 32.5" style="enable-background:new -236.9 366.3 66.7 32.5;" xml:space="preserve">
<style type="text/css">
	.st0{fill:none;}
	.st1{fill:#1C1C1C;}
</style>
<g>
	<path class="st0" d="M-186,379.9c0.1,0.1,0.2,0.1,0.3,0.1c0,0,0,0,0,0c0,0,0,0,0.1,0c0,0,0,0,0.1,0c0.4,1.3,1.2,2.6,2.3,3.4
		c0.6,0.5,1.3,0.7,2,0.7c0.7,0,1.4-0.3,2-0.8c0.1-0.1,0.2-0.2,0.4-0.3c0.8-0.7,1.4-1.7,1.7-2.7c0-0.1,0.1-0.2,0.1-0.4
		c0,0,0.1,0.1,0.1,0.1c0,0,0.1,0,0.1,0c0,0,0.1,0,0.1-0.1c0.2-0.2,0.4-0.5,0.5-1c0.1-0.6,0-1.1-0.2-1.2c0,0,0,0-0.1,0
		c0,0-0.1,0-0.1,0c0,0-0.1,0-0.1,0.1l0,0l0,0l0,0c0,0,0,0,0,0c0,0,0,0,0,0c0,0,0,0,0,0c-0.3-1-0.6-1.7-1-2c-0.1,0-0.1-0.1-0.2-0.1
		c0,0,0,0,0,0c0,0.2,0.2,0.4,0.2,0.6c-0.5-0.2-1-0.6-1.7-0.6c-0.2,0-0.3,0-0.5,0c-1.7,0.6-3.5-0.1-3.5-0.1c-0.7-0.1-1.2,0.2-1.6,0.5
		c-0.6,0.5-0.8,1.3-0.8,1.6c0,0.1,0,0.1,0,0.1c0,0,0,0,0,0c-0.1-0.1-0.1-0.1-0.2-0.1c0,0-0.1,0-0.1,0c-0.1,0-0.1,0.1-0.2,0.2
		c0,0.3,0,0.6,0,0.9c0,0,0,0.1,0,0.1C-186.4,379.4-186.2,379.8-186,379.9z"/>
	<path class="st0" d="M-199.9,384.5C-199.9,384.5-199.9,384.5-199.9,384.5c-0.6,0.6-1.3,1.1-2.1,1.4c-0.5,0.2-1,0.3-1.6,0.3
		s-1.1-0.1-1.6-0.3c-0.8-0.3-1.5-0.8-2.1-1.4c0,0,0,0,0,0c0,0.8-0.6,1.2-1,1.4c0,0-0.1,0-0.1,0.1c-0.1,0-0.2,0.1-0.2,0.1v0
		c0,0.2,0.1,0.4,0.3,0.6c0.7,0.9,2.5,2.1,4.7,2.1c2.2,0,4.1-1.2,4.7-2.1c0.1-0.2,0.2-0.4,0.3-0.6c0,0,0,0,0,0
		C-198.9,385.9-199.9,385.5-199.9,384.5z"/>
	<path class="st0" d="M-230.4,379.8c0.1,0.1,0.2,0.1,0.3,0.1h0c0,0,0.1,0,0.1-0.1c0,0,0,0,0,0c0.4,1.3,1.3,2.7,2.3,3.5
		c0.6,0.5,1.3,0.7,2,0.7l0,0c0.1,0,0.2,0,0.3,0c0.1,0,0.2,0,0.3,0c0.1,0,0.1,0,0.2-0.1c0.1,0,0.2-0.1,0.3-0.1c0,0,0,0,0,0
		c0.2-0.1,0.3-0.1,0.5-0.2c0.2-0.1,0.3-0.2,0.5-0.3c1-0.8,1.8-2.1,2.3-3.4l0,0c0,0,0.1,0.1,0.1,0.1c0,0,0,0,0,0c0,0,0.1,0,0.1,0
		c0,0,0.1,0,0.1-0.1c0.2-0.2,0.4-0.6,0.5-1c0.1-0.6,0-1.1-0.2-1.3c0,0,0,0-0.1,0c0,0-0.1,0-0.1,0c0,0-0.1,0-0.1,0.1l0,0l0,0v0
		c0,0,0,0,0,0c0,0,0,0,0,0c0,0,0,0,0,0c-0.3-1-0.6-1.7-1-2.1c-0.1,0-0.1-0.1-0.2-0.1l0,0c0,0.2,0.2,0.4,0.2,0.6h0
		c-0.5-0.2-1-0.6-1.7-0.6c-0.2,0-0.3,0-0.5,0c-1.7,0.6-3.5-0.1-3.5-0.1c-0.1,0-0.3,0-0.4,0c-0.1,0-0.2,0-0.3,0c0,0,0,0,0,0
		c-1.5,0.3-1.7,2-1.8,2.2c0,0,0,0,0,0c0,0,0,0,0,0c-0.1-0.1-0.2-0.1-0.2-0.1c0,0-0.1,0-0.1,0c-0.1,0-0.1,0.1-0.2,0.2
		c0,0.3,0,0.6,0,0.9c0,0,0,0.1,0,0.1C-230.7,379.2-230.6,379.6-230.4,379.8z"/>
	<path class="st0" d="M-197.7,377.1C-197.8,377.1-197.8,377.1-197.7,377.1l-0.7,0.6l-7.7-4c-2.5-0.2-2.9,3.1-3,3.5c0,0,0,0,0,0l0,0
		c-0.1-0.1-0.2-0.1-0.3-0.1c0,0-0.1,0-0.1,0c-0.2,0.2-0.3,0.8-0.2,1.5c0.1,0.5,0.3,1,0.5,1.2c0.1,0.1,0.2,0.2,0.3,0.1
		c0.1,0,0.1,0,0.1-0.1c0.5,1.6,1.5,3.2,2.7,4.2c0.7,0.6,1.6,0.9,2.4,0.9c0.9,0,1.7-0.3,2.4-0.9c1.2-1,2.2-2.6,2.8-4.2
		c0,0,0.1,0.1,0.1,0.1c0.1,0,0.2,0,0.3-0.1c0.2-0.2,0.5-0.7,0.6-1.2C-197.3,377.9-197.5,377.2-197.7,377.1z"/>
	<path class="st1" d="M-170.3,390c-1.3-4.3-3.6-4.5-4.1-4.6c-1-0.2-2.2-0.1-2.8-0.3c-0.1,0.9-1.9,1.7-4.1,1.7s-4-0.7-4.1-1.7
		c-0.6,0.2-1.8,0.1-2.8,0.3c-0.4,0.1-2,0.2-3.3,2.6c0.7,0.9,1.3,2.1,1.9,3.9c0.1,0.5,0.2,1,0.1,1.5c2.2,0.7,5.5,0.9,8.3,0.9
		c4.4,0,9.8-0.6,10.8-2.6C-170.2,391.2-170.1,390.6-170.3,390z"/>
	<path class="st1" d="M-186.5,380.4c0.5,1.2,1.2,2.5,2.1,3.3c0.5,0.5,1.1,0.9,1.7,1.1c0.4,0.2,0.9,0.3,1.3,0.3
		c0.4,0,0.9-0.1,1.3-0.3c0.6-0.2,1.2-0.7,1.7-1.2c0.9-0.9,1.6-2.1,2.1-3.3c0.4-0.1,0.7-0.8,0.9-1.6c0.2-0.9,0-1.7-0.3-1.8
		c0-0.2,0-0.4,0-0.7c0-3.3-1.9-5.5-5-5.7c-2.7-0.2-4.7,0.9-5.6,2.6c-0.3,0.6-0.5,1.6-0.5,2.4c-0.1,0.4-0.2,0.9-0.2,1.3h0
		c0,0,0,0,0,0c0,0,0,0,0,0c-0.4,0.1-0.6,0.9-0.4,1.9C-187.3,379.7-186.9,380.4-186.5,380.4z M-186.4,378c0-0.1,0.1-0.2,0.2-0.2
		c0,0,0.1,0,0.1,0c0.1,0,0.1,0,0.2,0.1c0,0,0,0,0,0c0,0,0-0.1,0-0.1c0.1-0.3,0.2-1.1,0.8-1.6c0.4-0.3,0.9-0.6,1.6-0.5
		c0,0,1.8,0.7,3.5,0.1c0.2,0,0.4,0,0.5,0c0.7,0,1.2,0.4,1.7,0.6c0-0.2-0.2-0.5-0.2-0.6c0,0,0,0,0,0c0.1,0,0.2,0.1,0.2,0.1
		c0.4,0.4,0.7,1,1,2c0,0,0,0,0,0h0c0,0,0,0,0,0c0,0,0,0,0,0l0,0l0,0c0,0,0.1,0,0.1-0.1c0,0,0.1,0,0.1,0c0,0,0,0,0.1,0
		c0.2,0.1,0.3,0.6,0.2,1.2c-0.1,0.5-0.3,0.8-0.5,1c0,0-0.1,0.1-0.1,0.1c0,0-0.1,0-0.1,0c0,0-0.1,0-0.1-0.1c0,0.1-0.1,0.2-0.1,0.4
		c-0.4,1-1,2-1.7,2.7c-0.1,0.1-0.2,0.2-0.4,0.3c-0.6,0.5-1.3,0.8-2,0.8c-0.7,0-1.4-0.3-2-0.7c-1-0.8-1.8-2.1-2.3-3.4c0,0,0,0-0.1,0
		c0,0,0,0-0.1,0c0,0,0,0,0,0c-0.1,0-0.2,0-0.3-0.1c-0.2-0.2-0.3-0.5-0.4-1c0,0,0-0.1,0-0.1C-186.4,378.6-186.4,378.3-186.4,378z"/>
	<path class="st1" d="M-215.4,387.7c-1.3-2.2-2.8-2.3-3.2-2.4c-1-0.2-2.2-0.1-2.8-0.3c-0.1,0.6-1.9,2.7-3.1,4l-0.5-2
		c0.4-0.2,0.5-0.7,0.5-1.2h-2c0,0.4,0.1,0.9,0.5,1.2l-0.5,2c-1.2-1.3-3-3.4-3.1-4c-0.6,0.2-1.9,0.1-2.8,0.3
		c-0.5,0.1-2.9,0.3-4.1,4.7c-0.2,0.6-0.1,1.2,0.2,1.8c1,2,6.5,2.6,11,2.6c2.7,0,5.8-0.2,8-0.8c-0.1-0.5-0.1-1.1,0.1-1.6
		C-217,389.9-216.2,388.6-215.4,387.7z"/>
	<path class="st1" d="M-230.9,380.3c0.5,1.3,1.2,2.5,2.1,3.4c0.5,0.5,1.1,0.9,1.7,1.2c0.4,0.2,0.9,0.3,1.3,0.3s0.9-0.1,1.3-0.3
		c0.6-0.3,1.2-0.7,1.8-1.2c0.9-0.9,1.6-2.1,2.1-3.3c0.4-0.1,0.7-0.8,0.9-1.6c0.2-0.9,0-1.7-0.3-1.9c0-0.2,0-0.5,0-0.7
		c0-3.3-2-5.3-5-5.5c-2.7-0.2-4.7,0.9-5.6,2.7c-0.3,0.6-0.5,1.3-0.6,2.2c-0.1,0.4-0.2,0.9-0.2,1.3h0c0,0,0,0,0,0c0,0,0,0,0,0
		c-0.4,0.1-0.6,0.9-0.4,1.9C-231.7,379.6-231.3,380.2-230.9,380.3z M-230.8,377.8c0-0.1,0.1-0.2,0.2-0.2c0,0,0.1,0,0.1,0
		c0.1,0,0.1,0,0.2,0.1c0,0,0,0,0,0c0,0,0,0,0,0c0-0.2,0.3-1.9,1.8-2.2c0,0,0,0,0,0c0.1,0,0.2,0,0.3,0c0.1,0,0.2,0,0.4,0
		c0,0,1.8,0.7,3.5,0.1c0.2,0,0.4,0,0.5,0c0.7,0,1.2,0.4,1.7,0.6h0c0-0.2-0.2-0.5-0.2-0.6l0,0c0.1,0,0.2,0.1,0.2,0.1
		c0.4,0.4,0.7,1,1,2.1c0,0,0,0,0,0l0,0c0,0,0,0,0,0v0l0,0l0,0c0,0,0.1,0,0.1-0.1c0,0,0.1,0,0.1,0c0,0,0,0,0.1,0
		c0.2,0.1,0.3,0.6,0.2,1.3c-0.1,0.5-0.3,0.9-0.5,1c0,0-0.1,0.1-0.1,0.1c0,0-0.1,0-0.1,0c0,0,0,0,0,0c0,0-0.1,0-0.1-0.1l0,0
		c-0.4,1.3-1.2,2.6-2.3,3.4c-0.1,0.1-0.3,0.2-0.5,0.3c-0.2,0.1-0.3,0.2-0.5,0.2c0,0,0,0,0,0c-0.1,0-0.2,0.1-0.3,0.1
		c-0.1,0-0.1,0-0.2,0.1c-0.1,0-0.2,0-0.3,0c-0.1,0-0.2,0-0.3,0l0,0c-0.7,0-1.4-0.3-2-0.7c-1-0.8-1.9-2.1-2.3-3.5c0,0,0,0,0,0
		c0,0-0.1,0.1-0.1,0.1c0,0,0,0,0,0c-0.1,0-0.2,0-0.3-0.1c-0.2-0.2-0.3-0.5-0.4-1c0,0,0-0.1,0-0.1
		C-230.8,378.4-230.8,378.1-230.8,377.8z"/>
	<path class="st1" d="M-191.8,388.6c-1.4-1.9-3-2.1-3.4-2.2c-0.1,0-0.1,0-0.2,0c-1.9-1.7-0.6-8.8-0.6-8.8c0-0.3,0-0.6,0-0.9
		c0-0.1,0-0.2,0-0.3c0-0.2,0-0.4,0-0.6c0-0.1,0-0.2,0-0.3c0-0.2,0-0.3-0.1-0.5c0-0.1,0-0.2,0-0.3c0-0.2-0.1-0.3-0.1-0.5
		c0-0.1,0-0.2,0-0.2c0-0.2-0.1-0.4-0.1-0.6c0,0,0,0,0-0.1c-0.1-0.2-0.1-0.4-0.2-0.6c0-0.1,0-0.1-0.1-0.2c0-0.1-0.1-0.3-0.1-0.4
		c0-0.1-0.1-0.1-0.1-0.2c0-0.1-0.1-0.2-0.1-0.3c0-0.1-0.1-0.1-0.1-0.2c-0.1-0.1-0.1-0.2-0.2-0.3c0-0.1-0.1-0.1-0.1-0.2
		c-0.1-0.1-0.1-0.2-0.2-0.4c0,0,0,0,0-0.1c-0.1-0.1-0.2-0.3-0.3-0.4c0,0-0.1-0.1-0.1-0.1c-0.1-0.1-0.1-0.2-0.2-0.2
		c0,0-0.1-0.1-0.1-0.1c-0.1-0.1-0.1-0.1-0.2-0.2c0,0-0.1-0.1-0.1-0.1c-0.1-0.1-0.1-0.1-0.2-0.2c0,0-0.1-0.1-0.1-0.1
		c-0.1-0.1-0.2-0.1-0.2-0.2c0,0,0,0-0.1-0.1c-0.1-0.1-0.2-0.1-0.3-0.2c0,0-0.1,0-0.1-0.1c-0.1,0-0.1-0.1-0.2-0.1c0,0-0.1,0-0.1-0.1
		c-0.1,0-0.1-0.1-0.2-0.1c0,0-0.1,0-0.1-0.1c-0.1,0-0.1-0.1-0.2-0.1c0,0-0.1,0-0.1,0c-0.1,0-0.2-0.1-0.2-0.1c0,0-0.1,0-0.1,0
		c-0.1,0-0.2-0.1-0.3-0.1c0,0-0.1,0-0.1,0c-0.1,0-0.1,0-0.2,0c0,0-0.1,0-0.1,0c-0.1,0-0.1,0-0.2,0c0,0-0.1,0-0.1,0
		c-0.1,0-0.1,0-0.2,0c0,0-0.1,0-0.1,0c-0.1,0-0.1,0-0.2,0c0,0,0,0,0,0c-0.1,0-0.1,0-0.2,0c0,0,0,0-0.1,0c0,0-0.1,0-0.1,0
		c-0.1,0-0.1,0-0.2,0c0,0,0,0,0,0c0,0-0.1,0-0.1,0c0,0,0,0,0,0c0,0,0,0-0.1,0c0,0,0,0,0,0c0,0,0,0,0,0c-0.1,0-0.2,0-0.3,0
		c-0.1,0-0.2,0-0.3,0c0,0,0,0,0,0c0,0,0,0,0,0c0,0,0,0-0.1,0c0,0,0,0,0,0c0,0-0.1,0-0.1,0c0,0,0,0,0,0c-0.1,0-0.1,0-0.2,0
		c0,0-0.1,0-0.1,0c0,0,0,0,0,0c-0.1,0-0.1,0-0.2,0c0,0,0,0,0,0c-0.1,0-0.1,0-0.2,0c0,0-0.1,0-0.1,0c-0.1,0-0.1,0-0.2,0
		c0,0-0.1,0-0.1,0c-0.1,0-0.1,0-0.2,0c0,0-0.1,0-0.1,0c-0.1,0-0.1,0-0.2,0c0,0-0.1,0-0.1,0c-0.1,0-0.2,0-0.3,0.1c0,0,0,0-0.1,0
		c-0.1,0-0.2,0.1-0.2,0.1c0,0-0.1,0-0.1,0c-0.1,0-0.1,0.1-0.2,0.1c0,0-0.1,0-0.1,0.1c-0.1,0-0.1,0.1-0.2,0.1c0,0-0.1,0-0.1,0.1
		c-0.1,0-0.2,0.1-0.2,0.1c0,0-0.1,0-0.1,0.1c-0.1,0.1-0.2,0.1-0.3,0.2c0,0,0,0-0.1,0c-0.1,0.1-0.2,0.1-0.3,0.2c0,0-0.1,0.1-0.1,0.1
		c-0.1,0.1-0.1,0.1-0.2,0.2c0,0-0.1,0.1-0.1,0.1c-0.1,0.1-0.1,0.1-0.2,0.2c0,0-0.1,0.1-0.1,0.1c-0.1,0.1-0.1,0.2-0.2,0.2
		c0,0-0.1,0.1-0.1,0.1c-0.1,0.1-0.2,0.3-0.3,0.4c0,0,0,0,0,0.1c-0.1,0.1-0.2,0.2-0.2,0.4c0,0-0.1,0.1-0.1,0.2
		c-0.1,0.1-0.1,0.2-0.2,0.3c0,0.1-0.1,0.1-0.1,0.2c-0.1,0.1-0.1,0.2-0.1,0.3c0,0.1-0.1,0.1-0.1,0.2c0,0.1-0.1,0.3-0.1,0.4
		c0,0.1,0,0.1-0.1,0.2c-0.1,0.2-0.1,0.4-0.2,0.6c0,0,0,0,0,0.1c-0.1,0.2-0.1,0.4-0.1,0.6c0,0.1,0,0.2,0,0.2c0,0.2-0.1,0.3-0.1,0.5
		c0,0.1,0,0.2,0,0.3c0,0.2,0,0.3-0.1,0.5c0,0.1,0,0.2,0,0.3c0,0.2,0,0.4,0,0.6c0,0.1,0,0.2,0,0.3c0,0.3,0,0.6,0,0.9
		c0,0,1.3,7.1-0.6,8.8c-0.1,0-0.1,0-0.2,0c-0.4,0.1-1.8,0.2-3.1,1.8c-0.7,0.8-1.4,2-1.9,3.8c-0.1,0.4-0.1,0.9-0.1,1.3
		c0,0.3,0.1,0.6,0.3,0.9c0.1,0.1,0.2,0.3,0.3,0.4c0.1,0.1,0.1,0.1,0.2,0.2c0.1,0.1,0.1,0.1,0.2,0.2c0.1,0.1,0.2,0.2,0.4,0.2
		c0.1,0,0.1,0.1,0.2,0.1c0.4,0.2,0.8,0.4,1.3,0.6c0,0,0,0,0,0c1.7,0.6,3.9,1,6.3,1.2c0.1,0,0.2,0,0.2,0c0.2,0,0.4,0,0.6,0
		c0.2,0,0.3,0,0.5,0c0.2,0,0.4,0,0.5,0c0.2,0,0.3,0,0.5,0c0.2,0,0.4,0,0.6,0c0.2,0,0.3,0,0.5,0c0.2,0,0.3,0,0.5,0c0.2,0,0.3,0,0.5,0
		s0.3,0,0.5,0c0.2,0,0.3,0,0.5,0c0.2,0,0.3,0,0.5,0c0.2,0,0.4,0,0.6,0c0.2,0,0.3,0,0.5,0c0.2,0,0.4,0,0.5,0c0.2,0,0.3,0,0.5,0
		c0.2,0,0.4,0,0.6,0c0.1,0,0.2,0,0.3,0c3-0.2,5.9-0.8,7.6-1.8c0.1,0,0.1-0.1,0.2-0.1c0.1-0.1,0.3-0.2,0.4-0.2c0.1,0,0.1-0.1,0.2-0.1
		c0.2-0.2,0.4-0.4,0.6-0.7c0.2-0.3,0.3-0.6,0.3-1c0-0.4,0-0.8-0.1-1.2C-190.7,390.5-191.2,389.4-191.8,388.6z M-198.6,386
		c0,0.2-0.1,0.4-0.3,0.6c-0.7,0.9-2.5,2.1-4.7,2.1c-2.2,0-4.1-1.2-4.7-2.1c-0.1-0.2-0.2-0.4-0.3-0.6c0,0,0,0,0,0c0,0,0.1,0,0.2-0.1
		c0,0,0.1,0,0.1-0.1c0.4-0.2,1-0.7,1-1.4c0,0,0,0,0,0c0.6,0.6,1.3,1.1,2.1,1.4c0.5,0.2,1,0.3,1.6,0.3s1.1-0.1,1.6-0.3
		c0.7-0.3,1.5-0.8,2.1-1.4c0,0,0,0,0,0C-199.9,385.5-198.9,385.9-198.6,386C-198.6,386-198.6,386-198.6,386z M-197.5,378.6
		c-0.1,0.6-0.3,1-0.6,1.2c-0.1,0.1-0.2,0.1-0.3,0.1c-0.1,0-0.1,0-0.1-0.1c-0.5,1.6-1.5,3.2-2.8,4.2c-0.7,0.6-1.5,0.9-2.4,0.9
		c-0.9,0-1.7-0.3-2.4-0.9c-1.2-1-2.2-2.6-2.7-4.2c0,0-0.1,0.1-0.1,0.1c-0.1,0-0.2,0-0.3-0.1c-0.2-0.2-0.4-0.7-0.5-1.2
		c-0.1-0.7,0-1.3,0.2-1.5c0,0,0.1,0,0.1,0c0.1,0,0.2,0,0.3,0.1l0,0c0,0,0,0,0,0c0-0.3,0.4-3.7,3-3.5l7.7,4l0.6-0.6c0,0,0,0,0.1,0
		C-197.5,377.2-197.3,377.9-197.5,378.6z"/>
</g>
</svg>
