<?xml version="1.0" encoding="utf-8"?>
<!-- Generator: Adobe Illustrator 19.1.0, SVG Export Plug-In . SVG Version: 6.00 Build 0)  -->
<svg version="1.1" id="Layer_1" xmlns="http://www.w3.org/2000/svg" xmlns:xlink="http://www.w3.org/1999/xlink" x="0px" y="0px"
	 viewBox="-246 365.8 76.2 45" style="enable-background:new -246 365.8 76.2 45;" xml:space="preserve">
<style type="text/css">
	.st0{fill:#1C1C1C;}
</style>
<path class="st0" d="M-171.9,409.7H-244c-0.4,0-0.7-0.2-0.9-0.5c-0.2-0.3-0.2-0.7,0-1l1.8-2.7v-12.8l-1.8-2.9c-0.2-0.3-0.2-0.7,0-1
	c0.2-0.3,0.5-0.5,0.9-0.5h22.4c0.5,0,1,0.4,1,1c0,0.5-0.4,1-1,1h-20.7l1,1.7c0.1,0.2,0.1,0.3,0.1,0.5v13.3c0,0.2-0.1,0.4-0.2,0.5
	l-1,1.5h68.5l-0.9-1.3c-0.1-0.2-0.2-0.4-0.2-0.6v-13.7c0-0.2,0.1-0.4,0.2-0.5l0.9-1.4h-20.6c-0.5,0-1-0.4-1-1c0-0.5,0.4-1,1-1h22.4
	c0.4,0,0.7,0.2,0.9,0.5c0.2,0.3,0.2,0.7,0,1l-1.8,2.7v13.1l1.8,2.6c0.2,0.3,0.2,0.7,0.1,1C-171.2,409.5-171.5,409.7-171.9,409.7z"/>
<path class="st0" d="M-221.6,384.3h1.9v23.4h-1.9V384.3z"/>
<path class="st0" d="M-196.2,384.3h1.9v23.4h-1.9V384.3z"/>
<path class="st0" d="M-193.3,384.3C-193.3,384.3-193.3,384.3-193.3,384.3h-29.2c-0.5,0-0.9-0.3-1-0.8c-0.1-0.4,0.1-0.9,0.5-1.1
	l14.6-6.8c0.3-0.1,0.6-0.1,0.8,0l14.5,6.8c0.4,0.1,0.7,0.5,0.7,0.9C-192.3,383.9-192.7,384.3-193.3,384.3z M-218.1,382.4h20.4
	l-10.2-4.8L-218.1,382.4z"/>
<path class="st0" d="M-209.9,366.8h1.9v9.7h-1.9V366.8z"/>
<path class="st0" d="M-196.2,388.2h-23.4c-0.5,0-1-0.4-1-1c0-0.5,0.4-1,1-1h23.4c0.5,0,1,0.4,1,1
	C-195.3,387.8-195.7,388.2-196.2,388.2z"/>
<path class="st0" d="M-214.7,408.7c-0.5,0-1-0.4-1-1v-19.5c0-0.5,0.4-1,1-1s1,0.4,1,1v19.5C-213.8,408.2-214.2,408.7-214.7,408.7z"
	/>
<path class="st0" d="M-201.1,408.7c-0.5,0-1-0.4-1-1v-19.5c0-0.5,0.4-1,1-1c0.5,0,1,0.4,1,1v19.5
	C-200.1,408.2-200.6,408.7-201.1,408.7z"/>
<path class="st0" d="M-199.2,374.6h-9.7c-0.5,0-1-0.4-1-1v-5.8c0-0.5,0.4-1,1-1h9.7c0.5,0,1,0.4,1,1v5.8
	C-198.2,374.1-198.6,374.6-199.2,374.6z M-207.9,372.6h7.8v-3.9h-7.8V372.6z"/>
<path class="st0" d="M-234.2,405.8h-3.9c-0.5,0-1-0.4-1-1v-3.9c0-0.5,0.4-1,1-1h3.9c0.5,0,1,0.4,1,1v3.9
	C-233.3,405.3-233.7,405.8-234.2,405.8z M-237.2,403.8h1.9v-1.9h-1.9V403.8z"/>
<path class="st0" d="M-234.2,398h-3.9c-0.5,0-1-0.4-1-1v-3.9c0-0.5,0.4-1,1-1h3.9c0.5,0,1,0.4,1,1v3.9
	C-233.3,397.5-233.7,398-234.2,398z M-237.2,396h1.9v-1.9h-1.9V396z"/>
<path class="st0" d="M-226.4,405.8h-3.9c-0.5,0-1-0.4-1-1v-3.9c0-0.5,0.4-1,1-1h3.9c0.5,0,1,0.4,1,1v3.9
	C-225.5,405.3-225.9,405.8-226.4,405.8z M-229.4,403.8h1.9v-1.9h-1.9V403.8z"/>
<path class="st0" d="M-226.4,398h-3.9c-0.5,0-1-0.4-1-1v-3.9c0-0.5,0.4-1,1-1h3.9c0.5,0,1,0.4,1,1v3.9
	C-225.5,397.5-225.9,398-226.4,398z M-229.4,396h1.9v-1.9h-1.9V396z"/>
<path class="st0" d="M-185.5,405.8h-3.9c-0.5,0-1-0.4-1-1v-3.9c0-0.5,0.4-1,1-1h3.9c0.5,0,1,0.4,1,1v3.9
	C-184.5,405.3-185,405.8-185.5,405.8z M-188.4,403.8h1.9v-1.9h-1.9V403.8z"/>
<path class="st0" d="M-185.5,398h-3.9c-0.5,0-1-0.4-1-1v-3.9c0-0.5,0.4-1,1-1h3.9c0.5,0,1,0.4,1,1v3.9
	C-184.5,397.5-185,398-185.5,398z M-188.4,396h1.9v-1.9h-1.9V396z"/>
<path class="st0" d="M-177.7,405.8h-3.9c-0.5,0-1-0.4-1-1v-3.9c0-0.5,0.4-1,1-1h3.9c0.5,0,1,0.4,1,1v3.9
	C-176.7,405.3-177.2,405.8-177.7,405.8z M-180.6,403.8h1.9v-1.9h-1.9V403.8z"/>
<path class="st0" d="M-177.7,398h-3.9c-0.5,0-1-0.4-1-1v-3.9c0-0.5,0.4-1,1-1h3.9c0.5,0,1,0.4,1,1v3.9
	C-176.7,397.5-177.2,398-177.7,398z M-180.6,396h1.9v-1.9h-1.9V396z"/>
<path class="st0" d="M-204,407.7h-1.9v-4.5c0-0.6-1.1-1.4-1.9-1.4s-1.9,0.8-1.9,1.4v4.5h-1.9v-4.5c0-1.9,2.1-3.3,3.9-3.3
	c1.8,0,3.9,1.4,3.9,3.3V407.7z"/>
<path class="st0" d="M-205,398h-5.8c-0.5,0-1-0.4-1-1v-5.8c0-0.5,0.4-1,1-1h5.8c0.5,0,1,0.4,1,1v5.8C-204,397.5-204.5,398-205,398z
	 M-209.9,396h3.9v-3.9h-3.9V396z"/>
</svg>
