<?xml version="1.0" encoding="utf-8"?><svg xmlns="http://www.w3.org/2000/svg" xmlns:xlink="http://www.w3.org/1999/xlink"><symbol viewBox="0 0 512 208" id="icon-activeindicatorshrinked"><path d="M0 357l256-208 256 208z"/></symbol><symbol viewBox="0 0 490 490" id="icon-add-2"><path d="M501 181H331V11H181v170H11v150h170v170h150V331h170z"/></symbol><symbol viewBox="0 0 512 512" id="icon-add-2-1"><path d="M501 171H341V11c0-2 0-7-2-9-2 0-4-2-8-2H181c-2 0-6 2-8 2 0 2-2 7-2 9v160H11c-7 0-11 4-11 10v150c0 6 4 10 11 10h160v160c0 7 4 11 10 11h150c6 0 10-4 10-11V341h160c7 0 11-4 11-10V181c0-6-4-10-11-10z"/></symbol><symbol viewBox="0 0 500.1855773925781 315.0928039550781" id="icon-arrow-down"><path d="M256 410c-6 0-13-2-17-9L9 129c-8-8-6-23 2-29 9-8 23-6 30 2l213 253 213-253c9-8 21-10 30-2 8 9 10 21 2 29L269 401c0 7-7 9-13 9z"/></symbol><symbol viewBox="0 0 448 256" id="icon-arrow-graph-up-right"><path d="M320 128l62 62-94 98-107-107L32 384l149-128 107 112 131-141 61 61V128z"/></symbol><symbol viewBox="0 0 298.54638671875 511.88543701171875" id="icon-arrow-right"><path d="M117 512c-3 0-6-1-8-4-4-4-3-11 1-15l269-237L110 19c-4-4-5-11-1-15 4-5 11-5 15-1l278 245c2 2 3 5 3 8s-1 6-3 8L124 509c-2 2-4 3-7 3z"/></symbol><symbol viewBox="0 0 493.9254455566406 315.0928039550781" id="icon-arrow-up"><path d="M32 412c-4 0-8-2-12-4-9-7-11-21-2-30l219-272c4-4 11-8 17-8s12 2 17 8l230 272c8 9 6 23-2 30-9 8-23 6-30-2L256 152 53 406c-8 4-15 6-21 6z"/></symbol><symbol viewBox="0 0 512 512" id="icon-bill-info"><path d="M501 21H256V11c0-6-5-11-11-11H75c-6 0-11 5-11 11v10H11C5 21 0 26 0 32v469c0 6 5 11 11 11h490c6 0 11-5 11-11V32c0-6-5-11-11-11zM85 21h150v241l-67-67c-3-2-5-3-8-3s-5 1-8 3l-67 67zm406 470H21V43h43v245c0 4 3 8 7 10s8 1 11-2l78-78 78 78c2 2 5 3 7 3s3-1 4-1c4-2 7-6 7-10V43h235zM309 171h128c6 0 11-5 11-11s-5-11-11-11H309c-6 0-10 5-10 11s4 11 10 11zm0 64h128c6 0 11-5 11-11s-5-11-11-11H309c-6 0-10 5-10 11s4 11 10 11zm128 42H309c-6 0-10 5-10 11s4 11 10 11h128c6 0 11-5 11-11s-5-11-11-11zm0 64H75c-6 0-11 5-11 11s5 11 11 11h362c6 0 11-5 11-11s-5-11-11-11zm-85 64H75c-6 0-11 5-11 11s5 11 11 11h277c6 0 11-5 11-11s-5-11-11-11z"/></symbol><symbol viewBox="0 0 512 512" id="icon-bills"><path d="M309 107H192c-6 0-11 4-11 10s5 11 11 11h117c6 0 11-5 11-11s-5-10-11-10zm0 64H192c-6 0-11 4-11 10s5 11 11 11h117c6 0 11-5 11-11s-5-10-11-10zm0 64H192c-6 0-11 4-11 10s5 11 11 11h117c6 0 11-5 11-11s-5-10-11-10zm0 64H192c-6 0-11 4-11 10s5 11 11 11h117c6 0 11-5 11-11s-5-10-11-10zM448 0c-2 0-5 0-7 1-1-1-2-1-4-1H181c-41 0-74 33-74 75v288H75c-42 0-75 33-75 74 0 42 33 75 75 75h256c41 0 74-33 74-75V85h96c6 0 11-4 11-10 0-44-26-75-64-75zM75 491c-30 0-54-24-54-54 0-29 24-53 54-53h203c-13 14-22 32-22 53s9 40 22 54zm309-54c0 30-24 54-53 54-30 0-54-24-54-54 0-29 24-53 54-53 6 0 10-5 10-11s-4-10-10-10H128V75c0-30 24-54 53-54h220c-11 12-17 27-17 43zm21-373c0-24 19-43 43-43 23 0 39 17 42 43z"/></symbol><symbol viewBox="0 0 512 469.25" id="icon-binoculars"><path d="M490 305l-64-149c-1-1-1-2-2-3l-31-30-31-82c-1-1-1-3-2-4-20-19-60-19-80 0-2 2-3 5-3 8v84c0 6 5 10 11 10s11-4 11-10V50c11-9 33-8 44 1l31 82c1 1 1 2 2 3l31 31 45 105c-17-10-36-15-57-15-40 0-75 20-96 50V188c19 7 32 17 32 26 0 6 4 11 10 11s11-5 11-11c0-30-41-53-96-53s-96 23-96 53c0 6 5 11 11 11s10-5 10-11c0-9 13-19 32-26v119c-21-30-56-50-96-50-20 0-40 5-57 15l45-105 31-31c1-1 1-2 2-4l31-83c11-9 33-9 44-1v81c0 6 5 10 11 10s11-4 11-10V43c0-2-1-5-3-7-20-19-60-19-80 0-1 1-1 2-2 4l-31 83-31 30c0 1-1 2-2 3L22 305C8 325 0 348 0 374c0 65 53 117 117 117 65 0 118-52 118-117V184c6-1 13-2 21-2s15 1 21 2v190c0 65 53 117 118 117 64 0 117-52 117-117 0-26-8-49-22-69zM117 470c-53 0-96-43-96-96s43-96 96-96 96 43 96 96-43 96-96 96zm278 0c-53 0-96-43-96-96s43-96 96-96 96 43 96 96-43 96-96 96zM117 299c-41 0-74 34-74 75 0 6 4 11 10 11s11-5 11-11c0-29 24-53 53-53 6 0 11-5 11-11s-5-11-11-11zm278 0c-42 0-75 34-75 75 0 6 5 11 11 11s10-5 10-11c0-29 24-53 54-53 6 0 10-5 10-11s-4-11-10-11z"/></symbol><symbol viewBox="0 0 196 454" id="icon-bolt"><path d="M354 247l-92-20 43-198-147 220 74 16-47 218z"/></symbol><symbol viewBox="66 448 34.568 28.806" id="icon-bubble-chat"><defs><style>.ala{fill:#e64a33}</style></defs><path class="ala" d="M89.045 448H77.523a11.523 11.523 0 1 0 0 23.045h.72v5.04a.72.72 0 0 0 .445.666.71.71 0 0 0 .275.056.726.726 0 0 0 .51-.21l5.55-5.55h4.023a11.523 11.523 0 1 0 0-23.046zm0 21.6h-4.32a.725.725 0 0 0-.51.21l-4.532 4.533v-4.018a.72.72 0 0 0-.72-.72h-1.44a10.082 10.082 0 1 1 0-20.164h11.522a10.082 10.082 0 1 1 0 20.165z"/></symbol><symbol viewBox="0 0 512 512" id="icon-building"><path d="M501 256h-83l-13-4v-71c0-79-62-143-138-149V11c0-7-5-11-11-11s-11 4-11 11v21c-76 6-138 70-138 149v71l-13 4H11c-7 0-11 4-11 11v170c0 7 4 11 11 11h74v53c0 7 5 11 11 11h320c6 0 11-4 11-11v-53h74c7 0 11-4 11-11V267c0-7-4-11-11-11zM299 448V320h42v128zm-64 0V320h42v128zm-64 0V320h42v128zm-64 0V320h42v128zm149-235l149 60v26H107v-26zm107 107h42v128h-42zM260 192h-4 128v51zm-4-139c66 0 122 52 128 118H128c6-66 62-118 128-118zM128 192h128-4l-124 49zM21 427V277h64v150zm86 64v-22h298v22zm384-64h-64V277h64z"/></symbol><symbol viewBox="68 523 28.907 28.906" id="icon-business-man"><defs><style>.ana{fill:#e64a33}</style></defs><path class="ana" d="M95.675 545.482c-.88-1.322-3.16-2.194-5.8-3.206-.54-.206-1.086-.416-1.628-.632l-.014.037a5.286 5.286 0 0 0-1.675-1.406l-.49-.248v-1.742a5.1 5.1 0 0 0 1.832-3.536 2.175 2.175 0 0 0 .625-1.18 2.627 2.627 0 0 0-.49-2.437l.11-.276c.465-1.163 1.33-3.33.99-5.03-.402-1.994-3.216-2.765-5.503-2.824-1.987-.046-4.4.4-5.137 1.756a2.277 2.277 0 0 0-1.65.89c-1.048 1.41-.288 3.916.12 5.26.024.074.044.142.064.2a2.67 2.67 0 0 0-.538 2.516 2.1 2.1 0 0 0 .59 1.12 5.157 5.157 0 0 0 1.758 3.533v1.764l-.407.227a5.2 5.2 0 0 0-1.667 1.42c-.538.213-1.083.422-1.622.627-2.627 1-4.895 1.86-5.764 3.165-1.287 1.932-1.38 5.654-1.38 5.812a.6.6 0 0 0 .6.614h27.7a.6.6 0 0 0 .6-.59c.01-.158.07-3.893-1.225-5.834zm-7.747-1.982l.73 2.208-4.59-2.647a5.3 5.3 0 0 0 1.822-1.035.607.607 0 0 0 .176-.426v-.226a4.432 4.432 0 0 1 1.862 2.126zm-4.27 1.11a1.204 1.204 0 1 1-2.41 0v-.35l1.242-.72 1.167.674zm-5.384-10.237a.6.6 0 0 0-.44-.58 2.118 2.118 0 0 1-.212-1.27.8.8 0 0 1 .355-.623.6.6 0 0 0 .332-.538 3.073 3.073 0 0 0-.193-.8c-.3-.978-.992-3.27-.307-4.194a1.27 1.27 0 0 1 1.1-.424.6.6 0 0 0 .584-.456c.164-.658 1.787-1.325 4.11-1.28 2.35.058 4.14.82 4.346 1.855.27 1.348-.508 3.3-.927 4.347a2.953 2.953 0 0 0-.3.955.6.6 0 0 0 .332.538.73.73 0 0 1 .338.6 2.112 2.112 0 0 1-.243 1.29.6.6 0 0 0-.447.58 3.872 3.872 0 0 1-1.57 3.11.6.6 0 0 0-.273.5v3.338a5.254 5.254 0 0 1-2.372.87 5.652 5.652 0 0 1-2.446-.872v-3.33a.6.6 0 0 0-.264-.5 3.92 3.92 0 0 1-1.504-3.115zm.566 7.043v.184a.607.607 0 0 0 .176.426 5.276 5.276 0 0 0 1.89 1.042L76.35 545.7l.737-2.2a4.36 4.36 0 0 1 1.753-2.083zm-8.458 4.734c.655-.985 2.96-1.86 5.19-2.71l.306-.117-1.178 3.505a.6.6 0 0 0 .872.713l4.5-2.6a2.4 2.4 0 0 0 .928 1.58 10.983 10.983 0 0 0-2.09 4.18h-9.673a10.893 10.893 0 0 1 1.145-4.55zm12.07 4.55h-2.28c.558-1.732 1.52-3.682 2.28-3.682s1.655 1.954 2.157 3.682zm3.407 0a10.614 10.614 0 0 0-1.965-4.172 2.4 2.4 0 0 0 .938-1.636l4.59 2.647a.6.6 0 0 0 .874-.712l-1.176-3.555.323.125c2.243.86 4.56 1.746 5.23 2.748a10.115 10.115 0 0 1 1.02 4.554H85.86z"/></symbol><symbol viewBox="0 0 512 474" id="icon-chat"><path d="M256 19C115 19 0 113 0 230c0 54 25 106 71 145L20 478c-3 4-2 9 1 12 2 2 5 3 8 3 2 0 3 0 5-1l137-64c27 8 56 12 85 12 141 0 256-94 256-210 0-117-115-211-256-211zm0 400c-28 0-56-4-83-12-2-1-5-1-7 0L52 460l42-83c2-4 1-10-3-13-45-36-70-84-70-134C21 125 127 40 256 40s235 85 235 190c0 104-106 189-235 189zm-96-227h139c6 0 10-5 10-11s-4-10-10-10H160c-6 0-11 4-11 10s5 11 11 11zm203 43H160c-6 0-11 4-11 10s5 11 11 11h203c6 0 10-5 10-11s-4-10-10-10zm0 64H160c-6 0-11 4-11 10s5 11 11 11h203c6 0 10-5 10-11s-4-10-10-10z"/></symbol><symbol viewBox="0 0 512 400" id="icon-check-mark"><path d="M176 464L0 288l80-83 112 107L440 64l72 72z"/></symbol><symbol viewBox="0 0 298 298" id="icon-close"><path d="M405 137l-30-30-119 119-119-119-30 30 119 119-119 119 30 30 119-119 119 119 30-30-119-119z"/></symbol><symbol viewBox="0 0 512 512" id="icon-close-badge"><path d="M512 256c0-19-10-36-26-46 11-14 14-34 7-52-8-18-24-30-42-32 4-18 0-37-14-51-13-13-33-19-51-14-2-18-14-34-32-41-17-8-38-5-52 6-10-16-27-26-46-26s-36 10-46 26c-14-11-35-14-52-6-18 7-30 23-32 41-18-4-38 1-51 14-14 14-19 33-14 51-18 2-34 14-41 32-8 18-5 38 6 52-16 10-26 27-26 46s10 36 26 46c-11 14-14 34-7 52 8 18 24 30 42 32-4 18 0 37 14 51 13 13 33 18 51 14 2 18 14 34 32 42 17 7 38 4 52-7 10 16 27 26 46 26s36-10 46-26c14 11 35 14 52 7 18-8 30-24 32-42 18 4 38-1 51-14 14-14 18-33 14-51 18-2 34-14 42-32 7-18 4-38-7-52 16-10 26-27 26-46zm-152 88c4 5 4 11 0 16-5 4-11 4-16 0l-88-89-88 89c-5 4-11 4-16 0-4-5-4-11 0-16l89-88-89-88c-4-5-4-11 0-16 5-4 11-4 16 0l88 89 88-89c5-4 11-4 16 0 4 5 4 11 0 16l-89 88z"/></symbol><symbol viewBox="0 0 508 419" id="icon-comment"><path d="M2 333c0 10 8 19 18 19h76v94c0 7 5 14 11 17 2 2 6 2 8 2 4 0 8-1 11-3l153-111h213c10 0 18-9 18-19V65c0-10-8-19-18-19H20C10 46 2 55 2 65zM39 84h433v229H273c-4 0-8 1-11 4l-127 93v-77c0-10-9-19-19-19H40V84zm92 88c-41 0-41 63 0 63s41-63 0-63zm125 63c41 0 41-63 0-63s-41 63 0 63zm125 0c41 0 41-63 0-63s-41 63 0 63z"/></symbol><symbol viewBox="0 0 509.688232421875 225" id="icon-committee"><path d="M511 313c-10-33-27-34-31-35-8-2-17-1-22-2 0 6-14 13-31 13s-31-6-32-13c-4 1-13 0-21 2-3 1-16 1-26 20 6 7 10 16 15 30 1 4 2 7 1 11 17 6 42 7 64 7 33 0 75-4 82-20 2-4 3-8 1-13zm-124-74c4 10 9 20 16 26 4 4 8 7 13 8 3 2 7 3 10 3s7-1 10-3c5-1 9-5 13-9 7-7 12-16 16-25 3-1 6-6 7-13 2-6 0-13-2-13v-6c0-25-15-42-39-43-20-2-36 6-43 19-2 5-3 13-3 19-1 3-2 7-2 10-3 1-5 7-3 14 1 8 4 13 7 13zm1-18c0-1 0-1 1-1h2c1-3 2-9 7-13 3-2 7-4 12-4 0 0 14 6 27 1h4c5 0 9 3 13 5 0-2-2-4-2-5 1 0 2 1 2 1 3 3 5 8 7 15h3c1 0 2 4 1 9-1 4-2 6-4 7v1h-1s-1 0-1-1c0 1-1 2-1 3-3 8-7 16-13 21-1 1-1 2-3 3-4 3-10 6-15 6-6 0-11-3-16-6-7-6-13-16-17-26h-1-1c-1 0-1 0-2-1-2-1-2-3-3-7v-1c1-2 1-5 1-7zm-223 75c-10-17-21-18-25-19-7-1-16-1-21-2-1 4-15 21-24 31l-4-16c3-1 4-5 4-9H80c0 3 1 7 4 9l-4 16c-9-10-23-27-24-31-5 1-15 1-21 2-4 1-23 2-32 36-1 5-1 9 2 14 7 15 50 20 84 20 21 0 45-2 61-6 0-4 0-9 1-12 2-17 8-27 14-33zM46 239c4 10 9 19 16 26 4 4 9 7 13 9 3 2 7 2 10 2s7 0 10-2c5-2 9-5 14-9 7-7 12-16 16-26 3 0 5-6 7-12 2-7 0-13-2-14v-6c0-25-16-40-39-42-20-1-36 7-43 21-2 4-3 10-4 17-1 3-2 7-2 10-3 0-4 7-3 14 1 6 4 11 7 12zm1-19c0-1 1-2 1-2h1c1 0 1 0 2 1 0-2 2-15 13-17h6s14 5 27 1h4c5 0 9 3 13 4 0-1-2-4-2-4h2c3 3 5 8 7 17 0 0 1 0 1-1h2c1 1 2 4 1 10-1 4-2 7-4 7v1h-1s-1 0-1-1c-3 10-9 20-18 27l-4 2c-1 1-2 1-3 1s-2 1-3 1l-1 1h-5c-5 0-11-2-15-5-8-7-15-17-18-27h-1-2c-1-2-2-4-3-8v-1c1-3 1-5 1-7zm299 82c-11-14-23-16-26-16h-1c-15-13-5-68-5-68v-7-2-5-2c0-2 0-2-1-4v-2c0-2-1-3-1-4v-2-4-1c-1-2-1-3-2-5l-1-1v-3c0-1-1-1-1-2s-1-1-1-2-1-1-1-2c0 0 0-1-1-2 0-1-1-1-1-1-1-1-1-2-2-3v-1c0-1-1-3-2-3l-1-1c0-1 0-2-1-2h-1c-1-1-1-1-1-2l-1-1c-1 0-1 0-2-1l-1-1c0-1-1-1-1-2h-1l-2-2s-1 0-1-1h-1s-1 0-1-1c-1 0-1-1-2-1 0 0-1 0-1-1h-1-1c-1 0-1-1-1-1h-1c-1 0-2-1-2-1h-5-2-3-1-1-1-1-1-5-1-2-4-5-1-1-1c-1 0-2 0-2 1h-1c-1 0-2 1-2 1h-2s-1 0-1 1c0 0 0 1-1 1 0 0-1 0-1 1h-1s-1 0-1 1c-1 1-2 1-3 2-1 0-2 0-3 1v1l-2 2h-1c0 1 0 1-1 2l-1 1c-1 0-1 1-2 1v1l-3 3v1c0 1-1 1-1 3l-1 1c-1 1-1 2-1 3 0 0-1 0-1 1-1 1-1 2-1 2 0 1-1 1-1 2s-1 2-1 3v2c-1 1-1 3-2 4v1c-1 2-1 3-1 5v7c0 2 0 3-1 4v16s10 55-5 68h-1c-3 1-14 1-24 14-5 6-11 15-15 29v10c0 2 0 4 2 7 1 0 1 2 2 3 1 0 1 0 2 1s1 1 1 2c1 1 2 1 3 1s1 1 2 1c3 2 6 3 10 5 13 4 30 7 48 9h69c23-2 45-6 58-14 1 0 1-1 1-1 1 0 3-1 3-1 1 0 1-1 2-1l5-5c1-3 2-5 2-8s0-6-1-9c-11-11-15-19-20-26zm-52-20c0 2-1 4-2 5-6 7-19 16-36 16s-32-9-36-16c-1-1-2-3-3-5h2s1 0 1-1c3-2 7-5 7-11 5 5 10 9 16 11 4 1 8 2 13 2 4 0 8-1 12-2 5-2 11-6 16-11 0 9 8 12 10 12zm8-56c0 4-2 7-4 9-1 1-2 1-2 1-1 0-1 0-1-1-4 12-12 24-22 32-5 5-11 7-18 7s-13-2-19-7c-9-8-16-20-20-32l-1 1c-1 0-2 0-2-1-2-2-3-5-4-9-1-6 0-10 1-12h1c1 0 2 0 2 1 0-2 3-28 23-27l60 31 4-5h1c1 1 3 6 1 12z"/></symbol><symbol viewBox="0 0 512 491" id="icon-crime"><path d="M53 395c0 35 29 64 64 64 36 0 64-29 64-64 0-36-28-64-64-64-35 0-64 28-64 64zm64-43c24 0 43 19 43 43 0 23-19 42-43 42-23 0-42-19-42-42 0-24 19-43 42-43zm351-48l-20-83c-1-4-6-8-11-8h-32v-42c0-83-67-150-149-150S107 88 107 171v42H75c-5 0-10 4-11 8l-20 82c-28 22-44 56-44 92 0 64 53 117 117 117 65 0 118-53 118-117 0-36-15-67-44-91l-21-83c-1-4-5-8-10-8h-32v-42c0-71 57-128 128-128s128 57 128 128v42h-32c-5 0-9 4-10 8l-21 82c-28 22-44 56-44 92 0 64 53 117 118 117 64 0 117-53 117-117 0-36-15-67-44-91zm-297 9c1 2 2 4 4 6 25 20 38 45 38 76 0 53-43 96-96 96s-96-43-96-96c0-31 14-59 39-77 2-2 3-4 4-6l19-77h69zm224 178c-53 0-96-43-96-96 0-31 14-59 38-77 2-2 4-4 4-6l19-77h69l19 78c1 2 2 4 4 6 26 20 39 45 39 76 0 53-43 96-96 96zm0-160c-36 0-64 28-64 64 0 35 28 64 64 64 35 0 64-29 64-64 0-36-29-64-64-64zm0 106c-24 0-43-19-43-42 0-24 19-43 43-43 23 0 42 19 42 43 0 23-19 42-42 42z"/></symbol><symbol viewBox="0 0 384 512" id="icon-document"><path d="M447 135c0-2-1-3-2-4L317 3c-1-1-2-2-4-2-1-1-2-1-4-1H75c-6 0-11 5-11 11v490c0 6 5 11 11 11h362c6 0 11-5 11-11V139c0-2 0-3-1-4zM320 36l92 92h-92zM85 491V21h214v118c0 6 4 10 10 10h118v342zm75-320h96c6 0 11-5 11-11s-5-11-11-11h-96c-6 0-11 5-11 11s5 11 11 11zm192 42H160c-6 0-11 5-11 11s5 11 11 11h192c6 0 11-5 11-11s-5-11-11-11zm0 64H160c-6 0-11 5-11 11s5 11 11 11h192c6 0 11-5 11-11s-5-11-11-11zm0 64H160c-6 0-11 5-11 11s5 11 11 11h192c6 0 11-5 11-11s-5-11-11-11zm0 64H160c-6 0-11 5-11 11s5 11 11 11h192c6 0 11-5 11-11s-5-11-11-11z"/></symbol><symbol viewBox="0 0 376.5931701660156 480" id="icon-drag"><path d="M384 139c-8 0-15 2-21 6v-28c0-23-19-42-43-42-8 0-15 2-21 6v-6c0-24-19-43-43-43s-43 19-43 43v6c-6-4-13-6-21-6-24 0-43 19-43 42v185l-39-46c-14-12-36-11-49 2-12 13-14 32-5 45 2 4 46 97 83 155 22 34 59 54 99 54h71c65 0 118-53 118-117V181c0-23-19-42-43-42zm21 170v86c0 53-43 96-96 96h-71c-33 0-63-17-81-45-36-56-81-151-83-153-4-6-3-14 2-20 6-5 14-5 19-2l57 67c3 3 7 4 12 3 4-2 7-6 7-10V117c0-11 9-21 21-21s21 10 21 21v128h22V75c0-12 9-22 21-22s21 10 21 22v170h22V117c0-11 9-21 21-21s21 10 21 21v160h22v-96c0-11 9-21 21-21s21 10 21 21z"/></symbol><symbol viewBox="0 0 384 384" id="icon-edit"><path d="M64 368v80h80l236-236-80-80zm378-218c8-8 8-21 0-29l-51-51c-8-8-21-8-29 0l-40 40 80 80z"/></symbol><symbol viewBox="0 0 512 512" id="icon-education"><path d="M449 358l-77-21-1-1-38-10c21-18 37-43 40-72 15-5 24-20 24-41 0-20-9-35-24-41V86l130-22c5-1 9-5 9-11 0-5-4-9-9-10L258 0h-4L9 43c-5 1-9 5-9 10 0 6 4 10 9 11l44 8v66L22 286c-1 3 0 6 2 9 2 2 5 4 8 4h64c3 0 6-2 8-4 2-3 3-6 2-9L75 138V75l64 11v86c-15 6-24 21-24 41 0 21 9 36 24 41 3 29 19 54 39 72L62 358c-37 14-62 50-62 90v53c0 6 5 11 11 11h490c6 0 11-5 11-11v-53c0-40-25-76-63-90zM45 277l19-87 19 87zM256 21l183 32-183 32L73 53zm-2 86h4l94-17v33c-9 7-40 26-96 26s-87-19-96-26V90zm-94 138c0-6-5-10-11-10-10 0-13-14-13-22 0-6 2-12 4-16 3-4 7-5 9-5 6 0 11-5 11-11v-33c18 10 49 23 96 23s78-13 96-23v33c0 6 5 11 11 11 10 0 13 14 13 21s-2 12-4 16c-3 5-7 6-9 6-6 0-11 4-11 10 0 32-22 59-47 76v1c-18 12-37 19-49 19-29 0-96-40-96-96zm96 118c14 0 35-8 56-21l36 10-92 92-92-92 36-10c21 13 42 21 56 21zm235 128H21v-43c0-31 20-59 48-70l72-19 107 107c3 2 5 3 8 3s5-1 8-3l107-107 71 19c29 11 49 39 49 70zM203 203h21c0 6 5 10 11 10s10-4 10-10c0-7-2-12-5-15-7-7-15-7-24-7h-5c-9 0-18 0-24 7-4 3-6 8-6 15 0 6 5 10 11 10 5 0 10-5 11-10zm74 10c6 0 10-5 11-10h21c0 6 5 10 11 10s11-4 11-10c0-7-2-12-6-15-6-7-15-7-24-7h-5c-9 0-17 0-24 7-3 3-5 8-5 15 0 6 5 10 10 10z"/></symbol><symbol viewBox="0 0 444 516" id="icon-enacted"><path d="M460-4H52C42-4 34 4 34 15v479c0 10 8 18 18 18h408c10 0 18-8 18-18V15c0-11-8-19-18-19zm-16 483H67V30h377zm-74-137c0 5-4 8-8 8h-28c-4 0-8-3-8-8 0-4 4-8 8-8h28c4 0 8 4 8 8zm39-121c0 8-7 15-16 15H116c-8 0-15-6-15-15 0-8 6-16 15-16h277c9 0 16 8 16 16zm0-67c0 8-7 15-16 15H116c-8 0-15-6-15-15 0-8 6-16 15-16h277c9 1 16 8 16 16zM221 86c0 9-7 16-16 16h-89c-8 0-15-7-15-16 0-8 6-15 15-15h89c9 1 16 7 16 15zm193 291c-15 1-24 13-34 22l-9 9c2-4 4-8 5-11 3-5 3-9 3-13s-1-8-4-11-7-4-10-4c-9 0-17 5-23 11-7 6-14 12-20 18-2 3-5 5-7 6-1 1-2 1-2 2-1 0-2 0-2-1 3-5 7-11 15-21 3-3 5-6 7-8 1-1 2-3 3-4 0 0 1 0 1-1v-1l1-1c1-1 1-2 1-2v-1-3l-2-2-1-1s-1-1-2-1h-1-2-1c-1 0-2 0-2 1h-1c-1 0-2 1-2 1h-2c-1 2-3 5-8 11-1 0-1 2-2 3-4 4-9 10-14 15-6 6-12 12-18 16-5 5-10 6-11 6h-1c0-2 0-4 2-7 8-10 16-22 22-33 4-6 7-12 9-17 1-2 2-3 3-5 0-1 1-1 1-2v-4s0-2-1-4-5-5-8-5-3 1-4 2c-2 1-2 2-2 3-2 1-3 4-5 9-8 13-16 25-23 35-2 5-4 8-6 11l-5 5c-2 2-3 3-4 3s-1 1-1 1v-2c0-3 1-8 3-15 4-5 7-10 10-15 11-17 19-32 25-45 3-6 5-12 6-16 2-4 3-7 3-11v-4c-1-3-5-6-8-6-6 1-6 3-7 3-3 3-5 7-9 14-12 21-21 40-28 56-2 6-4 11-7 16-1 2-3 4-5 7-16 22-36 40-55 46-5 2-7 6-5 11 1 3 4 5 8 5h3c19-7 37-22 51-39 1 2 2 3 3 5 3 3 8 6 12 6 2 0 5-1 7-2 1 2 1 3 3 4 2 2 5 4 8 4h-26c-4 0-8 4-8 8 0 5 4 9 8 9h162c4 0 8-4 8-9 0-4-4-8-8-8h-27c2 0 3-2 4-3 7-6 14-14 21-20 6-6 13-10 17-11 4 0 8-4 7-9 0-3-4-6-9-6zm-90-16c-1 0-1 0-1 1l1-1zm-47 66c6-1 11-5 16-9 1-1 1-1 2-1h1c6 6 10 4 14 6h4c9 0 14-6 21-11 7-6 13-13 19-19 2-2 7-5 10-6 0 1-1 2-2 4-2 4-5 9-7 15-2 5-5 8-6 15 0 2 1 5 2 7h-74zM156 281l15-11 9 17 18-1v18l16 9-10 16 10 15-16 9v19l-18-1-9 16-15-10-16 10-8-16-19 1 1-19-16-9 9-15-9-16 16-9-1-18 19 1 8-17z"/></symbol><symbol viewBox="0 0 512 512" id="icon-exclamation"><path d="M256 512C115 512 0 397 0 256S115 0 256 0s256 115 256 256-115 256-256 256zm0-448C150 64 64 150 64 256s86 192 192 192 192-86 192-192S362 64 256 64zm-32 256h64v64h-64zm0-192h64v160h-64z"/></symbol><symbol viewBox="0 0 288 513" id="icon-facebook"><path d="M305 192h96v96h-96v224h-97V288h-95v-96h96v-41c0-20 3-41 10-62 6-21 15-38 26-51 24-26 53-39 89-39h67v96h-67c-8 0-15 3-21 8-5 6-8 13-8 21z"/></symbol><symbol viewBox="0 0 384 384" id="icon-gear"><path d="M411 256c0-24 15-43 37-56-4-13-9-26-16-38-25 7-45-3-62-20s-22-37-15-62c-12-7-25-12-39-16-13 22-36 37-60 37s-47-15-60-37c-14 4-27 9-39 16 7 25 2 45-15 62s-37 27-62 20c-7 12-12 25-16 38 22 13 37 32 37 56s-15 47-37 60c4 14 9 27 16 39 25-7 45-2 62 15s22 37 15 62c12 7 25 12 39 16 13-22 36-37 60-37s47 15 60 37c14-4 27-9 39-16-7-25-2-45 15-62s37-26 62-20c7-12 12-25 16-38-22-13-37-32-37-56zm-155 98c-54 0-98-44-98-98s44-98 98-98 98 44 98 98-44 98-98 98z"/></symbol><symbol viewBox="2790.712 791 64.662 104.007" id="icon-gender-female"><defs><style>.bda{fill:#b3b3b3}</style></defs><path class="bda" d="M2855.374 823.5a32.33 32.33 0 1 0-34.486 32.4v21.773h-10.776a2.167 2.167 0 0 0 0 4.334h10.776v10.833a2.155 2.155 0 1 0 4.31 0v-10.834h10.777a2.167 2.167 0 0 0 0-4.334h-10.777V855.9a32.447 32.447 0 0 0 30.176-32.4zm-60.35 0a28.02 28.02 0 1 1 28.02 28.17 28.127 28.127 0 0 1-28.02-28.17z"/></symbol><symbol viewBox="0 0 512 512" id="icon-globe"><path d="M446 86c0-2-1-3-3-4-30-33-69-58-113-71h-1c-23-7-47-11-73-11C115 0 0 115 0 256s115 256 256 256 256-115 256-256c0-65-25-125-66-170zm-20 8c-4 13-15 49-44 65-37-7-74 14-82 23-5 6-3 12-2 14 2 3 5 5 9 6 3 4 10 20 13 35 1 2 2 4 3 5 10 11 25 9 35 6 1 11-15 29-31 46-12 12-18 18-18 26 0 9 7 14 12 19 1 1 4 3 4 3s0 1-2 2c-14 14-28 19-28 19-4 2-7 6-7 10 0 28-17 43-52 43-7-5-22-35-23-43 0-2 2-7 5-11 3-6 6-13 6-21 0-12-13-27-21-36-1-13-5-23-12-30-12-11-30-10-47-9-5 0-11 1-16 1-21 0-21-31-21-32s0-66 44-75c31-6 40-1 41 0 0 3 1 6 3 8 19 19 48 12 71 6 9-1 17-3 22-3s10-4 11-9c4-29 6-65-8-75-6-3-12-4-18-1-8 4-15 5-20 2-6-3-7-9-8-14-1-14 42-33 82-42 38 13 72 34 99 62zM256 491C127 491 21 385 21 256S127 21 256 21c9 0 18 1 27 2-29 10-61 28-59 53 1 14 8 25 18 31 11 6 24 6 37 0 2 8 1 25 0 43-6 1-12 2-17 4-18 4-38 9-50 0-1-3-3-7-7-10-11-9-30-11-58-5-61 12-62 92-62 96 0 18 9 53 43 53 6 0 11 0 17-1 13 0 26-1 31 4 4 3 5 9 5 18 0 3 1 6 3 8 9 9 18 21 19 24 0 3-2 7-5 12-3 6-6 12-6 20 0 11 22 64 43 64 44 0 71-20 74-57 7-3 18-9 29-20 6-6 9-12 8-18 0-9-7-15-11-19l-3-3c2-3 7-8 10-11 21-21 54-56 28-82-3-3-8-4-12-2-5 2-13 5-18 3-5-20-11-31-16-38 12-6 35-15 57-9 3 1 5 0 8-1 30-15 46-46 53-67 30 40 49 89 49 143 0 129-106 235-235 235z"/></symbol><symbol viewBox="0 0 512 426" id="icon-gun"><path d="M501 107h-32V75c0-7-4-11-10-11-7 0-11 4-11 11v10H128V53c0-6-4-10-11-10H75c-7 0-11 4-11 10v32H53c-30 0-53 24-53 54v106c0 5 2 9 6 11 32 11 49 43 43 75L21 457c0 2 0 6 2 8 3 2 5 4 9 4h171c6 0 10-4 10-10 0-7-4-11-10-11h-30l23-107h92c4 0 9-2 11-6l19-58h141c6 0 10-4 10-10v-75h32c7 0 11-4 11-11v-64c0-6-4-10-11-10zm-181 0v21H192v-21zM85 64h22v21H85zm-32 43h118v32c0 6 4 10 10 10h150c6 0 10-4 10-10v-32h107v85H21v-53c0-17 15-32 32-32zm226 213h-78l8-43h83zm-76-64c-5 0-9 4-11 9l-41 183H45l25-113c9-41-12-81-49-96v-26h427v43zm288-85h-22v-43h22z"/></symbol><symbol viewBox="0 0 405 512" id="icon-healthcare"><path d="M437 43h-42c-6 0-11 4-11 10s5 11 11 11h32v427H64V64h32c6 0 11-5 11-11s-5-10-11-10H53c-6 0-10 4-10 10v448c0 6 4 11 10 11h384c6 0 11-5 11-11V53c0-6-5-10-11-10zM96 85c-6 0-11 5-11 11v363c0 6 5 10 11 10h299c6 0 10-4 10-10V96c0-6-4-11-10-11h-32V53c0-6-5-10-11-10h-54c-5-25-27-43-53-43-25 0-47 18-52 43h-54c-6 0-11 4-11 10v32zm288 22v341H107V107h21v10c0 6 5 11 11 11h213c6 0 11-5 11-11v-10zM149 64h54c6 0 10-5 10-11 0-17 15-32 32-32 18 0 32 15 32 32 0 6 5 11 11 11h53v43H149zm182 277H160c-6 0-11 5-11 11s5 11 11 11h171c6 0 10-5 10-11s-4-11-10-11zm0 43H160c-6 0-11 5-11 11s5 10 11 10h171c6 0 10-4 10-10s-4-11-10-11zM181 256h32v32c0 6 5 11 11 11h43c6 0 10-5 10-11v-32h32c6 0 11-5 11-11v-42c0-6-5-11-11-11h-32v-32c0-6-4-11-10-11h-43c-6 0-11 5-11 11v32h-32c-6 0-10 5-10 11v42c0 6 4 11 10 11zm11-43h32c6 0 11-4 11-10v-32h21v32c0 6 5 10 11 10h32v22h-32c-6 0-11 4-11 10v32h-21v-32c0-6-5-10-11-10h-32z"/></symbol><symbol viewBox="0 0 512 448" id="icon-immigration"><path d="M437 149h-96v-32c0-29-24-53-53-53h-64c-29 0-53 24-53 53v32H75c-42 0-75 34-75 75v213c0 42 33 75 75 75h362c42 0 75-33 75-75V224c0-41-33-75-75-75zm-266 22h170v320H171zm-22 320h-42V171h42zm214-320h42v320h-42zm-171-54c0-17 14-32 32-32h64c18 0 32 15 32 32v32H192zM21 437V224c0-29 24-53 54-53h10v320H75c-30 0-54-24-54-54zm470 0c0 30-24 54-54 54h-10V171h10c30 0 54 24 54 53z"/></symbol><symbol viewBox="0 0 461 478" id="icon-introduced"><path d="M27 81h37v403c0 5 5 10 10 10h7c3 0 6-1 8-3l35-35 36 35c2 2 5 3 7 3h2c3 0 6-1 8-3l35-35 36 35c2 2 5 3 8 3h1c3 0 6-1 8-3l36-35 35 35c2 2 5 3 8 3h2c2 0 5-1 7-3l36-35 35 35c2 2 5 3 8 3h9c6 0 11-5 11-10V81h36V16H31v65zm400 386l-34-33c-3-4-10-4-15 0l-36 36-37-36c-2-2-4-3-7-3s-6 1-8 3l-36 36-37-36c-4-4-10-4-15 0l-37 36-36-36c-4-4-10-4-15 0l-32 31V82h341v385zM108 118h210v21H108zm0 64h166v22H108zm0 73h210v21H108z"/></symbol><symbol viewBox="0 0 480 416" id="icon-ios-pulse-strong"><path d="M448 273c-21 0-39 14-46 33h-38l-29-85c-2-7-8-11-15-11s-13 4-15 11l-45 155-52-314c-1-7-8-14-16-14s-14 6-16 13l-61 245H16v32h112c7 0 14-5 16-12l45-182 51 308c1 7 8 12 15 12h1c7 0 13-4 15-11l50-173 16 47c2 7 8 11 15 11h51c7 18 24 31 45 31 27 0 48-22 48-49s-21-47-48-47z"/></symbol><symbol viewBox="0 0 384 384" id="icon-ios-search-strong"><path d="M345 298c15-24 23-52 23-82 0-84-68-152-152-152S64 132 64 216s68 153 152 153c31 0 59-9 83-25l7-5 108 109 34-34-108-109zm-44-167c23 23 36 53 36 85s-13 63-36 85c-22 23-52 35-85 35-32 0-62-12-85-35-22-22-35-53-35-85s13-62 35-85c23-22 53-35 85-35 33 0 63 13 85 35z"/></symbol><symbol viewBox="0 0 384 512" id="icon-ipad"><path d="M395 0H117C87 0 64 23 64 53v406c0 30 23 53 53 53h278c30 0 53-23 53-53V53c0-30-23-53-53-53zm32 459c0 17-15 32-32 32H117c-17 0-32-15-32-32V53c0-17 15-32 32-32h278c17 0 32 15 32 32zM395 64H117c-6 0-10 4-10 11v341c0 6 4 11 10 11h278c6 0 10-5 10-11V75c0-7-4-11-10-11zm-11 341H128V85h256zM267 43c0 6-5 10-11 10s-11-4-11-10 5-11 11-11 11 5 11 11zm-86 128h22c6 0 10-5 10-11v-21c0-7-4-11-10-11h-22c-6 0-10 4-10 11v21c0 6 4 11 10 11zm64 0h22c6 0 10-5 10-11v-21c0-7-4-11-10-11h-22c-6 0-10 4-10 11v21c0 6 4 11 10 11zm64 0h22c6 0 10-5 10-11v-21c0-7-4-11-10-11h-22c-6 0-10 4-10 11v21c0 6 4 11 10 11zm-128 64h22c6 0 10-5 10-11v-21c0-7-4-11-10-11h-22c-6 0-10 4-10 11v21c0 6 4 11 10 11zm64 0h22c6 0 10-5 10-11v-21c0-7-4-11-10-11h-22c-6 0-10 4-10 11v21c0 6 4 11 10 11zm64 0h22c6 0 10-5 10-11v-21c0-7-4-11-10-11h-22c-6 0-10 4-10 11v21c0 6 4 11 10 11zm-128 64h22c6 0 10-5 10-11v-21c0-7-4-11-10-11h-22c-6 0-10 4-10 11v21c0 6 4 11 10 11zm64 0h22c6 0 10-5 10-11v-21c0-7-4-11-10-11h-22c-6 0-10 4-10 11v21c0 6 4 11 10 11zm32 160c0 11-9 21-21 21s-21-10-21-21c0-12 9-22 21-22s21 10 21 22z"/></symbol><symbol viewBox="0 0 512 512" id="icon-issues"><path d="M233 21c119 0 215 77 215 171 0 7 0 13-1 20l21 3c1-7 1-15 1-23C469 86 363 0 233 0 104 0 0 86 0 192c0 51 21 96 62 131l-40 89c-2 4-1 8 2 12 3 2 5 3 8 3 1 0 3-1 4-1l114-52c18 5 38 7 51 9l2-22c-20-1-37-4-51-9-2 0-5 0-7 1l-92 42 31-71c2-4 1-9-3-12-39-32-60-73-60-120 0-94 95-171 212-171zm140 214c-76 0-138 62-138 138 0 77 62 139 138 139 77 0 139-62 139-139 0-76-62-138-139-138zm0 256c-64 0-117-53-117-118 0-64 53-117 117-117 65 0 118 53 118 117 0 65-53 118-118 118zm59-128h-48v-48c0-6-5-11-11-11s-10 5-10 11v48h-48c-6 0-11 4-11 10s5 11 11 11h48v48c0 5 4 10 10 10s11-5 11-10v-48h48c5 0 10-5 10-11s-5-10-10-10z"/></symbol><symbol viewBox="0 0 485.6620788574219 500.6188049316406" id="icon-links"><path d="M399 289l82-87c32-36 18-100-17-132l-39-36c-16-15-40-25-64-28-28-3-52 5-68 22l-81 88c-24 25-23 66 3 90l2 2c9 8 22 7 30-1 8-9 8-23-1-31l-2-1c-9-8-9-22-1-31l81-87c6-7 18-10 33-8 15 1 30 8 39 16l39 36c19 18 29 56 14 72l-81 88c-8 8-21 9-30 1l-2-2c-9-8-22-8-30 1s-8 22 1 30l2 2c12 11 28 17 43 17 18 0 35-7 47-21zm-196-70c-12-12-29-18-46-17s-33 8-44 20l-82 88c-15 17-21 42-16 70 4 24 17 47 33 62l39 36c19 18 48 28 75 28 22 0 43-6 57-22l81-88c24-26 23-66-3-90l-2-2c-9-8-22-7-30 1-8 9-8 22 1 30l2 2c9 8 9 22 1 30l-81 88c-15 16-54 9-72-9l-39-36c-10-8-17-23-20-38-3-14-1-26 6-33l81-88c4-4 9-6 15-6 5-1 11 1 15 5l2 2c9 8 22 8 30-1s8-22-1-30zm-41 139c4 3 9 5 14 5 6 0 12-2 16-6l159-173c8-8 8-22-1-30-8-8-22-7-30 1L161 328c-8 8-8 22 1 30z"/></symbol><symbol viewBox="0 0 352 512" id="icon-loc"><path d="M240 0C170 0 64 32 64 160c0 64 141 288 176 352 35-64 176-288 176-352C416 32 310 0 240 0m0 216c-31 0-56-25-56-56s25-56 56-56 56 25 56 56-25 56-56 56"/></symbol><symbol viewBox="0 0 384 448" id="icon-locked"><path d="M86 480h340c12 0 22-10 22-22V246c0-12-10-22-22-22h-22v-31c0-41-16-87-43-115-26-28-64-46-105-46s-79 18-105 46c-27 27-43 74-43 115v31H86c-12 0-22 10-22 22v212c0 12 10 22 22 22zm75-287c0-27 10-61 28-80s42-30 67-30 49 11 67 30 28 53 28 80v31H161z"/></symbol><symbol viewBox="0 0 510 510" id="icon-logo"><path d="M196 62l61 60 60-60-60-61zm194 194l60 61 61-61-61-60zM196 450l61 61 60-61-60-60zM1 256l61 61 60-61-60-60zm13-127l115 114 114-114L129 14zm134-13l-32 32-7-7 32-32zM14 383l115 115 114-115-114-114zm127 20l-31-32 6-7 32 32zm242-160l115-114L383 14 269 129zm20-102l-7 7-32-32 7-6zM269 383l114 115 115-115-115-114zm134-12l-32 31-7-6 32-32z"/></symbol><symbol viewBox="1363.882 1016.076 95.283 142.924" id="icon-medal"><defs><style>.bra{fill:#999}</style></defs><g transform="translate(1359.882 1016.076)"><path class="bra" d="M51.64 47.64a47.64 47.64 0 1 0 47.643 47.642 47.7 47.7 0 0 0-47.642-47.64zm0 89.328a41.686 41.686 0 1 1 41.687-41.686 41.736 41.736 0 0 1-41.686 41.686z"/><path class="bra" d="M81.25 85.362a2.985 2.985 0 0 0-2.81-1.99H62.413l-8.105-16.22a3.1 3.1 0 0 0-5.33 0l-8.112 16.22H24.843a2.977 2.977 0 0 0-1.864 5.3l13.34 10.673-5.41 18.937a2.974 2.974 0 0 0 4.438 3.34l16.293-10.177L67.93 121.63a2.98 2.98 0 0 0 4.442-3.348l-5.408-18.938 13.34-10.672a2.974 2.974 0 0 0 .948-3.31zm-19.557 10.57a2.975 2.975 0 0 0-1 3.144l3.83 13.394-11.3-7.063a2.977 2.977 0 0 0-3.157 0l-11.304 7.063 3.83-13.393a2.975 2.975 0 0 0-1-3.144l-8.26-6.6h9.372a2.982 2.982 0 0 0 2.662-1.644l6.27-12.543 6.276 12.53a2.977 2.977 0 0 0 2.662 1.65h9.373zM25.254 45.628a2.973 2.973 0 0 0 2.817 2.013 3.035 3.035 0 0 0 .966-.16 2.983 2.983 0 0 0 1.85-3.78l-9.02-26.33V5.956h11.91V38.71a2.978 2.978 0 0 0 5.954 0V5.954h11.91V38.71a2.978 2.978 0 0 0 5.955 0V5.954H69.51V38.71a2.978 2.978 0 0 0 5.955 0V5.954h12.032V17.4l-8.54 26.352A2.98 2.98 0 0 0 80.87 47.5a3.127 3.127 0 0 0 .916.143 2.98 2.98 0 0 0 2.835-2.06l8.684-26.8a2.838 2.838 0 0 0 .143-.917V2.978A2.98 2.98 0 0 0 90.47 0H18.887a2.98 2.98 0 0 0-2.978 2.978v14.887a2.955 2.955 0 0 0 .16.965z"/></g></symbol><symbol viewBox="0 0 342 509.75" id="icon-money"><path d="M267 309c12 0 21 9 21 22 0 6 4 10 11 10 6 0 10-4 10-10 0-20-12-37-32-41v-13c0-6-4-10-10-10-7 0-11 4-11 10v13c-19 4-32 21-32 41 0 23 19 42 43 42 12 0 21 9 21 22 0 12-9 21-21 21-13 0-22-9-22-21 0-7-4-11-10-11-7 0-11 4-11 11 0 19 13 36 32 40v13c0 6 4 11 11 11 6 0 10-5 10-11v-13c20-4 32-21 32-40 0-24-19-43-42-43-13 0-22-9-22-21 0-13 9-22 22-22zm55-94c-2-2-4-2-6-2H196c-2 0-4 0-6 2-51 39-105 111-105 169 0 87 54 128 171 128s171-41 171-128c0-58-54-130-105-169zm-66 276c-132 0-149-54-149-107 0-49 49-115 94-149h110c45 34 94 100 94 149 0 53-17 107-149 107zm-75-320c-6 0-10 4-10 10 0 7 4 11 10 11h150c6 0 10-4 10-11 0-6-4-10-10-10zm11-32c0 6 4 10 11 10h106c7 0 11-4 11-10 0-39 41-101 41-101 2-4 2-8 0-12-3-5-9-5-13-3l-64 28-17-42c-2-9-17-9-20 0l-17 42-64-28c-4-2-8 0-12 3-3 4-5 8 0 12-3 0 38 62 38 101zm38-64c3 2 7 2 9 0s4-5 6-7l11-27 11 27c0 2 2 5 6 7 2 2 6 0 9 0l44-20c-10 22-23 50-27 73h-88c-2-26-15-53-28-73z"/></symbol><symbol viewBox="0 0 512.0318603515625 502.4580383300781" id="icon-passed-house"><path d="M492 15c-23-17-55-13-72 10L174 351l-86-86c-20-20-53-20-73 0s-20 53 0 72l170 170L502 87c16-24 13-55-10-72z"/></symbol><symbol viewBox="0 0 497.5 288" id="icon-passed-senate"><path d="M498 400H13c-2 0-4-2-6-4-1-2-1-4 0-6l12-18v-86L7 266c-1-2-1-5 0-7 2-2 4-3 6-3h151c3 0 7 3 7 7 0 3-3 6-7 6H25l7 12v93c0 1 0 2-1 3l-7 10h460l-6-9c0-1-1-2-1-4v-92c0-1 1-2 1-3l6-10H346c-3 0-7-2-7-6s3-7 7-7h151c2 0 4 1 6 3 1 2 1 5 0 7l-12 18v88l12 18c1 2 1 4 0 6 0 2-2 4-5 4zM164 229h13v157h-13zm171 0h12v157h-12zm19 0H158c-3 0-6-2-7-5 0-3 1-6 4-8l98-45c2-1 4-1 5 0l97 45c3 1 5 4 5 6 1 4-2 7-6 7zm-167-13h138l-69-32zm56-104h12v65h-12zm92 143H177c-3 0-6-2-6-6s2-7 6-7h158c3 0 6 3 6 7s-3 6-6 6zM210 393c-3 0-6-3-6-7V255c0-3 2-6 6-6s7 2 7 6v131c-1 4-3 7-7 7zm92 0c-4 0-7-3-7-7V255c0-3 3-6 7-6 3 0 6 2 6 6v131c0 4-3 7-6 7zm12-229h-65c-3 0-6-3-6-7v-39c0-3 2-6 6-6h65c4 0 7 2 7 6v39c0 4-3 7-7 7zm-58-13h52v-27h-52zM79 374H53c-3 0-7-3-7-7v-26c0-4 3-7 7-7h26c4 0 7 3 7 7v26c-1 3-3 7-7 7zm-20-14h13v-13H59zm20-39H53c-3 0-7-3-7-7v-26c0-3 3-6 7-6h26c4 0 7 2 7 6v26c-1 4-3 7-7 7zm-20-13h13v-13H59zm73 66h-27c-3 0-6-3-6-7v-26c0-4 2-7 6-7h27c3 0 6 3 6 7v26c0 3-3 7-6 7zm-20-14h12v-13h-12zm20-39h-27c-3 0-6-3-6-7v-26c0-3 2-6 6-6h27c3 0 6 2 6 6v26c0 4-3 7-6 7zm-20-13h12v-13h-12zm295 66h-27c-3 0-6-3-6-7v-26c0-4 2-7 6-7h27c3 0 6 3 6 7v26c0 3-3 7-6 7zm-20-14h13v-13h-13zm20-39h-27c-3 0-6-3-6-7v-26c0-3 2-6 6-6h27c3 0 6 2 6 6v26c0 4-3 7-6 7zm-20-13h13v-13h-13zm72 66h-26c-4 0-7-3-7-7v-26c0-4 3-7 7-7h26c3 0 7 3 7 7v26c0 3-4 7-7 7zm-20-14h13v-13h-13zm20-39h-26c-4 0-7-3-7-7v-26c0-3 3-6 7-6h26c3 0 7 2 7 6v26c0 4-4 7-7 7zm-20-13h13v-13h-13zm-157 78h-13v-30c0-4-7-9-12-9-6 0-13 5-13 9v30h-13v-30c0-13 14-22 26-22s27 9 27 22v30zm-7-65h-38c-4 0-7-3-7-7v-39c0-3 2-6 7-6h38c4 0 7 2 7 6v39c0 4-3 7-7 7zm-32-13h26v-26h-26z"/></symbol><symbol viewBox="0 0 384 384" id="icon-person"><path d="M448 448s0-26-2-40c-2-11-17-25-81-49-63-23-60-12-60-55 0-27 15-11 24-64 3-21 6-7 13-40 4-17-2-19-1-27 0-8 1-16 3-33 1-21-18-76-88-76s-89 55-87 76c1 17 2 25 3 33 0 8-6 10-2 27 7 33 10 19 14 40 9 53 23 37 23 64 0 43 4 32-60 55-64 24-79 38-81 49-2 14-2 40-2 40z"/></symbol><symbol viewBox="0 0 512 405" id="icon-phone-signal-full"><path d="M75 320H11c-6 0-11 5-11 11v128c0 6 5 10 11 10h64c6 0 10-4 10-10V331c0-6-4-11-10-11zM64 448H21V341h43zm117-192h-64c-6 0-10 5-10 11v192c0 6 4 10 10 10h64c6 0 11-4 11-10V267c0-6-5-11-11-11zm-10 192h-43V277h43zm117-256h-64c-6 0-11 5-11 11v256c0 6 5 10 11 10h64c6 0 11-4 11-10V203c0-6-5-11-11-11zm-11 256h-42V213h42zm118-320h-64c-6 0-11 5-11 11v320c0 6 5 10 11 10h64c6 0 10-4 10-10V139c0-6-4-11-10-11zm-11 320h-43V149h43zM501 64h-64c-6 0-10 5-10 11v384c0 6 4 10 10 10h64c6 0 11-4 11-10V75c0-6-5-11-11-11zm-10 384h-43V85h43z"/></symbol><symbol viewBox="0 0 512 478" id="icon-police"><path d="M166 143s20 6 20 23c0 11-5 20-9 26s-8 15-8 26c0 25 59 61 87 61s87-36 87-61c0-11-4-20-8-26s-9-15-9-26c0-17 17-23 20-23 4-2 6-4 6-9 0-4 0-6-2-10l-34-34c-5-5-9-5-13-3l-47 24-47-24c-4-2-8-2-13 3l-34 34c-2 2-4 6-2 10 2 5 4 7 6 9zm90 115c-21 0-64-30-66-40 0-5 2-9 6-15 5-7 9-15 11-26h100c2 11 7 19 11 26 4 6 6 10 6 15-4 10-47 40-68 40zm-49-147l45 21c2 2 6 2 8 0l45-21 19 19c-6 4-15 13-17 26H207c-2-13-11-22-17-26zm260 213c7-4 45-59 45-113 0-60-162-192-256-192C166 19 0 154 0 211c0 51 43 111 45 113h2c-2 5-4 9-4 15v22c0 10 4 19 10 23v2c2 4 71 111 201 111s198-107 203-111v-4c6-7 10-15 10-24v-21c2-4 0-8 0-13zM64 358v-21c0-6 4-11 11-11h362c7 0 11 5 11 11v21c0 7-4 11-11 11H75c-7 0-11-4-11-11zM21 209c0-40 152-171 235-171s235 128 235 171c0 41-28 83-37 96H60c-11-13-39-58-39-96zm235 267c-87 0-147-58-171-86h342c-24 28-84 86-171 86z"/></symbol><symbol viewBox="0 0 406 512" id="icon-religion"><path d="M448 85H107c-17 0-32-15-32-32s15-32 32-32h341c6 0 11-4 11-10 0-7-5-11-11-11H107C77 0 53 23 53 53v406c0 30 24 53 54 53h341c6 0 11-4 11-11V96c0-6-5-11-11-11zm-11 406H107c-17 0-32-15-32-32V96c8 6 19 11 32 11h330zM107 43c-7 0-11 4-11 10 0 7 4 11 11 11h320c6 0 10-4 10-11 0-6-4-10-10-10zm64 234h53v118c0 6 4 10 11 10h42c7 0 11-4 11-10V277h53c7 0 11-4 11-10v-43c0-6-4-11-11-11h-53v-53c0-6-4-11-11-11h-42c-7 0-11 5-11 11v53h-53c-7 0-11 5-11 11v43c0 6 4 10 11 10zm10-42h54c6 0 10-5 10-11v-53h22v53c0 6 4 11 10 11h54v21h-54c-6 0-10 4-10 11v117h-22V267c0-7-4-11-10-11h-54z"/></symbol><symbol viewBox="0 0 500 366" id="icon-reply"><path d="M494 435c-4 0-9-2-9-6-75-141-224-119-263-109v81c0 5-2 9-7 12-4 2-9 2-11-3L11 251c-2-2-5-4-5-9 0-4 3-6 5-9L204 74c2-2 9-2 11-2 5 2 7 7 7 11v80c34-2 134 0 207 63 50 46 77 112 77 200 0 5-5 9-9 12 0-3-3-3-3-3zM283 290c59 0 139 16 198 91-7-59-30-107-66-139-80-70-200-56-202-56s-7 0-9-3c-2-2-5-4-5-9v-66L36 242l163 134v-66c0-4 3-9 9-11 0 0 32-9 75-9z"/></symbol><symbol viewBox="0 0 512 342" id="icon-smoking-area"><path d="M501 320H75c-7 0-11 4-11 11v85c0 6 4 11 11 11h426c7 0 11-5 11-11v-85c0-7-4-11-11-11zM85 341h299v64H85zm406 64h-86v-64h86zM32 320c-6 0-11 4-11 11v85c0 6 5 11 11 11s11-5 11-11v-85c0-7-5-11-11-11zm-11-96c0-30 24-53 54-53 40 0 74-34 74-75 0-6-4-11-10-11-7 0-11 5-11 11 0 30-23 53-53 53-41 0-75 34-75 75v43c0 6 4 10 11 10 6 0 10-4 10-10zm96-11c41 0 75-34 75-74 0-7-4-11-11-11-6 0-10 4-10 11 0 30-24 53-54 53-40 0-74 34-74 75 0 6 4 10 10 10 7 0 11-4 11-10 0-30 23-54 53-54z"/></symbol><symbol viewBox="0 0 472 384" id="icon-social-twitter"><path d="M492 110c-17 7-36 12-56 15 20-12 36-31 43-54-19 11-39 19-61 24-18-19-43-31-71-31-54 0-97 43-97 97 0 8 1 15 3 22-81-4-152-43-200-101-8 14-13 31-13 48 0 34 17 64 43 81-16 0-31-5-44-12v1c0 47 33 86 78 95-8 2-17 4-26 4-6 0-12-1-18-2 12 38 48 66 91 67-34 26-75 42-121 42-8 0-15-1-23-2 43 28 94 44 148 44 179 0 276-148 276-276v-12c19-14 35-31 48-50z"/></symbol><symbol viewBox="0 0 513.313720703125 446" id="icon-tank"><path d="M117 331c-30 0-53 23-53 53s23 53 53 53 54-23 54-53-24-53-54-53zm0 85c-17 0-32-15-32-32s15-32 32-32 32 15 32 32-15 32-32 32zm139-85c-30 0-53 23-53 53s23 53 53 53 53-23 53-53-23-53-53-53zm0 85c-17 0-32-15-32-32s15-32 32-32 32 15 32 32-15 32-32 32zm139-85c-30 0-54 23-54 53s24 53 54 53 53-23 53-53-23-53-53-53zm0 85c-17 0-32-15-32-32s15-32 32-32 32 15 32 32-15 32-32 32zm53-256c0 4 4 9 9 11l42 10h2c2 0 5 0 7-2s4-4 4-8v-43c0-4-2-6-4-9-2-2-7-2-9-2l-42 11c-5 2-9 6-9 11h-90l-40-60c-2-2-4-4-9-4h-53V43c0-7-4-11-11-11h-85c-6 0-11 4-11 11v32h-8L68 58c-2 0-6 0-8 2s-5 4-5 6l-10 64c0 4 2 11 6 11l60 25 6 35H13c-7 0-11 4-11 10v77l21 96c3 51 43 94 96 94h278c53 0 96-43 96-96 0-13-2-24-7-36l28-45c2-4 2-11-2-13l-107-85c-2-2-4-2-6-2h-66l28-43h87zm21-13l22-4v15l-22-4zM171 53h64v22h-64zm224 406H117c-40 0-74-34-74-75s34-75 74-75h278c40 0 74 34 74 75s-34 75-74 75zm91-158l-15 25c-17-23-44-38-76-38H117c-36 0-68 21-85 51l-11-53v-62h369zm-183-98H137l-9-45c0-4-2-7-6-9l-56-23 7-45 64 15h166l36 53z"/></symbol><symbol viewBox="0 0 512 488" id="icon-taxes"><path d="M509 366c-25-25-47-32-75-24l-78 26c-3-14-15-27-36-27h-60c-16-15-52-42-100-42h-53v-11c0-6-5-11-11-11H11c-6 0-11 5-11 11v172c0 5 5 10 11 10h85c6 0 11-5 11-10v-19c18 7 34 12 48 17 56 19 87 30 115 30 35 0 65-16 131-51 28-14 62-32 105-54 3-2 5-5 6-8 0-3-1-7-3-9zM85 449H21V299h64zm306-31c-113 60-112 60-229 20-16-6-35-12-55-19v-99h53c44 0 77 28 88 40 2 2 5 3 8 3h64c11 0 15 5 15 10s-4 11-15 11H203c-6 0-11 5-11 11s5 10 11 10h117c14 0 23-5 29-13l91-30c14-4 26-4 43 9-37 19-67 34-92 47zm-18-269c42 0 75-33 75-74 0-42-33-75-75-75-41 0-74 33-74 75 0 41 33 74 74 74zm0-128c30 0 54 24 54 54 0 29-24 53-54 53-29 0-53-24-53-53 0-30 24-54 53-54zM267 299c41 0 74-34 74-75s-33-75-74-75c-42 0-75 34-75 75s33 75 75 75zm0-128c29 0 53 24 53 53s-24 53-53 53c-30 0-54-24-54-53s24-53 54-53zm0 85c6 0 10-5 10-11v-42c0-6-4-11-10-11s-11 5-11 11v42c0 6 5 11 11 11zm106-149c6 0 11-5 11-11V53c0-6-5-10-11-10s-10 4-10 10v43c0 6 4 11 10 11z"/></symbol><symbol viewBox="0 0 512 447" id="icon-thumbs-down"><path d="M375 58c-34-5-64-13-80-20-19-8-37-16-71-16H107c-24 0-43 19-43 43 0 9 3 17 7 24-16 6-28 21-28 40 0 9 2 17 7 24-17 6-29 21-29 40 0 9 3 17 8 24-17 6-29 21-29 40 0 23 19 42 43 42h134c-9 27-26 86-17 118 14 49 42 52 51 52 19 0 34-16 34-38 0-67 74-170 128-170 6 0 11-5 11-11V69c0-5-4-10-9-11zm126-36h-85c-6 0-11 5-11 11v255c0 6 5 11 11 11h85c6 0 11-5 11-11V33c0-6-5-11-11-11zm-64 64c-6 0-10-4-10-10s4-11 10-11 11 5 11 11-5 10-11 10z"/></symbol><symbol viewBox="0 0 512 447" id="icon-thumbs-up"><path d="M137 433c34 5 64 13 80 20 19 9 37 16 71 16h117c24 0 43-19 43-42 0-9-3-17-7-24 16-6 28-22 28-40 0-9-2-17-7-24 17-6 29-22 29-40 0-9-3-17-8-24 17-6 29-22 29-40 0-24-19-43-43-43H335c9-28 26-86 17-118-14-48-42-52-51-52-19 0-34 17-34 38 0 67-74 171-128 171-6 0-11 5-11 10v182c0 5 4 10 9 10zM11 469h85c6 0 11-4 11-10V203c0-6-5-11-11-11H11c-6 0-11 5-11 11v256c0 6 5 10 11 10zm64-64c6 0 10 5 10 11s-4 11-10 11-11-5-11-11 5-11 11-11z"/></symbol><symbol viewBox="0 0 512 448" id="icon-trending-graph"><path d="M501 469H21V53c0-6-4-10-10-10-7 0-11 4-11 10v427c0 6 4 11 11 11h490c7 0 11-5 11-11s-4-11-11-11zM367 164v-2-2-2h-2-2-116c-4 0-8 4-8 8 0 5 4 9 8 9h94L235 292l-92-77c-4-2-9-2-11 0L2 363c-2 4-2 8 0 10s4 2 7 2c2 0 4 0 6-2l126-140 92 76c4 2 8 2 10 0l109-121v77c0 4 4 8 9 8 4 0 8-4 8-8z"/></symbol></svg>