<svg id="Layer_1" xmlns="http://www.w3.org/2000/svg" viewBox="-236.9 366.3 66.7 32.5"><style>.st0{fill:none;} .st1{fill:#1C1C1C;}</style><path class="st0" d="M-186 379.9c.1.1.2.1.3.1h.2c.4 1.3 1.2 2.6 2.3 3.4.6.5 1.3.7 2 .7s1.4-.3 2-.8c.1-.1.2-.2.4-.3.8-.7 1.4-1.7 1.7-2.7 0-.1.1-.2.1-.4l.1.1h.1s.1 0 .1-.1c.2-.2.4-.5.5-1 .1-.6 0-1.1-.2-1.2h-.1-.1s-.1 0-.1.1c-.3-1-.6-1.7-1-2-.1 0-.1-.1-.2-.1 0 .2.2.4.2.6-.5-.2-1-.6-1.7-.6h-.5c-1.7.6-3.5-.1-3.5-.1-.7-.1-1.2.2-1.6.5-.6.5-.8 1.3-.8 1.6v.1c-.1-.1-.1-.1-.2-.1h-.1c-.1 0-.1.1-.2.2v1c-.1.5.1.9.3 1zM-199.9 384.5c-.6.6-1.3 1.1-2.1 1.4-.5.2-1 .3-1.6.3s-1.1-.1-1.6-.3c-.8-.3-1.5-.8-2.1-1.4 0 .8-.6 1.2-1 1.4 0 0-.1 0-.1.1-.1 0-.2.1-.2.1 0 .2.1.4.3.6.7.9 2.5 2.1 4.7 2.1s4.1-1.2 4.7-2.1l.3-.6c-.3-.2-1.3-.6-1.3-1.6zM-230.4 379.8c.1.1.2.1.3.1 0 0 .1 0 .1-.1.4 1.3 1.3 2.7 2.3 3.5.6.5 1.3.7 2 .7h.6c.1 0 .1 0 .2-.1.1 0 .2-.1.3-.1.2-.1.3-.1.5-.2s.3-.2.5-.3c1-.8 1.8-2.1 2.3-3.4l.1.1h.1s.1 0 .1-.1c.2-.2.4-.6.5-1 .1-.6 0-1.1-.2-1.3h-.1-.1s-.1 0-.1.1c-.3-1-.6-1.7-1-2.1-.1 0-.1-.1-.2-.1 0 .2.2.4.2.6-.5-.2-1-.6-1.7-.6h-.5c-1.7.6-3.5-.1-3.5-.1h-.7c-1.5.3-1.7 2-1.8 2.2-.1-.1-.2-.1-.2-.1h-.1c-.1 0-.1.1-.2.2v1c0 .5.1.9.3 1.1z"/><path class="st0" d="M-197.7 377.1c-.1 0-.1 0 0 0l-.7.6-7.7-4c-2.5-.2-2.9 3.1-3 3.5-.1-.1-.2-.1-.3-.1h-.1c-.2.2-.3.8-.2 1.5.1.5.3 1 .5 1.2.1.1.2.2.3.1.1 0 .1 0 .1-.1.5 1.6 1.5 3.2 2.7 4.2.7.6 1.6.9 2.4.9.9 0 1.7-.3 2.4-.9 1.2-1 2.2-2.6 2.8-4.2l.1.1c.1 0 .2 0 .3-.1.2-.2.5-.7.6-1.2.2-.7 0-1.4-.2-1.5z"/><path class="st1" d="M-170.3 390c-1.3-4.3-3.6-4.5-4.1-4.6-1-.2-2.2-.1-2.8-.3-.1.9-1.9 1.7-4.1 1.7s-4-.7-4.1-1.7c-.6.2-1.8.1-2.8.3-.4.1-2 .2-3.3 2.6.7.9 1.3 2.1 1.9 3.9.1.5.2 1 .1 1.5 2.2.7 5.5.9 8.3.9 4.4 0 9.8-.6 10.8-2.6.2-.5.3-1.1.1-1.7z"/><path class="st1" d="M-186.5 380.4c.5 1.2 1.2 2.5 2.1 3.3.5.5 1.1.9 1.7 1.1.4.2.9.3 1.3.3s.9-.1 1.3-.3c.6-.2 1.2-.7 1.7-1.2.9-.9 1.6-2.1 2.1-3.3.4-.1.7-.8.9-1.6.2-.9 0-1.7-.3-1.8v-.7c0-3.3-1.9-5.5-5-5.7-2.7-.2-4.7.9-5.6 2.6-.3.6-.5 1.6-.5 2.4-.1.4-.2.9-.2 1.3-.4.1-.6.9-.4 1.9.1 1 .5 1.7.9 1.7zm.1-2.4c0-.1.1-.2.2-.2h.1c.1 0 .1 0 .2.1v-.1c.1-.3.2-1.1.8-1.6.4-.3.9-.6 1.6-.5 0 0 1.8.7 3.5.1h.5c.7 0 1.2.4 1.7.6 0-.2-.2-.5-.2-.6.1 0 .2.1.2.1.4.4.7 1 1 2 0 0 .1 0 .1-.1h.2c.2.1.3.6.2 1.2-.1.5-.3.8-.5 1l-.1.1h-.1s-.1 0-.1-.1c0 .1-.1.2-.1.4-.4 1-1 2-1.7 2.7-.1.1-.2.2-.4.3-.6.5-1.3.8-2 .8s-1.4-.3-2-.7c-1-.8-1.8-2.1-2.3-3.4h-.1-.1c-.1 0-.2 0-.3-.1-.2-.2-.3-.5-.4-1v-.1c.1-.3.1-.6.1-.9zM-215.4 387.7c-1.3-2.2-2.8-2.3-3.2-2.4-1-.2-2.2-.1-2.8-.3-.1.6-1.9 2.7-3.1 4l-.5-2c.4-.2.5-.7.5-1.2h-2c0 .4.1.9.5 1.2l-.5 2c-1.2-1.3-3-3.4-3.1-4-.6.2-1.9.1-2.8.3-.5.1-2.9.3-4.1 4.7-.2.6-.1 1.2.2 1.8 1 2 6.5 2.6 11 2.6 2.7 0 5.8-.2 8-.8-.1-.5-.1-1.1.1-1.6.2-2.1 1-3.4 1.8-4.3z"/><path class="st1" d="M-230.9 380.3c.5 1.3 1.2 2.5 2.1 3.4.5.5 1.1.9 1.7 1.2.4.2.9.3 1.3.3s.9-.1 1.3-.3c.6-.3 1.2-.7 1.8-1.2.9-.9 1.6-2.1 2.1-3.3.4-.1.7-.8.9-1.6.2-.9 0-1.7-.3-1.9v-.7c0-3.3-2-5.3-5-5.5-2.7-.2-4.7.9-5.6 2.7-.3.6-.5 1.3-.6 2.2-.1.4-.2.9-.2 1.3-.4.1-.6.9-.4 1.9.1.8.5 1.4.9 1.5zm.1-2.5c0-.1.1-.2.2-.2h.1c.1 0 .1 0 .2.1 0-.2.3-1.9 1.8-2.2h.7s1.8.7 3.5.1h.5c.7 0 1.2.4 1.7.6 0-.2-.2-.5-.2-.6.1 0 .2.1.2.1.4.4.7 1 1 2.1 0 0 .1 0 .1-.1h.2c.2.1.3.6.2 1.3-.1.5-.3.9-.5 1l-.1.1h-.1s-.1 0-.1-.1c-.4 1.3-1.2 2.6-2.3 3.4-.1.1-.3.2-.5.3-.2.1-.3.2-.5.2-.1 0-.2.1-.3.1-.1 0-.1 0-.2.1h-.6c-.7 0-1.4-.3-2-.7-1-.8-1.9-2.1-2.3-3.5l-.1.1c-.1 0-.2 0-.3-.1-.2-.2-.3-.5-.4-1v-.1c.1-.4.1-.7.1-1zM-191.8 388.6c-1.4-1.9-3-2.1-3.4-2.2h-.2c-1.9-1.7-.6-8.8-.6-8.8v-.9-.3-.6-.3c0-.2 0-.3-.1-.5v-.3c0-.2-.1-.3-.1-.5v-.2c0-.2-.1-.4-.1-.6v-.1c-.1-.2-.1-.4-.2-.6 0-.1 0-.1-.1-.2 0-.1-.1-.3-.1-.4 0-.1-.1-.1-.1-.2s-.1-.2-.1-.3c0-.1-.1-.1-.1-.2-.1-.1-.1-.2-.2-.3 0-.1-.1-.1-.1-.2-.1-.1-.1-.2-.2-.4v-.1c-.1-.1-.2-.3-.3-.4l-.1-.1c-.1-.1-.1-.2-.2-.2l-.1-.1-.2-.2-.1-.1-.2-.2-.1-.1c-.1-.1-.2-.1-.2-.2l-.1-.1c-.1-.1-.2-.1-.3-.2 0 0-.1 0-.1-.1-.1 0-.1-.1-.2-.1 0 0-.1 0-.1-.1-.1 0-.1-.1-.2-.1 0 0-.1 0-.1-.1-.1 0-.1-.1-.2-.1h-.1c-.1 0-.2-.1-.2-.1h-.1c-.1 0-.2-.1-.3-.1H-201.3-201.6-201.9h-.5-.1H-202.8h-.1-.7-.1H-204h-.5H-204.8-205.1-205.4h-.1c-.1 0-.2 0-.3.1h-.1c-.1 0-.2.1-.2.1h-.1c-.1 0-.1.1-.2.1 0 0-.1 0-.1.1-.1 0-.1.1-.2.1 0 0-.1 0-.1.1-.1 0-.2.1-.2.1s-.1 0-.1.1c-.1.1-.2.1-.3.2h-.1c-.1.1-.2.1-.3.2l-.1.1-.2.2-.1.1-.2.2-.1.1c-.1.1-.1.2-.2.2l-.1.1c-.1.1-.2.3-.3.4v.1c-.1.1-.2.2-.2.4 0 0-.1.1-.1.2-.1.1-.1.2-.2.3 0 .1-.1.1-.1.2-.1.1-.1.2-.1.3 0 .1-.1.1-.1.2s-.1.3-.1.4c0 .1 0 .1-.1.2-.1.2-.1.4-.2.6v.1c-.1.2-.1.4-.1.6v.2c0 .2-.1.3-.1.5v.3c0 .2 0 .3-.1.5v2.1s1.3 7.1-.6 8.8h-.2c-.4.1-1.8.2-3.1 1.8-.7.8-1.4 2-1.9 3.8-.1.4-.1.9-.1 1.3 0 .3.1.6.3.9.1.1.2.3.3.4l.2.2.2.2c.1.1.2.2.4.2.1 0 .1.1.2.1.4.2.8.4 1.3.6 1.7.6 3.9 1 6.3 1.2h8.9c3-.2 5.9-.8 7.6-1.8.1 0 .1-.1.2-.1.1-.1.3-.2.4-.2.1 0 .1-.1.2-.1.2-.2.4-.4.6-.7.2-.3.3-.6.3-1s0-.8-.1-1.2c-1.5-1.4-2-2.5-2.6-3.3zm-6.8-2.6c0 .2-.1.4-.3.6-.7.9-2.5 2.1-4.7 2.1s-4.1-1.2-4.7-2.1l-.3-.6s.1 0 .2-.1c0 0 .1 0 .1-.1.4-.2 1-.7 1-1.4.6.6 1.3 1.1 2.1 1.4.5.2 1 .3 1.6.3s1.1-.1 1.6-.3c.7-.3 1.5-.8 2.1-1.4 0 1.1 1 1.5 1.3 1.6zm1.1-7.4c-.1.6-.3 1-.6 1.2-.1.1-.2.1-.3.1-.1 0-.1 0-.1-.1-.5 1.6-1.5 3.2-2.8 4.2-.7.6-1.5.9-2.4.9-.9 0-1.7-.3-2.4-.9-1.2-1-2.2-2.6-2.7-4.2l-.1.1c-.1 0-.2 0-.3-.1-.2-.2-.4-.7-.5-1.2-.1-.7 0-1.3.2-1.5h.1c.1 0 .2 0 .3.1 0-.3.4-3.7 3-3.5l7.7 4 .6-.6h.1c.2.1.4.8.2 1.5z"/></svg>