<svg id="Layer_1" xmlns="http://www.w3.org/2000/svg" viewBox="-233.7 347 60.2 69.3"><style>.st0{fill:#1c1c1c}</style><path class="st0" d="M-176 346.5h-55.2c-1.4 0-2.5 1.1-2.5 2.5v64.8c0 1.4 1.1 2.5 2.5 2.5h55.2c1.4 0 2.5-1.1 2.5-2.5V349c-.1-1.4-1.2-2.5-2.5-2.5zm-2.1 65.3h-51.1V351h51.1v60.8z"/><path d="M-188.2 393.3c0 .6-.5 1.1-1.1 1.1h-3.7c-.6 0-1.1-.5-1.1-1.1 0-.6.5-1.1 1.1-1.1h3.7c.6 0 1.1.5 1.1 1.1zM-182.9 376.9c0 1.1-.9 2.1-2.1 2.1h-37.5c-1.1 0-2.1-.9-2.1-2.1 0-1.1.9-2.1 2.1-2.1h37.5c1.2 0 2.1 1 2.1 2.1zM-182.9 367.8c0 1.1-.9 2.1-2.1 2.1h-37.5c-1.1 0-2.1-.9-2.1-2.1 0-1.1.9-2.1 2.1-2.1h37.5c1.2.1 2.1 1 2.1 2.1zM-208.4 358.7c0 1.1-.9 2.1-2.1 2.1h-12c-1.1 0-2.1-.9-2.1-2.1 0-1.1.9-2.1 2.1-2.1h12c1.2.1 2.1 1 2.1 2.1z"/><path d="M-182.2 398c-2 .2-3.3 1.8-4.6 3l-1.2 1.2c.3-.5.5-1 .7-1.5.3-.6.4-1.2.4-1.7s-.2-1.1-.6-1.5c-.4-.4-.9-.5-1.3-.5-1.2 0-2.3.6-3.2 1.4-.9.8-1.8 1.7-2.6 2.5-.4.4-.8.6-1 .8-.1.1-.3.1-.3.2-.1 0-.2 0-.3-.1.4-.6 1-1.5 2.1-2.8.4-.4.7-.8.9-1.1.2-.2.3-.4.4-.5 0-.1.1-.1.1-.2 0 0 0-.1.1-.1l.1-.1c.1-.2.1-.3.1-.3v-.1-.1-.3c0-.1-.1-.2-.2-.3 0-.1-.1-.1-.1-.1l-.1-.1s-.1-.1-.2-.1h-.1-.1-.4c-.1 0-.2 0-.3.1h-.1c-.1 0-.2.1-.2.1h-.1-.1l-.1.1c-.2.2-.5.6-1.1 1.4-.1.1-.2.3-.3.4-.5.6-1.2 1.4-1.9 2.1-.8.8-1.6 1.6-2.4 2.2-.7.6-1.4.8-1.5.8-.1 0-.2 0-.2-.1 0-.2.1-.5.3-.9 1.1-1.3 2.2-3 3-4.5.5-.8.9-1.6 1.2-2.2.1-.3.3-.5.4-.7 0-.1.1-.2.1-.3 0-.1.1-.1.1-.5 0-.1 0-.3-.2-.6-.1-.3-.6-.6-1-.6s-.5.1-.6.2c-.3.2-.3.3-.3.4-.2.2-.4.6-.7 1.2-1 1.8-2.1 3.4-3 4.8-.3.6-.6 1-.9 1.5-.2.3-.5.5-.7.7-.2.2-.4.3-.5.4-.1 0-.1.1-.1.1v-.3c0-.4.1-1.1.4-2 .5-.7 1-1.4 1.4-2.1 1.4-2.2 2.5-4.3 3.3-6 .4-.8.7-1.6.9-2.2.2-.6.4-1 .4-1.5 0-.1 0-.3-.1-.6s-.6-.7-1-.7c-.8.1-.8.3-1 .4-.4.4-.7.9-1.2 1.9-1.6 2.8-2.8 5.4-3.8 7.5-.3.8-.6 1.5-.9 2.2-.2.3-.5.6-.7.9-2.2 3-4.9 5.4-7.5 6.3-.6.2-.9.8-.7 1.4.2.5.6.8 1.1.8.1 0 .2 0 .4-.1 2.6-.9 5-2.9 7-5.2l.3.6c.4.5 1.1.8 1.7.8.3 0 .6-.1.9-.2.1.2.2.4.4.5.3.3.7.5 1.1.6h-3.5c-.6 0-1.1.5-1.1 1.1 0 .6.5 1.1 1.1 1.1h21.9c.6 0 1.1-.5 1.1-1.1 0-.6-.5-1.1-1.1-1.1h-3.6c.2-.1.4-.3.5-.4 1-.8 1.9-1.9 2.8-2.7.9-.9 1.8-1.4 2.3-1.5.6-.1 1.1-.6 1-1.2 0-.5-.6-.9-1.2-.9zm-12.2-2.2c-.1.1-.1.1-.1.2 0 0 .1-.1.1-.2zm-6.4 9c.8-.2 1.5-.7 2.2-1.2.1-.1.2-.1.3-.2l.1.1c.8.7 1.3.5 1.9.7.2 0 .3.1.5.1 1.3-.1 2-.8 2.9-1.6.9-.8 1.8-1.7 2.6-2.5.3-.3.9-.7 1.3-.8 0 .1-.1.3-.2.5-.3.6-.7 1.3-1 2-.3.7-.7 1.2-.8 2.1 0 .3.1.6.3.9h-10.1zM-217.2 385l2.1-1.4 1.2 2.3 2.5-.2-.1 2.5 2.2 1.2-1.3 2.1 1.3 2.1-2.2 1.2.1 2.5-2.5-.1-1.2 2.2-2.1-1.4-2.1 1.4-1.1-2.2-2.5.1.1-2.5-2.2-1.2 1.3-2.1-1.3-2.1 2.2-1.2-.1-2.5 2.5.2 1.1-2.3z"/></svg>