<?xml version="1.0" encoding="utf-8"?>
<!-- Generator: Adobe Illustrator 19.1.0, SVG Export Plug-In . SVG Version: 6.00 Build 0)  -->
<svg version="1.1" id="Layer_1" xmlns="http://www.w3.org/2000/svg" xmlns:xlink="http://www.w3.org/1999/xlink" x="0px" y="0px"
	 viewBox="-233.7 347 60.2 69.3" style="enable-background:new -233.7 347 60.2 69.3;" xml:space="preserve">
<style type="text/css">
	.st0{fill:#1C1C1C;}
</style>
<path class="st0" d="M-176,346.5h-55.2c-1.4,0-2.5,1.1-2.5,2.5v64.8c0,1.4,1.1,2.5,2.5,2.5h55.2c1.4,0,2.5-1.1,2.5-2.5V349
	C-173.6,347.6-174.7,346.5-176,346.5z M-178.1,411.8h-51.1V351h51.1V411.8z"/>
<path d="M-188.2,393.3c0,0.6-0.5,1.1-1.1,1.1h-3.7c-0.6,0-1.1-0.5-1.1-1.1l0,0c0-0.6,0.5-1.1,1.1-1.1h3.7
	C-188.7,392.2-188.2,392.7-188.2,393.3L-188.2,393.3z"/>
<path d="M-182.9,376.9c0,1.1-0.9,2.1-2.1,2.1h-37.5c-1.1,0-2.1-0.9-2.1-2.1l0,0c0-1.1,0.9-2.1,2.1-2.1h37.5
	C-183.8,374.8-182.9,375.8-182.9,376.9L-182.9,376.9z"/>
<path d="M-182.9,367.8c0,1.1-0.9,2.1-2.1,2.1h-37.5c-1.1,0-2.1-0.9-2.1-2.1l0,0c0-1.1,0.9-2.1,2.1-2.1h37.5
	C-183.8,365.8-182.9,366.7-182.9,367.8L-182.9,367.8z"/>
<path d="M-208.4,358.7c0,1.1-0.9,2.1-2.1,2.1h-12c-1.1,0-2.1-0.9-2.1-2.1l0,0c0-1.1,0.9-2.1,2.1-2.1h12
	C-209.3,356.7-208.4,357.6-208.4,358.7L-208.4,358.7z"/>
<path d="M-182.2,398c-2,0.2-3.3,1.8-4.6,3c-0.4,0.4-0.8,0.8-1.2,1.2c0.3-0.5,0.5-1,0.7-1.5c0.3-0.6,0.4-1.2,0.4-1.7
	c0-0.5-0.2-1.1-0.6-1.5c-0.4-0.4-0.9-0.5-1.3-0.5c-1.2,0-2.3,0.6-3.2,1.4c-0.9,0.8-1.8,1.7-2.6,2.5c-0.4,0.4-0.8,0.6-1,0.8
	c-0.1,0.1-0.3,0.1-0.3,0.2c0,0,0,0,0,0c-0.1,0-0.2,0-0.3-0.1c0.4-0.6,1-1.5,2.1-2.8c0.4-0.4,0.7-0.8,0.9-1.1
	c0.2-0.2,0.3-0.4,0.4-0.5c0-0.1,0.1-0.1,0.1-0.2c0,0,0-0.1,0.1-0.1c0,0,0,0,0.1-0.1c0.1-0.2,0.1-0.3,0.1-0.3c0,0,0,0,0-0.1
	c0,0,0,0,0,0c0-0.1,0-0.1,0-0.1c0-0.1,0-0.2,0-0.3c0-0.1-0.1-0.2-0.2-0.3c0-0.1-0.1-0.1-0.1-0.1c0,0-0.1-0.1-0.1-0.1
	c0,0-0.1-0.1-0.2-0.1c0,0,0,0,0,0c0,0,0,0,0,0c0,0,0,0,0,0c0,0,0,0,0,0c0,0-0.1,0-0.1,0c0,0,0,0,0,0c0,0,0,0-0.1,0c0,0,0,0,0,0
	c0,0-0.1,0-0.2,0c-0.1,0-0.1,0-0.2,0c0,0,0,0,0,0c-0.1,0-0.2,0-0.3,0.1c0,0,0,0,0,0c0,0,0,0-0.1,0c0,0,0,0,0,0
	c-0.1,0-0.2,0.1-0.2,0.1c0,0-0.1,0-0.1,0c0,0,0,0,0,0c0,0,0,0,0,0c0,0,0,0-0.1,0c-0.1,0.1-0.1,0.1-0.1,0.1c-0.2,0.2-0.5,0.6-1.1,1.4
	c-0.1,0.1-0.2,0.3-0.3,0.4c-0.5,0.6-1.2,1.4-1.9,2.1c-0.8,0.8-1.6,1.6-2.4,2.2c-0.7,0.6-1.4,0.8-1.5,0.8h0c-0.1,0-0.2,0-0.2-0.1
	c0-0.2,0.1-0.5,0.3-0.9c1.1-1.3,2.2-3,3-4.5c0.5-0.8,0.9-1.6,1.2-2.2c0.1-0.3,0.3-0.5,0.4-0.7c0-0.1,0.1-0.2,0.1-0.3
	c0-0.1,0.1-0.1,0.1-0.5c0-0.1,0-0.3-0.2-0.6c-0.1-0.3-0.6-0.6-1-0.6c-0.4,0-0.5,0.1-0.6,0.2c-0.3,0.2-0.3,0.3-0.3,0.4
	c-0.2,0.2-0.4,0.6-0.7,1.2c-1,1.8-2.1,3.4-3,4.8c-0.3,0.6-0.6,1-0.9,1.5c-0.2,0.3-0.5,0.5-0.7,0.7c-0.2,0.2-0.4,0.3-0.5,0.4
	c-0.1,0-0.1,0.1-0.1,0.1c0,0,0,0,0,0c0,0,0,0,0,0c0-0.1,0-0.1,0-0.3c0-0.4,0.1-1.1,0.4-2c0.5-0.7,1-1.4,1.4-2.1
	c1.4-2.2,2.5-4.3,3.3-6c0.4-0.8,0.7-1.6,0.9-2.2c0.2-0.6,0.4-1,0.4-1.5c0-0.1,0-0.3-0.1-0.6c-0.1-0.3-0.6-0.7-1-0.7
	c-0.8,0.1-0.8,0.3-1,0.4c-0.4,0.4-0.7,0.9-1.2,1.9c-1.6,2.8-2.8,5.4-3.8,7.5c-0.3,0.8-0.6,1.5-0.9,2.2c-0.2,0.3-0.5,0.6-0.7,0.9
	c-2.2,3-4.9,5.4-7.5,6.3c-0.6,0.2-0.9,0.8-0.7,1.4c0.2,0.5,0.6,0.8,1.1,0.8c0.1,0,0.2,0,0.4-0.1c2.6-0.9,5-2.9,7-5.2
	c0.1,0.2,0.2,0.4,0.3,0.6c0.4,0.5,1.1,0.8,1.7,0.8c0.3,0,0.6-0.1,0.9-0.2c0.1,0.2,0.2,0.4,0.4,0.5c0.3,0.3,0.7,0.5,1.1,0.6h-3.5
	c-0.6,0-1.1,0.5-1.1,1.1c0,0.6,0.5,1.1,1.1,1.1h21.9c0.6,0,1.1-0.5,1.1-1.1c0-0.6-0.5-1.1-1.1-1.1h-3.6c0.2-0.1,0.4-0.3,0.5-0.4
	c1-0.8,1.9-1.9,2.8-2.7c0.9-0.9,1.8-1.4,2.3-1.5c0.6-0.1,1.1-0.6,1-1.2C-181,398.4-181.6,398-182.2,398z M-194.4,395.8
	c-0.1,0.1-0.1,0.1-0.1,0.2c0,0,0,0,0,0C-194.5,396-194.4,395.9-194.4,395.8z M-200.8,404.8c0.8-0.2,1.5-0.7,2.2-1.2
	c0.1-0.1,0.2-0.1,0.3-0.2c0,0,0,0,0.1,0.1c0.8,0.7,1.3,0.5,1.9,0.7c0.2,0,0.3,0.1,0.5,0.1c1.3-0.1,2-0.8,2.9-1.6
	c0.9-0.8,1.8-1.7,2.6-2.5c0.3-0.3,0.9-0.7,1.3-0.8c0,0.1-0.1,0.3-0.2,0.5c-0.3,0.6-0.7,1.3-1,2c-0.3,0.7-0.7,1.2-0.8,2.1
	c0,0.3,0.1,0.6,0.3,0.9H-200.8z"/>
<polygon points="-217.2,385 -215.1,383.6 -213.9,385.9 -211.4,385.7 -211.5,388.2 -209.3,389.4 -210.6,391.5 -209.3,393.6 
	-211.5,394.8 -211.4,397.3 -213.9,397.2 -215.1,399.4 -217.2,398 -219.3,399.4 -220.4,397.2 -222.9,397.3 -222.8,394.8 -225,393.6 
	-223.7,391.5 -225,389.4 -222.8,388.2 -222.9,385.7 -220.4,385.9 -219.3,383.6 "/>
</svg>
