<svg id="Layer_1" xmlns="http://www.w3.org/2000/svg" viewBox="-228 355.7 49.3 51.7"><style>.st0{fill:#1C1C1C;}</style><path class="st0" d="M-226.7 363.7h3.7v41.1c0 .6.5 1.1 1.1 1.1h.7c.3 0 .6-.1.8-.3l3.6-3.6 3.6 3.6c.2.2.5.3.8.3h.2c.3 0 .6-.1.8-.3l3.6-3.6 3.6 3.6c.2.2.5.3.8.3h.2c.3 0 .6-.1.8-.3l3.6-3.6 3.6 3.6c.2.2.5.3.8.3h.2c.3 0 .6-.1.8-.3l3.6-3.6 3.6 3.6c.2.2.5.3.8.3h1c.6 0 1.1-.5 1.1-1.1v-41.1h3.7V357h-46.7v6.7zm40.8 39.4l-3.4-3.4c-.4-.4-1.1-.4-1.6 0l-3.7 3.7-3.7-3.7c-.2-.2-.5-.3-.8-.3s-.6.1-.8.3l-3.7 3.7-3.7-3.7c-.4-.4-1.1-.4-1.6 0l-3.7 3.7-3.7-3.7c-.4-.4-1.1-.4-1.6 0l-3.2 3.2v-39.1h34.8v39.3z"/><path class="st0" d="M-218.5 367.4h21.5v2.2h-21.5zM-218.5 374h17v2.2h-17zM-218.5 381.4h21.5v2.2h-21.5z"/></svg>