<?xml version="1.0" encoding="utf-8"?>
<!-- Generator: Adobe Illustrator 19.1.0, SVG Export Plug-In . SVG Version: 6.00 Build 0)  -->
<svg version="1.1" id="Layer_1" xmlns="http://www.w3.org/2000/svg" xmlns:xlink="http://www.w3.org/1999/xlink" x="0px" y="0px"
	 viewBox="-228 355.7 49.3 51.7" style="enable-background:new -228 355.7 49.3 51.7;" xml:space="preserve">
<style type="text/css">
	.st0{fill:#1C1C1C;}
</style>
<path class="st0" d="M-226.7,363.7h3.7v41.1c0,0.6,0.5,1.1,1.1,1.1h0.7c0.3,0,0.6-0.1,0.8-0.3l3.6-3.6l3.6,3.6
	c0.2,0.2,0.5,0.3,0.8,0.3h0.2c0.3,0,0.6-0.1,0.8-0.3l3.6-3.6l3.6,3.6c0.2,0.2,0.5,0.3,0.8,0.3h0.2c0.3,0,0.6-0.1,0.8-0.3l3.6-3.6
	l3.6,3.6c0.2,0.2,0.5,0.3,0.8,0.3h0.2c0.3,0,0.6-0.1,0.8-0.3l3.6-3.6l3.6,3.6c0.2,0.2,0.5,0.3,0.8,0.3h1c0.6,0,1.1-0.5,1.1-1.1
	v-41.1h3.7V357h-46.7V363.7z M-185.9,403.1l-3.4-3.4c-0.4-0.4-1.1-0.4-1.6,0l-3.7,3.7l-3.7-3.7c-0.2-0.2-0.5-0.3-0.8-0.3
	s-0.6,0.1-0.8,0.3l-3.7,3.7l-3.7-3.7c-0.4-0.4-1.1-0.4-1.6,0l-3.7,3.7l-3.7-3.7c-0.4-0.4-1.1-0.4-1.6,0l-3.2,3.2v-39.1h34.8V403.1z"
	/>
<rect x="-218.5" y="367.4" class="st0" width="21.5" height="2.2"/>
<rect x="-218.5" y="374" class="st0" width="17" height="2.2"/>
<rect x="-218.5" y="381.4" class="st0" width="21.5" height="2.2"/>
</svg>
