<svg id="Layer_1" xmlns="http://www.w3.org/2000/svg" viewBox="-246 365.8 76.2 45"><style>.st0{fill:#1C1C1C;}</style><path class="st0" d="M-171.9 409.7H-244c-.4 0-.7-.2-.9-.5-.2-.3-.2-.7 0-1l1.8-2.7v-12.8l-1.8-2.9c-.2-.3-.2-.7 0-1 .2-.3.5-.5.9-.5h22.4c.5 0 1 .4 1 1 0 .5-.4 1-1 1h-20.7l1 1.7c.1.2.1.3.1.5v13.3c0 .2-.1.4-.2.5l-1 1.5h68.5l-.9-1.3c-.1-.2-.2-.4-.2-.6v-13.7c0-.2.1-.4.2-.5l.9-1.4h-20.6c-.5 0-1-.4-1-1 0-.5.4-1 1-1h22.4c.4 0 .7.2.9.5.2.3.2.7 0 1l-1.8 2.7v13.1l1.8 2.6c.2.3.2.7.1 1-.1.3-.4.5-.8.5z"/><path class="st0" d="M-221.6 384.3h1.9v23.4h-1.9v-23.4zM-196.2 384.3h1.9v23.4h-1.9v-23.4zM-193.3 384.3h-29.2c-.5 0-.9-.3-1-.8-.1-.4.1-.9.5-1.1l14.6-6.8c.3-.1.6-.1.8 0l14.5 6.8c.4.1.7.5.7.9.1.6-.3 1-.9 1zm-24.8-1.9h20.4l-10.2-4.8-10.2 4.8z"/><path class="st0" d="M-209.9 366.8h1.9v9.7h-1.9v-9.7zM-196.2 388.2h-23.4c-.5 0-1-.4-1-1 0-.5.4-1 1-1h23.4c.5 0 1 .4 1 1-.1.6-.5 1-1 1z"/><path class="st0" d="M-214.7 408.7c-.5 0-1-.4-1-1v-19.5c0-.5.4-1 1-1s1 .4 1 1v19.5c-.1.5-.5 1-1 1zM-201.1 408.7c-.5 0-1-.4-1-1v-19.5c0-.5.4-1 1-1 .5 0 1 .4 1 1v19.5c0 .5-.5 1-1 1zM-199.2 374.6h-9.7c-.5 0-1-.4-1-1v-5.8c0-.5.4-1 1-1h9.7c.5 0 1 .4 1 1v5.8c0 .5-.4 1-1 1zm-8.7-2h7.8v-3.9h-7.8v3.9zM-234.2 405.8h-3.9c-.5 0-1-.4-1-1v-3.9c0-.5.4-1 1-1h3.9c.5 0 1 .4 1 1v3.9c-.1.5-.5 1-1 1zm-3-2h1.9v-1.9h-1.9v1.9zM-234.2 398h-3.9c-.5 0-1-.4-1-1v-3.9c0-.5.4-1 1-1h3.9c.5 0 1 .4 1 1v3.9c-.1.5-.5 1-1 1zm-3-2h1.9v-1.9h-1.9v1.9zM-226.4 405.8h-3.9c-.5 0-1-.4-1-1v-3.9c0-.5.4-1 1-1h3.9c.5 0 1 .4 1 1v3.9c-.1.5-.5 1-1 1zm-3-2h1.9v-1.9h-1.9v1.9zM-226.4 398h-3.9c-.5 0-1-.4-1-1v-3.9c0-.5.4-1 1-1h3.9c.5 0 1 .4 1 1v3.9c-.1.5-.5 1-1 1zm-3-2h1.9v-1.9h-1.9v1.9zM-185.5 405.8h-3.9c-.5 0-1-.4-1-1v-3.9c0-.5.4-1 1-1h3.9c.5 0 1 .4 1 1v3.9c0 .5-.5 1-1 1zm-2.9-2h1.9v-1.9h-1.9v1.9zM-185.5 398h-3.9c-.5 0-1-.4-1-1v-3.9c0-.5.4-1 1-1h3.9c.5 0 1 .4 1 1v3.9c0 .5-.5 1-1 1zm-2.9-2h1.9v-1.9h-1.9v1.9zM-177.7 405.8h-3.9c-.5 0-1-.4-1-1v-3.9c0-.5.4-1 1-1h3.9c.5 0 1 .4 1 1v3.9c0 .5-.5 1-1 1zm-2.9-2h1.9v-1.9h-1.9v1.9zM-177.7 398h-3.9c-.5 0-1-.4-1-1v-3.9c0-.5.4-1 1-1h3.9c.5 0 1 .4 1 1v3.9c0 .5-.5 1-1 1zm-2.9-2h1.9v-1.9h-1.9v1.9zM-204 407.7h-1.9v-4.5c0-.6-1.1-1.4-1.9-1.4s-1.9.8-1.9 1.4v4.5h-1.9v-4.5c0-1.9 2.1-3.3 3.9-3.3 1.8 0 3.9 1.4 3.9 3.3v4.5zM-205 398h-5.8c-.5 0-1-.4-1-1v-5.8c0-.5.4-1 1-1h5.8c.5 0 1 .4 1 1v5.8c0 .5-.5 1-1 1zm-4.9-2h3.9v-3.9h-3.9v3.9z"/></svg>