<?xml version="1.0" encoding="utf-8"?>
<!-- Generator: Adobe Illustrator 18.1.1, SVG Export Plug-In . SVG Version: 6.00 Build 0)  -->
<svg version="1.1" id="Layer_1" xmlns="http://www.w3.org/2000/svg" xmlns:xlink="http://www.w3.org/1999/xlink" x="0px" y="0px"
	 viewBox="0 0 600 600" enable-background="new 0 0 600 600" xml:space="preserve">
<g>
	<linearGradient id="SVGID_1_" gradientUnits="userSpaceOnUse" x1="230.0616" y1="72.4016" x2="371.9384" y2="72.4016">
		<stop  offset="0" style="stop-color:#4C3593"/>
		<stop  offset="1" style="stop-color:#90278E"/>
	</linearGradient>
	<polygon fill="url(#SVGID_1_)" points="230.1,72.4 230.1,72.4 301,143.3 371.9,72.4 301,1.5 	"/>
	<linearGradient id="SVGID_2_" gradientUnits="userSpaceOnUse" x1="456.6607" y1="299.9992" x2="598.5376" y2="299.9992">
		<stop  offset="0" style="stop-color:#4C3593"/>
		<stop  offset="1" style="stop-color:#90278E"/>
	</linearGradient>
	<polygon fill="url(#SVGID_2_)" points="456.7,300 456.7,300 527.6,370.9 598.5,300 527.6,229.1 	"/>
	<linearGradient id="SVGID_3_" gradientUnits="userSpaceOnUse" x1="230.0616" y1="527.5984" x2="371.9384" y2="527.5984">
		<stop  offset="0" style="stop-color:#4C3593"/>
		<stop  offset="1" style="stop-color:#90278E"/>
	</linearGradient>
	<polygon fill="url(#SVGID_3_)" points="230.1,527.6 230.1,527.6 301,598.5 371.9,527.6 301,456.7 	"/>
	<linearGradient id="SVGID_4_" gradientUnits="userSpaceOnUse" x1="1.4624" y1="299.9992" x2="143.3393" y2="299.9992">
		<stop  offset="0" style="stop-color:#4C3593"/>
		<stop  offset="1" style="stop-color:#90278E"/>
	</linearGradient>
	<polygon fill="url(#SVGID_4_)" points="1.5,300 1.5,300 72.4,370.9 143.3,300 72.4,229.1 	"/>
	<linearGradient id="SVGID_5_" gradientUnits="userSpaceOnUse" x1="16.2195" y1="150.729" x2="285.2421" y2="150.729">
		<stop  offset="0" style="stop-color:#6C55A0"/>
		<stop  offset="1" style="stop-color:#4D6EB2"/>
	</linearGradient>
	<path fill="url(#SVGID_5_)" d="M16.2,150.7l134.5,134.5l134.5-134.5L150.7,16.2L16.2,150.7z M173.1,135.8l-37.3,37.3l-7.5-7.5
		l37.3-37.3L173.1,135.8z"/>
	<linearGradient id="SVGID_6_" gradientUnits="userSpaceOnUse" x1="16.2195" y1="449.2657" x2="285.2421" y2="449.2657">
		<stop  offset="0" style="stop-color:#6C55A0"/>
		<stop  offset="1" style="stop-color:#4D6EB2"/>
	</linearGradient>
	<path fill="url(#SVGID_6_)" d="M16.2,449.3l134.5,134.5l134.5-134.5L150.7,314.8L16.2,449.3z M165.7,471.7l-37.3-37.3l7.5-7.5
		l37.3,37.3L165.7,471.7z"/>
	<linearGradient id="SVGID_7_" gradientUnits="userSpaceOnUse" x1="314.7562" y1="150.729" x2="583.7813" y2="150.729">
		<stop  offset="0" style="stop-color:#6C55A0"/>
		<stop  offset="1" style="stop-color:#4D6EB2"/>
	</linearGradient>
	<path fill="url(#SVGID_7_)" d="M449.3,285.2l134.5-134.5L449.3,16.2L314.8,150.7L449.3,285.2z M471.7,165.7l-7.5,7.5l-37.3-37.3
		l7.5-7.5L471.7,165.7z"/>
	<linearGradient id="SVGID_8_" gradientUnits="userSpaceOnUse" x1="314.7575" y1="449.2679" x2="583.7801" y2="449.2679">
		<stop  offset="0" style="stop-color:#6C55A0"/>
		<stop  offset="1" style="stop-color:#4D6EB2"/>
	</linearGradient>
	<path fill="url(#SVGID_8_)" d="M314.8,449.3l134.5,134.5l134.5-134.5L449.3,314.8L314.8,449.3z M471.7,434.3l-37.3,37.3l-7.5-7.5
		l37.3-37.3L471.7,434.3z"/>
</g>
</svg>
