<?xml version="1.0" encoding="utf-8"?>
<!-- Generator: Adobe Illustrator 19.1.0, SVG Export Plug-In . SVG Version: 6.00 Build 0)  -->
<svg version="1.1" id="Layer_1" xmlns="http://www.w3.org/2000/svg" xmlns:xlink="http://www.w3.org/1999/xlink" x="0px" y="0px"
	 viewBox="0 0 75 75" style="enable-background:new 0 0 75 75;" xml:space="preserve">
<style type="text/css">
	.st0{fill-rule:evenodd;clip-rule:evenodd;fill:#FFFFFF;}
</style>
<path class="st0" d="M62.8,42.4c-1.8,0-3.4,1.1-4.1,2.6h-0.1h-7.4l-4.9-12.9c-0.4-0.9-1.3-1.5-2.2-1.4c-1,0.1-1.8,0.8-2,1.7
	l-3.2,14.2l-3-32.6c-0.1-1-0.9-1.9-2-2c-1.1-0.1-2,0.5-2.4,1.6L22,44.8H9.8c-1.2,0-2.2,1-2.2,2.2c0,1.2,1,2.2,2.2,2.2h13.8
	c1,0,1.9-0.7,2.2-1.6L32.3,26l3.2,35.1c0.1,1.1,1,1.9,2.1,2c0.1,0,0.1,0,0.1,0c1,0,1.9-0.8,2.2-1.7l4.6-20.7l2.8,7.4
	c0.3,0.9,1.1,1.4,2.1,1.4h8.9c0.1,0,0.2-0.1,0.4-0.1c0.8,1.3,2.2,2.1,3.8,2.1c2.6,0,4.6-2,4.6-4.6C67.3,44.4,65.2,42.4,62.8,42.4z"
	/>
</svg>
