<?xml version="1.0" encoding="utf-8"?>
<!-- Generator: Adobe Illustrator 19.1.0, SVG Export Plug-In . SVG Version: 6.00 Build 0)  -->
<svg version="1.1" id="Layer_1" xmlns="http://www.w3.org/2000/svg" xmlns:xlink="http://www.w3.org/1999/xlink" x="0px" y="0px"
	 viewBox="0 0 600 600" style="enable-background:new 0 0 600 600;" xml:space="preserve">
<style type="text/css">
	.st0{fill:#FFFFFF;}
</style>
<g>
	<polygon class="st0" points="229.1,72.4 229.1,72.4 300,143.3 370.9,72.4 300,1.5 	"/>
	<polygon class="st0" points="456.7,300 456.7,300 527.6,370.9 598.5,300 527.6,229.1 	"/>
	<polygon class="st0" points="232.1,527.6 232.1,527.6 303.1,598.5 374,527.6 303.1,456.7 	"/>
	<polygon class="st0" points="1.5,300 1.5,300 72.4,370.9 143.3,300 72.4,229.1 	"/>
	<path class="st0" d="M16.2,150.7l134.5,134.5l134.5-134.5L150.7,16.2L16.2,150.7z M173.1,135.8l-37.3,37.3l-7.5-7.5l37.3-37.3
		L173.1,135.8z"/>
	<path class="st0" d="M16.2,449.3l134.5,134.5l134.5-134.5L150.7,314.8L16.2,449.3z M165.7,471.7l-37.3-37.3l7.5-7.5l37.3,37.3
		L165.7,471.7z"/>
	<path class="st0" d="M449.3,285.2l134.5-134.5L449.3,16.2L314.8,150.7L449.3,285.2z M471.7,165.7l-7.5,7.5l-37.3-37.3l7.5-7.5
		L471.7,165.7z"/>
	<path class="st0" d="M314.8,449.3l134.5,134.5l134.5-134.5L449.3,314.8L314.8,449.3z M471.7,434.3l-37.3,37.3l-7.5-7.5l37.3-37.3
		L471.7,434.3z"/>
</g>
</svg>
