<?xml version="1.0" encoding="utf-8"?>
<!-- Generator: Adobe Illustrator 19.1.0, SVG Export Plug-In . SVG Version: 6.00 Build 0)  -->
<svg version="1.1" id="Layer_1" xmlns="http://www.w3.org/2000/svg" xmlns:xlink="http://www.w3.org/1999/xlink" x="0px" y="0px"
	 viewBox="0 0 75 75" style="enable-background:new 0 0 75 75;" xml:space="preserve">
<style type="text/css">
	.st0{fill:#E64A33;}
</style>
<path class="st0" d="M66.3,63.8H10.5V50.4l14.3-14.3l11.6,11.6c0.9,0.9,2.3,0.9,3.2,0l22.1-22.1v2.6c0,1.2,1,2.2,2.2,2.2
	c1.2,0,2.2-1,2.2-2.2v-8.8c0-0.8-0.7-1.5-1.5-1.5H56c-1.2,0-2.2,1-2.2,2.2c0,1.2,1,2.2,2.2,2.2h2.6L38,42.9L26.4,31.4
	c-0.9-0.9-2.3-0.9-3.2,0L10.5,44.1V9.5c0-1-0.7-1.9-1.7-2C7.7,7.4,6.8,8.3,6.8,9.4v56.2c0,1,0.8,1.9,1.9,1.9h57.8
	c1.1,0,2-0.9,1.9-2.1C68.1,64.5,67.2,63.8,66.3,63.8z"/>
</svg>
