<?xml version="1.0" standalone="no"?>
<!DOCTYPE svg PUBLIC "-//W3C//DTD SVG 1.1//EN" "http://www.w3.org/Graphics/SVG/1.1/DTD/svg11.dtd" >
<svg xmlns="http://www.w3.org/2000/svg" xmlns:xlink="http://www.w3.org/1999/xlink" version="1.1">
<metadata></metadata>
<defs>
<font id="whitneysemibold_italic" horiz-adv-x="897" >
<font-face units-per-em="2048" ascent="1638" descent="-410" />
<missing-glyph horiz-adv-x="417" />
<glyph unicode="&#xfb01;" horiz-adv-x="1132" d="M37 -381l184 1174h-139l31 196h139l31 189q24 144 105.5 216t236.5 72q82 0 123 -8v-194q-58 8 -95 8q-61 0 -95 -30t-44 -99l-27 -154h177v-196h-207l-176 -1137zM686 0l158 989h239l-159 -989h-238zM866 1296q0 62 42 102t104 40q64 0 105.5 -40t41.5 -102 t-41.5 -101.5t-105.5 -39.5q-62 0 -104 39.5t-42 101.5z" />
<glyph unicode="&#xfb02;" horiz-adv-x="1132" d="M37 -381l184 1174h-139l31 196h139l31 189q24 144 105.5 216t236.5 72q82 0 123 -8v-194q-58 8 -95 8q-61 0 -95 -30t-44 -99l-27 -154h177v-196h-207l-176 -1137zM688 0l227 1440l246 39l-235 -1479h-238z" />
<glyph unicode="&#xfb03;" horiz-adv-x="1777" d="M37 -381l184 1174h-139l31 196h139l31 189q24 144 105.5 216t236.5 72q82 0 123 -8v-194q-58 8 -95 8q-61 0 -95 -30t-44 -99l-27 -154h177v-196h-207l-176 -1137zM680 -381l184 1174h-139l31 196h139l31 189q24 144 105.5 216t236.5 72q82 0 123 -8v-194q-58 8 -95 8 q-61 0 -95 -30t-44 -99l-27 -154h177v-196h-207l-176 -1137zM1331 0l158 989h240l-160 -989h-238zM1511 1296q0 62 42 102t104 40q64 0 105.5 -40t41.5 -102t-41.5 -101.5t-105.5 -39.5q-62 0 -104 39.5t-42 101.5z" />
<glyph unicode="&#xfb04;" horiz-adv-x="1777" d="M37 -381l184 1174h-139l31 196h139l31 189q24 144 105.5 216t236.5 72q82 0 123 -8v-194q-58 8 -95 8q-61 0 -95 -30t-44 -99l-27 -154h177v-196h-207l-176 -1137zM680 -381l184 1174h-139l31 196h139l31 189q24 144 105.5 216t236.5 72q82 0 123 -8v-194q-58 8 -95 8 q-61 0 -95 -30t-44 -99l-27 -154h177v-196h-207l-176 -1137zM1333 0l228 1440l245 39l-235 -1479h-238z" />
<glyph horiz-adv-x="0" />
<glyph horiz-adv-x="682" />
<glyph unicode=" "  horiz-adv-x="417" />
<glyph unicode="&#x09;" horiz-adv-x="417" />
<glyph unicode="&#xa0;" horiz-adv-x="417" />
<glyph unicode="!" horiz-adv-x="579" d="M76 0l47 297h268l-47 -297h-268zM207 451l78 962h301l-219 -928z" />
<glyph unicode="&#x22;" horiz-adv-x="909" d="M240 918l10 466h274l-145 -501zM657 918l11 466h274l-145 -501z" />
<glyph unicode="#" horiz-adv-x="1320" d="M84 319v209h242l51 328h-221l-33 209h289l51 324h164l-52 -324h308l53 336l160 -37l-49 -299h208v-209h-241l-51 -328h221l35 -209h-289l-51 -323h-166l53 323h-311l-52 -335l-159 36l47 299h-207zM487 524h314l51 336h-311z" />
<glyph unicode="$" horiz-adv-x="1067" d="M8 127l66 203q148 -96 278 -129l131 430q-155 73 -225 153.5t-70 208.5q0 183 124 292.5t333 109.5q45 0 68 -2l47 153l135 -33l-45 -143q120 -28 219 -90l-70 -203q-88 65 -217 103l-114 -369q172 -79 243.5 -166.5t71.5 -216.5q0 -139 -66 -240t-175 -149.5t-246 -48.5 q-28 0 -74 4l-74 -244l-137 33l74 231q-152 36 -277 113zM408 1030q0 -52 31.5 -90.5t115.5 -79.5l104 342q-10 2 -32 2q-104 0 -161.5 -48t-57.5 -126zM475 182h31q111 0 182.5 57.5t71.5 149.5q0 61 -35 103.5t-127 87.5z" />
<glyph unicode="%" horiz-adv-x="1732" d="M141 911q0 129 45.5 241.5t127 180.5t180.5 68q135 0 205.5 -91t70.5 -247q0 -128 -45 -240.5t-126.5 -181t-180.5 -68.5q-135 0 -206 91.5t-71 246.5zM289 25l567 729l494 645l155 -39l-540 -696l-519 -678zM315 903q0 -176 107 -176q51 0 91.5 51.5t61.5 130t21 164.5 q0 87 -28 131.5t-79 44.5t-91.5 -52t-61.5 -130.5t-21 -163.5zM1026 322q0 128 45 240t126.5 180.5t180.5 68.5q135 0 206 -91.5t71 -246.5q0 -129 -45.5 -241t-127 -180t-179.5 -68q-135 0 -206 91t-71 247zM1200 311q0 -87 28 -131.5t79 -44.5t91 52t60.5 130t20.5 164 q0 176 -105 176q-51 0 -91.5 -51.5t-61.5 -130t-21 -164.5z" />
<glyph unicode="&#x26;" horiz-adv-x="1323" d="M41 326q0 160 100 277t283 188q-94 146 -94 274q0 163 109.5 269t293.5 106q192 0 361 -90l-70 -215q-161 92 -285 92q-74 0 -119 -41.5t-45 -108.5q0 -49 18 -89.5t66 -110.5l252 -359q67 137 115 316l201 -52q-73 -248 -197 -432l225 -317l-258 -45l-125 172 q-199 -187 -434 -187q-184 0 -290.5 97t-106.5 256zM293 358q0 -83 52 -135.5t147 -52.5q141 0 274 139l-240 336q-233 -103 -233 -287z" />
<glyph unicode="'" horiz-adv-x="495" d="M240 918l10 466h276l-145 -501z" />
<glyph unicode="(" horiz-adv-x="804" d="M117 502q2 311 178 562t518 423v-197q-221 -159 -327 -351t-107 -443q-3 -314 266 -639l-209 -50q-322 325 -319 695z" />
<glyph unicode=")" horiz-adv-x="804" d="M37 -6q221 159 327 351t107 443q3 314 -266 639l209 50q322 -322 319 -695q-2 -311 -178 -562t-518 -423v197z" />
<glyph unicode="*" horiz-adv-x="858" d="M162 1141l22 65l250 -26l45 243h74l45 -243l254 26l20 -65l-221 -123l109 -232l-58 -38l-184 172l-186 -172l-58 38l107 232z" />
<glyph unicode="+" horiz-adv-x="1171" d="M127 594l31 197h372l60 385h207l-62 -385h373l-31 -197h-372l-60 -385h-207l60 385h-371z" />
<glyph unicode="," horiz-adv-x="495" d="M-66 -254l185 553h280l-325 -588z" />
<glyph unicode="-" horiz-adv-x="700" d="M90 471l35 236h508l-35 -236h-508z" />
<glyph unicode="." horiz-adv-x="495" d="M35 0l47 299h268l-47 -299h-268z" />
<glyph unicode="/" horiz-adv-x="1091" d="M-186 -213l1175 1645l213 -48l-1175 -1644z" />
<glyph unicode="0" horiz-adv-x="1214" d="M117 522q0 233 66 427.5t184 312.5q149 149 360 149q205 0 320.5 -145.5t115.5 -403.5q0 -234 -66 -428.5t-184 -310.5q-149 -152 -360 -152q-205 0 -320.5 146.5t-115.5 404.5zM371 498q0 -159 51.5 -240.5t146.5 -81.5q84 0 154 70q79 82 132.5 266t53.5 375 q0 159 -51.5 239t-146.5 80q-85 0 -154 -69q-79 -79 -132.5 -263.5t-53.5 -375.5z" />
<glyph unicode="1" horiz-adv-x="745" d="M147 1028v203l355 155h221l-219 -1386h-254l180 1135z" />
<glyph unicode="2" horiz-adv-x="1081" d="M2 0l31 199l573 526q101 95 145 160t44 137q0 80 -50.5 124t-142.5 44q-163 0 -371 -148v232q199 137 422 137q184 0 291 -96t107 -256q0 -70 -17.5 -129t-58.5 -118.5t-93 -112.5t-137 -128l-397 -358h561v-213h-907z" />
<glyph unicode="3" horiz-adv-x="1040" d="M0 88l66 209q187 -109 354 -109q121 0 195.5 62t74.5 168q0 205 -293 205h-69v198h114q147 0 234.5 59t87.5 160q0 75 -49.5 115.5t-147.5 40.5q-172 0 -360 -121v221q196 115 405 115q191 0 299.5 -86.5t108.5 -241.5q0 -271 -305 -364q225 -86 225 -311 q0 -200 -142 -317.5t-368 -117.5q-224 0 -430 115z" />
<glyph unicode="4" horiz-adv-x="1187" d="M33 297l26 170l727 917h293l-143 -899h211l-29 -188h-211l-47 -297h-235l49 297h-641zM297 485h403l105 639z" />
<glyph unicode="5" horiz-adv-x="1056" d="M12 82l70 215q193 -104 375 -104q119 0 187.5 62t68.5 161q0 122 -123.5 185.5t-421.5 92.5l156 690h723v-213h-560l-69 -299q274 -36 408.5 -140.5t134.5 -293.5q0 -145 -67 -251t-181 -159t-260 -53q-225 0 -441 107z" />
<glyph unicode="6" horiz-adv-x="1124" d="M92 475q0 188 64 347.5t181 278t280.5 199t363.5 115.5v-217q-237 -45 -393 -157.5t-215 -276.5q161 100 340 100q162 0 254 -96.5t92 -273.5q0 -225 -148 -373t-376 -148q-203 0 -323 134t-120 368zM328 477q0 -140 58.5 -221.5t164.5 -81.5q114 0 189 80.5t75 210.5 q0 207 -199 207q-138 0 -284 -97q-4 -35 -4 -98z" />
<glyph unicode="7" horiz-adv-x="1077" d="M145 35l680 1128h-620v221h925l-30 -200l-715 -1198z" />
<glyph unicode="8" horiz-adv-x="1144" d="M61 336q0 262 314 401q-160 115 -160 285q0 167 125.5 278t339.5 111q195 0 311.5 -91t116.5 -237q0 -231 -264 -358q107 -69 157 -148t50 -178q0 -185 -140.5 -304.5t-375.5 -119.5q-224 0 -349 102t-125 259zM305 358q0 -91 67 -143.5t173 -52.5q118 0 189 61t71 158 q0 79 -54 138t-204 128q-242 -105 -242 -289zM451 1047q0 -71 52 -124.5t173 -111.5q196 99 196 252q0 76 -52.5 120t-149.5 44q-99 0 -159 -53t-60 -127z" />
<glyph unicode="9" horiz-adv-x="1124" d="M127 885q0 224 148.5 375t375.5 151q203 0 323 -134t120 -368q0 -153 -43 -287.5t-122 -241.5t-191 -190.5t-250 -138.5t-298 -82v217q238 44 395.5 151t219.5 265q-159 -90 -324 -90q-167 0 -260.5 97t-93.5 276zM371 909q0 -207 198 -207q134 0 281 93q8 78 8 112 q0 141 -58.5 223t-164.5 82q-115 0 -189.5 -84.5t-74.5 -218.5z" />
<glyph unicode=":" horiz-adv-x="514" d="M45 0l47 297h266l-45 -297h-268zM156 694l45 295h266l-45 -295h-266z" />
<glyph unicode=";" horiz-adv-x="514" d="M-76 -254l185 551h280l-326 -586zM164 694l45 295h266l-45 -295h-266z" />
<glyph unicode="&#x3c;" horiz-adv-x="1171" d="M133 604l27 176l989 455l-37 -227l-721 -322l619 -321l-35 -215z" />
<glyph unicode="=" horiz-adv-x="1208" d="M127 352l33 205h911l-33 -205h-911zM203 827l33 205h911l-33 -205h-911z" />
<glyph unicode="&#x3e;" horiz-adv-x="1171" d="M84 150l37 229l721 319l-619 322l35 215l842 -455l-27 -176z" />
<glyph unicode="?" horiz-adv-x="989" d="M180 1061v239q207 140 438 140q190 0 292 -91t102 -243q0 -178 -116 -294.5t-364 -195.5l-36 -141l-156 -33l29 332l47 19q179 70 252 126.5t73 141.5q0 67 -47.5 105t-138.5 38q-173 0 -375 -143zM201 0l47 297h268l-47 -297h-268z" />
<glyph unicode="@" horiz-adv-x="1697" d="M84 383q0 182 67.5 350.5t181 292.5t272.5 198t333 74q305 0 488.5 -179t183.5 -488q0 -243 -104.5 -393t-278.5 -150q-104 0 -178 48.5t-97 135.5q-85 -99 -151.5 -141.5t-141.5 -42.5q-99 0 -159 70t-60 196q0 122 40 231.5t107.5 186t157.5 121.5t187 45 q152 0 305 -66l-78 -436q-12 -87 -12 -112q0 -56 32.5 -88.5t96.5 -32.5q108 0 177 114t69 312q0 147 -44.5 262t-125 187t-187.5 109.5t-235 37.5q-151 0 -289.5 -64.5t-241 -174.5t-164 -267.5t-61.5 -333.5q0 -154 44.5 -271t126 -188t189 -106t240.5 -35q242 0 440 100 l13 -73q-203 -99 -461 -99q-318 0 -500 174t-182 496zM647 393q0 -131 90 -131q40 0 90 38.5t123 127.5l60 330q-43 14 -88 14q-110 0 -192.5 -113.5t-82.5 -265.5z" />
<glyph unicode="A" horiz-adv-x="1333" d="M-35 0l721 1419h275l262 -1382l-269 -51l-61 372h-485l-172 -358h-271zM510 578h350l-90 544z" />
<glyph unicode="B" horiz-adv-x="1132" d="M63 0l224 1413h368q212 0 323.5 -86.5t111.5 -236.5q0 -128 -68.5 -215t-181.5 -132q207 -88 207 -297q0 -214 -156.5 -330t-423.5 -116h-404zM350 199h127q144 0 227.5 61t83.5 178q0 99 -66.5 151t-197.5 52h-100zM453 829h104q124 0 200.5 57t76.5 163 q0 78 -51.5 121.5t-155.5 43.5h-115z" />
<glyph unicode="C" horiz-adv-x="1193" d="M106 578q0 178 55.5 337t152 274t233.5 182t293 67q214 0 377 -123l-74 -242q-146 133 -305 133q-102 0 -189.5 -50t-146 -133.5t-91 -192.5t-32.5 -226q0 -197 88 -299t242 -102q163 0 333 108v-237q-174 -99 -370 -99q-261 0 -413.5 158t-152.5 445z" />
<glyph unicode="D" horiz-adv-x="1351" d="M63 0l224 1413h360q313 0 483 -150.5t170 -433.5q0 -369 -227 -596q-233 -233 -647 -233h-363zM362 217h105q249 0 397 148q162 162 162 446q0 194 -100 290.5t-289 96.5h-119z" />
<glyph unicode="E" horiz-adv-x="1001" d="M63 0l224 1413h772l-33 -227h-510l-53 -338h387v-227h-422l-63 -394h526l-37 -227h-791z" />
<glyph unicode="F" horiz-adv-x="956" d="M63 0l224 1413h753l-36 -231h-488l-59 -365h370v-231h-405l-92 -586h-267z" />
<glyph unicode="G" horiz-adv-x="1343" d="M106 573q0 179 57.5 338.5t157.5 275.5t242 183.5t303 67.5q237 0 418 -111l-74 -240q-161 123 -346 123q-138 0 -249.5 -83t-172.5 -224t-61 -311q0 -195 90.5 -295t239.5 -100q131 0 229 53l49 325h-260v216h537l-111 -685q-215 -131 -469 -131q-265 0 -422.5 159 t-157.5 439z" />
<glyph unicode="H" horiz-adv-x="1361" d="M63 0l224 1413h266l-88 -561h545l88 561h268l-223 -1413h-269l97 612h-543l-98 -612h-267z" />
<glyph unicode="I" horiz-adv-x="569" d="M72 0l223 1413h266l-223 -1413h-266z" />
<glyph unicode="J" horiz-adv-x="800" d="M0 6v234q87 -23 168 -23q91 0 146.5 48t74.5 167l156 981h266l-160 -1014q-35 -218 -146.5 -314.5t-311.5 -96.5q-112 0 -193 18z" />
<glyph unicode="K" horiz-adv-x="1220" d="M63 0l224 1413h266l-98 -618l544 618h322l-621 -674l426 -702l-278 -51l-410 700l-108 -686h-267z" />
<glyph unicode="L" horiz-adv-x="933" d="M63 0l224 1413h266l-186 -1175h444v-238h-748z" />
<glyph unicode="M" horiz-adv-x="1767" d="M31 0l329 1413h338l168 -1057l502 1057h330l-117 -1413h-268l90 1036l-500 -1042h-231l-168 1042l-236 -1036h-237z" />
<glyph unicode="N" horiz-adv-x="1351" d="M63 0l224 1413h256l426 -907l141 907h244l-224 -1413h-194l-471 997l-158 -997h-244z" />
<glyph unicode="O" horiz-adv-x="1419" d="M111 592q0 198 65 372t182 293q186 183 449 183q264 0 410.5 -166.5t146.5 -452.5q0 -198 -65 -372.5t-183 -292.5q-183 -183 -446 -183q-264 0 -411.5 166.5t-147.5 452.5zM383 578q0 -190 75.5 -291t215.5 -101q130 0 233 103q82 82 133.5 228.5t51.5 318.5 q0 190 -75.5 290.5t-215.5 100.5q-131 0 -234 -103q-82 -82 -133 -228t-51 -318z" />
<glyph unicode="P" horiz-adv-x="1105" d="M63 0l224 1413h334q244 0 370.5 -103t126.5 -298q0 -224 -159.5 -356t-440.5 -132h-106l-82 -524h-267zM444 735h91q157 0 239 69.5t82 194.5q0 97 -63 150t-187 53h-88z" />
<glyph unicode="Q" horiz-adv-x="1425" d="M111 586q0 207 64.5 379t182.5 290q185 185 449 185q176 0 303 -77.5t190.5 -214.5t63.5 -319q0 -277 -113.5 -476.5t-306.5 -293.5l328 -120l-80 -232l-617 252q-126 51 -210 106t-142.5 129t-85 169.5t-26.5 222.5zM383 578q0 -190 75.5 -291t215.5 -101q130 0 233 103 q82 82 133.5 228.5t51.5 318.5q0 190 -75.5 290.5t-215.5 100.5q-131 0 -234 -103q-82 -82 -133 -228t-51 -318z" />
<glyph unicode="R" horiz-adv-x="1169" d="M63 0l224 1413h344q238 0 365.5 -94.5t127.5 -284.5q0 -174 -93 -286t-245 -156l279 -555l-279 -51l-270 559h-102l-88 -545h-263zM442 745h113q147 0 226 70.5t79 192.5q0 194 -242 194h-104z" />
<glyph unicode="S" horiz-adv-x="1062" d="M25 109l73 227q208 -143 391 -143q98 0 160 52.5t62 139.5q0 65 -35.5 107t-134.5 100q-197 112 -272.5 201t-75.5 223q0 182 127.5 301t336.5 119q213 0 390 -111l-74 -225q-186 123 -328 123q-94 0 -142 -48.5t-48 -121.5q0 -58 39 -101.5t147 -105.5 q188 -105 260 -198.5t72 -219.5q0 -142 -66.5 -246t-175.5 -154.5t-246 -50.5q-121 0 -242.5 37.5t-217.5 94.5z" />
<glyph unicode="T" horiz-adv-x="1173" d="M158 1184l39 229h1048v-229h-414l-186 -1184h-268l186 1184h-405z" />
<glyph unicode="U" horiz-adv-x="1327" d="M125 422q0 76 14 172l129 819h269l-131 -835q-13 -76 -13 -138q0 -114 61.5 -176.5t180.5 -62.5q252 0 305 323l141 889h267l-142 -903q-44 -275 -196.5 -406t-393.5 -131q-234 0 -362.5 114t-128.5 335z" />
<glyph unicode="V" horiz-adv-x="1306" d="M182 1376l281 51l174 -1071l506 1057h272l-725 -1419h-239z" />
<glyph unicode="W" horiz-adv-x="1998" d="M197 1376l290 51l88 -999l453 985h264l133 -985l402 985h264l-621 -1413h-243l-152 1012l-473 -1012h-237z" />
<glyph unicode="X" horiz-adv-x="1249" d="M-45 0l557 743l-289 633l277 51l194 -477l328 463h297l-504 -672l326 -704l-281 -51l-229 546l-381 -532h-295z" />
<glyph unicode="Y" horiz-adv-x="1265" d="M166 1378l278 49l234 -634l414 620h299l-623 -872l-86 -541h-268l86 537z" />
<glyph unicode="Z" horiz-adv-x="1181" d="M6 0l31 195l835 999h-612v219h977l-33 -194l-835 -1000h663v-219h-1026z" />
<glyph unicode="[" horiz-adv-x="835" d="M49 -213l256 1626h590l-25 -166h-356l-207 -1294h346v-166h-604z" />
<glyph unicode="\" horiz-adv-x="1071" d="M74 1382l207 48l833 -1645l-207 -47z" />
<glyph unicode="]" horiz-adv-x="835" d="M-31 -213l27 166h354l207 1294h-344v166h604l-256 -1626h-592z" />
<glyph unicode="^" d="M242 1120l245 295h218l153 -295h-149l-134 133l-182 -133h-151z" />
<glyph unicode="_" d="M-115 -213l23 141h903l-23 -141h-903z" />
<glyph unicode="`" d="M350 1374l297 56l103 -310h-152z" />
<glyph unicode="a" horiz-adv-x="1030" d="M59 319q0 158 48.5 289t130 215.5t186 131t219.5 46.5q157 0 334 -63l-109 -682v-256h-217l-10 158q-80 -83 -155.5 -130.5t-157.5 -47.5q-122 0 -195.5 89.5t-73.5 249.5zM301 365q0 -85 30 -131t85 -46q49 0 104.5 39t126.5 115l70 453q-53 16 -103 16 q-126 0 -219.5 -127t-93.5 -319z" />
<glyph unicode="b" horiz-adv-x="1034" d="M51 53l219 1387l244 39l-98 -609q68 65 134.5 102.5t145.5 37.5q126 0 203.5 -93t77.5 -260q0 -154 -46.5 -282.5t-125 -212t-180.5 -129t-215 -45.5q-170 0 -359 65zM311 201q54 -21 121 -21q125 0 215 118t90 320q0 88 -32.5 135.5t-96.5 47.5q-52 0 -104.5 -32.5 t-118.5 -100.5z" />
<glyph unicode="c" horiz-adv-x="874" d="M61 402q0 161 66 299q67 140 190 224.5t275 84.5q148 0 274 -78l-65 -205q-105 76 -201 76q-126 0 -211.5 -114t-85.5 -267q0 -120 56 -180t155 -60q100 0 223 74v-205q-125 -71 -268 -71q-191 0 -298 110q-110 113 -110 312z" />
<glyph unicode="d" horiz-adv-x="1042" d="M59 334q0 153 45.5 281t122.5 210.5t176 128t207 45.5q71 0 148 -18l71 459l244 39l-196 -1227v-252h-222l-8 145q-158 -165 -307 -165q-125 0 -203 93.5t-78 260.5zM297 371q0 -87 34 -135t97 -48q52 0 103 32.5t120 101.5l76 466q-59 23 -119 23q-126 0 -218.5 -119 t-92.5 -321z" />
<glyph unicode="e" horiz-adv-x="956" d="M59 391q0 174 66 316.5t180 222.5t252 80q160 0 249 -104t89 -283q0 -87 -18 -172h-588v-29l2 -8q0 -124 54 -188t157 -64q146 0 317 110v-188q-92 -53 -175 -78.5t-183 -25.5q-183 0 -292.5 108t-109.5 303zM313 604h361q1 22 1 43q0 197 -140 197q-74 0 -133 -66.5 t-89 -173.5z" />
<glyph unicode="f" horiz-adv-x="638" d="M37 -381l184 1174h-139l31 196h139l31 189q24 144 105.5 216t236.5 72q82 0 123 -8v-194q-58 8 -95 8q-61 0 -95 -30t-44 -99l-27 -154h177v-196h-207l-176 -1137z" />
<glyph unicode="g" horiz-adv-x="1038" d="M-16 -291l63 195q155 -84 309 -84q207 0 252 227l17 98q-66 -64 -133 -101.5t-148 -37.5q-128 0 -206.5 89t-78.5 247q0 150 46.5 276t125.5 208.5t181 128.5t215 46q166 0 358 -65l-135 -864q-37 -236 -160.5 -340.5t-327.5 -104.5t-378 82zM301 377q0 -166 129 -166 q54 0 106 32.5t117 98.5l72 446q-59 23 -121 23q-123 0 -213 -119.5t-90 -314.5z" />
<glyph unicode="h" horiz-adv-x="1038" d="M43 0l227 1440l244 39l-106 -662q100 98 177.5 145.5t170.5 47.5q98 0 153.5 -58.5t55.5 -160.5q0 -35 -13 -115l-106 -676h-240l103 637q6 69 6 80q0 37 -19.5 58.5t-56.5 21.5q-45 0 -103 -40t-159 -139l-96 -618h-238z" />
<glyph unicode="i" horiz-adv-x="493" d="M49 0l158 989h239l-159 -989h-238zM229 1296q0 62 42 102t104 40q64 0 105.5 -40t41.5 -102t-41.5 -101.5t-105.5 -39.5q-62 0 -104 39.5t-42 101.5z" />
<glyph unicode="j" horiz-adv-x="493" d="M-164 -156q34 -12 86 -12q103 0 121 131l164 1026h237l-168 -1059q-26 -162 -101.5 -232.5t-215.5 -70.5q-80 0 -123 13v204zM229 1296q0 62 42 102t104 40t104.5 -40t42.5 -102t-42.5 -101.5t-104.5 -39.5t-104 39.5t-42 101.5z" />
<glyph unicode="k" horiz-adv-x="962" d="M43 0l227 1438l244 41l-145 -893l356 403h283l-420 -459l289 -503l-246 -41l-277 503l-73 -489h-238z" />
<glyph unicode="l" horiz-adv-x="493" d="M49 0l227 1440l246 39l-235 -1479h-238z" />
<glyph unicode="m" horiz-adv-x="1585" d="M43 0l119 739v250h221l10 -188q106 104 188.5 156.5t172.5 52.5q94 0 145.5 -56t54.5 -145q91 95 176 148t177 53q96 0 149 -60t53 -162q0 -50 -10 -112l-108 -676h-238l102 637q9 56 9 80q0 80 -70 80q-46 0 -104.5 -40.5t-155.5 -138.5l-96 -618h-240l102 637 q0 4 3.5 35t3.5 45q0 37 -17.5 58.5t-50.5 21.5q-46 0 -104.5 -40.5t-155.5 -138.5l-96 -618h-240z" />
<glyph unicode="n" horiz-adv-x="1040" d="M43 0l119 739v250h219l12 -188q107 106 188 157.5t175 51.5q98 0 153.5 -58.5t55.5 -160.5q0 -47 -11 -115l-108 -676h-238l101 637q8 46 8 80q0 37 -19.5 58.5t-56.5 21.5q-45 0 -103 -40t-159 -139l-96 -618h-240z" />
<glyph unicode="o" horiz-adv-x="1019" d="M63 410q0 165 62 301.5t177.5 217.5t262.5 81q182 0 286.5 -116t104.5 -314q0 -123 -36.5 -233t-101 -191t-159.5 -128.5t-206 -47.5q-182 0 -286 116.5t-104 313.5zM299 416q0 -123 44 -184.5t124 -61.5q75 0 134.5 60.5t89.5 152t30 190.5q0 123 -44.5 185.5 t-123.5 62.5q-76 0 -135.5 -61t-89 -152.5t-29.5 -191.5z" />
<glyph unicode="p" horiz-adv-x="1036" d="M-16 -381l178 1120v250h219l10 -143q157 164 307 164q125 0 203 -93.5t78 -259.5q0 -154 -45.5 -282t-122.5 -211t-176 -128.5t-207 -45.5q-75 0 -147 20l-54 -352zM311 201q54 -21 119 -21q126 0 216.5 118.5t90.5 319.5q0 87 -32.5 135t-94.5 48q-53 0 -104.5 -32 t-118.5 -101z" />
<glyph unicode="q" horiz-adv-x="1040" d="M59 334q0 154 46.5 281.5t125.5 211t181 129t215 45.5q169 0 358 -65l-199 -1278l-245 -39l80 500q-68 -64 -135 -101.5t-146 -37.5q-125 0 -203 93.5t-78 260.5zM297 371q0 -87 34 -135t97 -48q52 0 103 32.5t120 101.5l76 466q-59 23 -123 23q-125 0 -216 -119 t-91 -321z" />
<glyph unicode="r" horiz-adv-x="716" d="M43 0l119 739v250h219l12 -219q70 106 158.5 173t185.5 67v-244q-111 -10 -207 -65t-161 -140l-86 -561h-240z" />
<glyph unicode="s" horiz-adv-x="827" d="M0 96l59 193q184 -123 334 -123q64 0 101.5 29t37.5 75q0 42 -30.5 68.5t-116.5 64.5q-148 68 -209 133t-61 173q0 135 93.5 218t256.5 83t326 -88l-60 -193q-153 94 -272 94q-62 0 -93.5 -26t-31.5 -64q0 -36 27.5 -61t105.5 -60q79 -36 127.5 -64.5t87 -65.5t54.5 -82 t16 -105q0 -137 -97.5 -226t-269.5 -89q-204 0 -385 116z" />
<glyph unicode="t" horiz-adv-x="696" d="M80 793l33 196h131l49 316l244 36l-56 -352h199v-196h-231l-72 -459q-4 -36 -4 -60q0 -84 90 -84q46 0 96 13v-199q-82 -20 -170 -20q-129 0 -194.5 54t-65.5 171q0 55 10 110l74 474h-133z" />
<glyph unicode="u" horiz-adv-x="1040" d="M74 201q0 42 12 112l107 676h239l-102 -635q-6 -75 -6 -82q0 -37 19 -58t56 -21q46 0 103.5 39.5t156.5 138.5l99 618h237l-116 -737v-252h-222l-12 188q-104 -104 -186 -156t-176 -52q-98 0 -153.5 59t-55.5 162z" />
<glyph unicode="v" horiz-adv-x="935" d="M106 969l244 35l94 -695l297 680h240l-483 -995h-219z" />
<glyph unicode="w" horiz-adv-x="1441" d="M113 971l241 33l62 -674l276 659h219l70 -659l264 659h232l-445 -989h-213l-78 672l-284 -672h-209z" />
<glyph unicode="x" horiz-adv-x="948" d="M-39 0l379 508l-207 463l236 33l131 -330l213 315h256l-359 -481l224 -490l-236 -32l-147 354l-234 -340h-256z" />
<glyph unicode="y" horiz-adv-x="954" d="M-25 -162q49 -12 107 -12q100 0 162 102l45 84l-180 957l245 35l103 -699l303 684h239l-520 -1055q-85 -175 -176 -241t-240 -66q-46 0 -88 11v200z" />
<glyph unicode="z" horiz-adv-x="911" d="M-16 0l30 184l559 613h-409v192h737l-31 -184l-559 -612h459v-193h-786z" />
<glyph unicode="{" horiz-adv-x="974" d="M94 520v162h90q123 0 180.5 61t57.5 199v162q0 149 87 229t259 80h264l-26 -164h-193q-158 0 -158 -168v-166q-1 -144 -67.5 -216.5t-196.5 -100.5v-4q96 -23 138 -68.5t42 -128.5q-1 -54 -39 -184.5t-38 -169.5q0 -92 122 -92h170v-164h-276q-123 0 -190 53t-66 156 q0 57 39 193t39 188q2 73 -41.5 108t-140.5 35h-56z" />
<glyph unicode="|" horiz-adv-x="583" d="M184 -381v1827l211 33v-1827z" />
<glyph unicode="}" horiz-adv-x="968" d="M-29 -213l25 164h194q155 0 158 168v166q0 144 66 216.5t196 100.5v4q-95 24 -137 69.5t-41 127.5q0 55 38 185.5t38 168.5q3 92 -123 92h-170v164h277q123 0 190.5 -53t67.5 -156q-1 -56 -40.5 -191t-39.5 -190q0 -73 42.5 -108t139.5 -35h55v-162h-88 q-123 0 -180.5 -61t-58.5 -199v-162q0 -149 -86.5 -229t-257.5 -80h-265z" />
<glyph unicode="~" horiz-adv-x="808" d="M84 471q35 137 86 198.5t125 61.5q36 0 64 -10.5t69 -34.5q55 -29 77.5 -38t43.5 -9q24 0 41 21t37 77l129 -28q-35 -137 -86 -198.5t-125 -61.5q-35 0 -63 10t-70 33q-54 30 -77 39.5t-46 9.5q-22 0 -39.5 -21.5t-38.5 -77.5z" />
<glyph unicode="&#xa1;" horiz-adv-x="579" d="M61 0l220 928l161 35l-80 -963h-301zM256 1116l49 297h266l-47 -297h-268z" />
<glyph unicode="&#xa2;" horiz-adv-x="925" d="M102 600q0 122 39 231t107.5 190t169.5 128t219 47h20l66 207l135 -33l-63 -196q76 -21 143 -72l-66 -195q-73 57 -145 76l-184 -600h10q130 0 254 76v-195q-138 -78 -297 -78h-21l-63 -206l-135 32l61 201q-114 41 -182 141.5t-68 245.5zM332 616q0 -148 92 -204 l180 587q-124 -7 -198 -117t-74 -266z" />
<glyph unicode="&#xa3;" horiz-adv-x="1103" d="M31 0l30 195l164 385h-133l33 204h186l125 293q74 175 172 254.5t264 79.5q130 0 234 -33l-55 -215q-85 29 -170 29q-76 0 -126.5 -44t-86.5 -130l-99 -234h301v-204h-389l-155 -369h635v-211h-930z" />
<glyph unicode="&#xa5;" horiz-adv-x="1241" d="M123 168v147h338l24 142h-329l22 147h291l-293 750l264 45l224 -631l405 616h281l-555 -780h280v-147h-342l-22 -142h329l-22 -147h-330l-26 -168h-250l26 168h-315z" />
<glyph unicode="&#xa7;" horiz-adv-x="1107" d="M102 631q0 104 91 225l176 -43q-54 -67 -54 -133q0 -39 30.5 -63.5t113.5 -45.5l131 -34q146 -38 214 -99.5t68 -167.5q0 -127 -98 -207.5t-268 -80.5q-185 0 -346 77l57 177q152 -82 307 -82q62 0 96.5 25.5t34.5 64.5q0 40 -37 63t-133 49l-94 25q-154 42 -221.5 96.5 t-67.5 153.5zM293 1114q0 127 99.5 207t269.5 80q182 0 344 -76l-56 -176q-157 80 -309 80q-62 0 -96.5 -25t-34.5 -63q0 -41 37.5 -64t134.5 -49l94 -27q152 -40 219.5 -94.5t67.5 -152.5q0 -110 -90 -228l-174 43q53 76 53 133q0 41 -30 64.5t-115 46.5l-132 35 q-147 38 -214.5 98.5t-67.5 167.5z" />
<glyph unicode="&#xa8;" d="M252 1126l37 236h225l-39 -236h-223zM623 1126l36 236h226l-37 -236h-225z" />
<glyph unicode="&#xa9;" horiz-adv-x="1636" d="M145 705q0 216 89.5 383.5t251 259.5t368.5 92q208 0 369 -91.5t249.5 -257.5t88.5 -382q0 -215 -89.5 -383t-251 -260.5t-368.5 -92.5q-156 0 -287.5 53.5t-224 149t-144 231.5t-51.5 298zM236 707q0 -155 47.5 -281t131 -208.5t196 -126.5t243.5 -44q132 0 244 44 t195 126.5t130 208t47 281.5q0 155 -47.5 281t-131 208t-195.5 126t-242 44q-132 0 -245 -44t-196 -126t-130 -207.5t-47 -281.5zM485 713q0 186 111.5 301.5t288.5 115.5q127 0 243 -63l-24 -170q-109 76 -213 76q-100 0 -158.5 -71t-58.5 -189t61 -188t164 -70t219 75 l25 -159q-123 -76 -258 -76q-182 0 -291 115t-109 303z" />
<glyph unicode="&#xaa;" horiz-adv-x="770" d="M96 455l19 135h549v-135h-568zM156 874q0 233 430 271l2 16q7 56 -17.5 80.5t-83.5 24.5q-89 0 -217 -54l2 129q125 54 260 54q264 0 226 -232l-49 -299v-135h-156l-8 84q-121 -98 -226 -98q-74 0 -118.5 43t-44.5 116zM328 899q0 -59 63 -59q61 0 156 71l22 142 q-241 -28 -241 -154z" />
<glyph unicode="&#xab;" horiz-adv-x="1081" d="M53 496l393 493h203l-338 -502l170 -462l-170 -39zM492 496l391 493h204l-339 -502l172 -462l-170 -39z" />
<glyph unicode="&#xad;" horiz-adv-x="700" d="M90 471l35 236h508l-35 -236h-508z" />
<glyph unicode="&#xae;" horiz-adv-x="1153" d="M186 963q0 211 130.5 344t334.5 133q206 0 335.5 -132t129.5 -345q0 -211 -130.5 -343.5t-334.5 -132.5q-206 0 -335.5 131.5t-129.5 344.5zM254 963q0 -195 112.5 -307.5t284.5 -112.5q173 0 285.5 112.5t112.5 307.5q0 196 -113 308.5t-285 112.5t-284.5 -112.5 t-112.5 -308.5zM475 717v526h180q90 0 142.5 -42t52.5 -118q0 -106 -100 -145l141 -207l-123 -20l-137 207h-41v-201h-115zM590 999h53q90 0 90 76q0 35 -22.5 54.5t-63.5 19.5h-57v-150z" />
<glyph unicode="&#xaf;" d="M262 1155l29 180h579l-26 -180h-582z" />
<glyph unicode="&#xb0;" horiz-adv-x="892" d="M182 1042q0 154 99.5 254.5t253.5 100.5q152 0 251 -100.5t99 -254.5q0 -152 -99 -250t-251 -98q-154 0 -253.5 98t-99.5 250zM342 1042q0 -88 54 -143t139 -55q82 0 136 55.5t54 142.5q0 88 -54 146.5t-136 58.5q-84 0 -138.5 -58.5t-54.5 -146.5z" />
<glyph unicode="&#xb1;" horiz-adv-x="1105" d="M41 156l31 190h909l-31 -190h-909zM197 745l28 189h293l49 307h201l-49 -307h295l-31 -189h-293l-49 -303h-201l49 303h-292z" />
<glyph unicode="&#xb2;" horiz-adv-x="737" d="M174 836l23 147l303 266q45 40 66.5 69.5t21.5 63.5q0 32 -22 51t-60 19q-83 0 -205 -72v160q120 70 246 70q106 0 166.5 -56t60.5 -137q0 -77 -37 -131.5t-135 -138.5l-180 -154h293v-157h-541z" />
<glyph unicode="&#xb3;" horiz-adv-x="737" d="M156 895l49 139q109 -67 205 -67q58 0 91.5 27t33.5 71q0 94 -154 94h-43v131h61q89 0 137 29.5t48 75.5q0 67 -88 67q-93 0 -205 -61v149q123 60 244 60q107 0 170 -47t63 -133q0 -81 -52.5 -131.5t-135.5 -73.5q137 -47 137 -168q0 -110 -85 -173t-214 -63 q-133 0 -262 74z" />
<glyph unicode="&#xb4;" d="M342 1120l195 310l286 -56l-313 -254h-168z" />
<glyph unicode="&#xb6;" horiz-adv-x="1083" d="M139 883q0 227 155.5 364t426.5 137h348l-221 -1384h-166l199 1245h-136l-51 -315l-137 -430q-196 11 -307 106t-111 277z" />
<glyph unicode="&#xb7;" horiz-adv-x="495" d="M104 434l48 309h268l-47 -309h-269z" />
<glyph unicode="&#xb8;" d="M70 -393l174 276l274 -57l-295 -219h-153z" />
<glyph unicode="&#xb9;" horiz-adv-x="737" d="M195 836l24 149h166l68 434l-174 -71v155l253 105h132l-101 -623h135v-149h-503z" />
<glyph unicode="&#xba;" horiz-adv-x="776" d="M92 455l21 135h567v-135h-588zM164 995q0 167 100 283.5t256 116.5q122 0 196.5 -75.5t74.5 -205.5q0 -165 -100.5 -281t-256.5 -116q-122 0 -196 74.5t-74 203.5zM334 1006q0 -73 30.5 -112.5t84.5 -39.5q53 0 94 38.5t60.5 95.5t19.5 118q0 71 -31.5 111t-85.5 40 q-78 0 -125 -77t-47 -174z" />
<glyph unicode="&#xbb;" horiz-adv-x="1081" d="M-6 0l338 504l-170 461l168 39l258 -510l-391 -494h-203zM430 0l338 504l-168 461l168 39l258 -510l-393 -494h-203z" />
<glyph unicode="&#xbc;" horiz-adv-x="1658" d="M164 631l24 149h166l68 434l-174 -71v155l254 105h131l-101 -623h136v-149h-504zM348 14l541 705l506 682l129 -37l-547 -705l-502 -682zM944 147l19 123l364 494h215l-78 -488h99l-23 -129h-96l-23 -155h-170l25 155h-332zM1106 272l2 -4l133 8h66l26 164l39 178h-8 l-102 -151l-72 -94z" />
<glyph unicode="&#xbd;" horiz-adv-x="1658" d="M164 631l24 149h166l68 434l-174 -71v155l254 105h131l-101 -623h136v-149h-504zM301 14l541 705l506 682l129 -37l-547 -705l-502 -682zM958 0l23 147l305 267q45 41 65.5 70t20.5 63q0 31 -21 50t-59 19q-88 0 -205 -71v160q118 69 246 69q106 0 166 -55.5t60 -136.5 q0 -78 -36.5 -133t-133.5 -138l-181 -153h293v-158h-543z" />
<glyph unicode="&#xbe;" horiz-adv-x="1658" d="M125 690l49 139q109 -67 205 -67q58 0 91.5 27t33.5 71q0 94 -154 94h-43v131h62q89 0 136.5 29.5t47.5 75.5q0 67 -88 67q-93 0 -205 -61v150q121 59 244 59q107 0 170 -47t63 -133q0 -81 -52.5 -131.5t-135.5 -73.5q137 -47 137 -168q0 -110 -85 -173t-214 -63 q-133 0 -262 74zM315 14l541 705l506 682l129 -37l-547 -705l-502 -682zM944 147l19 123l364 494h215l-78 -488h99l-23 -129h-96l-23 -155h-170l25 155h-332zM1106 272l2 -4l133 8h66l26 164l39 178h-8l-102 -151l-72 -94z" />
<glyph unicode="&#xbf;" horiz-adv-x="989" d="M43 307q0 178 115 295t364 197l35 141l158 31l-29 -332l-49 -18q-175 -66 -249.5 -124.5t-74.5 -142.5q0 -68 47.5 -106.5t137.5 -38.5q171 0 376 143v-239q-207 -140 -440 -140q-190 0 -290.5 91t-100.5 243zM539 1116l47 297h268l-47 -297h-268z" />
<glyph unicode="&#xc0;" horiz-adv-x="1333" d="M-35 0l721 1419h275l262 -1382l-269 -51l-61 372h-485l-172 -358h-271zM510 578h350l-90 544zM522 1802l297 56l103 -310h-152z" />
<glyph unicode="&#xc1;" horiz-adv-x="1333" d="M-35 0l721 1419h275l262 -1382l-269 -51l-61 372h-485l-172 -358h-271zM510 578h350l-90 544zM741 1548l195 310l287 -56l-314 -254h-168z" />
<glyph unicode="&#xc2;" horiz-adv-x="1333" d="M-35 0l721 1419h275l262 -1382l-269 -51l-61 372h-485l-172 -358h-271zM510 578h350l-90 544zM524 1538l246 295h217l154 -295h-150l-133 133l-182 -133h-152z" />
<glyph unicode="&#xc3;" horiz-adv-x="1333" d="M-35 0l721 1419h275l262 -1382l-269 -51l-61 372h-485l-172 -358h-271zM510 578h350l-90 544zM530 1573q35 136 86.5 198t124.5 62q35 0 63 -10t70 -33q57 -31 79 -40t44 -9t39.5 21t38.5 77l127 -29q-35 -136 -86.5 -197t-124.5 -61q-60 0 -133 43q-55 29 -77.5 38 t-43.5 9q-24 0 -41 -20.5t-37 -77.5z" />
<glyph unicode="&#xc4;" horiz-adv-x="1333" d="M-35 0l721 1419h275l262 -1382l-269 -51l-61 372h-485l-172 -358h-271zM510 578h350l-90 544zM543 1554l37 236h225l-39 -236h-223zM913 1554l37 236h226l-37 -236h-226z" />
<glyph unicode="&#xc5;" horiz-adv-x="1333" d="M-35 0l682 1341q-59 62 -59 150q0 96 66.5 157.5t172.5 61.5q100 0 167 -62t67 -155q0 -108 -84 -170l246 -1286l-269 -51l-61 372h-485l-172 -358h-271zM510 578h350l-90 544zM717 1489q0 -52 29.5 -83.5t74.5 -31.5q48 0 79.5 34.5t31.5 88.5q0 52 -30 83.5t-75 31.5 q-47 0 -78.5 -35t-31.5 -88z" />
<glyph unicode="&#xc6;" horiz-adv-x="1757" d="M-78 0l981 1413h912l-33 -227h-500l-53 -338h377v-227h-412l-64 -394h517l-37 -227h-781l56 358h-445l-245 -358h-273zM586 578h334l102 645z" />
<glyph unicode="&#xc7;" horiz-adv-x="1193" d="M106 578q0 178 55.5 337t152 274t233.5 182t293 67q214 0 377 -123l-74 -242q-146 133 -305 133q-102 0 -189.5 -50t-146 -133.5t-91 -192.5t-32.5 -226q0 -197 88 -299t242 -102q163 0 333 108v-237q-174 -99 -370 -99q-261 0 -413.5 158t-152.5 445zM276 -406l175 277 l274 -57l-295 -220h-154z" />
<glyph unicode="&#xc8;" horiz-adv-x="1001" d="M63 0l224 1413h772l-33 -227h-510l-53 -338h387v-227h-422l-63 -394h526l-37 -227h-791zM371 1782l297 55l102 -309h-152z" />
<glyph unicode="&#xc9;" horiz-adv-x="1001" d="M63 0l224 1413h772l-33 -227h-510l-53 -338h387v-227h-422l-63 -394h526l-37 -227h-791zM592 1528l194 309l287 -55l-313 -254h-168z" />
<glyph unicode="&#xca;" horiz-adv-x="1001" d="M63 0l224 1413h772l-33 -227h-510l-53 -338h387v-227h-422l-63 -394h526l-37 -227h-791zM377 1528l246 295h217l153 -295h-149l-133 133l-183 -133h-151z" />
<glyph unicode="&#xcb;" horiz-adv-x="1001" d="M63 0l224 1413h772l-33 -227h-510l-53 -338h387v-227h-422l-63 -394h526l-37 -227h-791zM393 1534l37 235h225l-39 -235h-223zM764 1534l37 235h225l-37 -235h-225z" />
<glyph unicode="&#xcc;" horiz-adv-x="569" d="M72 0l223 1413h266l-223 -1413h-266zM129 1782l297 55l102 -309h-151z" />
<glyph unicode="&#xcd;" horiz-adv-x="569" d="M72 0l223 1413h266l-223 -1413h-266zM346 1528l195 309l286 -55l-313 -254h-168z" />
<glyph unicode="&#xce;" horiz-adv-x="569" d="M72 0l223 1413h266l-223 -1413h-266zM133 1528l246 295h217l154 -295h-150l-133 133l-182 -133h-152z" />
<glyph unicode="&#xcf;" horiz-adv-x="569" d="M72 0l223 1413h266l-223 -1413h-266zM150 1534l36 235h226l-39 -235h-223zM520 1534l37 235h225l-37 -235h-225z" />
<glyph unicode="&#xd0;" horiz-adv-x="1396" d="M59 616v234h183l90 563h360q314 0 484 -150.5t170 -433.5q0 -367 -226 -596q-236 -233 -649 -233h-362l96 616h-146zM406 217h106q248 0 399 148q162 162 162 446q0 194 -100.5 290.5t-290.5 96.5h-119l-57 -352h280l-36 -228h-281z" />
<glyph unicode="&#xd1;" horiz-adv-x="1351" d="M63 0l224 1413h256l426 -907l141 907h244l-224 -1413h-194l-471 997l-158 -997h-244zM530 1540q35 136 86.5 198t124.5 62q35 0 63 -10t70 -33q57 -31 79 -40t44 -9t39.5 21t38.5 77l127 -28q-35 -136 -86.5 -197t-124.5 -61q-60 0 -133 43q-55 29 -77.5 38t-43.5 9 q-24 0 -41 -21t-37 -78z" />
<glyph unicode="&#xd2;" horiz-adv-x="1419" d="M111 592q0 198 65 372t182 293q186 183 449 183q264 0 410.5 -166.5t146.5 -452.5q0 -198 -65 -372.5t-183 -292.5q-183 -183 -446 -183q-264 0 -411.5 166.5t-147.5 452.5zM383 578q0 -190 75.5 -291t215.5 -101q130 0 233 103q82 82 133.5 228.5t51.5 318.5 q0 190 -75.5 290.5t-215.5 100.5q-131 0 -234 -103q-82 -82 -133 -228t-51 -318zM549 1802l297 56l102 -310h-151z" />
<glyph unicode="&#xd3;" horiz-adv-x="1419" d="M111 592q0 198 65 372t182 293q186 183 449 183q264 0 410.5 -166.5t146.5 -452.5q0 -198 -65 -372.5t-183 -292.5q-183 -183 -446 -183q-264 0 -411.5 166.5t-147.5 452.5zM383 578q0 -190 75.5 -291t215.5 -101q130 0 233 103q82 82 133.5 228.5t51.5 318.5 q0 190 -75.5 290.5t-215.5 100.5q-131 0 -234 -103q-82 -82 -133 -228t-51 -318zM770 1548l195 310l286 -56l-313 -254h-168z" />
<glyph unicode="&#xd4;" horiz-adv-x="1419" d="M111 592q0 198 65 372t182 293q186 183 449 183q264 0 410.5 -166.5t146.5 -452.5q0 -198 -65 -372.5t-183 -292.5q-183 -183 -446 -183q-264 0 -411.5 166.5t-147.5 452.5zM383 578q0 -190 75.5 -291t215.5 -101q130 0 233 103q82 82 133.5 228.5t51.5 318.5 q0 190 -75.5 290.5t-215.5 100.5q-131 0 -234 -103q-82 -82 -133 -228t-51 -318zM555 1548l246 295h217l153 -295h-149l-133 133l-182 -133h-152z" />
<glyph unicode="&#xd5;" horiz-adv-x="1419" d="M111 592q0 198 65 372t182 293q186 183 449 183q264 0 410.5 -166.5t146.5 -452.5q0 -198 -65 -372.5t-183 -292.5q-183 -183 -446 -183q-264 0 -411.5 166.5t-147.5 452.5zM383 578q0 -190 75.5 -291t215.5 -101q130 0 233 103q82 82 133.5 228.5t51.5 318.5 q0 190 -75.5 290.5t-215.5 100.5q-131 0 -234 -103q-82 -82 -133 -228t-51 -318zM559 1573q35 136 86.5 198t124.5 62q35 0 63 -10t70 -33q57 -31 79 -40t44 -9t39.5 21t38.5 77l127 -29q-35 -136 -86.5 -197t-124.5 -61q-60 0 -133 43q-55 29 -77.5 38t-43.5 9 q-24 0 -41 -20.5t-37 -77.5z" />
<glyph unicode="&#xd6;" horiz-adv-x="1419" d="M111 592q0 198 65 372t182 293q186 183 449 183q264 0 410.5 -166.5t146.5 -452.5q0 -198 -65 -372.5t-183 -292.5q-183 -183 -446 -183q-264 0 -411.5 166.5t-147.5 452.5zM383 578q0 -190 75.5 -291t215.5 -101q130 0 233 103q82 82 133.5 228.5t51.5 318.5 q0 190 -75.5 290.5t-215.5 100.5q-131 0 -234 -103q-82 -82 -133 -228t-51 -318zM571 1554l37 236h226l-39 -236h-224zM942 1554l37 236h225l-37 -236h-225z" />
<glyph unicode="&#xd7;" horiz-adv-x="1171" d="M115 387l364 311l-264 310l160 137l258 -314l360 314l125 -148l-364 -309l266 -309l-160 -137l-260 315l-360 -315z" />
<glyph unicode="&#xd8;" horiz-adv-x="1419" d="M-23 27l207 219q-73 143 -73 346q0 198 65 372t182 293q186 183 449 183q235 0 377 -133l119 125l196 -43l-209 -222q74 -145 74 -346q0 -198 -65 -372.5t-183 -292.5q-183 -183 -446 -183q-237 0 -379 133l-119 -124zM377 578q0 -84 12 -148l635 696q-74 109 -223 109 q-131 0 -238 -107q-84 -84 -135 -230t-51 -320zM451 285q73 -105 223 -105q132 0 237 105q84 84 135.5 230.5t51.5 320.5q0 80 -15 145z" />
<glyph unicode="&#xd9;" horiz-adv-x="1327" d="M125 422q0 76 14 172l129 819h269l-131 -835q-13 -76 -13 -138q0 -114 61.5 -176.5t180.5 -62.5q252 0 305 323l141 889h267l-142 -903q-44 -275 -196.5 -406t-393.5 -131q-234 0 -362.5 114t-128.5 335zM508 1769l297 56l102 -309h-151z" />
<glyph unicode="&#xda;" horiz-adv-x="1327" d="M125 422q0 76 14 172l129 819h269l-131 -835q-13 -76 -13 -138q0 -114 61.5 -176.5t180.5 -62.5q252 0 305 323l141 889h267l-142 -903q-44 -275 -196.5 -406t-393.5 -131q-234 0 -362.5 114t-128.5 335zM727 1516l195 309l286 -56l-313 -253h-168z" />
<glyph unicode="&#xdb;" horiz-adv-x="1327" d="M125 422q0 76 14 172l129 819h269l-131 -835q-13 -76 -13 -138q0 -114 61.5 -176.5t180.5 -62.5q252 0 305 323l141 889h267l-142 -903q-44 -275 -196.5 -406t-393.5 -131q-234 0 -362.5 114t-128.5 335zM514 1516l246 294h217l153 -294h-149l-133 133l-182 -133h-152z " />
<glyph unicode="&#xdc;" horiz-adv-x="1327" d="M125 422q0 76 14 172l129 819h269l-131 -835q-13 -76 -13 -138q0 -114 61.5 -176.5t180.5 -62.5q252 0 305 323l141 889h267l-142 -903q-44 -275 -196.5 -406t-393.5 -131q-234 0 -362.5 114t-128.5 335zM528 1522l37 235h226l-39 -235h-224zM899 1522l37 235h225 l-37 -235h-225z" />
<glyph unicode="&#xdd;" horiz-adv-x="1265" d="M166 1378l278 49l234 -634l414 620h299l-623 -872l-86 -541h-268l86 537zM686 1516l195 309l286 -56l-313 -253h-168z" />
<glyph unicode="&#xde;" horiz-adv-x="1112" d="M63 0l224 1413h264l-39 -244h76q244 0 370.5 -104t126.5 -299q0 -223 -159.5 -354t-440.5 -131h-114l-43 -281h-265zM403 489h97q157 0 240 70.5t83 194.5q0 97 -63 150.5t-187 53.5h-96z" />
<glyph unicode="&#xdf;" horiz-adv-x="1200" d="M37 -381l184 1174h-137l33 196h135l10 70q32 196 144 301.5t288 105.5q165 0 252.5 -83.5t87.5 -221.5q0 -126 -60.5 -232t-182.5 -237q166 -54 250.5 -137.5t84.5 -216.5q0 -169 -104.5 -262.5t-273.5 -93.5q-146 0 -293 77l57 183q65 -36 116 -53t111 -17q74 0 115 39 t41 111q0 78 -72 135t-233 100v170q108 133 156.5 225.5t48.5 186.5q0 64 -31.5 100.5t-87.5 36.5q-144 0 -180 -232l-215 -1388z" />
<glyph unicode="&#xe0;" horiz-adv-x="1030" d="M59 319q0 158 48.5 289t130 215.5t186 131t219.5 46.5q157 0 334 -63l-109 -682v-256h-217l-10 158q-80 -83 -155.5 -130.5t-157.5 -47.5q-122 0 -195.5 89.5t-73.5 249.5zM301 365q0 -85 30 -131t85 -46q49 0 104.5 39t126.5 115l70 453q-53 16 -103 16 q-126 0 -219.5 -127t-93.5 -319zM326 1374l297 56l102 -310h-152z" />
<glyph unicode="&#xe1;" horiz-adv-x="1030" d="M59 319q0 158 48.5 289t130 215.5t186 131t219.5 46.5q157 0 334 -63l-109 -682v-256h-217l-10 158q-80 -83 -155.5 -130.5t-157.5 -47.5q-122 0 -195.5 89.5t-73.5 249.5zM301 365q0 -85 30 -131t85 -46q49 0 104.5 39t126.5 115l70 453q-53 16 -103 16 q-126 0 -219.5 -127t-93.5 -319zM543 1120l194 310l287 -56l-313 -254h-168z" />
<glyph unicode="&#xe2;" horiz-adv-x="1030" d="M59 319q0 158 48.5 289t130 215.5t186 131t219.5 46.5q157 0 334 -63l-109 -682v-256h-217l-10 158q-80 -83 -155.5 -130.5t-157.5 -47.5q-122 0 -195.5 89.5t-73.5 249.5zM301 365q0 -85 30 -131t85 -46q49 0 104.5 39t126.5 115l70 453q-53 16 -103 16 q-126 0 -219.5 -127t-93.5 -319zM330 1120l245 295h218l153 -295h-149l-133 133l-183 -133h-151z" />
<glyph unicode="&#xe3;" horiz-adv-x="1030" d="M59 319q0 158 48.5 289t130 215.5t186 131t219.5 46.5q157 0 334 -63l-109 -682v-256h-217l-10 158q-80 -83 -155.5 -130.5t-157.5 -47.5q-122 0 -195.5 89.5t-73.5 249.5zM301 365q0 -85 30 -131t85 -46q49 0 104.5 39t126.5 115l70 453q-53 16 -103 16 q-126 0 -219.5 -127t-93.5 -319zM334 1145q35 136 86.5 198t124.5 62q35 0 63 -10t70 -33q57 -31 79 -40t44 -9t39.5 21t38.5 77l127 -29q-35 -136 -86.5 -197t-124.5 -61q-60 0 -133 43q-55 29 -77.5 38t-43.5 9q-24 0 -41 -20.5t-37 -77.5z" />
<glyph unicode="&#xe4;" horiz-adv-x="1030" d="M59 319q0 158 48.5 289t130 215.5t186 131t219.5 46.5q157 0 334 -63l-109 -682v-256h-217l-10 158q-80 -83 -155.5 -130.5t-157.5 -47.5q-122 0 -195.5 89.5t-73.5 249.5zM301 365q0 -85 30 -131t85 -46q49 0 104.5 39t126.5 115l70 453q-53 16 -103 16 q-126 0 -219.5 -127t-93.5 -319zM346 1126l37 236h225l-39 -236h-223zM717 1126l37 236h225l-37 -236h-225z" />
<glyph unicode="&#xe5;" horiz-adv-x="1030" d="M59 319q0 158 48.5 289t130 215.5t186 131t219.5 46.5q157 0 334 -63l-109 -682v-256h-217l-10 158q-80 -83 -155.5 -130.5t-157.5 -47.5q-122 0 -195.5 89.5t-73.5 249.5zM301 365q0 -85 30 -131t85 -46q49 0 104.5 39t126.5 115l70 453q-53 16 -103 16 q-126 0 -219.5 -127t-93.5 -319zM438 1329q0 94 67.5 156.5t172.5 62.5q102 0 168.5 -61t66.5 -154q0 -96 -67 -157.5t-172 -61.5q-102 0 -169 60t-67 155zM567 1327q0 -52 30.5 -83.5t76.5 -31.5q47 0 78.5 35t31.5 88q0 52 -30 83.5t-76 31.5q-47 0 -79 -35.5t-32 -87.5z " />
<glyph unicode="&#xe6;" horiz-adv-x="1515" d="M35 229q0 351 614 394l6 34q15 87 -19 124.5t-122 37.5q-122 0 -309 -80v193q192 78 358 78q212 0 271 -121q118 121 284 121q158 0 248 -104t90 -275q0 -102 -20 -180h-584q0 -5 -1 -22t-1 -26q3 -119 57 -180t154 -61q146 0 317 110v-188q-90 -53 -173.5 -78.5 t-184.5 -25.5q-232 0 -334 163q-211 -163 -393 -163q-117 0 -187.5 64t-70.5 185zM272 262q0 -48 28 -74t81 -26q98 0 248 119q-11 64 -11 114q0 36 7 90q-353 -41 -353 -223zM872 604h361q16 240 -139 240q-70 0 -130 -64.5t-92 -175.5z" />
<glyph unicode="&#xe7;" horiz-adv-x="874" d="M61 397q-1 164 66 304t190 224.5t275 84.5q148 0 274 -78l-65 -205q-105 76 -201 76q-126 0 -211.5 -114t-85.5 -267q0 -120 56 -180t155 -60q100 0 223 74v-205q-125 -71 -268 -71q-191 0 -298 110t-110 307zM86 -393l174 276l275 -57l-295 -219h-154z" />
<glyph unicode="&#xe8;" horiz-adv-x="956" d="M59 391q0 174 66 316.5t180 222.5t252 80q160 0 249 -104t89 -283q0 -87 -18 -172h-588v-29l2 -8q0 -124 54 -188t157 -64q146 0 317 110v-188q-92 -53 -175 -78.5t-183 -25.5q-183 0 -292.5 108t-109.5 303zM266 1374l297 56l103 -310h-152zM313 604h361 q16 240 -139 240q-74 0 -133 -66.5t-89 -173.5z" />
<glyph unicode="&#xe9;" horiz-adv-x="956" d="M59 391q0 174 66 316.5t180 222.5t252 80q160 0 249 -104t89 -283q0 -87 -18 -172h-588v-29l2 -8q0 -124 54 -188t157 -64q146 0 317 110v-188q-92 -53 -175 -78.5t-183 -25.5q-183 0 -292.5 108t-109.5 303zM313 604h361q16 240 -139 240q-74 0 -133 -66.5t-89 -173.5z M485 1120l195 310l287 -56l-314 -254h-168z" />
<glyph unicode="&#xea;" horiz-adv-x="956" d="M59 391q0 174 66 316.5t180 222.5t252 80q160 0 249 -104t89 -283q0 -87 -18 -172h-588v-29l2 -8q0 -124 54 -188t157 -64q146 0 317 110v-188q-92 -53 -175 -78.5t-183 -25.5q-183 0 -292.5 108t-109.5 303zM270 1120l246 295h217l154 -295h-150l-133 133l-182 -133 h-152zM313 604h361q16 240 -139 240q-74 0 -133 -66.5t-89 -173.5z" />
<glyph unicode="&#xeb;" horiz-adv-x="956" d="M59 391q0 174 66 316.5t180 222.5t252 80q160 0 249 -104t89 -283q0 -87 -18 -172h-588v-29l2 -8q0 -124 54 -188t157 -64q146 0 317 110v-188q-92 -53 -175 -78.5t-183 -25.5q-183 0 -292.5 108t-109.5 303zM287 1126l37 236h225l-39 -236h-223zM313 604h361 q16 240 -139 240q-74 0 -133 -66.5t-89 -173.5zM657 1126l37 236h226l-37 -236h-226z" />
<glyph unicode="&#xec;" horiz-adv-x="493" d="M29 1374l297 56l102 -310h-152zM49 0l158 989h239l-159 -989h-238z" />
<glyph unicode="&#xed;" horiz-adv-x="493" d="M49 0l158 989h239l-159 -989h-238zM248 1120l194 310l287 -56l-313 -254h-168z" />
<glyph unicode="&#xee;" horiz-adv-x="493" d="M35 1120l246 295h217l153 -295h-149l-133 133l-183 -133h-151zM49 0l158 989h239l-159 -989h-238z" />
<glyph unicode="&#xef;" horiz-adv-x="493" d="M49 0l158 989h239l-159 -989h-238zM49 1126l37 236h225l-39 -236h-223zM420 1126l37 236h225l-37 -236h-225z" />
<glyph unicode="&#xf0;" horiz-adv-x="1048" d="M63 391q0 146 56 269.5t156 196.5t221 73q84 0 148.5 -32t129.5 -99q-3 201 -112 319l-72 -84h-164l135 166q-59 38 -178 82l47 197q150 -48 264 -119l94 119l152 -33l-141 -168q198 -185 198 -506q0 -199 -65.5 -375t-173.5 -284q-133 -133 -312 -133q-80 0 -148.5 25 t-121.5 74.5t-83 129.5t-30 182zM297 391q0 -111 44.5 -169t123.5 -58q105 0 185 125.5t106 326.5q-58 64 -113.5 93.5t-122.5 29.5q-99 0 -161 -101t-62 -247z" />
<glyph unicode="&#xf1;" horiz-adv-x="1040" d="M43 0l119 739v250h219l12 -188q107 106 188 157.5t175 51.5q98 0 153.5 -58.5t55.5 -160.5q0 -47 -11 -115l-108 -676h-238l101 637q8 46 8 80q0 37 -19.5 58.5t-56.5 21.5q-45 0 -103 -40t-159 -139l-96 -618h-240zM303 1145q35 136 86.5 198t124.5 62q35 0 63 -10 t70 -33q57 -31 79 -40t44 -9t39.5 21t38.5 77l127 -29q-35 -136 -86.5 -197t-124.5 -61q-60 0 -133 43q-55 29 -77.5 38t-43.5 9q-24 0 -41 -20.5t-37 -77.5z" />
<glyph unicode="&#xf2;" horiz-adv-x="1019" d="M63 410q0 165 62 301.5t177.5 217.5t262.5 81q182 0 286.5 -116t104.5 -314q0 -123 -36.5 -233t-101 -191t-159.5 -128.5t-206 -47.5q-182 0 -286 116.5t-104 313.5zM289 1374l297 56l102 -310h-151zM299 416q0 -123 44 -184.5t124 -61.5q75 0 134.5 60.5t89.5 152 t30 190.5q0 123 -44.5 185.5t-123.5 62.5q-76 0 -135.5 -61t-89 -152.5t-29.5 -191.5z" />
<glyph unicode="&#xf3;" horiz-adv-x="1019" d="M63 410q0 165 62 301.5t177.5 217.5t262.5 81q182 0 286.5 -116t104.5 -314q0 -123 -36.5 -233t-101 -191t-159.5 -128.5t-206 -47.5q-182 0 -286 116.5t-104 313.5zM299 416q0 -123 44 -184.5t124 -61.5q75 0 134.5 60.5t89.5 152t30 190.5q0 123 -44.5 185.5 t-123.5 62.5q-76 0 -135.5 -61t-89 -152.5t-29.5 -191.5zM508 1120l194 310l287 -56l-313 -254h-168z" />
<glyph unicode="&#xf4;" horiz-adv-x="1019" d="M63 410q0 165 62 301.5t177.5 217.5t262.5 81q182 0 286.5 -116t104.5 -314q0 -123 -36.5 -233t-101 -191t-159.5 -128.5t-206 -47.5q-182 0 -286 116.5t-104 313.5zM293 1120l246 295h217l153 -295h-149l-133 133l-183 -133h-151zM299 416q0 -123 44 -184.5t124 -61.5 q75 0 134.5 60.5t89.5 152t30 190.5q0 123 -44.5 185.5t-123.5 62.5q-76 0 -135.5 -61t-89 -152.5t-29.5 -191.5z" />
<glyph unicode="&#xf5;" horiz-adv-x="1019" d="M63 410q0 165 62 301.5t177.5 217.5t262.5 81q182 0 286.5 -116t104.5 -314q0 -123 -36.5 -233t-101 -191t-159.5 -128.5t-206 -47.5q-182 0 -286 116.5t-104 313.5zM297 1145q35 136 86.5 198t124.5 62q35 0 63 -10t70 -33q57 -31 79 -40t44 -9t39.5 21t38.5 77l127 -29 q-35 -136 -86.5 -197t-124.5 -61q-60 0 -133 43q-55 29 -77.5 38t-43.5 9q-24 0 -41 -20.5t-37 -77.5zM299 416q0 -123 44 -184.5t124 -61.5q75 0 134.5 60.5t89.5 152t30 190.5q0 123 -44.5 185.5t-123.5 62.5q-76 0 -135.5 -61t-89 -152.5t-29.5 -191.5z" />
<glyph unicode="&#xf6;" horiz-adv-x="1019" d="M63 410q0 165 62 301.5t177.5 217.5t262.5 81q182 0 286.5 -116t104.5 -314q0 -123 -36.5 -233t-101 -191t-159.5 -128.5t-206 -47.5q-182 0 -286 116.5t-104 313.5zM299 416q0 -123 44 -184.5t124 -61.5q75 0 134.5 60.5t89.5 152t30 190.5q0 123 -44.5 185.5 t-123.5 62.5q-76 0 -135.5 -61t-89 -152.5t-29.5 -191.5zM309 1126l37 236h225l-39 -236h-223zM680 1126l37 236h225l-37 -236h-225z" />
<glyph unicode="&#xf7;" horiz-adv-x="1171" d="M127 596l31 195h950l-31 -195h-950zM418 180l39 244h237l-39 -244h-237zM541 961l39 243h237l-39 -243h-237z" />
<glyph unicode="&#xf8;" horiz-adv-x="1019" d="M-27 20l144 152q-54 102 -54 238q0 165 62 301.5t177.5 217.5t262.5 81q145 0 250 -84l74 80l155 -35l-143 -154q55 -104 55 -237q0 -123 -36.5 -233t-101 -191t-159.5 -128.5t-206 -47.5q-151 0 -250 83l-74 -79zM289 412q0 -52 4 -72l387 434q-45 57 -127 57 q-80 0 -142 -64t-92 -158t-30 -197zM338 217q45 -59 129 -59q80 0 142 64.5t92 158.5t30 197q0 38 -6 73z" />
<glyph unicode="&#xf9;" horiz-adv-x="1040" d="M74 201q0 42 12 112l107 676h239l-102 -635q-6 -75 -6 -82q0 -37 19 -58t56 -21q46 0 103.5 39.5t156.5 138.5l99 618h237l-116 -737v-252h-222l-12 188q-104 -104 -186 -156t-176 -52q-98 0 -153.5 59t-55.5 162zM297 1374l297 56l102 -310h-151z" />
<glyph unicode="&#xfa;" horiz-adv-x="1040" d="M74 201q0 42 12 112l107 676h239l-102 -635q-6 -75 -6 -82q0 -37 19 -58t56 -21q46 0 103.5 39.5t156.5 138.5l99 618h237l-116 -737v-252h-222l-12 188q-104 -104 -186 -156t-176 -52q-98 0 -153.5 59t-55.5 162zM514 1120l195 310l286 -56l-313 -254h-168z" />
<glyph unicode="&#xfb;" horiz-adv-x="1040" d="M74 201q0 42 12 112l107 676h239l-102 -635q-6 -75 -6 -82q0 -37 19 -58t56 -21q46 0 103.5 39.5t156.5 138.5l99 618h237l-116 -737v-252h-222l-12 188q-104 -104 -186 -156t-176 -52q-98 0 -153.5 59t-55.5 162zM301 1120l246 295h217l154 -295h-150l-133 133 l-182 -133h-152z" />
<glyph unicode="&#xfc;" horiz-adv-x="1040" d="M74 201q0 42 12 112l107 676h239l-102 -635q-6 -75 -6 -82q0 -37 19 -58t56 -21q46 0 103.5 39.5t156.5 138.5l99 618h237l-116 -737v-252h-222l-12 188q-104 -104 -186 -156t-176 -52q-98 0 -153.5 59t-55.5 162zM315 1126l37 236h226l-39 -236h-224zM686 1126l37 236 h225l-37 -236h-225z" />
<glyph unicode="&#xfd;" horiz-adv-x="954" d="M-25 -162q49 -12 107 -12q100 0 162 102l45 84l-180 957l245 35l103 -699l303 684h239l-520 -1055q-85 -175 -176 -241t-240 -66q-46 0 -88 11v200zM483 1120l195 310l287 -56l-314 -254h-168z" />
<glyph unicode="&#xfe;" horiz-adv-x="1042" d="M-16 -381l286 1821l244 39l-96 -609q70 66 134.5 103t147.5 37q129 0 207 -93t78 -260q0 -156 -46 -284t-124 -210.5t-178 -127.5t-209 -45q-70 0 -147 18l-54 -352zM311 201q54 -21 119 -21q126 0 219.5 116t93.5 318q0 91 -34 139t-99 48q-52 0 -103 -33t-122 -104z " />
<glyph unicode="&#xff;" horiz-adv-x="954" d="M-25 -162q49 -12 107 -12q100 0 162 102l45 84l-180 957l245 35l103 -699l303 684h239l-520 -1055q-85 -175 -176 -241t-240 -66q-46 0 -88 11v200zM285 1126l37 236h225l-39 -236h-223zM655 1126l37 236h226l-37 -236h-226z" />
<glyph unicode="&#x152;" horiz-adv-x="1712" d="M111 584q0 371 225 596q233 233 647 233h786l-34 -227h-498l-53 -338h377v-227h-412l-64 -394h514l-34 -227h-803q-313 0 -482 150.5t-169 433.5zM383 604q0 -195 100 -291t289 -96h47l156 981h-33q-248 0 -397 -149q-78 -78 -120 -192t-42 -253z" />
<glyph unicode="&#x153;" horiz-adv-x="1603" d="M63 408q0 123 36.5 233t100.5 191.5t157.5 129.5t201.5 48q219 0 311 -179q64 86 150 132.5t186 46.5q160 0 249 -104t89 -283q0 -94 -20 -172h-584q0 -7 -1 -23t-1 -25q3 -119 57 -180t154 -61q146 0 317 110v-188q-92 -53 -174 -78.5t-188 -25.5q-107 0 -187 43.5 t-124 126.5q-134 -170 -344 -170q-178 0 -282 116t-104 312zM299 412q0 -121 44.5 -181.5t123.5 -60.5q74 0 133.5 60t90 153t30.5 197q0 121 -45.5 181t-124.5 60q-74 0 -133 -60.5t-89 -153t-30 -195.5zM961 604h360q16 240 -139 240q-70 0 -129.5 -64.5t-91.5 -175.5z " />
<glyph unicode="&#x178;" horiz-adv-x="1265" d="M166 1378l278 49l234 -634l414 620h299l-623 -872l-86 -541h-268l86 537zM489 1522l37 235h226l-39 -235h-224zM860 1522l37 235h225l-37 -235h-225z" />
<glyph unicode="&#x2c6;" d="M242 1120l245 295h218l153 -295h-149l-134 133l-182 -133h-151z" />
<glyph unicode="&#x2dc;" d="M233 1145q35 136 86.5 198t124.5 62q56 0 134 -43q58 -32 79 -40.5t43 -8.5t39.5 21t38.5 77l127 -29q-35 -136 -86.5 -197t-124.5 -61q-60 0 -133 43q-55 29 -77.5 38t-43.5 9q-24 0 -41 -20.5t-37 -77.5z" />
<glyph unicode="&#x2000;" horiz-adv-x="929" />
<glyph unicode="&#x2001;" horiz-adv-x="1858" />
<glyph unicode="&#x2002;" horiz-adv-x="929" />
<glyph unicode="&#x2003;" horiz-adv-x="1858" />
<glyph unicode="&#x2004;" horiz-adv-x="619" />
<glyph unicode="&#x2005;" horiz-adv-x="464" />
<glyph unicode="&#x2006;" horiz-adv-x="309" />
<glyph unicode="&#x2007;" horiz-adv-x="309" />
<glyph unicode="&#x2008;" horiz-adv-x="232" />
<glyph unicode="&#x2009;" horiz-adv-x="371" />
<glyph unicode="&#x200a;" horiz-adv-x="103" />
<glyph unicode="&#x2010;" horiz-adv-x="700" d="M90 471l35 236h508l-35 -236h-508z" />
<glyph unicode="&#x2011;" horiz-adv-x="700" d="M90 471l35 236h508l-35 -236h-508z" />
<glyph unicode="&#x2012;" horiz-adv-x="700" d="M90 471l35 236h508l-35 -236h-508z" />
<glyph unicode="&#x2013;" d="M92 473l35 232h707l-35 -232h-707z" />
<glyph unicode="&#x2014;" horiz-adv-x="1794" d="M92 475l35 227h1604l-37 -227h-1602z" />
<glyph unicode="&#x2018;" horiz-adv-x="489" d="M127 868l274 562l142 -33l-135 -529h-281z" />
<glyph unicode="&#x2019;" horiz-adv-x="489" d="M145 887l136 526h280l-274 -561z" />
<glyph unicode="&#x201a;" horiz-adv-x="495" d="M-35 -229l135 528h281l-277 -561z" />
<glyph unicode="&#x201c;" horiz-adv-x="903" d="M127 868l274 562l138 -33l-133 -529h-279zM545 868l274 562l137 -33l-135 -529h-276z" />
<glyph unicode="&#x201d;" horiz-adv-x="903" d="M145 887l136 526h276l-274 -561zM563 887l135 526h277l-275 -561z" />
<glyph unicode="&#x201e;" horiz-adv-x="909" d="M-35 -229l135 528h277l-275 -561zM383 -229l133 528h279l-275 -561z" />
<glyph unicode="&#x2022;" horiz-adv-x="923" d="M186 707l45 286l267 41l264 -41l45 -286l-45 -287l-264 -43l-267 43z" />
<glyph unicode="&#x2026;" horiz-adv-x="1546" d="M47 0l49 305h260l-47 -305h-262zM563 0l49 305h262l-49 -305h-262zM1081 0l47 305h263l-48 -305h-262z" />
<glyph unicode="&#x202f;" horiz-adv-x="371" />
<glyph unicode="&#x2039;" horiz-adv-x="645" d="M53 496l393 493h203l-338 -502l168 -462l-170 -39z" />
<glyph unicode="&#x203a;" horiz-adv-x="645" d="M-6 0l338 504l-170 461l168 39l258 -510l-391 -494h-203z" />
<glyph unicode="&#x205f;" horiz-adv-x="464" />
<glyph unicode="&#x20ac;" horiz-adv-x="1155" d="M57 461v147h176q3 92 21 180h-160l25 150h174q73 211 223 342t356 131q198 0 338 -113l-67 -211q-71 59 -136 86t-141 27q-102 0 -184 -69.5t-133 -192.5h395v-150h-440q-19 -108 -19 -180h420l-24 -147h-387q22 -138 93.5 -208.5t188.5 -70.5q130 0 264 88v-213 q-63 -38 -144 -60t-157 -22q-221 0 -347.5 126.5t-151.5 359.5h-183z" />
<glyph unicode="&#x2122;" horiz-adv-x="1650" d="M170 1282v131h580l20 -131h-225v-575h-158v575h-217zM827 707l56 706h194l174 -495l172 495h189l55 -706h-158l-34 473l-166 -475h-138l-165 475l-35 -473h-144z" />
<glyph unicode="&#x25fc;" horiz-adv-x="1003" d="M0 0v1004h1004v-1004h-1004z" />
</font>
</defs>
</svg>
