<?xml version="1.0" standalone="no"?>
<!DOCTYPE svg PUBLIC "-//W3C//DTD SVG 1.1//EN" "http://www.w3.org/Graphics/SVG/1.1/DTD/svg11.dtd" >
<svg xmlns="http://www.w3.org/2000/svg" xmlns:xlink="http://www.w3.org/1999/xlink" version="1.1">
<metadata></metadata>
<defs>
<font id="whitneyblack_italic" horiz-adv-x="1087" >
<font-face units-per-em="2048" ascent="1638" descent="-410" />
<missing-glyph horiz-adv-x="397" />
<glyph unicode="&#xfb01;" horiz-adv-x="1263" d="M10 -381l174 1104h-141l45 291h141l19 108q13 78 38 137t69 108t115 75t167 26q110 0 188 -16v-266q-60 14 -104 14q-54 0 -85.5 -28t-43.5 -93l-12 -65h163v-291h-206l-164 -1049zM725 0l166 1014h354l-166 -1014h-354zM911 1307q0 87 58 138.5t145 51.5 q88 0 145.5 -51.5t57.5 -138.5q0 -86 -57.5 -137.5t-145.5 -51.5q-87 0 -145 51.5t-58 137.5z" />
<glyph unicode="&#xfb02;" horiz-adv-x="1263" d="M10 -381l174 1104h-141l45 291h141l19 108q13 78 38 137t69 108t115 75t167 26q110 0 188 -16v-266q-60 14 -104 14q-54 0 -85.5 -28t-43.5 -93l-12 -65h163v-291h-206l-164 -1049zM729 0l227 1423l363 56l-236 -1479h-354z" />
<glyph unicode="&#xfb03;" horiz-adv-x="1986" d="M10 -381l174 1104h-141l45 291h141l19 108q13 78 38 137t69 108t115 75t167 26q110 0 188 -16v-266q-60 14 -104 14q-54 0 -85.5 -28t-43.5 -93l-12 -65h163v-291h-206l-164 -1049zM733 -381l174 1104h-141l45 291h141l19 108q13 78 38 137t69 108t115 75t167 26 q110 0 188 -16v-266q-60 14 -104 14q-54 0 -85.5 -28t-43.5 -93l-12 -65h163v-291h-206l-164 -1049zM1448 0l166 1014h354l-166 -1014h-354zM1634 1307q0 87 58 138.5t145 51.5q88 0 145.5 -51.5t57.5 -138.5q0 -86 -57.5 -137.5t-145.5 -51.5q-87 0 -145 51.5t-58 137.5z " />
<glyph unicode="&#xfb04;" horiz-adv-x="1986" d="M10 -381l174 1104h-141l45 291h141l19 108q13 78 38 137t69 108t115 75t167 26q110 0 188 -16v-266q-60 14 -104 14q-54 0 -85.5 -28t-43.5 -93l-12 -65h163v-291h-206l-164 -1049zM733 -381l174 1104h-141l45 291h141l19 108q13 78 38 137t69 108t115 75t167 26 q110 0 188 -16v-266q-60 14 -104 14q-54 0 -85.5 -28t-43.5 -93l-12 -65h163v-291h-206l-164 -1049zM1452 0l227 1423l363 56l-236 -1479h-354z" />
<glyph horiz-adv-x="0" />
<glyph horiz-adv-x="682" />
<glyph unicode=" "  horiz-adv-x="397" />
<glyph unicode="&#x09;" horiz-adv-x="397" />
<glyph unicode="&#xa0;" horiz-adv-x="397" />
<glyph unicode="!" horiz-adv-x="618" d="M35 0l63 393h385l-63 -393h-385zM205 506l24 907h449l-250 -856z" />
<glyph unicode="&#x22;" horiz-adv-x="1044" d="M207 797l4 587h397l-196 -641zM709 797l4 587h397l-195 -641z" />
<glyph unicode="#" horiz-adv-x="1253" d="M86 262v303h231l41 254h-192l-47 303h287l43 267h196l-43 -267h244l45 283l188 -49l-37 -234h185v-303h-234l-39 -254h193l47 -303h-289l-41 -266h-196l43 266h-246l-43 -282l-189 49l37 233h-184zM508 555h254l43 274h-254z" />
<glyph unicode="$" horiz-adv-x="1073" d="M-23 156l99 276q167 -114 307 -147l86 284q-174 77 -245.5 159t-71.5 214q0 211 132 332t353 121q10 0 30.5 -1t30.5 -1l47 153l148 -39l-43 -139q132 -34 258 -119l-98 -280q-125 91 -258 131l-72 -238q181 -76 261.5 -164.5t80.5 -228.5q0 -119 -37 -212t-103.5 -150.5 t-154 -87t-192.5 -29.5q-35 0 -101 4l-72 -244l-145 39l70 229q-155 38 -310 138zM471 1016q0 -33 20 -56t80 -51l62 209q-10 2 -31 2q-62 0 -96.5 -29t-34.5 -75zM502 266h37q81 0 122 35t41 94q0 41 -25 67t-97 60z" />
<glyph unicode="%" horiz-adv-x="1662" d="M121 891q0 134 44.5 250.5t127.5 188t186 71.5q135 0 208 -91t73 -247q0 -134 -44.5 -250.5t-128 -188t-186.5 -71.5q-135 0 -207.5 90.5t-72.5 247.5zM268 35l533 721l465 643l188 -49l-514 -697l-483 -667zM340 879q0 -123 72 -123q38 0 68.5 50t45.5 122t15 147 q0 123 -72 123q-38 0 -68.5 -50t-45.5 -122t-15 -147zM963 322q0 134 44.5 250t127.5 187.5t186 71.5q135 0 208 -90.5t73 -246.5q0 -134 -44.5 -250.5t-128 -188t-186.5 -71.5q-135 0 -207.5 90.5t-72.5 247.5zM1182 309q0 -63 16.5 -93t54.5 -30t68.5 50.5t45.5 122.5 t15 147q0 63 -16.5 93t-54.5 30t-68.5 -50.5t-45.5 -122.5t-15 -147z" />
<glyph unicode="&#x26;" horiz-adv-x="1294" d="M18 313q0 164 90.5 284.5t247.5 193.5q-63 126 -63 251q0 176 112.5 287t315.5 111q223 0 399 -90l-98 -310q-161 82 -268 82q-48 0 -72.5 -23t-24.5 -59q0 -49 41 -116l185 -301q31 77 71 235l279 -74q-69 -238 -193 -419l203 -330l-397 -47l-66 106 q-177 -121 -370 -121q-189 0 -290.5 95.5t-101.5 244.5zM387 387q0 -60 35 -98.5t102 -38.5q69 0 133 45l-176 287q-52 -49 -73 -95t-21 -100z" />
<glyph unicode="'" horiz-adv-x="552" d="M207 797l4 587h405l-196 -641z" />
<glyph unicode="(" horiz-adv-x="757" d="M66 543q2 174 60.5 327t160.5 270.5t236.5 204.5t295.5 142v-225q-184 -169 -271 -342.5t-91 -417.5q-6 -310 194 -629l-258 -66q-72 69 -127 141t-103 162.5t-73 200.5t-24 232z" />
<glyph unicode=")" horiz-adv-x="757" d="M-23 23q122 113 197.5 218.5t119 240t46.5 300.5q5 309 -195 629l258 66q72 -69 127 -141t103.5 -162.5t73.5 -200.5t24 -232q-2 -174 -60.5 -327t-161 -270.5t-237 -204.5t-295.5 -142v226z" />
<glyph unicode="*" horiz-adv-x="929" d="M147 1098l25 76h268l76 251h84l76 -251h268l25 -76l-217 -156l88 -256l-68 -43l-215 160l-213 -160l-68 43l89 256z" />
<glyph unicode="+" horiz-adv-x="1171" d="M117 551l45 283h330l53 342h291l-54 -342h330l-45 -283h-330l-53 -342h-291l53 342h-329z" />
<glyph unicode="," horiz-adv-x="552" d="M-92 -266l190 665h410l-387 -716z" />
<glyph unicode="-" horiz-adv-x="653" d="M51 428l58 346h518l-56 -346h-520z" />
<glyph unicode="." horiz-adv-x="552" d="M2 0l64 399h387l-64 -399h-387z" />
<glyph unicode="/" horiz-adv-x="1081" d="M-178 -188l1093 1620l297 -72l-1093 -1620z" />
<glyph unicode="0" horiz-adv-x="1234" d="M92 510q0 246 63 437.5t177 305.5q160 160 391 160q235 0 357 -140t122 -401q0 -246 -62.5 -437.5t-176.5 -305.5q-160 -160 -392 -160q-235 0 -357 140t-122 401zM477 440q0 -96 26.5 -137t78.5 -41q42 0 77 35q59 59 108.5 269.5t49.5 375.5q0 96 -26 137t-78 41 q-43 0 -78 -35q-59 -59 -108.5 -269.5t-49.5 -375.5z" />
<glyph unicode="1" horiz-adv-x="831" d="M127 901v313l360 170h355l-219 -1384h-394l158 1012z" />
<glyph unicode="2" horiz-adv-x="1124" d="M-4 0l49 303l490 420q99 85 136.5 135.5t37.5 106.5q0 116 -148 116q-137 0 -340 -135v326q204 139 449 139q194 0 313 -99t119 -274q0 -71 -16.5 -132t-42.5 -109t-73 -99t-93 -90.5t-119 -95.5l-262 -203h473v-309h-973z" />
<glyph unicode="3" horiz-adv-x="1093" d="M-6 90l88 293q199 -92 348 -92q89 0 144 39t55 114q0 65 -46.5 98t-152.5 33h-119v275h158q110 0 167.5 36t57.5 105q0 105 -143 105q-148 0 -354 -107v311q238 111 454 111q204 0 319 -87.5t115 -254.5q0 -141 -70 -221t-210 -131q97 -43 149 -114t52 -185 q0 -215 -144 -330t-387 -115q-249 0 -481 117z" />
<glyph unicode="4" horiz-adv-x="1228" d="M4 258l39 242l678 884h440l-135 -866h184l-41 -260h-184l-41 -258h-369l43 258h-614zM367 518h290l82 502z" />
<glyph unicode="5" horiz-adv-x="1105" d="M-2 68l94 315q197 -82 375 -82q97 0 142.5 38t45.5 105q0 56 -48 91.5t-160.5 58.5t-309.5 37l166 753h803v-317h-559l-41 -184q263 -25 390.5 -123t127.5 -287q0 -244 -148.5 -372t-404.5 -128q-132 0 -243 24.5t-230 70.5z" />
<glyph unicode="6" horiz-adv-x="1122" d="M55 494q0 253 116 449t323.5 314.5t488.5 157.5v-317q-215 -38 -349.5 -116t-176.5 -185q79 52 153 75t162 23q147 0 230 -100t83 -273q0 -243 -153 -395t-400 -152q-224 0 -350.5 138.5t-126.5 380.5zM406 479q0 -104 37.5 -163.5t109.5 -59.5q71 0 118.5 59t47.5 160 q0 81 -31 120.5t-100 39.5q-80 0 -178 -70q-4 -62 -4 -86z" />
<glyph unicode="7" horiz-adv-x="1101" d="M90 51l623 996h-529v337h987l-47 -317l-661 -1081z" />
<glyph unicode="8" horiz-adv-x="1169" d="M41 352q0 248 281 373q-138 114 -138 274q0 183 133.5 297.5t372.5 114.5q210 0 337.5 -91t127.5 -241q0 -115 -61 -196t-183 -138q104 -71 143.5 -151.5t39.5 -177.5q0 -192 -147.5 -317.5t-387.5 -125.5q-131 0 -232 30t-162.5 82.5t-92.5 120t-31 146.5zM403 379 q0 -65 42.5 -106.5t111.5 -41.5q75 0 123.5 47.5t48.5 120.5q0 59 -39.5 108.5t-152.5 100.5q-134 -98 -134 -229zM530 1036q0 -57 38 -98t122 -80q121 80 121 189q0 55 -35 85.5t-100 30.5t-105.5 -37t-40.5 -90z" />
<glyph unicode="9" horiz-adv-x="1122" d="M96 864q0 243 153 395t400 152q224 0 350.5 -138t126.5 -380q0 -194 -69.5 -356.5t-195.5 -277.5t-299.5 -188.5t-383.5 -99.5v318q214 31 351 104t188 174q-145 -78 -283 -78q-161 0 -249.5 100.5t-88.5 274.5zM463 901q0 -156 131 -156q85 0 174 60q8 74 8 102 q0 103 -38.5 163t-110.5 60t-118 -60t-46 -169z" />
<glyph unicode=":" horiz-adv-x="569" d="M12 0l64 393h383l-64 -393h-383zM113 621l61 393h383l-61 -393h-383z" />
<glyph unicode=";" horiz-adv-x="569" d="M-100 -266l190 659h410l-387 -710zM117 621l61 393h383l-61 -393h-383z" />
<glyph unicode="&#x3c;" horiz-adv-x="1171" d="M125 567l41 250l987 455l-51 -316l-602 -272l516 -274l-47 -297z" />
<glyph unicode="=" horiz-adv-x="1208" d="M117 299l43 279h911l-43 -279h-911zM197 807l45 280h911l-45 -280h-911z" />
<glyph unicode="&#x3e;" horiz-adv-x="1171" d="M76 113l51 317l602 270l-516 275l47 297l844 -455l-41 -250z" />
<glyph unicode="?" horiz-adv-x="987" d="M106 0l62 393h385l-61 -393h-386zM143 956v349q112 66 226 100.5t262 34.5q200 0 304.5 -99t104.5 -270q0 -246 -183 -382t-556 -200l33 316l24 8q156 52 219.5 95t63.5 102q0 43 -27.5 64.5t-91.5 21.5q-145 0 -379 -140z" />
<glyph unicode="@" horiz-adv-x="1708" d="M68 393q0 182 71 353.5t189 298.5t281 203.5t339 76.5q208 0 363 -77.5t242 -232t87 -368.5q0 -257 -109.5 -409t-313.5 -152q-104 0 -184 48t-111 124q-153 -172 -299 -172q-103 0 -163.5 70.5t-60.5 201.5q0 130 42.5 246t114 198t168 129.5t202.5 47.5q190 0 370 -78 l-88 -461q-12 -62 -12 -112q0 -44 28 -73.5t95 -29.5q103 0 167 113t64 307q0 153 -44.5 269.5t-126 190t-192 110t-247.5 36.5q-153 0 -296.5 -67.5t-250 -181t-171 -273t-64.5 -334.5q0 -162 44.5 -281t127.5 -190t192.5 -105t249.5 -34q243 0 434 98l13 -73 q-86 -44 -205.5 -70.5t-249.5 -26.5q-332 0 -514 171t-182 509zM694 418q0 -50 16.5 -70t47.5 -20t65.5 25t96.5 91l57 299q-27 9 -64 9q-88 0 -153.5 -102.5t-65.5 -231.5z" />
<glyph unicode="A" horiz-adv-x="1378" d="M-68 0l699 1419h426l233 -1364l-422 -69l-30 252h-404l-102 -238h-400zM565 555h240l-51 436z" />
<glyph unicode="B" horiz-adv-x="1228" d="M31 0l223 1413h485q225 0 347 -87.5t122 -246.5q0 -228 -241 -334q196 -88 196 -290q0 -216 -158.5 -335.5t-433.5 -119.5h-540zM467 274h92q90 0 149.5 49t59.5 132q0 143 -184 143h-64zM561 852h84q77 0 129.5 43.5t52.5 116.5q0 125 -153 125h-70z" />
<glyph unicode="C" horiz-adv-x="1157" d="M80 580q0 195 60.5 358.5t163.5 272t240 168t290 59.5q206 0 374 -103l-106 -342q-130 97 -252 97q-103 0 -184 -68t-122.5 -175t-41.5 -229q0 -150 68 -226.5t190 -76.5q121 0 268 70v-340q-150 -68 -352 -68q-132 0 -240 37.5t-188 111t-124 189.5t-44 265z" />
<glyph unicode="D" horiz-adv-x="1372" d="M31 0l223 1413h373q353 0 534.5 -150t181.5 -448q0 -356 -219 -575q-240 -240 -706 -240h-387zM489 309h5q90 0 167 33t130 86q65 65 100 161t35 208q0 307 -291 307h-19z" />
<glyph unicode="E" d="M31 0l223 1413h895l-49 -330h-488l-30 -194h360v-326h-414l-36 -233h503l-53 -330h-911z" />
<glyph unicode="F" horiz-adv-x="1046" d="M31 0l223 1413h879l-54 -344h-469l-37 -227h345v-342h-398l-78 -500h-411z" />
<glyph unicode="G" horiz-adv-x="1327" d="M82 567q0 190 59.5 353t163 277t248.5 178.5t311 64.5q237 0 439 -99l-109 -340q-153 99 -313 99q-174 0 -275.5 -143.5t-101.5 -374.5q0 -146 59.5 -216.5t167.5 -70.5q68 0 135 24l31 213h-182v295h583l-122 -721q-95 -59 -225 -96t-275 -37q-279 0 -436.5 158.5 t-157.5 435.5z" />
<glyph unicode="H" horiz-adv-x="1398" d="M31 0l223 1413h416l-82 -512h350l78 512h416l-224 -1413h-415l88 539h-351l-84 -539h-415z" />
<glyph unicode="I" horiz-adv-x="645" d="M35 0l223 1413h416l-223 -1413h-416z" />
<glyph unicode="J" horiz-adv-x="913" d="M2 4v348q95 -18 178 -18q93 0 150 47t76 168l137 864h413l-149 -944q-21 -135 -68 -229t-121.5 -149t-168.5 -79t-220 -24q-129 0 -227 16z" />
<glyph unicode="K" horiz-adv-x="1308" d="M31 0l223 1413h416l-99 -594l404 594h469l-506 -690l303 -670l-436 -67l-262 643l-97 -629h-415z" />
<glyph unicode="L" horiz-adv-x="1015" d="M31 0l223 1413h416l-168 -1057h407v-356h-878z" />
<glyph unicode="M" horiz-adv-x="1779" d="M-2 0l324 1413h530l53 -864l332 864h506l-123 -1413h-426l82 836l-313 -842h-388l-43 842l-182 -836h-352z" />
<glyph unicode="N" horiz-adv-x="1376" d="M31 0l223 1413h387l283 -670l104 670h381l-223 -1413h-344l-314 729l-116 -729h-381z" />
<glyph unicode="O" horiz-adv-x="1409" d="M88 594q0 195 62 369t180 292q185 185 463 185q273 0 428 -161t155 -460q0 -195 -62 -369.5t-179 -291.5q-185 -185 -463 -185q-274 0 -429 161t-155 460zM510 547q0 -266 166 -266q70 0 129 59q60 60 104.5 207t44.5 319q0 267 -166 267q-69 0 -129 -60t-104.5 -207 t-44.5 -319z" />
<glyph unicode="P" horiz-adv-x="1200" d="M31 0l223 1413h444q267 0 400 -108.5t133 -331.5q0 -244 -172 -393.5t-473 -149.5h-76l-68 -430h-411zM553 723h47q105 0 168 63t63 175q0 159 -178 159h-39z" />
<glyph unicode="Q" horiz-adv-x="1427" d="M88 575q0 436 242 678q187 187 465 187q271 0 425 -158t154 -442q0 -244 -79.5 -410.5t-219.5 -288.5l299 -86l-117 -348l-626 236q-120 45 -202 86t-151 94t-108.5 116t-60.5 146t-21 190zM510 547q0 -266 166 -266q70 0 129 59q60 60 104.5 207t44.5 319 q0 267 -166 267q-69 0 -129 -60t-104.5 -207t-44.5 -319z" />
<glyph unicode="R" horiz-adv-x="1257" d="M31 0l223 1413h459q257 0 395.5 -104.5t138.5 -311.5q0 -311 -272 -444l199 -500l-433 -67l-166 465h-65l-72 -451h-407zM551 731h41q120 0 188 60t68 174q0 155 -184 155h-54z" />
<glyph unicode="S" horiz-adv-x="1126" d="M-16 125l112 319q247 -159 428 -159q65 0 105.5 31.5t40.5 78.5q0 39 -23.5 63.5t-89.5 59.5q-240 123 -321.5 216t-81.5 245q0 95 35.5 179t100 146t161.5 98t213 36q250 0 477 -133l-111 -318q-226 141 -364 141q-57 0 -87 -25.5t-30 -66.5q0 -38 25 -63t100 -64 q222 -115 305.5 -212t83.5 -230q0 -232 -145.5 -362t-389.5 -130q-275 0 -544 150z" />
<glyph unicode="T" horiz-adv-x="1218" d="M115 1069l57 344h1118v-344h-385l-168 -1069h-415l167 1069h-374z" />
<glyph unicode="U" horiz-adv-x="1370" d="M100 432q0 76 17 201l123 780h415l-127 -805q-16 -98 -16 -159q0 -67 36 -105.5t107 -38.5q84 0 134 57.5t71 188.5l135 862h416l-131 -831q-51 -322 -211.5 -465.5t-439.5 -143.5q-260 0 -394.5 114.5t-134.5 344.5z" />
<glyph unicode="V" horiz-adv-x="1345" d="M150 1358l438 69l104 -907l383 893h404l-697 -1419h-399z" />
<glyph unicode="W" horiz-adv-x="1980" d="M152 1356l464 71l29 -784l324 770h401l76 -770l272 770h387l-598 -1413h-397l-90 782l-340 -782h-385z" />
<glyph unicode="X" horiz-adv-x="1290" d="M-84 0l530 737l-274 623l436 67l127 -350l217 336h451l-481 -674l305 -686l-436 -67l-160 420l-264 -406h-451z" />
<glyph unicode="Y" horiz-adv-x="1312" d="M115 1364l434 63l168 -530l323 516h443l-629 -913l-80 -500h-418l78 492z" />
<glyph unicode="Z" horiz-adv-x="1179" d="M-27 0l47 301l674 786h-473v326h1036l-47 -301l-673 -786h520v-326h-1084z" />
<glyph unicode="[" horiz-adv-x="829" d="M12 -213l258 1626h656l-33 -213h-309l-191 -1200h289v-213h-670z" />
<glyph unicode="\" horiz-adv-x="1019" d="M129 1362l289 70l588 -1622l-289 -70z" />
<glyph unicode="]" horiz-adv-x="829" d="M-70 -213l35 213h307l191 1200h-289v213h670l-256 -1626h-658z" />
<glyph unicode="^" horiz-adv-x="837" d="M182 1120l236 307h299l149 -307h-223l-104 109l-146 -109h-211z" />
<glyph unicode="_" horiz-adv-x="837" d="M-117 -213l23 143h842l-23 -143h-842z" />
<glyph unicode="`" horiz-adv-x="837" d="M262 1362l443 68l55 -310h-223z" />
<glyph unicode="a" horiz-adv-x="1075" d="M43 332q0 138 33.5 254t92 196t137 136t167.5 82t186 26q194 0 390 -76l-113 -700v-250h-336l-10 152q-144 -172 -285 -172q-121 0 -191.5 94.5t-70.5 257.5zM401 422q0 -64 21 -96.5t57 -32.5q30 0 57.5 16t67.5 56l62 378q-27 9 -43 9q-89 0 -155.5 -93.5t-66.5 -236.5 z" />
<glyph unicode="b" horiz-adv-x="1071" d="M20 63l218 1360l362 56l-94 -588q68 70 127 106.5t131 36.5q122 0 193 -97.5t71 -268.5q0 -164 -48 -296t-130 -214.5t-186.5 -126t-221.5 -43.5q-200 0 -422 75zM403 270q24 -8 54 -8q93 0 153 88t60 248q0 62 -22.5 92.5t-61.5 30.5q-28 0 -54.5 -16t-66.5 -56z" />
<glyph unicode="c" horiz-adv-x="860" d="M45 420q0 174 68 313.5t194.5 220t290.5 80.5q161 0 279 -67l-86 -287q-80 47 -160 47q-104 0 -166 -79.5t-62 -196.5q0 -90 46.5 -133.5t125.5 -43.5q65 0 168 39v-280q-115 -51 -254 -51q-211 0 -327.5 116t-116.5 322z" />
<glyph unicode="d" horiz-adv-x="1079" d="M43 346q0 132 30 243.5t83 190t124.5 133.5t153.5 81t172 26q43 0 105 -10l63 413l363 56l-197 -1229v-250h-336l-12 152q-81 -88 -146 -130t-139 -42q-122 0 -193 97.5t-71 268.5zM401 416q0 -62 22.5 -92.5t61.5 -30.5q28 0 54.5 16t66.5 56l62 378q-27 9 -54 9 q-93 0 -153 -88t-60 -248z" />
<glyph unicode="e" horiz-adv-x="999" d="M43 408q0 178 70.5 321.5t194.5 224t278 80.5q175 0 271.5 -110t96.5 -297q0 -110 -28 -213h-557q7 -100 56 -144.5t142 -44.5q138 0 312 76v-233q-99 -44 -186.5 -66t-196.5 -22q-201 0 -327 109.5t-126 318.5zM383 610h258q5 37 5 67q0 130 -99 130q-57 0 -100 -54.5 t-64 -142.5z" />
<glyph unicode="f" horiz-adv-x="706" d="M10 -381l174 1104h-141l45 291h141l19 108q13 78 38 137t69 108t115 75t167 26q110 0 188 -16v-266q-60 14 -104 14q-54 0 -85.5 -28t-43.5 -93l-12 -65h163v-291h-206l-164 -1049z" />
<glyph unicode="g" horiz-adv-x="1077" d="M-57 -276l86 266q162 -86 321 -86q89 0 138.5 41.5t68.5 134.5l16 84q-69 -71 -127 -107.5t-124 -36.5q-131 0 -205 94.5t-74 270.5q0 153 48 276.5t130 202t186.5 120.5t221.5 42q195 0 420 -76l-136 -868q-17 -109 -54.5 -191t-86 -131.5t-113.5 -80t-128.5 -41.5 t-139.5 -11q-249 0 -448 97zM401 446q0 -127 86 -127q27 0 53 16t68 58l58 350q-27 9 -56 9q-90 0 -149.5 -82t-59.5 -224z" />
<glyph unicode="h" horiz-adv-x="1083" d="M10 0l228 1423l362 56l-102 -625q90 86 167 133t169 47q98 0 149 -60.5t51 -162.5q0 -38 -8 -92l-115 -719h-354l96 608q6 36 6 58q0 26 -14.5 39.5t-38.5 13.5q-29 0 -59.5 -18.5t-79.5 -63.5l-102 -637h-355z" />
<glyph unicode="i" horiz-adv-x="557" d="M18 0l166 1014h355l-166 -1014h-355zM205 1307q0 87 58 138.5t145 51.5q88 0 145 -51.5t57 -138.5q0 -86 -57 -137.5t-145 -51.5q-87 0 -145 51.5t-58 137.5z" />
<glyph unicode="j" horiz-adv-x="557" d="M-178 -66q31 -8 78 -8q61 0 91 34.5t42 111.5l149 942h355l-156 -987q-35 -219 -131.5 -309.5t-282.5 -90.5q-108 0 -145 11v296zM205 1307q0 87 57.5 138.5t145.5 51.5q87 0 144.5 -51.5t57.5 -138.5q0 -86 -57.5 -137.5t-144.5 -51.5q-88 0 -145.5 51.5t-57.5 137.5z " />
<glyph unicode="k" horiz-adv-x="1040" d="M10 0l226 1415l364 64l-141 -863l264 398h385l-346 -488l196 -481l-352 -59l-174 467l-67 -453h-355z" />
<glyph unicode="l" horiz-adv-x="557" d="M18 0l228 1423l362 56l-235 -1479h-355z" />
<glyph unicode="m" horiz-adv-x="1617" d="M14 0l121 764v250h340l10 -178q202 198 349 198q93 0 142 -54.5t52 -139.5q198 194 344 194q97 0 147 -60.5t50 -164.5q0 -36 -8 -90l-115 -719h-354l98 608q6 48 6 58q0 53 -49 53q-56 0 -137 -84l-103 -635h-354l96 608q6 48 6 58q0 53 -49 53q-56 0 -137 -84 l-100 -635h-355z" />
<glyph unicode="n" d="M14 0l121 764v250h336l14 -178q93 91 177 144.5t176 53.5q98 0 149 -60.5t51 -162.5q0 -38 -8 -92l-115 -719h-354l96 608q7 42 7 58q0 25 -15 39t-39 14q-29 0 -59.5 -18.5t-79.5 -63.5l-102 -637h-355z" />
<glyph unicode="o" horiz-adv-x="1052" d="M49 434q0 170 62.5 306t182.5 215t277 79q206 0 319.5 -125t113.5 -329q0 -126 -37 -236t-103.5 -190.5t-165.5 -127t-217 -46.5q-206 0 -319 125.5t-113 328.5zM399 430q0 -170 97 -170q72 0 114.5 98t42.5 226q0 170 -96 170q-49 0 -86 -49t-54.5 -121.5t-17.5 -153.5z " />
<glyph unicode="p" horiz-adv-x="1075" d="M-45 -381l180 1145v250h336l12 -152q81 88 146 130t139 42q122 0 193 -97.5t71 -268.5q0 -132 -30 -243.5t-83 -190t-124.5 -133.5t-153.5 -81t-172 -26q-42 0 -104 10l-48 -330zM408 270q24 -8 53 -8q93 0 153 88t60 248q0 62 -22.5 92.5t-61.5 30.5q-28 0 -54.5 -16 t-66.5 -56z" />
<glyph unicode="q" horiz-adv-x="1079" d="M43 346q0 164 48 296t130 214.5t186.5 126t221.5 43.5q197 0 422 -76l-199 -1276l-363 -55l76 504q-68 -70 -127 -106.5t-131 -36.5q-122 0 -193 97.5t-71 268.5zM401 416q0 -62 22.5 -92.5t61.5 -30.5q28 0 54.5 16t66.5 56l62 378q-27 9 -54 9q-93 0 -153 -88t-60 -248 z" />
<glyph unicode="r" horiz-adv-x="796" d="M14 0l121 764v250h334l16 -223q145 243 324 243v-368q-209 -13 -354 -125l-86 -541h-355z" />
<glyph unicode="s" horiz-adv-x="890" d="M-20 96l73 256q90 -54 192.5 -88.5t176.5 -34.5q82 0 82 52q0 22 -18.5 37.5t-73.5 41.5q-90 42 -143.5 73t-96 70.5t-59.5 85t-17 107.5q0 151 104.5 244.5t276.5 93.5q194 0 383 -92l-67 -254q-190 96 -318 96q-32 0 -47.5 -13.5t-15.5 -31.5q0 -20 13 -33t58 -34 q97 -45 153.5 -77t101.5 -73.5t63 -89t18 -113.5q0 -148 -104 -243.5t-295 -95.5q-229 0 -440 116z" />
<glyph unicode="t" horiz-adv-x="765" d="M59 723l45 291h119l45 297l363 55l-56 -352h179v-291h-224l-45 -277q-6 -43 -6 -75q0 -48 21.5 -68t66.5 -20q42 0 82 8v-287q-97 -22 -221 -22q-313 0 -313 268q0 62 10 137l53 336h-119z" />
<glyph unicode="u" d="M49 203q0 38 8 92l115 719h354l-96 -608q-6 -36 -6 -58q0 -26 14.5 -39.5t38.5 -13.5q29 0 59.5 18.5t79.5 63.5l103 637h354l-121 -764v-250h-336l-14 178q-93 -92 -176.5 -145t-175.5 -53q-98 0 -149.5 60.5t-51.5 162.5z" />
<glyph unicode="v" horiz-adv-x="1001" d="M80 981l371 47l53 -573l229 559h338l-491 -1018h-332z" />
<glyph unicode="w" horiz-adv-x="1454" d="M88 985l361 43l10 -567l194 553h328l20 -553l185 553h330l-420 -1014h-344l-31 549l-199 -549h-338z" />
<glyph unicode="x" horiz-adv-x="1009" d="M-68 0l365 516l-193 469l347 43l90 -262l151 248h369l-350 -498l207 -487l-347 -43l-104 282l-166 -268h-369z" />
<glyph unicode="y" horiz-adv-x="1017" d="M-29 -74q59 -16 127 -16q104 0 164 88l-176 983l371 47l59 -573l232 559h337l-483 -1010q-53 -111 -98.5 -178.5t-103.5 -114.5t-127 -65.5t-167 -18.5q-81 0 -135 15v284z" />
<glyph unicode="z" horiz-adv-x="954" d="M-33 0l43 272l451 461h-314v281h814l-41 -275l-451 -458h360v-281h-862z" />
<glyph unicode="{" horiz-adv-x="980" d="M63 496v211h70q124 0 181.5 54t58.5 191v111q2 158 91.5 254t256.5 96h340l-35 -213h-154q-75 0 -110.5 -38.5t-36.5 -123.5v-114q-3 -138 -67.5 -214.5t-200.5 -107.5v-4q102 -24 144 -73.5t40 -137.5q-1 -59 -34 -161t-34 -136q-3 -90 111 -90h135v-213h-352 q-129 0 -195.5 57.5t-64.5 161.5q1 62 37 182.5t37 169.5q2 71 -41 104.5t-140 33.5h-37z" />
<glyph unicode="|" horiz-adv-x="657" d="M170 -381v1813l299 47v-1813z" />
<glyph unicode="}" horiz-adv-x="966" d="M-66 -213l35 213h154q75 0 110.5 38.5t36.5 123.5v114q3 138 68 214.5t201 107.5v4q-103 24 -145 73.5t-40 137.5q1 59 34 161t34 136q3 90 -111 90h-135v213h352q129 0 195.5 -57.5t64.5 -161.5q-1 -62 -36.5 -182.5t-36.5 -169.5q-2 -71 40.5 -104t139.5 -33h37v-211 h-70q-124 0 -181 -54t-58 -192v-111q-2 -158 -92 -254t-257 -96h-340z" />
<glyph unicode="~" horiz-adv-x="753" d="M51 461q40 175 90 242t131 67q53 0 125 -37q84 -41 115 -41q21 0 36.5 18t35.5 68l147 -37q-40 -174 -90 -240.5t-129 -66.5q-49 0 -125 37q-83 41 -115 41q-21 0 -36 -18t-35 -68z" />
<glyph unicode="&#xa1;" horiz-adv-x="618" d="M10 0l250 856l225 51l-26 -907h-449zM205 1020l63 393h385l-63 -393h-385z" />
<glyph unicode="&#xa2;" horiz-adv-x="905" d="M82 592q0 175 74 316t203.5 219.5t289.5 78.5h33l61 197l146 -39l-55 -184q60 -20 114 -56l-94 -266q-75 42 -119 55l-139 -464q84 2 192 53v-262q-108 -59 -258 -64l-59 -196l-143 38l51 170q-134 32 -215.5 135t-81.5 269zM412 616q0 -108 67 -147l135 455 q-88 -14 -145 -98t-57 -210z" />
<glyph unicode="&#xa3;" horiz-adv-x="1159" d="M20 0l43 276l111 261h-96l47 297h176l107 247q47 111 106 181.5t147.5 109.5t208.5 39q180 0 295 -39l-78 -311q-76 26 -155 26q-66 0 -109.5 -35t-72.5 -104l-50 -114h228v-297h-353l-94 -226h535v-311h-996z" />
<glyph unicode="&#xa5;" horiz-adv-x="1345" d="M113 166v162h323l19 114h-314l25 162h262l-278 739l425 56l158 -531l316 516h424l-553 -780h251v-162h-323l-19 -114h314l-25 -162h-313l-27 -166h-395l27 166h-297z" />
<glyph unicode="&#xa7;" horiz-adv-x="1169" d="M70 621q0 108 102 229l217 -57q-27 -45 -27 -76q0 -36 29 -56.5t107 -42.5l129 -36q152 -43 222.5 -107t70.5 -176q0 -136 -104.5 -225.5t-280.5 -89.5q-192 0 -355 73l74 230q70 -34 151 -54t144 -20t63 37q0 23 -29 36.5t-120 39.5l-80 22q-181 51 -247 111.5 t-66 161.5zM295 1083q0 136 104.5 226t280.5 90q189 0 354 -74l-73 -229q-70 33 -150.5 53t-144.5 20t-64 -36q0 -23 29 -36.5t121 -39.5l79 -23q125 -36 193.5 -75t94.5 -84t26 -113q0 -108 -103 -230l-217 58q27 45 27 76q0 36 -28.5 55.5t-106.5 42.5l-129 37 q-153 43 -223 106.5t-70 175.5z" />
<glyph unicode="&#xa8;" horiz-adv-x="837" d="M193 1120l45 293h268l-49 -293h-264zM571 1120l47 293h267l-47 -293h-267z" />
<glyph unicode="&#xa9;" horiz-adv-x="1636" d="M152 705q0 216 89.5 383.5t250.5 259.5t368 92q208 0 369 -91.5t249.5 -257.5t88.5 -382q0 -215 -89.5 -383t-251 -260.5t-368.5 -92.5q-315 0 -510.5 202.5t-195.5 529.5zM242 707q0 -155 47.5 -281t131 -208.5t196 -126.5t243.5 -44q132 0 244.5 44t195.5 126.5 t130 208t47 281.5q0 155 -47.5 281t-131 208t-196 126t-242.5 44q-132 0 -245 -44t-196 -126t-130 -207.5t-47 -281.5zM475 713q0 185 119.5 300t310.5 115q133 0 246 -47l-35 -225q-54 32 -95.5 44.5t-94.5 12.5q-81 0 -124.5 -55t-43.5 -143q0 -93 49.5 -147t138.5 -54 q92 0 187 49l32 -209q-114 -57 -256 -57q-202 0 -318 114t-116 302z" />
<glyph unicode="&#xaa;" horiz-adv-x="753" d="M68 453l22 161h586v-161h-608zM125 854q0 237 405 281v6q0 49 -20 65.5t-80 16.5q-79 0 -197 -47l3 165q121 54 296 54q138 0 198 -57t40 -179l-49 -305v-131h-236v84q-106 -98 -217 -98q-71 0 -107 40t-36 105zM369 911q0 -41 34 -41q46 0 91 48l18 110 q-75 -11 -109 -44.5t-34 -72.5z" />
<glyph unicode="&#xab;" d="M20 508l379 506h260l-264 -514l97 -465l-228 -55zM487 508l379 506h262l-264 -514l94 -465l-227 -55z" />
<glyph unicode="&#xad;" horiz-adv-x="653" d="M51 428l58 346h518l-56 -346h-520z" />
<glyph unicode="&#xae;" horiz-adv-x="1153" d="M188 963q0 211 130.5 344t334.5 133q206 0 335.5 -132t129.5 -345q0 -211 -130.5 -343.5t-334.5 -132.5q-206 0 -335.5 131.5t-129.5 344.5zM256 963q0 -195 112.5 -307.5t284.5 -112.5q173 0 285.5 112.5t112.5 307.5q0 196 -113 308.5t-285 112.5t-284.5 -112.5 t-112.5 -308.5zM449 717v524h219q105 0 160 -43.5t55 -126.5q0 -99 -90 -145l122 -189l-180 -24l-102 172h-19v-168h-165zM614 987h31q76 0 76 72q0 33 -20 51t-56 18h-31v-141z" />
<glyph unicode="&#xaf;" horiz-adv-x="837" d="M190 1130l39 242h648l-39 -242h-648z" />
<glyph unicode="&#xb0;" horiz-adv-x="929" d="M176 1026q0 160 105 265.5t266 105.5t266 -105.5t105 -265.5q0 -161 -105 -265t-266 -104t-266 104t-105 265zM379 1026q0 -80 46 -131t122 -51t122 51t46 131q0 79 -46.5 131.5t-121.5 52.5t-121.5 -52.5t-46.5 -131.5z" />
<glyph unicode="&#xb1;" horiz-adv-x="1105" d="M29 84l45 276h909l-45 -276h-909zM182 721l43 272h260l43 273h285l-43 -273h260l-43 -272h-260l-43 -272h-285l43 272h-260z" />
<glyph unicode="&#xb2;" horiz-adv-x="737" d="M145 825l31 199l297 256q33 29 46 46t13 38q0 47 -57 47q-70 0 -205 -74v209q138 74 273 74q111 0 176 -56t65 -145q0 -54 -20 -97t-56 -81t-110 -100l-131 -109h256v-207h-578z" />
<glyph unicode="&#xb3;" horiz-adv-x="737" d="M145 881l58 178q113 -53 203 -53q40 0 66 18t26 51q0 62 -101 62h-65v157h47q75 0 117.5 20.5t42.5 57.5q0 49 -68 49q-81 0 -190 -63v192q129 70 274 70q110 0 176 -48.5t66 -135.5q0 -154 -181 -211q129 -48 129 -164t-91 -183t-226 -67q-136 0 -283 70z" />
<glyph unicode="&#xb4;" horiz-adv-x="837" d="M283 1120l143 310l395 -68l-321 -242h-217z" />
<glyph unicode="&#xb6;" horiz-adv-x="1054" d="M127 831q0 251 161 402t443 151h336l-221 -1384h-182l198 1241h-110l-58 -352l-143 -471q-202 14 -313 115t-111 298z" />
<glyph unicode="&#xb7;" horiz-adv-x="552" d="M63 387l68 430h385l-67 -430h-386z" />
<glyph unicode="&#xb8;" horiz-adv-x="837" d="M37 -373l129 283l391 -68l-305 -215h-215z" />
<glyph unicode="&#xb9;" horiz-adv-x="737" d="M174 825l31 199h147l54 332l-160 -64v213l274 113h180l-98 -594h105v-199h-533z" />
<glyph unicode="&#xba;" horiz-adv-x="753" d="M57 453l27 161h602v-161h-629zM135 993q0 170 104 285t273 115q126 0 205.5 -75.5t79.5 -207.5q0 -170 -104 -284.5t-273 -114.5q-126 0 -205.5 75t-79.5 207zM371 1004q0 -99 71 -99q49 0 84 58.5t35 136.5q0 98 -72 98q-49 0 -83.5 -58t-34.5 -136z" />
<glyph unicode="&#xbb;" d="M-43 0l264 514l-94 465l225 55l244 -528l-379 -506h-260zM424 0l264 514l-94 465l225 55l246 -528l-381 -506h-260z" />
<glyph unicode="&#xbc;" horiz-adv-x="1658" d="M143 621l31 198h148l53 332l-160 -64v213l274 113h181l-99 -594h105v-198h-533zM299 2l565 715l518 684l138 -37l-570 -715l-514 -684zM942 139l23 166l321 479h287l-78 -475h88l-27 -170h-88l-22 -143h-236l23 143h-291zM1141 301l2 -4l100 8h43l27 137l43 168h-10 l-89 -151l-47 -72z" />
<glyph unicode="&#xbd;" horiz-adv-x="1658" d="M143 621l31 198h148l53 332l-160 -64v213l274 113h181l-99 -594h105v-198h-533zM258 2l565 715l518 684l138 -37l-570 -715l-514 -684zM930 0l31 199l296 256q24 21 33.5 30.5t18 24t8.5 29.5q0 47 -57 47q-70 0 -205 -74v209q138 74 272 74q111 0 176.5 -56t65.5 -145 q0 -54 -20 -97.5t-56.5 -81.5t-110.5 -100l-131 -108h256v-207h-577z" />
<glyph unicode="&#xbe;" horiz-adv-x="1658" d="M115 676l57 178q113 -53 203 -53q40 0 66 18t26 51q0 62 -100 62h-66v158h47q75 0 117.5 20t42.5 57q0 50 -68 50q-79 0 -190 -64v193q127 69 274 69q110 0 176 -48.5t66 -135.5q0 -154 -180 -211q129 -48 129 -164t-91.5 -183t-226.5 -67t-282 70zM299 2l565 715 l518 684l138 -37l-570 -715l-514 -684zM942 139l23 166l321 479h287l-78 -475h88l-27 -170h-88l-22 -143h-236l23 143h-291zM1141 301l2 -4l100 8h43l27 137l43 168h-10l-89 -151l-47 -72z" />
<glyph unicode="&#xbf;" horiz-adv-x="987" d="M6 342q0 246 183 382t556 200l-32 -316l-25 -8q-156 -52 -219 -95t-63 -102q0 -43 27 -64.5t91 -21.5q145 0 379 140v-348q-112 -67 -225.5 -101.5t-261.5 -34.5q-200 0 -305 99t-105 270zM494 1020l61 393h385l-61 -393h-385z" />
<glyph unicode="&#xc0;" horiz-adv-x="1378" d="M-68 0l699 1419h426l233 -1364l-422 -69l-30 252h-404l-102 -238h-400zM481 1772l443 67l55 -309h-223zM565 555h240l-51 436z" />
<glyph unicode="&#xc1;" horiz-adv-x="1378" d="M-68 0l699 1419h426l233 -1364l-422 -69l-30 252h-404l-102 -238h-400zM565 555h240l-51 436zM731 1530l143 309l396 -67l-322 -242h-217z" />
<glyph unicode="&#xc2;" horiz-adv-x="1378" d="M-68 0l699 1419h426l233 -1364l-422 -69l-30 252h-404l-102 -238h-400zM516 1530l236 307h299l149 -307h-223l-105 108l-145 -108h-211zM565 555h240l-51 436z" />
<glyph unicode="&#xc3;" horiz-adv-x="1378" d="M-68 0l699 1419h426l233 -1364l-422 -69l-30 252h-404l-102 -238h-400zM547 1554q40 175 90.5 242.5t130.5 67.5q53 0 125 -37q84 -41 115 -41q21 0 36 18t35 68l148 -37q-40 -174 -90 -240.5t-129 -66.5q-49 0 -125 37q-83 41 -115 41q-21 0 -36.5 -18t-35.5 -68z M565 555h240l-51 436z" />
<glyph unicode="&#xc4;" horiz-adv-x="1378" d="M-68 0l699 1419h426l233 -1364l-422 -69l-30 252h-404l-102 -238h-400zM530 1530l45 293h269l-49 -293h-265zM565 555h240l-51 436zM909 1530l47 293h267l-47 -293h-267z" />
<glyph unicode="&#xc5;" horiz-adv-x="1378" d="M-68 0l672 1368q-49 52 -49 133q0 101 79 164.5t212 63.5q117 0 195.5 -62.5t78.5 -161.5q0 -85 -55 -143l225 -1307l-422 -69l-30 252h-404l-102 -238h-400zM565 555h240l-51 436zM745 1493q0 -50 24.5 -77t61.5 -27q41 0 70 35.5t29 88.5q0 50 -24.5 77.5t-61.5 27.5 q-40 0 -69.5 -36t-29.5 -89z" />
<glyph unicode="&#xc6;" horiz-adv-x="1789" d="M-90 0l852 1413h1089l-49 -330h-456l-31 -194h330v-326h-383l-37 -233h473l-53 -330h-881l37 238h-352l-136 -238h-403zM618 555h234l88 565z" />
<glyph unicode="&#xc7;" horiz-adv-x="1157" d="M80 580q0 195 60.5 358.5t163.5 272t240 168t290 59.5q206 0 374 -103l-106 -342q-130 97 -252 97q-103 0 -184 -68t-122.5 -175t-41.5 -229q0 -150 68 -226.5t190 -76.5q121 0 268 70v-340q-150 -68 -352 -68q-132 0 -240 37.5t-188 111t-124 189.5t-44 265zM252 -393 l129 282l391 -67l-305 -215h-215z" />
<glyph unicode="&#xc8;" d="M31 0l223 1413h895l-49 -330h-488l-30 -194h360v-326h-414l-36 -233h503l-53 -330h-911zM344 1751l442 68l56 -310h-224z" />
<glyph unicode="&#xc9;" d="M31 0l223 1413h895l-49 -330h-488l-30 -194h360v-326h-414l-36 -233h503l-53 -330h-911zM594 1509l143 310l396 -68l-322 -242h-217z" />
<glyph unicode="&#xca;" d="M31 0l223 1413h895l-49 -330h-488l-30 -194h360v-326h-414l-36 -233h503l-53 -330h-911zM377 1509l235 308h299l150 -308h-223l-105 109l-145 -109h-211z" />
<glyph unicode="&#xcb;" d="M31 0l223 1413h895l-49 -330h-488l-30 -194h360v-326h-414l-36 -233h503l-53 -330h-911zM393 1509l45 293h269l-50 -293h-264zM772 1509l47 293h266l-47 -293h-266z" />
<glyph unicode="&#xcc;" horiz-adv-x="645" d="M35 0l223 1413h416l-223 -1413h-416zM109 1751l442 68l55 -310h-223z" />
<glyph unicode="&#xcd;" horiz-adv-x="645" d="M35 0l223 1413h416l-223 -1413h-416zM358 1509l144 310l395 -68l-322 -242h-217z" />
<glyph unicode="&#xce;" horiz-adv-x="645" d="M35 0l223 1413h416l-223 -1413h-416zM141 1509l236 308h299l149 -308h-223l-104 109l-146 -109h-211z" />
<glyph unicode="&#xcf;" horiz-adv-x="645" d="M35 0l223 1413h416l-223 -1413h-416zM158 1509l45 293h268l-49 -293h-264zM537 1509l47 293h266l-47 -293h-266z" />
<glyph unicode="&#xd0;" horiz-adv-x="1441" d="M55 547v346h187l82 520h372q354 0 535.5 -150t181.5 -448q0 -356 -219 -575q-240 -240 -707 -240h-387l86 547h-131zM555 309h8q90 0 167 33t130 86q65 65 100 161t35 208q0 307 -290 307h-23l-35 -219h168l-53 -330h-168z" />
<glyph unicode="&#xd1;" horiz-adv-x="1376" d="M31 0l223 1413h387l283 -670l104 670h381l-223 -1413h-344l-314 729l-116 -729h-381zM539 1534q40 175 90 242t131 67q53 0 125 -37q53 -26 73.5 -33.5t40.5 -7.5q21 0 36.5 18t35.5 68l148 -36q-40 -174 -90.5 -241t-129.5 -67q-49 0 -125 37q-51 25 -72 33t-42 8 t-36.5 -18t-35.5 -68z" />
<glyph unicode="&#xd2;" horiz-adv-x="1409" d="M88 594q0 195 62 369t180 292q185 185 463 185q273 0 428 -161t155 -460q0 -195 -62 -369.5t-179 -291.5q-185 -185 -463 -185q-274 0 -429 161t-155 460zM485 1772l443 67l55 -309h-223zM510 547q0 -266 166 -266q70 0 129 59q60 60 104.5 207t44.5 319q0 267 -166 267 q-69 0 -129 -60t-104.5 -207t-44.5 -319z" />
<glyph unicode="&#xd3;" horiz-adv-x="1409" d="M88 594q0 195 62 369t180 292q185 185 463 185q273 0 428 -161t155 -460q0 -195 -62 -369.5t-179 -291.5q-185 -185 -463 -185q-274 0 -429 161t-155 460zM510 547q0 -266 166 -266q70 0 129 59q60 60 104.5 207t44.5 319q0 267 -166 267q-69 0 -129 -60t-104.5 -207 t-44.5 -319zM735 1530l144 309l395 -67l-322 -242h-217z" />
<glyph unicode="&#xd4;" horiz-adv-x="1409" d="M88 594q0 195 62 369t180 292q185 185 463 185q273 0 428 -161t155 -460q0 -195 -62 -369.5t-179 -291.5q-185 -185 -463 -185q-274 0 -429 161t-155 460zM510 547q0 -266 166 -266q70 0 129 59q60 60 104.5 207t44.5 319q0 267 -166 267q-69 0 -129 -60t-104.5 -207 t-44.5 -319zM518 1530l236 307h299l149 -307h-223l-105 108l-145 -108h-211z" />
<glyph unicode="&#xd5;" horiz-adv-x="1409" d="M88 594q0 195 62 369t180 292q185 185 463 185q273 0 428 -161t155 -460q0 -195 -62 -369.5t-179 -291.5q-185 -185 -463 -185q-274 0 -429 161t-155 460zM510 547q0 -266 166 -266q70 0 129 59q60 60 104.5 207t44.5 319q0 267 -166 267q-69 0 -129 -60t-104.5 -207 t-44.5 -319zM549 1554q40 175 90.5 242.5t130.5 67.5q53 0 125 -37q84 -41 115 -41q21 0 36 18t35 68l148 -37q-40 -174 -90 -240.5t-129 -66.5q-49 0 -125 37q-83 41 -115 41q-21 0 -36.5 -18t-35.5 -68z" />
<glyph unicode="&#xd6;" horiz-adv-x="1409" d="M88 594q0 195 62 369t180 292q185 185 463 185q273 0 428 -161t155 -460q0 -195 -62 -369.5t-179 -291.5q-185 -185 -463 -185q-274 0 -429 161t-155 460zM510 547q0 -266 166 -266q70 0 129 59q60 60 104.5 207t44.5 319q0 267 -166 267q-69 0 -129 -60t-104.5 -207 t-44.5 -319zM535 1530l45 293h268l-49 -293h-264zM913 1530l48 293h266l-47 -293h-267z" />
<glyph unicode="&#xd7;" horiz-adv-x="1171" d="M104 434l312 264l-230 267l230 196l223 -270l307 268l178 -209l-311 -264l229 -266l-229 -197l-223 271l-307 -269z" />
<glyph unicode="&#xd8;" horiz-adv-x="1409" d="M-92 39l239 240q-59 130 -59 315q0 195 62 369t180 292q185 185 463 185q242 0 391 -125l116 117l254 -58l-239 -239q61 -135 61 -316q0 -195 -62 -369.5t-179 -291.5q-185 -185 -463 -185q-244 0 -393 125l-117 -116zM502 563l436 471q-44 107 -150 107q-73 0 -135 -62 q-60 -60 -105 -204.5t-46 -311.5zM526 377q43 -105 150 -105q73 0 135 62q60 60 104.5 203t47.5 313z" />
<glyph unicode="&#xd9;" horiz-adv-x="1370" d="M100 432q0 76 17 201l123 780h415l-127 -805q-16 -98 -16 -159q0 -67 36 -105.5t107 -38.5q84 0 134 57.5t71 188.5l135 862h416l-131 -831q-51 -322 -211.5 -465.5t-439.5 -143.5q-260 0 -394.5 114.5t-134.5 344.5zM463 1751l442 68l56 -310h-224z" />
<glyph unicode="&#xda;" horiz-adv-x="1370" d="M100 432q0 76 17 201l123 780h415l-127 -805q-16 -98 -16 -159q0 -67 36 -105.5t107 -38.5q84 0 134 57.5t71 188.5l135 862h416l-131 -831q-51 -322 -211.5 -465.5t-439.5 -143.5q-260 0 -394.5 114.5t-134.5 344.5zM713 1509l143 310l395 -68l-321 -242h-217z" />
<glyph unicode="&#xdb;" horiz-adv-x="1370" d="M100 432q0 76 17 201l123 780h415l-127 -805q-16 -98 -16 -159q0 -67 36 -105.5t107 -38.5q84 0 134 57.5t71 188.5l135 862h416l-131 -831q-51 -322 -211.5 -465.5t-439.5 -143.5q-260 0 -394.5 114.5t-134.5 344.5zM498 1509l235 308h299l150 -308h-224l-104 109 l-145 -109h-211z" />
<glyph unicode="&#xdc;" horiz-adv-x="1370" d="M100 432q0 76 17 201l123 780h415l-127 -805q-16 -98 -16 -159q0 -67 36 -105.5t107 -38.5q84 0 134 57.5t71 188.5l135 862h416l-131 -831q-51 -322 -211.5 -465.5t-439.5 -143.5q-260 0 -394.5 114.5t-134.5 344.5zM512 1509l45 293h268l-49 -293h-264zM891 1509 l47 293h266l-47 -293h-266z" />
<glyph unicode="&#xdd;" horiz-adv-x="1312" d="M115 1364l434 63l168 -530l323 516h443l-629 -913l-80 -500h-418l78 492zM680 1509l143 310l396 -68l-322 -242h-217z" />
<glyph unicode="&#xde;" horiz-adv-x="1216" d="M31 0l223 1413h408l-31 -201h53q266 0 397 -110t131 -334q0 -244 -170 -391.5t-471 -147.5h-96l-37 -229h-407zM516 522h70q105 0 168 63t63 175q0 79 -45.5 119.5t-132.5 40.5h-61z" />
<glyph unicode="&#xdf;" horiz-adv-x="1220" d="M10 -381l174 1104h-133l45 291h133q81 454 498 454q194 0 294.5 -89.5t100.5 -245.5q0 -117 -52.5 -216.5t-156.5 -220.5q61 -35 101.5 -64.5t79 -71t57 -93t18.5 -115.5q0 -172 -102.5 -268t-278.5 -96q-148 0 -290 65l77 248q93 -49 170 -49q39 0 62.5 21.5t23.5 60.5 q0 42 -46.5 80t-161.5 84v229q73 115 106 200t33 173q0 102 -70 102q-45 0 -71.5 -47.5t-45.5 -161.5l-202 -1319z" />
<glyph unicode="&#xe0;" horiz-adv-x="1075" d="M43 332q0 138 33.5 254t92 196t137 136t167.5 82t186 26q194 0 390 -76l-113 -700v-250h-336l-10 152q-144 -172 -285 -172q-121 0 -191.5 94.5t-70.5 257.5zM299 1362l442 68l56 -310h-224zM401 422q0 -64 21 -96.5t57 -32.5q30 0 57.5 16t67.5 56l62 378q-27 9 -43 9 q-89 0 -155.5 -93.5t-66.5 -236.5z" />
<glyph unicode="&#xe1;" horiz-adv-x="1075" d="M43 332q0 138 33.5 254t92 196t137 136t167.5 82t186 26q194 0 390 -76l-113 -700v-250h-336l-10 152q-144 -172 -285 -172q-121 0 -191.5 94.5t-70.5 257.5zM401 422q0 -64 21 -96.5t57 -32.5q30 0 57.5 16t67.5 56l62 378q-27 9 -43 9q-89 0 -155.5 -93.5t-66.5 -236.5 zM549 1120l143 310l395 -68l-321 -242h-217z" />
<glyph unicode="&#xe2;" horiz-adv-x="1075" d="M43 332q0 138 33.5 254t92 196t137 136t167.5 82t186 26q194 0 390 -76l-113 -700v-250h-336l-10 152q-144 -172 -285 -172q-121 0 -191.5 94.5t-70.5 257.5zM332 1120l235 307h299l150 -307h-223l-105 109l-145 -109h-211zM401 422q0 -64 21 -96.5t57 -32.5 q30 0 57.5 16t67.5 56l62 378q-27 9 -43 9q-89 0 -155.5 -93.5t-66.5 -236.5z" />
<glyph unicode="&#xe3;" horiz-adv-x="1075" d="M43 332q0 138 33.5 254t92 196t137 136t167.5 82t186 26q194 0 390 -76l-113 -700v-250h-336l-10 152q-144 -172 -285 -172q-121 0 -191.5 94.5t-70.5 257.5zM365 1145q40 175 90 242t131 67q53 0 125 -37q53 -26 73.5 -33.5t40.5 -7.5q21 0 36.5 18t35.5 68l147 -37 q-40 -174 -90 -240.5t-129 -66.5q-49 0 -125 37q-51 25 -72 33t-42 8t-36.5 -18t-35.5 -68zM401 422q0 -64 21 -96.5t57 -32.5q30 0 57.5 16t67.5 56l62 378q-27 9 -43 9q-89 0 -155.5 -93.5t-66.5 -236.5z" />
<glyph unicode="&#xe4;" horiz-adv-x="1075" d="M43 332q0 138 33.5 254t92 196t137 136t167.5 82t186 26q194 0 390 -76l-113 -700v-250h-336l-10 152q-144 -172 -285 -172q-121 0 -191.5 94.5t-70.5 257.5zM348 1120l45 293h269l-50 -293h-264zM401 422q0 -64 21 -96.5t57 -32.5q30 0 57.5 16t67.5 56l62 378 q-27 9 -43 9q-89 0 -155.5 -93.5t-66.5 -236.5zM727 1120l47 293h266l-47 -293h-266z" />
<glyph unicode="&#xe5;" horiz-adv-x="1075" d="M43 332q0 138 33.5 254t92 196t137 136t167.5 82t186 26q194 0 390 -76l-113 -700v-250h-336l-10 152q-144 -172 -285 -172q-121 0 -191.5 94.5t-70.5 257.5zM401 422q0 -64 21 -96.5t57 -32.5q30 0 57.5 16t67.5 56l62 378q-27 9 -43 9q-89 0 -155.5 -93.5t-66.5 -236.5 zM424 1337q0 101 79 165.5t212 64.5q117 0 195.5 -61.5t78.5 -159.5q0 -101 -79 -165.5t-212 -64.5q-117 0 -195.5 61.5t-78.5 159.5zM614 1329q0 -50 23.5 -76t60.5 -26q43 0 72 36.5t29 90.5q0 50 -23.5 76t-60.5 26q-43 0 -72 -36.5t-29 -90.5z" />
<glyph unicode="&#xe6;" horiz-adv-x="1548" d="M20 236q0 179 150.5 273t441.5 103l6 31q11 71 -17.5 99t-111.5 28q-120 0 -309 -72v258q210 78 404 78q204 0 274 -104q120 104 285 104q172 0 266 -108.5t94 -278.5q0 -130 -28 -233h-557q7 -100 56 -144.5t142 -44.5q137 0 311 76v-233q-99 -44 -186.5 -66t-196.5 -22 q-240 0 -360 143q-205 -143 -397 -143q-118 0 -192.5 65.5t-74.5 190.5zM373 305q0 -38 20.5 -59t57.5 -21q68 0 153 60q-14 57 -14 135v33q-108 -10 -162.5 -52.5t-54.5 -95.5zM932 610h258q28 197 -94 197q-57 0 -100 -54.5t-64 -142.5z" />
<glyph unicode="&#xe7;" horiz-adv-x="860" d="M45 420q0 174 68 313.5t194.5 220t290.5 80.5q161 0 279 -67l-86 -287q-80 47 -160 47q-104 0 -166 -79.5t-62 -196.5q0 -90 46.5 -133.5t125.5 -43.5q65 0 168 39v-280q-115 -51 -254 -51q-211 0 -327.5 116t-116.5 322zM59 -373l129 283l392 -68l-306 -215h-215z" />
<glyph unicode="&#xe8;" horiz-adv-x="999" d="M43 408q0 178 70.5 321.5t194.5 224t278 80.5q175 0 271.5 -110t96.5 -297q0 -110 -28 -213h-557q7 -100 56 -144.5t142 -44.5q138 0 312 76v-233q-99 -44 -186.5 -66t-196.5 -22q-201 0 -327 109.5t-126 318.5zM227 1362l443 68l55 -310h-223zM383 610h258 q28 197 -94 197q-57 0 -100 -54.5t-64 -142.5z" />
<glyph unicode="&#xe9;" horiz-adv-x="999" d="M43 408q0 178 70.5 321.5t194.5 224t278 80.5q175 0 271.5 -110t96.5 -297q0 -110 -28 -213h-557q7 -100 56 -144.5t142 -44.5q138 0 312 76v-233q-99 -44 -186.5 -66t-196.5 -22q-201 0 -327 109.5t-126 318.5zM383 610h258q28 197 -94 197q-57 0 -100 -54.5t-64 -142.5 zM477 1120l144 310l395 -68l-322 -242h-217z" />
<glyph unicode="&#xea;" horiz-adv-x="999" d="M43 408q0 178 70.5 321.5t194.5 224t278 80.5q175 0 271.5 -110t96.5 -297q0 -110 -28 -213h-557q7 -100 56 -144.5t142 -44.5q138 0 312 76v-233q-99 -44 -186.5 -66t-196.5 -22q-201 0 -327 109.5t-126 318.5zM262 1120l236 307h299l149 -307h-223l-105 109l-145 -109 h-211zM383 610h258q28 197 -94 197q-57 0 -100 -54.5t-64 -142.5z" />
<glyph unicode="&#xeb;" horiz-adv-x="999" d="M43 408q0 178 70.5 321.5t194.5 224t278 80.5q175 0 271.5 -110t96.5 -297q0 -110 -28 -213h-557q7 -100 56 -144.5t142 -44.5q138 0 312 76v-233q-99 -44 -186.5 -66t-196.5 -22q-201 0 -327 109.5t-126 318.5zM279 1120l45 293h268l-49 -293h-264zM383 610h258 q28 197 -94 197q-57 0 -100 -54.5t-64 -142.5zM657 1120l48 293h266l-47 -293h-267z" />
<glyph unicode="&#xec;" horiz-adv-x="557" d="M2 1362l442 68l56 -310h-224zM18 0l166 1014h355l-166 -1014h-355z" />
<glyph unicode="&#xed;" horiz-adv-x="557" d="M18 0l166 1014h355l-166 -1014h-355zM252 1120l143 310l396 -68l-322 -242h-217z" />
<glyph unicode="&#xee;" horiz-adv-x="557" d="M18 0l166 1014h355l-166 -1014h-355zM37 1120l235 307h299l150 -307h-223l-105 109l-145 -109h-211z" />
<glyph unicode="&#xef;" horiz-adv-x="557" d="M18 0l166 1014h355l-166 -1014h-355zM53 1120l45 293h269l-50 -293h-264zM432 1120l47 293h266l-47 -293h-266z" />
<glyph unicode="&#xf0;" horiz-adv-x="1062" d="M31 393q0 154 55 282t149 201.5t205 73.5q85 0 149.5 -35t125.5 -108q0 6 1 17t1 16q0 150 -127 245l-53 -59h-179l113 127q-42 19 -129 49l86 275q148 -41 248 -91l76 93l172 -41l-119 -131q235 -177 235 -508q0 -208 -69.5 -388t-179.5 -288q-71 -70 -160.5 -108 t-179.5 -38q-85 0 -158.5 23.5t-133 71.5t-94 130.5t-34.5 190.5zM369 397q0 -72 28 -107.5t76 -35.5q151 0 207 336q-83 80 -160 80q-66 0 -108.5 -76t-42.5 -197z" />
<glyph unicode="&#xf1;" d="M14 0l121 764v250h336l14 -178q93 91 177 144.5t176 53.5q98 0 149 -60.5t51 -162.5q0 -38 -8 -92l-115 -719h-354l96 608q7 42 7 58q0 25 -15 39t-39 14q-29 0 -59.5 -18.5t-79.5 -63.5l-102 -637h-355zM330 1145q40 175 90 242t131 67q53 0 125 -37q84 -41 115 -41 q21 0 36 18t35 68l148 -37q-40 -174 -90 -240.5t-129 -66.5q-49 0 -125 37q-83 41 -115 41q-21 0 -36.5 -18t-35.5 -68z" />
<glyph unicode="&#xf2;" horiz-adv-x="1052" d="M49 434q0 170 62.5 306t182.5 215t277 79q206 0 319.5 -125t113.5 -329q0 -126 -37 -236t-103.5 -190.5t-165.5 -127t-217 -46.5q-206 0 -319 125.5t-113 328.5zM246 1362l442 68l55 -310h-223zM399 430q0 -170 97 -170q72 0 114.5 98t42.5 226q0 170 -96 170 q-49 0 -86 -49t-54.5 -121.5t-17.5 -153.5z" />
<glyph unicode="&#xf3;" horiz-adv-x="1052" d="M49 434q0 170 62.5 306t182.5 215t277 79q206 0 319.5 -125t113.5 -329q0 -126 -37 -236t-103.5 -190.5t-165.5 -127t-217 -46.5q-206 0 -319 125.5t-113 328.5zM399 430q0 -170 97 -170q72 0 114.5 98t42.5 226q0 170 -96 170q-49 0 -86 -49t-54.5 -121.5t-17.5 -153.5z M496 1120l143 310l395 -68l-321 -242h-217z" />
<glyph unicode="&#xf4;" horiz-adv-x="1052" d="M49 434q0 170 62.5 306t182.5 215t277 79q206 0 319.5 -125t113.5 -329q0 -126 -37 -236t-103.5 -190.5t-165.5 -127t-217 -46.5q-206 0 -319 125.5t-113 328.5zM281 1120l235 307h299l150 -307h-224l-104 109l-145 -109h-211zM399 430q0 -170 97 -170q72 0 114.5 98 t42.5 226q0 170 -96 170q-49 0 -86 -49t-54.5 -121.5t-17.5 -153.5z" />
<glyph unicode="&#xf5;" horiz-adv-x="1052" d="M49 434q0 170 62.5 306t182.5 215t277 79q206 0 319.5 -125t113.5 -329q0 -126 -37 -236t-103.5 -190.5t-165.5 -127t-217 -46.5q-206 0 -319 125.5t-113 328.5zM311 1145q40 175 90 242t131 67q53 0 125 -37q84 -41 115 -41q21 0 36.5 18t35.5 68l147 -37 q-40 -174 -90 -240.5t-129 -66.5q-49 0 -125 37q-83 41 -115 41q-21 0 -36 -18t-35 -68zM399 430q0 -170 97 -170q72 0 114.5 98t42.5 226q0 170 -96 170q-49 0 -86 -49t-54.5 -121.5t-17.5 -153.5z" />
<glyph unicode="&#xf6;" horiz-adv-x="1052" d="M49 434q0 170 62.5 306t182.5 215t277 79q206 0 319.5 -125t113.5 -329q0 -126 -37 -236t-103.5 -190.5t-165.5 -127t-217 -46.5q-206 0 -319 125.5t-113 328.5zM297 1120l45 293h268l-49 -293h-264zM399 430q0 -170 97 -170q72 0 114.5 98t42.5 226q0 170 -96 170 q-49 0 -86 -49t-54.5 -121.5t-17.5 -153.5zM676 1120l47 293h266l-47 -293h-266z" />
<glyph unicode="&#xf7;" horiz-adv-x="1171" d="M117 555l45 274h950l-45 -274h-950zM371 127l45 287h307l-45 -287h-307zM506 971l45 286h307l-45 -286h-307z" />
<glyph unicode="&#xf8;" horiz-adv-x="1052" d="M-59 27l168 163q-60 108 -60 244q0 170 62.5 306t182.5 215t277 79q165 0 281 -98l88 94l170 -43l-168 -162q62 -111 62 -245q0 -126 -37 -236t-103.5 -190.5t-165.5 -127t-217 -46.5q-167 0 -280 96l-88 -92zM383 422l264 289q-26 59 -90 59q-54 0 -94.5 -51.5 t-60 -127.5t-19.5 -161v-8zM403 303q29 -59 93 -59q54 0 94.5 51t60 127t19.5 162v10z" />
<glyph unicode="&#xf9;" d="M49 203q0 38 8 92l115 719h354l-96 -608q-6 -36 -6 -58q0 -26 14.5 -39.5t38.5 -13.5q29 0 59.5 18.5t79.5 63.5l103 637h354l-121 -764v-250h-336l-14 178q-93 -92 -176.5 -145t-175.5 -53q-98 0 -149.5 60.5t-51.5 162.5zM262 1362l443 68l55 -310h-223z" />
<glyph unicode="&#xfa;" d="M49 203q0 38 8 92l115 719h354l-96 -608q-6 -36 -6 -58q0 -26 14.5 -39.5t38.5 -13.5q29 0 59.5 18.5t79.5 63.5l103 637h354l-121 -764v-250h-336l-14 178q-93 -92 -176.5 -145t-175.5 -53q-98 0 -149.5 60.5t-51.5 162.5zM512 1120l143 310l396 -68l-322 -242h-217z " />
<glyph unicode="&#xfb;" d="M49 203q0 38 8 92l115 719h354l-96 -608q-6 -36 -6 -58q0 -26 14.5 -39.5t38.5 -13.5q29 0 59.5 18.5t79.5 63.5l103 637h354l-121 -764v-250h-336l-14 178q-93 -92 -176.5 -145t-175.5 -53q-98 0 -149.5 60.5t-51.5 162.5zM297 1120l235 307h299l150 -307h-223l-105 109 l-145 -109h-211z" />
<glyph unicode="&#xfc;" d="M49 203q0 38 8 92l115 719h354l-96 -608q-6 -36 -6 -58q0 -26 14.5 -39.5t38.5 -13.5q29 0 59.5 18.5t79.5 63.5l103 637h354l-121 -764v-250h-336l-14 178q-93 -92 -176.5 -145t-175.5 -53q-98 0 -149.5 60.5t-51.5 162.5zM313 1120l45 293h269l-49 -293h-265zM692 1120 l47 293h267l-48 -293h-266z" />
<glyph unicode="&#xfd;" horiz-adv-x="1017" d="M-29 -74q59 -16 127 -16q104 0 164 88l-176 983l371 47l59 -573l232 559h337l-483 -1010q-53 -111 -98.5 -178.5t-103.5 -114.5t-127 -65.5t-167 -18.5q-81 0 -135 15v284zM492 1120l143 310l395 -68l-321 -242h-217z" />
<glyph unicode="&#xfe;" horiz-adv-x="1071" d="M-49 -381l287 1804l362 56l-94 -588q68 70 127 106.5t131 36.5q122 0 193 -97.5t71 -268.5q0 -132 -30 -243.5t-83 -190t-124.5 -133.5t-153.5 -81t-172 -26q-43 0 -105 10l-47 -330zM403 270q24 -8 54 -8q93 0 153 88t60 248q0 62 -22.5 92.5t-61.5 30.5 q-28 0 -54.5 -16t-66.5 -56z" />
<glyph unicode="&#xff;" horiz-adv-x="1017" d="M-29 -74q59 -16 127 -16q104 0 164 88l-176 983l371 47l59 -573l232 559h337l-483 -1010q-53 -111 -98.5 -178.5t-103.5 -114.5t-127 -65.5t-167 -18.5q-81 0 -135 15v284zM293 1120l45 293h268l-49 -293h-264zM672 1120l47 293h266l-47 -293h-266z" />
<glyph unicode="&#x152;" horiz-adv-x="1773" d="M70 598q0 357 219 576q239 239 706 239h840l-49 -330h-457l-31 -194h330v-326h-383l-37 -233h473l-53 -330h-842q-353 0 -534.5 150t-181.5 448zM487 616q0 -307 291 -307h19l127 795h-4q-90 0 -167 -33t-130 -86q-65 -65 -100.5 -161t-35.5 -208z" />
<glyph unicode="&#x153;" horiz-adv-x="1607" d="M49 428q0 169 63 307t180 218.5t265 80.5q203 0 307 -149q139 149 338 149q175 0 269 -110t94 -297q0 -106 -29 -213h-557q7 -100 56.5 -144.5t142.5 -44.5q137 0 311 76v-233q-103 -46 -187.5 -67t-207.5 -21q-92 0 -170 37t-131 104q-131 -141 -326 -141 q-193 0 -305.5 124t-112.5 324zM399 418q0 -158 101 -158q67 0 110 98t43 238q0 158 -100 158q-67 0 -110.5 -98.5t-43.5 -237.5zM993 610h258q28 197 -94 197q-57 0 -100 -54.5t-64 -142.5z" />
<glyph unicode="&#x178;" horiz-adv-x="1312" d="M115 1364l434 63l168 -530l323 516h443l-629 -913l-80 -500h-418l78 492zM481 1509l45 293h269l-50 -293h-264zM860 1509l47 293h267l-48 -293h-266z" />
<glyph unicode="&#x2c6;" horiz-adv-x="837" d="M182 1120l236 307h299l149 -307h-223l-104 109l-146 -109h-211z" />
<glyph unicode="&#x2dc;" horiz-adv-x="837" d="M199 1145q40 175 90 242t131 67q53 0 125 -37q53 -26 73.5 -33.5t40.5 -7.5q21 0 36.5 18t35.5 68l148 -37q-40 -174 -90 -240.5t-130 -66.5q-22 0 -43.5 5t-37 11.5t-43.5 20.5q-83 41 -115 41q-21 0 -36.5 -18t-35.5 -68z" />
<glyph unicode="&#x2000;" horiz-adv-x="936" />
<glyph unicode="&#x2001;" horiz-adv-x="1872" />
<glyph unicode="&#x2002;" horiz-adv-x="936" />
<glyph unicode="&#x2003;" horiz-adv-x="1872" />
<glyph unicode="&#x2004;" horiz-adv-x="624" />
<glyph unicode="&#x2005;" horiz-adv-x="468" />
<glyph unicode="&#x2006;" horiz-adv-x="312" />
<glyph unicode="&#x2007;" horiz-adv-x="312" />
<glyph unicode="&#x2008;" horiz-adv-x="234" />
<glyph unicode="&#x2009;" horiz-adv-x="374" />
<glyph unicode="&#x200a;" horiz-adv-x="104" />
<glyph unicode="&#x2010;" horiz-adv-x="653" d="M51 428l58 346h518l-56 -346h-520z" />
<glyph unicode="&#x2011;" horiz-adv-x="653" d="M51 428l58 346h518l-56 -346h-520z" />
<glyph unicode="&#x2012;" horiz-adv-x="653" d="M51 428l58 346h518l-56 -346h-520z" />
<glyph unicode="&#x2013;" horiz-adv-x="837" d="M53 432l53 338h703l-51 -338h-705z" />
<glyph unicode="&#x2014;" horiz-adv-x="1673" d="M53 434l53 334h1541l-54 -334h-1540z" />
<glyph unicode="&#x2018;" horiz-adv-x="534" d="M53 715l332 717l217 -52l-141 -665h-408z" />
<glyph unicode="&#x2019;" horiz-adv-x="534" d="M98 748l142 665h409l-334 -717z" />
<glyph unicode="&#x201a;" horiz-adv-x="552" d="M-66 -266l142 665h409l-333 -716z" />
<glyph unicode="&#x201c;" horiz-adv-x="1026" d="M53 715l332 717l209 -52l-141 -665h-400zM551 715l334 717l209 -52l-142 -665h-401z" />
<glyph unicode="&#x201d;" horiz-adv-x="1026" d="M96 748l142 665h401l-334 -717zM596 748l141 665h402l-334 -717z" />
<glyph unicode="&#x201e;" horiz-adv-x="1044" d="M-66 -266l142 665h401l-334 -716zM434 -266l141 665h402l-334 -716z" />
<glyph unicode="&#x2022;" horiz-adv-x="1040" d="M170 705l53 350l330 51l328 -51l55 -350l-55 -351l-328 -51l-330 51z" />
<glyph unicode="&#x2026;" horiz-adv-x="1656" d="M0 0l68 418h366l-65 -418h-369zM561 0l68 418h368l-67 -418h-369zM1122 0l66 418h368l-67 -418h-367z" />
<glyph unicode="&#x202f;" horiz-adv-x="374" />
<glyph unicode="&#x2039;" horiz-adv-x="620" d="M20 508l379 506h260l-264 -514l97 -465l-228 -55z" />
<glyph unicode="&#x203a;" horiz-adv-x="620" d="M-43 0l264 514l-94 465l225 55l244 -528l-379 -506h-260z" />
<glyph unicode="&#x205f;" horiz-adv-x="468" />
<glyph unicode="&#x20ac;" horiz-adv-x="1150" d="M47 469v164h154q3 76 14 139h-137l26 164h156q37 102 95 187t135.5 150t179 101.5t215.5 36.5q113 0 190 -23t148 -71l-101 -295q-68 43 -119.5 60.5t-111.5 17.5q-75 0 -138 -42.5t-104 -121.5h334v-164h-385q-11 -57 -14 -139h366l-26 -164h-326q48 -186 252 -186 q95 0 194 36v-290q-113 -52 -264 -52q-518 0 -573 492h-160z" />
<glyph unicode="&#x2122;" horiz-adv-x="1673" d="M182 1241v172h623l24 -172h-219v-534h-221v534h-207zM868 707l54 706h288l105 -432l106 432h277l51 -706h-227l-27 417l-100 -422h-211l-101 422l-26 -417h-189z" />
<glyph unicode="&#x25fc;" horiz-adv-x="1024" d="M0 0v1024h1024v-1024h-1024z" />
</font>
</defs>
</svg>
