<?xml version="1.0" encoding="utf-8"?>
<!-- Generator: Adobe Illustrator 19.2.1, SVG Export Plug-In . SVG Version: 6.00 Build 0)  -->
<svg version="1.1" id="Layer_1" xmlns="http://www.w3.org/2000/svg" xmlns:xlink="http://www.w3.org/1999/xlink" x="0px" y="0px"
	 viewBox="0 0 481.1 100" style="enable-background:new 0 0 481.1 100;" xml:space="preserve">
<style type="text/css">
	.st0{fill:url(#SVGID_1_);}
	.st1{fill:url(#SVGID_2_);}
	.st2{fill:url(#SVGID_3_);}
	.st3{fill:url(#SVGID_4_);}
	.st4{fill:url(#SVGID_5_);}
	.st5{fill:url(#SVGID_6_);}
	.st6{fill:url(#SVGID_7_);}
	.st7{fill:url(#SVGID_8_);}
	.st8{fill:url(#SVGID_9_);}
	.st9{fill:url(#SVGID_10_);}
</style>
<g>
	<g>
		
			<linearGradient id="SVGID_1_" gradientUnits="userSpaceOnUse" x1="8.6568" y1="39.68" x2="452.2505" y2="39.68" gradientTransform="matrix(1 0 0 -1 0 101.28)">
			<stop  offset="0" style="stop-color:#6C55A0"/>
			<stop  offset="1" style="stop-color:#4D6EB2"/>
		</linearGradient>
		<path class="st0" d="M26.8,78.7c-4.6,0-7.9-0.8-10.9-1.8v18.4L0,97.7V26.6h14l1.1,6.8c3.6-4,8.2-7.9,14.9-7.9
			c10.7,0,18.6,8,18.6,25.5C48.6,70.6,38.2,78.7,26.8,78.7z M24.8,39.8c-3.5,0-6.2,2.1-8.9,5.3v19.6c2.2,1.1,4,1.6,7.3,1.6
			c5.4,0,9.4-4.1,9.4-14.1C32.6,43.5,29.4,39.8,24.8,39.8z"/>
		
			<linearGradient id="SVGID_2_" gradientUnits="userSpaceOnUse" x1="8.6568" y1="61.08" x2="452.2505" y2="61.08" gradientTransform="matrix(1 0 0 -1 0 101.28)">
			<stop  offset="0" style="stop-color:#6C55A0"/>
			<stop  offset="1" style="stop-color:#4D6EB2"/>
		</linearGradient>
		<path class="st1" d="M57.8,78.2V4.7l16-2.5v76H57.8z"/>
		
			<linearGradient id="SVGID_3_" gradientUnits="userSpaceOnUse" x1="8.6568" y1="48.68" x2="452.2505" y2="48.68" gradientTransform="matrix(1 0 0 -1 0 101.28)">
			<stop  offset="0" style="stop-color:#6C55A0"/>
			<stop  offset="1" style="stop-color:#4D6EB2"/>
		</linearGradient>
		<path class="st2" d="M113.9,78.2l-1.1-6.4c-4.2,4.4-9.2,7.5-16.3,7.5c-8.2,0-14-4.9-14-14.3c0-12.1,9.3-17.8,29.6-19.6v-0.9
			c0-4.5-2.5-6.5-7.8-6.5c-5.8,0-11.2,1.5-16.7,3.9l-1.9-12c5.9-2.4,12.6-4,21-4c14.3,0,21.3,4.7,21.3,17.9v34.5L113.9,78.2
			L113.9,78.2z M112.1,53.1c-10.9,1.7-13.8,5.3-13.8,9.8c0,3.3,2,5.1,5,5.1c3.1,0,6-1.4,8.9-3.9L112.1,53.1L112.1,53.1z"/>
		
			<linearGradient id="SVGID_4_" gradientUnits="userSpaceOnUse" x1="8.6568" y1="48.78" x2="452.2505" y2="48.78" gradientTransform="matrix(1 0 0 -1 0 101.28)">
			<stop  offset="0" style="stop-color:#6C55A0"/>
			<stop  offset="1" style="stop-color:#4D6EB2"/>
		</linearGradient>
		<path class="st3" d="M161.1,79.2c-14.9,0-25-9.7-25-26.3c0-18.2,11.6-27.1,25.7-27.1c6.2,0,11.2,1.5,15.4,3.9l-2.1,13.6
			c-4.1-2.6-7.5-3.8-11.7-3.8c-6.4,0-11.1,4.3-11.1,13c0,8.8,5.2,13.2,11.6,13.2c3.8,0,7.4-1.2,11.8-4l1.9,13
			C172.4,77.7,167.2,79.2,161.1,79.2z"/>
		
			<linearGradient id="SVGID_5_" gradientUnits="userSpaceOnUse" x1="8.6568" y1="48.83" x2="452.2505" y2="48.83" gradientTransform="matrix(1 0 0 -1 0 101.28)">
			<stop  offset="0" style="stop-color:#6C55A0"/>
			<stop  offset="1" style="stop-color:#4D6EB2"/>
		</linearGradient>
		<path class="st4" d="M229.7,56.4h-31c0.8,8.1,5.7,11.3,12.7,11.3c5.7,0,11.3-2.1,17-5.4l1.6,11.2c-5.6,3.6-12.5,5.8-20.6,5.8
			c-15.5,0-26.6-8.2-26.6-26.6c0-16.8,10.3-27.1,24.4-27.1c15.8,0,22.9,11.8,22.9,26.7C230.1,53.9,230,55.6,229.7,56.4z M206.7,35.9
			c-4.4,0-7.6,3.9-8.1,11.8h16.3C214.3,39.9,211.6,35.9,206.7,35.9z"/>
		
			<linearGradient id="SVGID_6_" gradientUnits="userSpaceOnUse" x1="8.6568" y1="48.68" x2="452.2505" y2="48.68" gradientTransform="matrix(1 0 0 -1 0 101.28)">
			<stop  offset="0" style="stop-color:#6C55A0"/>
			<stop  offset="1" style="stop-color:#4D6EB2"/>
		</linearGradient>
		<path class="st5" d="M267.4,78.2l-1.1-6.4c-4.2,4.4-9.2,7.5-16.3,7.5c-8.2,0-14-4.9-14-14.3c0-12.1,9.3-17.8,29.6-19.6v-0.9
			c0-4.5-2.5-6.5-7.8-6.5c-5.8,0-11.2,1.5-16.7,3.9l-1.9-12c5.9-2.4,12.6-4,21-4c14.3,0,21.3,4.7,21.3,17.9v34.5L267.4,78.2
			L267.4,78.2z M265.6,53.1c-10.9,1.7-13.8,5.3-13.8,9.8c0,3.3,2,5.1,5,5.1c3.1,0,6-1.4,8.9-3.9v-11H265.6z"/>
		
			<linearGradient id="SVGID_7_" gradientUnits="userSpaceOnUse" x1="8.6568" y1="49.13" x2="452.2505" y2="49.13" gradientTransform="matrix(1 0 0 -1 0 101.28)">
			<stop  offset="0" style="stop-color:#6C55A0"/>
			<stop  offset="1" style="stop-color:#4D6EB2"/>
		</linearGradient>
		<path class="st6" d="M320,78.4h-15.9l-17.6-50.5l17.1-2l9.6,32.6l9.4-31.9h15.5L320,78.4z"/>
		
			<linearGradient id="SVGID_8_" gradientUnits="userSpaceOnUse" x1="8.6568" y1="48.83" x2="452.2505" y2="48.83" gradientTransform="matrix(1 0 0 -1 0 101.28)">
			<stop  offset="0" style="stop-color:#6C55A0"/>
			<stop  offset="1" style="stop-color:#4D6EB2"/>
		</linearGradient>
		<path class="st7" d="M364.9,79.3c-14.3,0-24.7-10.2-24.7-26.7s10.6-27,24.8-27c14.4,0,24.9,10.3,24.9,26.9S379.3,79.3,364.9,79.3z
			 M365,38.6c-6.1,0-9.4,5.4-9.4,13.8c0,8.3,3.4,14,9.4,14c6.1,0,9.5-5.6,9.5-13.9S371.1,38.6,365,38.6z"/>
		
			<linearGradient id="SVGID_9_" gradientUnits="userSpaceOnUse" x1="8.6568" y1="57.38" x2="452.2505" y2="57.38" gradientTransform="matrix(1 0 0 -1 0 101.28)">
			<stop  offset="0" style="stop-color:#6C55A0"/>
			<stop  offset="1" style="stop-color:#4D6EB2"/>
		</linearGradient>
		<path class="st8" d="M420,79c-11.1,0-18.8-4-18.8-17.2V39.6h-6.9v-13h6.9V11.2L417,8.8v17.8h9.8l2,13H417v19.7
			c0,4.2,2,6.1,6.3,6.1c1.4,0,2.6-0.2,3.8-0.5l2,13.1C426.7,78.6,424.2,79,420,79z"/>
		
			<linearGradient id="SVGID_10_" gradientUnits="userSpaceOnUse" x1="8.6568" y1="48.83" x2="452.2505" y2="48.83" gradientTransform="matrix(1 0 0 -1 0 101.28)">
			<stop  offset="0" style="stop-color:#6C55A0"/>
			<stop  offset="1" style="stop-color:#4D6EB2"/>
		</linearGradient>
		<path class="st9" d="M480.7,56.4h-31c0.8,8.1,5.7,11.3,12.7,11.3c5.7,0,11.3-2.1,17-5.4l1.6,11.2c-5.6,3.6-12.5,5.8-20.6,5.8
			c-15.5,0-26.6-8.2-26.6-26.6c0-16.8,10.3-27.1,24.4-27.1c15.8,0,22.9,11.8,22.9,26.7C481,53.9,480.9,55.6,480.7,56.4z M457.7,35.9
			c-4.4,0-7.6,3.9-8.1,11.8h16.3C465.3,39.9,462.6,35.9,457.7,35.9z"/>
	</g>
</g>
</svg>
