<svg xmlns="http://www.w3.org/2000/svg" viewBox="0 0 600 600"><linearGradient id="a" gradientUnits="userSpaceOnUse" x1="230.062" y1="72.402" x2="371.938" y2="72.402"><stop offset="0" stop-color="#4c3593"/><stop offset="1" stop-color="#90278e"/></linearGradient><path fill="url(#a)" d="M230.1 72.4l70.9 70.9 70.9-70.9L301 1.5z"/><linearGradient id="b" gradientUnits="userSpaceOnUse" x1="456.661" y1="299.999" x2="598.538" y2="299.999"><stop offset="0" stop-color="#4c3593"/><stop offset="1" stop-color="#90278e"/></linearGradient><path fill="url(#b)" d="M456.7 300l70.9 70.9 70.9-70.9-70.9-70.9z"/><linearGradient id="c" gradientUnits="userSpaceOnUse" x1="230.062" y1="527.598" x2="371.938" y2="527.598"><stop offset="0" stop-color="#4c3593"/><stop offset="1" stop-color="#90278e"/></linearGradient><path fill="url(#c)" d="M230.1 527.6l70.9 70.9 70.9-70.9-70.9-70.9z"/><linearGradient id="d" gradientUnits="userSpaceOnUse" x1="1.462" y1="299.999" x2="143.339" y2="299.999"><stop offset="0" stop-color="#4c3593"/><stop offset="1" stop-color="#90278e"/></linearGradient><path fill="url(#d)" d="M1.5 300l70.9 70.9 70.9-70.9-70.9-70.9z"/><linearGradient id="e" gradientUnits="userSpaceOnUse" x1="16.22" y1="150.729" x2="285.242" y2="150.729"><stop offset="0" stop-color="#6c55a0"/><stop offset="1" stop-color="#4d6eb2"/></linearGradient><path fill="url(#e)" d="M16.2 150.7l134.5 134.5 134.5-134.5L150.7 16.2 16.2 150.7zm156.9-14.9l-37.3 37.3-7.5-7.5 37.3-37.3 7.5 7.5z"/><linearGradient id="f" gradientUnits="userSpaceOnUse" x1="16.22" y1="449.266" x2="285.242" y2="449.266"><stop offset="0" stop-color="#6c55a0"/><stop offset="1" stop-color="#4d6eb2"/></linearGradient><path fill="url(#f)" d="M16.2 449.3l134.5 134.5 134.5-134.5-134.5-134.5L16.2 449.3zm149.5 22.4l-37.3-37.3 7.5-7.5 37.3 37.3-7.5 7.5z"/><linearGradient id="g" gradientUnits="userSpaceOnUse" x1="314.756" y1="150.729" x2="583.781" y2="150.729"><stop offset="0" stop-color="#6c55a0"/><stop offset="1" stop-color="#4d6eb2"/></linearGradient><path fill="url(#g)" d="M449.3 285.2l134.5-134.5L449.3 16.2 314.8 150.7l134.5 134.5zm22.4-119.5l-7.5 7.5-37.3-37.3 7.5-7.5 37.3 37.3z"/><linearGradient id="h" gradientUnits="userSpaceOnUse" x1="314.757" y1="449.268" x2="583.78" y2="449.268"><stop offset="0" stop-color="#6c55a0"/><stop offset="1" stop-color="#4d6eb2"/></linearGradient><path fill="url(#h)" d="M314.8 449.3l134.5 134.5 134.5-134.5-134.5-134.5-134.5 134.5zm156.9-15l-37.3 37.3-7.5-7.5 37.3-37.3 7.5 7.5z"/></svg>