<svg id="Layer_1" xmlns="http://www.w3.org/2000/svg" viewBox="0 0 75 75"><style>.st0{fill-rule:evenodd;clip-rule:evenodd;fill:#FFFFFF;}</style><path class="st0" d="M62.8 42.4c-1.8 0-3.4 1.1-4.1 2.6h-7.5l-4.9-12.9c-.4-.9-1.3-1.5-2.2-1.4-1 .1-1.8.8-2 1.7l-3.2 14.2-3-32.6c-.1-1-.9-1.9-2-2-1.1-.1-2 .5-2.4 1.6L22 44.8H9.8c-1.2 0-2.2 1-2.2 2.2 0 1.2 1 2.2 2.2 2.2h13.8c1 0 1.9-.7 2.2-1.6L32.3 26l3.2 35.1c.1 1.1 1 1.9 2.1 2h.1c1 0 1.9-.8 2.2-1.7l4.6-20.7 2.8 7.4c.3.9 1.1 1.4 2.1 1.4h8.9c.1 0 .2-.1.4-.1.8 1.3 2.2 2.1 3.8 2.1 2.6 0 4.6-2 4.6-4.6.2-2.5-1.9-4.5-4.3-4.5z"/></svg>