<svg id="Layer_1" xmlns="http://www.w3.org/2000/svg" viewBox="0 0 600 600"><style>.st0{fill:#FFFFFF;}</style><path class="st0" d="M229.1 72.4l70.9 70.9 70.9-70.9L300 1.5zM456.7 300l70.9 70.9 70.9-70.9-70.9-70.9zM232.1 527.6l71 70.9 70.9-70.9-70.9-70.9zM1.5 300l70.9 70.9 70.9-70.9-70.9-70.9zM16.2 150.7l134.5 134.5 134.5-134.5L150.7 16.2 16.2 150.7zm156.9-14.9l-37.3 37.3-7.5-7.5 37.3-37.3 7.5 7.5zM16.2 449.3l134.5 134.5 134.5-134.5-134.5-134.5L16.2 449.3zm149.5 22.4l-37.3-37.3 7.5-7.5 37.3 37.3-7.5 7.5zM449.3 285.2l134.5-134.5L449.3 16.2 314.8 150.7l134.5 134.5zm22.4-119.5l-7.5 7.5-37.3-37.3 7.5-7.5 37.3 37.3zM314.8 449.3l134.5 134.5 134.5-134.5-134.5-134.5-134.5 134.5zm156.9-15l-37.3 37.3-7.5-7.5 37.3-37.3 7.5 7.5z"/></svg>